G04 #@! TF.GenerationSoftware,KiCad,Pcbnew,(5.1.5)-3*
G04 #@! TF.CreationDate,2020-01-16T23:09:46-05:00*
G04 #@! TF.ProjectId,V-Naught_Display,562d4e61-7567-4687-945f-446973706c61,rev?*
G04 #@! TF.SameCoordinates,Original*
G04 #@! TF.FileFunction,Soldermask,Bot*
G04 #@! TF.FilePolarity,Negative*
%FSLAX46Y46*%
G04 Gerber Fmt 4.6, Leading zero omitted, Abs format (unit mm)*
G04 Created by KiCad (PCBNEW (5.1.5)-3) date 2020-01-16 23:09:46*
%MOMM*%
%LPD*%
G04 APERTURE LIST*
%ADD10C,0.100000*%
G04 APERTURE END LIST*
D10*
G36*
X161545256Y-79041298D02*
G01*
X161651579Y-79062447D01*
X161952042Y-79186903D01*
X162222451Y-79367585D01*
X162452415Y-79597549D01*
X162556629Y-79753516D01*
X162633098Y-79867960D01*
X162757553Y-80168422D01*
X162817933Y-80471968D01*
X162821000Y-80487391D01*
X162821000Y-80812609D01*
X162757553Y-81131579D01*
X162633097Y-81432042D01*
X162452415Y-81702451D01*
X162222451Y-81932415D01*
X161952042Y-82113097D01*
X161651579Y-82237553D01*
X161545256Y-82258702D01*
X161332611Y-82301000D01*
X161007389Y-82301000D01*
X160794744Y-82258702D01*
X160688421Y-82237553D01*
X160387958Y-82113097D01*
X160117549Y-81932415D01*
X159887585Y-81702451D01*
X159706903Y-81432042D01*
X159582447Y-81131579D01*
X159519000Y-80812609D01*
X159519000Y-80487391D01*
X159522068Y-80471968D01*
X159582447Y-80168422D01*
X159706902Y-79867960D01*
X159783371Y-79753516D01*
X159887585Y-79597549D01*
X160117549Y-79367585D01*
X160387958Y-79186903D01*
X160688421Y-79062447D01*
X160794744Y-79041298D01*
X161007389Y-78999000D01*
X161332611Y-78999000D01*
X161545256Y-79041298D01*
G37*
G36*
X99545256Y-79041298D02*
G01*
X99651579Y-79062447D01*
X99952042Y-79186903D01*
X100222451Y-79367585D01*
X100452415Y-79597549D01*
X100556629Y-79753516D01*
X100633098Y-79867960D01*
X100757553Y-80168422D01*
X100817933Y-80471968D01*
X100821000Y-80487391D01*
X100821000Y-80812609D01*
X100757553Y-81131579D01*
X100633097Y-81432042D01*
X100452415Y-81702451D01*
X100222451Y-81932415D01*
X99952042Y-82113097D01*
X99651579Y-82237553D01*
X99545256Y-82258702D01*
X99332611Y-82301000D01*
X99007389Y-82301000D01*
X98794744Y-82258702D01*
X98688421Y-82237553D01*
X98387958Y-82113097D01*
X98117549Y-81932415D01*
X97887585Y-81702451D01*
X97706903Y-81432042D01*
X97582447Y-81131579D01*
X97519000Y-80812609D01*
X97519000Y-80487391D01*
X97522068Y-80471968D01*
X97582447Y-80168422D01*
X97706902Y-79867960D01*
X97783371Y-79753516D01*
X97887585Y-79597549D01*
X98117549Y-79367585D01*
X98387958Y-79186903D01*
X98688421Y-79062447D01*
X98794744Y-79041298D01*
X99007389Y-78999000D01*
X99332611Y-78999000D01*
X99545256Y-79041298D01*
G37*
G36*
X145476564Y-78639389D02*
G01*
X145666645Y-78718123D01*
X145667835Y-78718616D01*
X145839973Y-78833635D01*
X145986365Y-78980027D01*
X146101385Y-79152167D01*
X146180611Y-79343436D01*
X146221000Y-79546484D01*
X146221000Y-79753516D01*
X146180611Y-79956564D01*
X146101385Y-80147833D01*
X146101384Y-80147835D01*
X145986365Y-80319973D01*
X145839973Y-80466365D01*
X145667835Y-80581384D01*
X145667834Y-80581385D01*
X145667833Y-80581385D01*
X145476564Y-80660611D01*
X145273516Y-80701000D01*
X145066484Y-80701000D01*
X144863436Y-80660611D01*
X144672167Y-80581385D01*
X144672166Y-80581385D01*
X144672165Y-80581384D01*
X144500027Y-80466365D01*
X144353635Y-80319973D01*
X144238616Y-80147835D01*
X144238615Y-80147833D01*
X144159389Y-79956564D01*
X144119000Y-79753516D01*
X144119000Y-79546484D01*
X144159389Y-79343436D01*
X144238615Y-79152167D01*
X144353635Y-78980027D01*
X144500027Y-78833635D01*
X144672165Y-78718616D01*
X144673355Y-78718123D01*
X144863436Y-78639389D01*
X145066484Y-78599000D01*
X145273516Y-78599000D01*
X145476564Y-78639389D01*
G37*
G36*
X151976564Y-78639389D02*
G01*
X152166645Y-78718123D01*
X152167835Y-78718616D01*
X152339973Y-78833635D01*
X152486365Y-78980027D01*
X152601385Y-79152167D01*
X152680611Y-79343436D01*
X152721000Y-79546484D01*
X152721000Y-79753516D01*
X152680611Y-79956564D01*
X152601385Y-80147833D01*
X152601384Y-80147835D01*
X152486365Y-80319973D01*
X152339973Y-80466365D01*
X152167835Y-80581384D01*
X152167834Y-80581385D01*
X152167833Y-80581385D01*
X151976564Y-80660611D01*
X151773516Y-80701000D01*
X151566484Y-80701000D01*
X151363436Y-80660611D01*
X151172167Y-80581385D01*
X151172166Y-80581385D01*
X151172165Y-80581384D01*
X151000027Y-80466365D01*
X150853635Y-80319973D01*
X150738616Y-80147835D01*
X150738615Y-80147833D01*
X150659389Y-79956564D01*
X150619000Y-79753516D01*
X150619000Y-79546484D01*
X150659389Y-79343436D01*
X150738615Y-79152167D01*
X150853635Y-78980027D01*
X151000027Y-78833635D01*
X151172165Y-78718616D01*
X151173355Y-78718123D01*
X151363436Y-78639389D01*
X151566484Y-78599000D01*
X151773516Y-78599000D01*
X151976564Y-78639389D01*
G37*
G36*
X116074468Y-79566065D02*
G01*
X116113138Y-79577796D01*
X116148777Y-79596846D01*
X116180017Y-79622483D01*
X116205654Y-79653723D01*
X116224704Y-79689362D01*
X116236435Y-79728032D01*
X116241000Y-79774388D01*
X116241000Y-80425612D01*
X116236435Y-80471968D01*
X116224704Y-80510638D01*
X116205654Y-80546277D01*
X116180017Y-80577517D01*
X116148777Y-80603154D01*
X116113138Y-80622204D01*
X116074468Y-80633935D01*
X116028112Y-80638500D01*
X114951888Y-80638500D01*
X114905532Y-80633935D01*
X114866862Y-80622204D01*
X114831223Y-80603154D01*
X114799983Y-80577517D01*
X114774346Y-80546277D01*
X114755296Y-80510638D01*
X114743565Y-80471968D01*
X114739000Y-80425612D01*
X114739000Y-79774388D01*
X114743565Y-79728032D01*
X114755296Y-79689362D01*
X114774346Y-79653723D01*
X114799983Y-79622483D01*
X114831223Y-79596846D01*
X114866862Y-79577796D01*
X114905532Y-79566065D01*
X114951888Y-79561500D01*
X116028112Y-79561500D01*
X116074468Y-79566065D01*
G37*
G36*
X118614468Y-79566065D02*
G01*
X118653138Y-79577796D01*
X118688777Y-79596846D01*
X118720017Y-79622483D01*
X118745654Y-79653723D01*
X118764704Y-79689362D01*
X118776435Y-79728032D01*
X118781000Y-79774388D01*
X118781000Y-80425612D01*
X118776435Y-80471968D01*
X118764704Y-80510638D01*
X118745654Y-80546277D01*
X118720017Y-80577517D01*
X118688777Y-80603154D01*
X118653138Y-80622204D01*
X118614468Y-80633935D01*
X118568112Y-80638500D01*
X117491888Y-80638500D01*
X117445532Y-80633935D01*
X117406862Y-80622204D01*
X117371223Y-80603154D01*
X117339983Y-80577517D01*
X117314346Y-80546277D01*
X117295296Y-80510638D01*
X117283565Y-80471968D01*
X117279000Y-80425612D01*
X117279000Y-79774388D01*
X117283565Y-79728032D01*
X117295296Y-79689362D01*
X117314346Y-79653723D01*
X117339983Y-79622483D01*
X117371223Y-79596846D01*
X117406862Y-79577796D01*
X117445532Y-79566065D01*
X117491888Y-79561500D01*
X118568112Y-79561500D01*
X118614468Y-79566065D01*
G37*
G36*
X116074468Y-77691065D02*
G01*
X116113138Y-77702796D01*
X116148777Y-77721846D01*
X116180017Y-77747483D01*
X116205654Y-77778723D01*
X116224704Y-77814362D01*
X116236435Y-77853032D01*
X116241000Y-77899388D01*
X116241000Y-78550612D01*
X116236435Y-78596968D01*
X116224704Y-78635638D01*
X116205654Y-78671277D01*
X116180017Y-78702517D01*
X116148777Y-78728154D01*
X116113138Y-78747204D01*
X116074468Y-78758935D01*
X116028112Y-78763500D01*
X114951888Y-78763500D01*
X114905532Y-78758935D01*
X114866862Y-78747204D01*
X114831223Y-78728154D01*
X114799983Y-78702517D01*
X114774346Y-78671277D01*
X114755296Y-78635638D01*
X114743565Y-78596968D01*
X114739000Y-78550612D01*
X114739000Y-77899388D01*
X114743565Y-77853032D01*
X114755296Y-77814362D01*
X114774346Y-77778723D01*
X114799983Y-77747483D01*
X114831223Y-77721846D01*
X114866862Y-77702796D01*
X114905532Y-77691065D01*
X114951888Y-77686500D01*
X116028112Y-77686500D01*
X116074468Y-77691065D01*
G37*
G36*
X118614468Y-77691065D02*
G01*
X118653138Y-77702796D01*
X118688777Y-77721846D01*
X118720017Y-77747483D01*
X118745654Y-77778723D01*
X118764704Y-77814362D01*
X118776435Y-77853032D01*
X118781000Y-77899388D01*
X118781000Y-78550612D01*
X118776435Y-78596968D01*
X118764704Y-78635638D01*
X118745654Y-78671277D01*
X118720017Y-78702517D01*
X118688777Y-78728154D01*
X118653138Y-78747204D01*
X118614468Y-78758935D01*
X118568112Y-78763500D01*
X117491888Y-78763500D01*
X117445532Y-78758935D01*
X117406862Y-78747204D01*
X117371223Y-78728154D01*
X117339983Y-78702517D01*
X117314346Y-78671277D01*
X117295296Y-78635638D01*
X117283565Y-78596968D01*
X117279000Y-78550612D01*
X117279000Y-77899388D01*
X117283565Y-77853032D01*
X117295296Y-77814362D01*
X117314346Y-77778723D01*
X117339983Y-77747483D01*
X117371223Y-77721846D01*
X117406862Y-77702796D01*
X117445532Y-77691065D01*
X117491888Y-77686500D01*
X118568112Y-77686500D01*
X118614468Y-77691065D01*
G37*
G36*
X122781564Y-76634389D02*
G01*
X122972833Y-76713615D01*
X122972835Y-76713616D01*
X123144973Y-76828635D01*
X123291365Y-76975027D01*
X123406385Y-77147167D01*
X123485611Y-77338436D01*
X123526000Y-77541484D01*
X123526000Y-77748516D01*
X123485611Y-77951564D01*
X123483877Y-77955750D01*
X123406384Y-78142835D01*
X123291365Y-78314973D01*
X123144973Y-78461365D01*
X122972835Y-78576384D01*
X122972834Y-78576385D01*
X122972833Y-78576385D01*
X122781564Y-78655611D01*
X122578516Y-78696000D01*
X122371484Y-78696000D01*
X122168436Y-78655611D01*
X121977167Y-78576385D01*
X121977166Y-78576385D01*
X121977165Y-78576384D01*
X121805027Y-78461365D01*
X121658635Y-78314973D01*
X121543616Y-78142835D01*
X121466123Y-77955750D01*
X121464389Y-77951564D01*
X121424000Y-77748516D01*
X121424000Y-77541484D01*
X121464389Y-77338436D01*
X121543615Y-77147167D01*
X121658635Y-76975027D01*
X121805027Y-76828635D01*
X121977165Y-76713616D01*
X121977167Y-76713615D01*
X122168436Y-76634389D01*
X122371484Y-76594000D01*
X122578516Y-76594000D01*
X122781564Y-76634389D01*
G37*
G36*
X129281564Y-76634389D02*
G01*
X129472833Y-76713615D01*
X129472835Y-76713616D01*
X129644973Y-76828635D01*
X129791365Y-76975027D01*
X129906385Y-77147167D01*
X129985611Y-77338436D01*
X130026000Y-77541484D01*
X130026000Y-77748516D01*
X129985611Y-77951564D01*
X129983877Y-77955750D01*
X129906384Y-78142835D01*
X129791365Y-78314973D01*
X129644973Y-78461365D01*
X129472835Y-78576384D01*
X129472834Y-78576385D01*
X129472833Y-78576385D01*
X129281564Y-78655611D01*
X129078516Y-78696000D01*
X128871484Y-78696000D01*
X128668436Y-78655611D01*
X128477167Y-78576385D01*
X128477166Y-78576385D01*
X128477165Y-78576384D01*
X128305027Y-78461365D01*
X128158635Y-78314973D01*
X128043616Y-78142835D01*
X127966123Y-77955750D01*
X127964389Y-77951564D01*
X127924000Y-77748516D01*
X127924000Y-77541484D01*
X127964389Y-77338436D01*
X128043615Y-77147167D01*
X128158635Y-76975027D01*
X128305027Y-76828635D01*
X128477165Y-76713616D01*
X128477167Y-76713615D01*
X128668436Y-76634389D01*
X128871484Y-76594000D01*
X129078516Y-76594000D01*
X129281564Y-76634389D01*
G37*
G36*
X151976564Y-74139389D02*
G01*
X152083359Y-74183625D01*
X152167835Y-74218616D01*
X152217115Y-74251544D01*
X152339973Y-74333635D01*
X152486365Y-74480027D01*
X152601385Y-74652167D01*
X152680611Y-74843436D01*
X152721000Y-75046484D01*
X152721000Y-75253516D01*
X152680611Y-75456564D01*
X152611110Y-75624354D01*
X152601384Y-75647835D01*
X152486365Y-75819973D01*
X152339973Y-75966365D01*
X152167835Y-76081384D01*
X152167834Y-76081385D01*
X152167833Y-76081385D01*
X151976564Y-76160611D01*
X151773516Y-76201000D01*
X151566484Y-76201000D01*
X151363436Y-76160611D01*
X151172167Y-76081385D01*
X151172166Y-76081385D01*
X151172165Y-76081384D01*
X151000027Y-75966365D01*
X150853635Y-75819973D01*
X150738616Y-75647835D01*
X150728890Y-75624354D01*
X150659389Y-75456564D01*
X150619000Y-75253516D01*
X150619000Y-75046484D01*
X150659389Y-74843436D01*
X150738615Y-74652167D01*
X150853635Y-74480027D01*
X151000027Y-74333635D01*
X151122885Y-74251544D01*
X151172165Y-74218616D01*
X151256641Y-74183625D01*
X151363436Y-74139389D01*
X151566484Y-74099000D01*
X151773516Y-74099000D01*
X151976564Y-74139389D01*
G37*
G36*
X145476564Y-74139389D02*
G01*
X145583359Y-74183625D01*
X145667835Y-74218616D01*
X145717115Y-74251544D01*
X145839973Y-74333635D01*
X145986365Y-74480027D01*
X146101385Y-74652167D01*
X146180611Y-74843436D01*
X146221000Y-75046484D01*
X146221000Y-75253516D01*
X146180611Y-75456564D01*
X146111110Y-75624354D01*
X146101384Y-75647835D01*
X145986365Y-75819973D01*
X145839973Y-75966365D01*
X145667835Y-76081384D01*
X145667834Y-76081385D01*
X145667833Y-76081385D01*
X145476564Y-76160611D01*
X145273516Y-76201000D01*
X145066484Y-76201000D01*
X144863436Y-76160611D01*
X144672167Y-76081385D01*
X144672166Y-76081385D01*
X144672165Y-76081384D01*
X144500027Y-75966365D01*
X144353635Y-75819973D01*
X144238616Y-75647835D01*
X144228890Y-75624354D01*
X144159389Y-75456564D01*
X144119000Y-75253516D01*
X144119000Y-75046484D01*
X144159389Y-74843436D01*
X144238615Y-74652167D01*
X144353635Y-74480027D01*
X144500027Y-74333635D01*
X144622885Y-74251544D01*
X144672165Y-74218616D01*
X144756641Y-74183625D01*
X144863436Y-74139389D01*
X145066484Y-74099000D01*
X145273516Y-74099000D01*
X145476564Y-74139389D01*
G37*
G36*
X115603512Y-74153927D02*
G01*
X115752812Y-74183624D01*
X115916784Y-74251544D01*
X116064354Y-74350147D01*
X116189853Y-74475646D01*
X116288456Y-74623216D01*
X116356376Y-74787188D01*
X116391000Y-74961259D01*
X116391000Y-75138741D01*
X116356376Y-75312812D01*
X116288456Y-75476784D01*
X116189853Y-75624354D01*
X116064354Y-75749853D01*
X115916784Y-75848456D01*
X115752812Y-75916376D01*
X115603512Y-75946073D01*
X115578742Y-75951000D01*
X115401258Y-75951000D01*
X115376488Y-75946073D01*
X115227188Y-75916376D01*
X115063216Y-75848456D01*
X114915646Y-75749853D01*
X114790147Y-75624354D01*
X114691544Y-75476784D01*
X114623624Y-75312812D01*
X114589000Y-75138741D01*
X114589000Y-74961259D01*
X114623624Y-74787188D01*
X114691544Y-74623216D01*
X114790147Y-74475646D01*
X114915646Y-74350147D01*
X115063216Y-74251544D01*
X115227188Y-74183624D01*
X115376488Y-74153927D01*
X115401258Y-74149000D01*
X115578742Y-74149000D01*
X115603512Y-74153927D01*
G37*
G36*
X113851000Y-75951000D02*
G01*
X112049000Y-75951000D01*
X112049000Y-74149000D01*
X113851000Y-74149000D01*
X113851000Y-75951000D01*
G37*
G36*
X118143512Y-74153927D02*
G01*
X118292812Y-74183624D01*
X118456784Y-74251544D01*
X118604354Y-74350147D01*
X118729853Y-74475646D01*
X118828456Y-74623216D01*
X118896376Y-74787188D01*
X118931000Y-74961259D01*
X118931000Y-75138741D01*
X118896376Y-75312812D01*
X118828456Y-75476784D01*
X118729853Y-75624354D01*
X118604354Y-75749853D01*
X118456784Y-75848456D01*
X118292812Y-75916376D01*
X118143512Y-75946073D01*
X118118742Y-75951000D01*
X117941258Y-75951000D01*
X117916488Y-75946073D01*
X117767188Y-75916376D01*
X117603216Y-75848456D01*
X117455646Y-75749853D01*
X117330147Y-75624354D01*
X117231544Y-75476784D01*
X117163624Y-75312812D01*
X117129000Y-75138741D01*
X117129000Y-74961259D01*
X117163624Y-74787188D01*
X117231544Y-74623216D01*
X117330147Y-74475646D01*
X117455646Y-74350147D01*
X117603216Y-74251544D01*
X117767188Y-74183624D01*
X117916488Y-74153927D01*
X117941258Y-74149000D01*
X118118742Y-74149000D01*
X118143512Y-74153927D01*
G37*
G36*
X129281564Y-72134389D02*
G01*
X129472833Y-72213615D01*
X129472835Y-72213616D01*
X129644973Y-72328635D01*
X129791365Y-72475027D01*
X129906385Y-72647167D01*
X129985611Y-72838436D01*
X130026000Y-73041484D01*
X130026000Y-73248516D01*
X129985611Y-73451564D01*
X129906385Y-73642833D01*
X129906384Y-73642835D01*
X129791365Y-73814973D01*
X129644973Y-73961365D01*
X129472835Y-74076384D01*
X129472834Y-74076385D01*
X129472833Y-74076385D01*
X129281564Y-74155611D01*
X129078516Y-74196000D01*
X128871484Y-74196000D01*
X128668436Y-74155611D01*
X128477167Y-74076385D01*
X128477166Y-74076385D01*
X128477165Y-74076384D01*
X128305027Y-73961365D01*
X128158635Y-73814973D01*
X128043616Y-73642835D01*
X128043615Y-73642833D01*
X127964389Y-73451564D01*
X127924000Y-73248516D01*
X127924000Y-73041484D01*
X127964389Y-72838436D01*
X128043615Y-72647167D01*
X128158635Y-72475027D01*
X128305027Y-72328635D01*
X128477165Y-72213616D01*
X128477167Y-72213615D01*
X128668436Y-72134389D01*
X128871484Y-72094000D01*
X129078516Y-72094000D01*
X129281564Y-72134389D01*
G37*
G36*
X122781564Y-72134389D02*
G01*
X122972833Y-72213615D01*
X122972835Y-72213616D01*
X123144973Y-72328635D01*
X123291365Y-72475027D01*
X123406385Y-72647167D01*
X123485611Y-72838436D01*
X123526000Y-73041484D01*
X123526000Y-73248516D01*
X123485611Y-73451564D01*
X123406385Y-73642833D01*
X123406384Y-73642835D01*
X123291365Y-73814973D01*
X123144973Y-73961365D01*
X122972835Y-74076384D01*
X122972834Y-74076385D01*
X122972833Y-74076385D01*
X122781564Y-74155611D01*
X122578516Y-74196000D01*
X122371484Y-74196000D01*
X122168436Y-74155611D01*
X121977167Y-74076385D01*
X121977166Y-74076385D01*
X121977165Y-74076384D01*
X121805027Y-73961365D01*
X121658635Y-73814973D01*
X121543616Y-73642835D01*
X121543615Y-73642833D01*
X121464389Y-73451564D01*
X121424000Y-73248516D01*
X121424000Y-73041484D01*
X121464389Y-72838436D01*
X121543615Y-72647167D01*
X121658635Y-72475027D01*
X121805027Y-72328635D01*
X121977165Y-72213616D01*
X121977167Y-72213615D01*
X122168436Y-72134389D01*
X122371484Y-72094000D01*
X122578516Y-72094000D01*
X122781564Y-72134389D01*
G37*
G36*
X140976564Y-69639389D02*
G01*
X141167833Y-69718615D01*
X141167835Y-69718616D01*
X141258947Y-69779495D01*
X141339973Y-69833635D01*
X141486365Y-69980027D01*
X141601385Y-70152167D01*
X141680611Y-70343436D01*
X141721000Y-70546484D01*
X141721000Y-70753516D01*
X141680611Y-70956564D01*
X141601385Y-71147833D01*
X141601384Y-71147835D01*
X141486365Y-71319973D01*
X141339973Y-71466365D01*
X141167835Y-71581384D01*
X141167834Y-71581385D01*
X141167833Y-71581385D01*
X140976564Y-71660611D01*
X140773516Y-71701000D01*
X140566484Y-71701000D01*
X140363436Y-71660611D01*
X140172167Y-71581385D01*
X140172166Y-71581385D01*
X140172165Y-71581384D01*
X140000027Y-71466365D01*
X139853635Y-71319973D01*
X139738616Y-71147835D01*
X139738615Y-71147833D01*
X139659389Y-70956564D01*
X139619000Y-70753516D01*
X139619000Y-70546484D01*
X139659389Y-70343436D01*
X139738615Y-70152167D01*
X139853635Y-69980027D01*
X140000027Y-69833635D01*
X140081053Y-69779495D01*
X140172165Y-69718616D01*
X140172167Y-69718615D01*
X140363436Y-69639389D01*
X140566484Y-69599000D01*
X140773516Y-69599000D01*
X140976564Y-69639389D01*
G37*
G36*
X156476564Y-69639389D02*
G01*
X156667833Y-69718615D01*
X156667835Y-69718616D01*
X156758947Y-69779495D01*
X156839973Y-69833635D01*
X156986365Y-69980027D01*
X157101385Y-70152167D01*
X157180611Y-70343436D01*
X157221000Y-70546484D01*
X157221000Y-70753516D01*
X157180611Y-70956564D01*
X157101385Y-71147833D01*
X157101384Y-71147835D01*
X156986365Y-71319973D01*
X156839973Y-71466365D01*
X156667835Y-71581384D01*
X156667834Y-71581385D01*
X156667833Y-71581385D01*
X156476564Y-71660611D01*
X156273516Y-71701000D01*
X156066484Y-71701000D01*
X155863436Y-71660611D01*
X155672167Y-71581385D01*
X155672166Y-71581385D01*
X155672165Y-71581384D01*
X155500027Y-71466365D01*
X155353635Y-71319973D01*
X155238616Y-71147835D01*
X155238615Y-71147833D01*
X155159389Y-70956564D01*
X155119000Y-70753516D01*
X155119000Y-70546484D01*
X155159389Y-70343436D01*
X155238615Y-70152167D01*
X155353635Y-69980027D01*
X155500027Y-69833635D01*
X155581053Y-69779495D01*
X155672165Y-69718616D01*
X155672167Y-69718615D01*
X155863436Y-69639389D01*
X156066484Y-69599000D01*
X156273516Y-69599000D01*
X156476564Y-69639389D01*
G37*
G36*
X160976564Y-69639389D02*
G01*
X161167833Y-69718615D01*
X161167835Y-69718616D01*
X161258947Y-69779495D01*
X161339973Y-69833635D01*
X161486365Y-69980027D01*
X161601385Y-70152167D01*
X161680611Y-70343436D01*
X161721000Y-70546484D01*
X161721000Y-70753516D01*
X161680611Y-70956564D01*
X161601385Y-71147833D01*
X161601384Y-71147835D01*
X161486365Y-71319973D01*
X161339973Y-71466365D01*
X161167835Y-71581384D01*
X161167834Y-71581385D01*
X161167833Y-71581385D01*
X160976564Y-71660611D01*
X160773516Y-71701000D01*
X160566484Y-71701000D01*
X160363436Y-71660611D01*
X160172167Y-71581385D01*
X160172166Y-71581385D01*
X160172165Y-71581384D01*
X160000027Y-71466365D01*
X159853635Y-71319973D01*
X159738616Y-71147835D01*
X159738615Y-71147833D01*
X159659389Y-70956564D01*
X159619000Y-70753516D01*
X159619000Y-70546484D01*
X159659389Y-70343436D01*
X159738615Y-70152167D01*
X159853635Y-69980027D01*
X160000027Y-69833635D01*
X160081053Y-69779495D01*
X160172165Y-69718616D01*
X160172167Y-69718615D01*
X160363436Y-69639389D01*
X160566484Y-69599000D01*
X160773516Y-69599000D01*
X160976564Y-69639389D01*
G37*
G36*
X136476564Y-69639389D02*
G01*
X136667833Y-69718615D01*
X136667835Y-69718616D01*
X136758947Y-69779495D01*
X136839973Y-69833635D01*
X136986365Y-69980027D01*
X137101385Y-70152167D01*
X137180611Y-70343436D01*
X137221000Y-70546484D01*
X137221000Y-70753516D01*
X137180611Y-70956564D01*
X137101385Y-71147833D01*
X137101384Y-71147835D01*
X136986365Y-71319973D01*
X136839973Y-71466365D01*
X136667835Y-71581384D01*
X136667834Y-71581385D01*
X136667833Y-71581385D01*
X136476564Y-71660611D01*
X136273516Y-71701000D01*
X136066484Y-71701000D01*
X135863436Y-71660611D01*
X135672167Y-71581385D01*
X135672166Y-71581385D01*
X135672165Y-71581384D01*
X135500027Y-71466365D01*
X135353635Y-71319973D01*
X135238616Y-71147835D01*
X135238615Y-71147833D01*
X135159389Y-70956564D01*
X135119000Y-70753516D01*
X135119000Y-70546484D01*
X135159389Y-70343436D01*
X135238615Y-70152167D01*
X135353635Y-69980027D01*
X135500027Y-69833635D01*
X135581053Y-69779495D01*
X135672165Y-69718616D01*
X135672167Y-69718615D01*
X135863436Y-69639389D01*
X136066484Y-69599000D01*
X136273516Y-69599000D01*
X136476564Y-69639389D01*
G37*
G36*
X110244468Y-69763565D02*
G01*
X110283138Y-69775296D01*
X110318777Y-69794346D01*
X110350017Y-69819983D01*
X110375654Y-69851223D01*
X110394704Y-69886862D01*
X110406435Y-69925532D01*
X110411000Y-69971888D01*
X110411000Y-70623112D01*
X110406435Y-70669468D01*
X110394704Y-70708138D01*
X110375654Y-70743777D01*
X110350017Y-70775017D01*
X110318777Y-70800654D01*
X110283138Y-70819704D01*
X110244468Y-70831435D01*
X110198112Y-70836000D01*
X109121888Y-70836000D01*
X109075532Y-70831435D01*
X109036862Y-70819704D01*
X109001223Y-70800654D01*
X108969983Y-70775017D01*
X108944346Y-70743777D01*
X108925296Y-70708138D01*
X108913565Y-70669468D01*
X108909000Y-70623112D01*
X108909000Y-69971888D01*
X108913565Y-69925532D01*
X108925296Y-69886862D01*
X108944346Y-69851223D01*
X108969983Y-69819983D01*
X109001223Y-69794346D01*
X109036862Y-69775296D01*
X109075532Y-69763565D01*
X109121888Y-69759000D01*
X110198112Y-69759000D01*
X110244468Y-69763565D01*
G37*
G36*
X101354468Y-69763565D02*
G01*
X101393138Y-69775296D01*
X101428777Y-69794346D01*
X101460017Y-69819983D01*
X101485654Y-69851223D01*
X101504704Y-69886862D01*
X101516435Y-69925532D01*
X101521000Y-69971888D01*
X101521000Y-70623112D01*
X101516435Y-70669468D01*
X101504704Y-70708138D01*
X101485654Y-70743777D01*
X101460017Y-70775017D01*
X101428777Y-70800654D01*
X101393138Y-70819704D01*
X101354468Y-70831435D01*
X101308112Y-70836000D01*
X100231888Y-70836000D01*
X100185532Y-70831435D01*
X100146862Y-70819704D01*
X100111223Y-70800654D01*
X100079983Y-70775017D01*
X100054346Y-70743777D01*
X100035296Y-70708138D01*
X100023565Y-70669468D01*
X100019000Y-70623112D01*
X100019000Y-69971888D01*
X100023565Y-69925532D01*
X100035296Y-69886862D01*
X100054346Y-69851223D01*
X100079983Y-69819983D01*
X100111223Y-69794346D01*
X100146862Y-69775296D01*
X100185532Y-69763565D01*
X100231888Y-69759000D01*
X101308112Y-69759000D01*
X101354468Y-69763565D01*
G37*
G36*
X106896000Y-70686000D02*
G01*
X105734000Y-70686000D01*
X105734000Y-69934000D01*
X106896000Y-69934000D01*
X106896000Y-70686000D01*
G37*
G36*
X104696000Y-70686000D02*
G01*
X103534000Y-70686000D01*
X103534000Y-68034000D01*
X104696000Y-68034000D01*
X104696000Y-70686000D01*
G37*
G36*
X110244468Y-67888565D02*
G01*
X110283138Y-67900296D01*
X110318777Y-67919346D01*
X110350017Y-67944983D01*
X110375654Y-67976223D01*
X110394704Y-68011862D01*
X110406435Y-68050532D01*
X110411000Y-68096888D01*
X110411000Y-68748112D01*
X110406435Y-68794468D01*
X110394704Y-68833138D01*
X110375654Y-68868777D01*
X110350017Y-68900017D01*
X110318777Y-68925654D01*
X110283138Y-68944704D01*
X110244468Y-68956435D01*
X110198112Y-68961000D01*
X109121888Y-68961000D01*
X109075532Y-68956435D01*
X109036862Y-68944704D01*
X109001223Y-68925654D01*
X108969983Y-68900017D01*
X108944346Y-68868777D01*
X108925296Y-68833138D01*
X108913565Y-68794468D01*
X108909000Y-68748112D01*
X108909000Y-68096888D01*
X108913565Y-68050532D01*
X108925296Y-68011862D01*
X108944346Y-67976223D01*
X108969983Y-67944983D01*
X109001223Y-67919346D01*
X109036862Y-67900296D01*
X109075532Y-67888565D01*
X109121888Y-67884000D01*
X110198112Y-67884000D01*
X110244468Y-67888565D01*
G37*
G36*
X101354468Y-67888565D02*
G01*
X101393138Y-67900296D01*
X101428777Y-67919346D01*
X101460017Y-67944983D01*
X101485654Y-67976223D01*
X101504704Y-68011862D01*
X101516435Y-68050532D01*
X101521000Y-68096888D01*
X101521000Y-68748112D01*
X101516435Y-68794468D01*
X101504704Y-68833138D01*
X101485654Y-68868777D01*
X101460017Y-68900017D01*
X101428777Y-68925654D01*
X101393138Y-68944704D01*
X101354468Y-68956435D01*
X101308112Y-68961000D01*
X100231888Y-68961000D01*
X100185532Y-68956435D01*
X100146862Y-68944704D01*
X100111223Y-68925654D01*
X100079983Y-68900017D01*
X100054346Y-68868777D01*
X100035296Y-68833138D01*
X100023565Y-68794468D01*
X100019000Y-68748112D01*
X100019000Y-68096888D01*
X100023565Y-68050532D01*
X100035296Y-68011862D01*
X100054346Y-67976223D01*
X100079983Y-67944983D01*
X100111223Y-67919346D01*
X100146862Y-67900296D01*
X100185532Y-67888565D01*
X100231888Y-67884000D01*
X101308112Y-67884000D01*
X101354468Y-67888565D01*
G37*
G36*
X106896000Y-68786000D02*
G01*
X105734000Y-68786000D01*
X105734000Y-68034000D01*
X106896000Y-68034000D01*
X106896000Y-68786000D01*
G37*
G36*
X97683500Y-66361886D02*
G01*
X97684102Y-66374138D01*
X97686649Y-66400000D01*
X97684102Y-66425862D01*
X97683500Y-66438114D01*
X97683500Y-66511406D01*
X97674543Y-66528164D01*
X97670415Y-66539701D01*
X97644632Y-66624693D01*
X97636854Y-66650336D01*
X97576406Y-66763425D01*
X97495054Y-66862554D01*
X97395925Y-66943906D01*
X97282836Y-67004354D01*
X97250904Y-67014040D01*
X97160118Y-67041580D01*
X97096355Y-67047860D01*
X97064474Y-67051000D01*
X96300526Y-67051000D01*
X96268645Y-67047860D01*
X96204882Y-67041580D01*
X96114096Y-67014040D01*
X96082164Y-67004354D01*
X95969075Y-66943906D01*
X95869946Y-66862554D01*
X95788594Y-66763425D01*
X95728146Y-66650336D01*
X95720368Y-66624693D01*
X95694587Y-66539708D01*
X95685213Y-66517075D01*
X95681500Y-66511518D01*
X95681500Y-66438114D01*
X95680898Y-66425862D01*
X95678351Y-66400000D01*
X95680898Y-66374138D01*
X95681500Y-66361886D01*
X95681500Y-65149000D01*
X97683500Y-65149000D01*
X97683500Y-66361886D01*
G37*
G36*
X99608848Y-59653820D02*
G01*
X99608850Y-59653821D01*
X99608851Y-59653821D01*
X99750074Y-59712317D01*
X99750077Y-59712319D01*
X99877169Y-59797239D01*
X99985261Y-59905331D01*
X100070181Y-60032423D01*
X100070183Y-60032426D01*
X100128679Y-60173649D01*
X100128680Y-60173652D01*
X100158500Y-60323569D01*
X100158500Y-60476431D01*
X100137624Y-60581385D01*
X100128679Y-60626351D01*
X100070183Y-60767574D01*
X100070181Y-60767577D01*
X99985261Y-60894669D01*
X99877169Y-61002761D01*
X99819940Y-61041000D01*
X99750074Y-61087683D01*
X99699772Y-61108519D01*
X99678164Y-61120068D01*
X99659222Y-61135614D01*
X99643677Y-61154556D01*
X99632126Y-61176166D01*
X99625013Y-61199615D01*
X99622611Y-61224001D01*
X99625013Y-61248387D01*
X99632126Y-61271836D01*
X99643677Y-61293447D01*
X99659223Y-61312389D01*
X99678165Y-61327934D01*
X99699775Y-61339485D01*
X99723224Y-61346598D01*
X99747610Y-61349000D01*
X100108500Y-61349000D01*
X100108500Y-64451000D01*
X99747610Y-64451000D01*
X99723224Y-64453402D01*
X99699775Y-64460515D01*
X99678164Y-64472066D01*
X99659222Y-64487611D01*
X99643677Y-64506553D01*
X99632126Y-64528164D01*
X99625013Y-64551613D01*
X99622611Y-64575999D01*
X99625013Y-64600385D01*
X99632126Y-64623834D01*
X99643677Y-64645445D01*
X99659222Y-64664387D01*
X99678164Y-64679932D01*
X99699772Y-64691481D01*
X99750074Y-64712317D01*
X99750075Y-64712318D01*
X99877169Y-64797239D01*
X99985261Y-64905331D01*
X100070181Y-65032423D01*
X100070183Y-65032426D01*
X100128679Y-65173649D01*
X100128680Y-65173652D01*
X100158500Y-65323569D01*
X100158500Y-65476429D01*
X100128679Y-65626351D01*
X100070183Y-65767574D01*
X100070181Y-65767577D01*
X99985261Y-65894669D01*
X99877169Y-66002761D01*
X99826564Y-66036574D01*
X99750074Y-66087683D01*
X99608851Y-66146179D01*
X99608850Y-66146179D01*
X99608848Y-66146180D01*
X99458931Y-66176000D01*
X99306069Y-66176000D01*
X99156152Y-66146180D01*
X99156150Y-66146179D01*
X99156149Y-66146179D01*
X99014926Y-66087683D01*
X98938436Y-66036574D01*
X98887831Y-66002761D01*
X98779739Y-65894669D01*
X98694819Y-65767577D01*
X98694817Y-65767574D01*
X98636321Y-65626351D01*
X98606500Y-65476429D01*
X98606500Y-65323569D01*
X98636320Y-65173652D01*
X98636321Y-65173649D01*
X98694817Y-65032426D01*
X98694819Y-65032423D01*
X98779739Y-64905331D01*
X98887831Y-64797239D01*
X99014925Y-64712318D01*
X99014926Y-64712317D01*
X99065228Y-64691481D01*
X99086836Y-64679932D01*
X99105778Y-64664386D01*
X99121323Y-64645444D01*
X99132874Y-64623834D01*
X99139987Y-64600385D01*
X99142389Y-64575999D01*
X99139987Y-64551613D01*
X99132874Y-64528164D01*
X99121323Y-64506553D01*
X99105777Y-64487611D01*
X99086835Y-64472066D01*
X99065225Y-64460515D01*
X99041776Y-64453402D01*
X99017390Y-64451000D01*
X98656500Y-64451000D01*
X98656500Y-61349000D01*
X99017390Y-61349000D01*
X99041776Y-61346598D01*
X99065225Y-61339485D01*
X99086836Y-61327934D01*
X99105778Y-61312389D01*
X99121323Y-61293447D01*
X99132874Y-61271836D01*
X99139987Y-61248387D01*
X99142389Y-61224001D01*
X99139987Y-61199615D01*
X99132874Y-61176166D01*
X99121323Y-61154555D01*
X99105778Y-61135613D01*
X99086836Y-61120068D01*
X99065228Y-61108519D01*
X99014926Y-61087683D01*
X98945060Y-61041000D01*
X98887831Y-61002761D01*
X98779739Y-60894669D01*
X98694819Y-60767577D01*
X98694817Y-60767574D01*
X98636321Y-60626351D01*
X98627377Y-60581385D01*
X98606500Y-60476431D01*
X98606500Y-60323569D01*
X98636320Y-60173652D01*
X98636321Y-60173649D01*
X98694817Y-60032426D01*
X98694819Y-60032423D01*
X98779739Y-59905331D01*
X98887831Y-59797239D01*
X99014923Y-59712319D01*
X99014926Y-59712317D01*
X99156149Y-59653821D01*
X99156150Y-59653821D01*
X99156152Y-59653820D01*
X99306069Y-59624000D01*
X99458931Y-59624000D01*
X99608848Y-59653820D01*
G37*
G36*
X140976564Y-63139389D02*
G01*
X141167833Y-63218615D01*
X141167835Y-63218616D01*
X141339973Y-63333635D01*
X141486365Y-63480027D01*
X141593924Y-63641000D01*
X141601385Y-63652167D01*
X141680611Y-63843436D01*
X141721000Y-64046484D01*
X141721000Y-64253516D01*
X141680611Y-64456564D01*
X141602374Y-64645445D01*
X141601384Y-64647835D01*
X141486365Y-64819973D01*
X141339973Y-64966365D01*
X141167835Y-65081384D01*
X141167834Y-65081385D01*
X141167833Y-65081385D01*
X140976564Y-65160611D01*
X140773516Y-65201000D01*
X140566484Y-65201000D01*
X140363436Y-65160611D01*
X140172167Y-65081385D01*
X140172166Y-65081385D01*
X140172165Y-65081384D01*
X140000027Y-64966365D01*
X139853635Y-64819973D01*
X139738616Y-64647835D01*
X139737626Y-64645445D01*
X139659389Y-64456564D01*
X139619000Y-64253516D01*
X139619000Y-64046484D01*
X139659389Y-63843436D01*
X139738615Y-63652167D01*
X139746077Y-63641000D01*
X139853635Y-63480027D01*
X140000027Y-63333635D01*
X140172165Y-63218616D01*
X140172167Y-63218615D01*
X140363436Y-63139389D01*
X140566484Y-63099000D01*
X140773516Y-63099000D01*
X140976564Y-63139389D01*
G37*
G36*
X156476564Y-63139389D02*
G01*
X156667833Y-63218615D01*
X156667835Y-63218616D01*
X156839973Y-63333635D01*
X156986365Y-63480027D01*
X157093924Y-63641000D01*
X157101385Y-63652167D01*
X157180611Y-63843436D01*
X157221000Y-64046484D01*
X157221000Y-64253516D01*
X157180611Y-64456564D01*
X157102374Y-64645445D01*
X157101384Y-64647835D01*
X156986365Y-64819973D01*
X156839973Y-64966365D01*
X156667835Y-65081384D01*
X156667834Y-65081385D01*
X156667833Y-65081385D01*
X156476564Y-65160611D01*
X156273516Y-65201000D01*
X156066484Y-65201000D01*
X155863436Y-65160611D01*
X155672167Y-65081385D01*
X155672166Y-65081385D01*
X155672165Y-65081384D01*
X155500027Y-64966365D01*
X155353635Y-64819973D01*
X155238616Y-64647835D01*
X155237626Y-64645445D01*
X155159389Y-64456564D01*
X155119000Y-64253516D01*
X155119000Y-64046484D01*
X155159389Y-63843436D01*
X155238615Y-63652167D01*
X155246077Y-63641000D01*
X155353635Y-63480027D01*
X155500027Y-63333635D01*
X155672165Y-63218616D01*
X155672167Y-63218615D01*
X155863436Y-63139389D01*
X156066484Y-63099000D01*
X156273516Y-63099000D01*
X156476564Y-63139389D01*
G37*
G36*
X160976564Y-63139389D02*
G01*
X161167833Y-63218615D01*
X161167835Y-63218616D01*
X161339973Y-63333635D01*
X161486365Y-63480027D01*
X161593924Y-63641000D01*
X161601385Y-63652167D01*
X161680611Y-63843436D01*
X161721000Y-64046484D01*
X161721000Y-64253516D01*
X161680611Y-64456564D01*
X161602374Y-64645445D01*
X161601384Y-64647835D01*
X161486365Y-64819973D01*
X161339973Y-64966365D01*
X161167835Y-65081384D01*
X161167834Y-65081385D01*
X161167833Y-65081385D01*
X160976564Y-65160611D01*
X160773516Y-65201000D01*
X160566484Y-65201000D01*
X160363436Y-65160611D01*
X160172167Y-65081385D01*
X160172166Y-65081385D01*
X160172165Y-65081384D01*
X160000027Y-64966365D01*
X159853635Y-64819973D01*
X159738616Y-64647835D01*
X159737626Y-64645445D01*
X159659389Y-64456564D01*
X159619000Y-64253516D01*
X159619000Y-64046484D01*
X159659389Y-63843436D01*
X159738615Y-63652167D01*
X159746077Y-63641000D01*
X159853635Y-63480027D01*
X160000027Y-63333635D01*
X160172165Y-63218616D01*
X160172167Y-63218615D01*
X160363436Y-63139389D01*
X160566484Y-63099000D01*
X160773516Y-63099000D01*
X160976564Y-63139389D01*
G37*
G36*
X136476564Y-63139389D02*
G01*
X136667833Y-63218615D01*
X136667835Y-63218616D01*
X136839973Y-63333635D01*
X136986365Y-63480027D01*
X137093924Y-63641000D01*
X137101385Y-63652167D01*
X137180611Y-63843436D01*
X137221000Y-64046484D01*
X137221000Y-64253516D01*
X137180611Y-64456564D01*
X137102374Y-64645445D01*
X137101384Y-64647835D01*
X136986365Y-64819973D01*
X136839973Y-64966365D01*
X136667835Y-65081384D01*
X136667834Y-65081385D01*
X136667833Y-65081385D01*
X136476564Y-65160611D01*
X136273516Y-65201000D01*
X136066484Y-65201000D01*
X135863436Y-65160611D01*
X135672167Y-65081385D01*
X135672166Y-65081385D01*
X135672165Y-65081384D01*
X135500027Y-64966365D01*
X135353635Y-64819973D01*
X135238616Y-64647835D01*
X135237626Y-64645445D01*
X135159389Y-64456564D01*
X135119000Y-64253516D01*
X135119000Y-64046484D01*
X135159389Y-63843436D01*
X135238615Y-63652167D01*
X135246077Y-63641000D01*
X135353635Y-63480027D01*
X135500027Y-63333635D01*
X135672165Y-63218616D01*
X135672167Y-63218615D01*
X135863436Y-63139389D01*
X136066484Y-63099000D01*
X136273516Y-63099000D01*
X136476564Y-63139389D01*
G37*
G36*
X117196000Y-64941000D02*
G01*
X115644000Y-64941000D01*
X115644000Y-58539000D01*
X117196000Y-58539000D01*
X117196000Y-64941000D01*
G37*
G36*
X111296000Y-64941000D02*
G01*
X109744000Y-64941000D01*
X109744000Y-58539000D01*
X111296000Y-58539000D01*
X111296000Y-64941000D01*
G37*
G36*
X97683500Y-64701000D02*
G01*
X95681500Y-64701000D01*
X95681500Y-63099000D01*
X97683500Y-63099000D01*
X97683500Y-64701000D01*
G37*
G36*
X107954468Y-63056065D02*
G01*
X107993138Y-63067796D01*
X108028777Y-63086846D01*
X108060017Y-63112483D01*
X108085654Y-63143723D01*
X108104704Y-63179362D01*
X108116435Y-63218032D01*
X108121000Y-63264388D01*
X108121000Y-63915612D01*
X108116435Y-63961968D01*
X108104704Y-64000638D01*
X108085654Y-64036277D01*
X108060017Y-64067517D01*
X108028777Y-64093154D01*
X107993138Y-64112204D01*
X107954468Y-64123935D01*
X107908112Y-64128500D01*
X106831888Y-64128500D01*
X106785532Y-64123935D01*
X106746862Y-64112204D01*
X106711223Y-64093154D01*
X106679983Y-64067517D01*
X106654346Y-64036277D01*
X106635296Y-64000638D01*
X106623565Y-63961968D01*
X106619000Y-63915612D01*
X106619000Y-63264388D01*
X106623565Y-63218032D01*
X106635296Y-63179362D01*
X106654346Y-63143723D01*
X106679983Y-63112483D01*
X106711223Y-63086846D01*
X106746862Y-63067796D01*
X106785532Y-63056065D01*
X106831888Y-63051500D01*
X107908112Y-63051500D01*
X107954468Y-63056065D01*
G37*
G36*
X97683500Y-62701000D02*
G01*
X95681500Y-62701000D01*
X95681500Y-61099000D01*
X97683500Y-61099000D01*
X97683500Y-62701000D01*
G37*
G36*
X107954468Y-61181065D02*
G01*
X107993138Y-61192796D01*
X108028777Y-61211846D01*
X108060017Y-61237483D01*
X108085654Y-61268723D01*
X108104704Y-61304362D01*
X108116435Y-61343032D01*
X108121000Y-61389388D01*
X108121000Y-62040612D01*
X108116435Y-62086968D01*
X108104704Y-62125638D01*
X108085654Y-62161277D01*
X108060017Y-62192517D01*
X108028777Y-62218154D01*
X107993138Y-62237204D01*
X107954468Y-62248935D01*
X107908112Y-62253500D01*
X106831888Y-62253500D01*
X106785532Y-62248935D01*
X106746862Y-62237204D01*
X106711223Y-62218154D01*
X106679983Y-62192517D01*
X106654346Y-62161277D01*
X106635296Y-62125638D01*
X106623565Y-62086968D01*
X106619000Y-62040612D01*
X106619000Y-61389388D01*
X106623565Y-61343032D01*
X106635296Y-61304362D01*
X106654346Y-61268723D01*
X106679983Y-61237483D01*
X106711223Y-61211846D01*
X106746862Y-61192796D01*
X106785532Y-61181065D01*
X106831888Y-61176500D01*
X107908112Y-61176500D01*
X107954468Y-61181065D01*
G37*
G36*
X120604468Y-60653565D02*
G01*
X120643138Y-60665296D01*
X120678777Y-60684346D01*
X120710017Y-60709983D01*
X120735654Y-60741223D01*
X120754704Y-60776862D01*
X120766435Y-60815532D01*
X120771000Y-60861888D01*
X120771000Y-61938112D01*
X120766435Y-61984468D01*
X120754704Y-62023138D01*
X120735654Y-62058777D01*
X120710017Y-62090017D01*
X120678777Y-62115654D01*
X120643138Y-62134704D01*
X120604468Y-62146435D01*
X120558112Y-62151000D01*
X119906888Y-62151000D01*
X119860532Y-62146435D01*
X119821862Y-62134704D01*
X119786223Y-62115654D01*
X119754983Y-62090017D01*
X119729346Y-62058777D01*
X119710296Y-62023138D01*
X119698565Y-61984468D01*
X119694000Y-61938112D01*
X119694000Y-60861888D01*
X119698565Y-60815532D01*
X119710296Y-60776862D01*
X119729346Y-60741223D01*
X119754983Y-60709983D01*
X119786223Y-60684346D01*
X119821862Y-60665296D01*
X119860532Y-60653565D01*
X119906888Y-60649000D01*
X120558112Y-60649000D01*
X120604468Y-60653565D01*
G37*
G36*
X122479468Y-60653565D02*
G01*
X122518138Y-60665296D01*
X122553777Y-60684346D01*
X122585017Y-60709983D01*
X122610654Y-60741223D01*
X122629704Y-60776862D01*
X122641435Y-60815532D01*
X122646000Y-60861888D01*
X122646000Y-61938112D01*
X122641435Y-61984468D01*
X122629704Y-62023138D01*
X122610654Y-62058777D01*
X122585017Y-62090017D01*
X122553777Y-62115654D01*
X122518138Y-62134704D01*
X122479468Y-62146435D01*
X122433112Y-62151000D01*
X121781888Y-62151000D01*
X121735532Y-62146435D01*
X121696862Y-62134704D01*
X121661223Y-62115654D01*
X121629983Y-62090017D01*
X121604346Y-62058777D01*
X121585296Y-62023138D01*
X121573565Y-61984468D01*
X121569000Y-61938112D01*
X121569000Y-60861888D01*
X121573565Y-60815532D01*
X121585296Y-60776862D01*
X121604346Y-60741223D01*
X121629983Y-60709983D01*
X121661223Y-60684346D01*
X121696862Y-60665296D01*
X121735532Y-60653565D01*
X121781888Y-60649000D01*
X122433112Y-60649000D01*
X122479468Y-60653565D01*
G37*
G36*
X145476564Y-58639389D02*
G01*
X145667833Y-58718615D01*
X145667835Y-58718616D01*
X145839973Y-58833635D01*
X145986365Y-58980027D01*
X146099716Y-59149668D01*
X146101385Y-59152167D01*
X146180611Y-59343436D01*
X146221000Y-59546484D01*
X146221000Y-59753516D01*
X146180611Y-59956564D01*
X146160815Y-60004355D01*
X146101384Y-60147835D01*
X145986365Y-60319973D01*
X145839973Y-60466365D01*
X145667835Y-60581384D01*
X145667834Y-60581385D01*
X145667833Y-60581385D01*
X145476564Y-60660611D01*
X145273516Y-60701000D01*
X145066484Y-60701000D01*
X144863436Y-60660611D01*
X144672167Y-60581385D01*
X144672166Y-60581385D01*
X144672165Y-60581384D01*
X144500027Y-60466365D01*
X144353635Y-60319973D01*
X144238616Y-60147835D01*
X144179185Y-60004355D01*
X144159389Y-59956564D01*
X144119000Y-59753516D01*
X144119000Y-59546484D01*
X144159389Y-59343436D01*
X144238615Y-59152167D01*
X144240285Y-59149668D01*
X144353635Y-58980027D01*
X144500027Y-58833635D01*
X144672165Y-58718616D01*
X144672167Y-58718615D01*
X144863436Y-58639389D01*
X145066484Y-58599000D01*
X145273516Y-58599000D01*
X145476564Y-58639389D01*
G37*
G36*
X151976564Y-58639389D02*
G01*
X152167833Y-58718615D01*
X152167835Y-58718616D01*
X152339973Y-58833635D01*
X152486365Y-58980027D01*
X152599716Y-59149668D01*
X152601385Y-59152167D01*
X152680611Y-59343436D01*
X152721000Y-59546484D01*
X152721000Y-59753516D01*
X152680611Y-59956564D01*
X152660815Y-60004355D01*
X152601384Y-60147835D01*
X152486365Y-60319973D01*
X152339973Y-60466365D01*
X152167835Y-60581384D01*
X152167834Y-60581385D01*
X152167833Y-60581385D01*
X151976564Y-60660611D01*
X151773516Y-60701000D01*
X151566484Y-60701000D01*
X151363436Y-60660611D01*
X151172167Y-60581385D01*
X151172166Y-60581385D01*
X151172165Y-60581384D01*
X151000027Y-60466365D01*
X150853635Y-60319973D01*
X150738616Y-60147835D01*
X150679185Y-60004355D01*
X150659389Y-59956564D01*
X150619000Y-59753516D01*
X150619000Y-59546484D01*
X150659389Y-59343436D01*
X150738615Y-59152167D01*
X150740285Y-59149668D01*
X150853635Y-58980027D01*
X151000027Y-58833635D01*
X151172165Y-58718616D01*
X151172167Y-58718615D01*
X151363436Y-58639389D01*
X151566484Y-58599000D01*
X151773516Y-58599000D01*
X151976564Y-58639389D01*
G37*
G36*
X97096355Y-58752140D02*
G01*
X97160118Y-58758420D01*
X97250904Y-58785960D01*
X97282836Y-58795646D01*
X97395925Y-58856094D01*
X97495054Y-58937446D01*
X97576406Y-59036575D01*
X97636854Y-59149664D01*
X97637613Y-59152167D01*
X97670413Y-59260292D01*
X97679787Y-59282925D01*
X97683500Y-59288482D01*
X97683500Y-59361886D01*
X97684102Y-59374138D01*
X97686649Y-59400000D01*
X97684102Y-59425862D01*
X97683500Y-59438114D01*
X97683500Y-60651000D01*
X95681500Y-60651000D01*
X95681500Y-59438114D01*
X95680898Y-59425862D01*
X95678351Y-59400000D01*
X95680898Y-59374138D01*
X95681500Y-59361886D01*
X95681500Y-59288594D01*
X95690457Y-59271836D01*
X95694585Y-59260299D01*
X95727387Y-59152167D01*
X95728146Y-59149664D01*
X95788594Y-59036575D01*
X95869946Y-58937446D01*
X95969075Y-58856094D01*
X96082164Y-58795646D01*
X96114096Y-58785960D01*
X96204882Y-58758420D01*
X96268645Y-58752140D01*
X96300526Y-58749000D01*
X97064474Y-58749000D01*
X97096355Y-58752140D01*
G37*
G36*
X119884468Y-56706065D02*
G01*
X119923138Y-56717796D01*
X119958777Y-56736846D01*
X119990017Y-56762483D01*
X120015654Y-56793723D01*
X120034704Y-56829362D01*
X120046435Y-56868032D01*
X120051000Y-56914388D01*
X120051000Y-57565612D01*
X120046435Y-57611968D01*
X120034704Y-57650638D01*
X120015654Y-57686277D01*
X119990017Y-57717517D01*
X119958777Y-57743154D01*
X119923138Y-57762204D01*
X119884468Y-57773935D01*
X119838112Y-57778500D01*
X118761888Y-57778500D01*
X118715532Y-57773935D01*
X118676862Y-57762204D01*
X118641223Y-57743154D01*
X118609983Y-57717517D01*
X118584346Y-57686277D01*
X118565296Y-57650638D01*
X118553565Y-57611968D01*
X118549000Y-57565612D01*
X118549000Y-56914388D01*
X118553565Y-56868032D01*
X118565296Y-56829362D01*
X118584346Y-56793723D01*
X118609983Y-56762483D01*
X118641223Y-56736846D01*
X118676862Y-56717796D01*
X118715532Y-56706065D01*
X118761888Y-56701500D01*
X119838112Y-56701500D01*
X119884468Y-56706065D01*
G37*
G36*
X123223512Y-54468927D02*
G01*
X123372812Y-54498624D01*
X123536784Y-54566544D01*
X123684354Y-54665147D01*
X123809853Y-54790646D01*
X123908456Y-54938216D01*
X123976376Y-55102188D01*
X124003301Y-55237553D01*
X124011000Y-55276258D01*
X124011000Y-55453742D01*
X124010438Y-55456565D01*
X123976376Y-55627812D01*
X123908456Y-55791784D01*
X123809853Y-55939354D01*
X123684354Y-56064853D01*
X123536784Y-56163456D01*
X123372812Y-56231376D01*
X123223512Y-56261073D01*
X123198742Y-56266000D01*
X123021258Y-56266000D01*
X122996488Y-56261073D01*
X122847188Y-56231376D01*
X122683216Y-56163456D01*
X122535646Y-56064853D01*
X122410147Y-55939354D01*
X122311544Y-55791784D01*
X122243624Y-55627812D01*
X122209562Y-55456565D01*
X122209000Y-55453742D01*
X122209000Y-55276258D01*
X122216699Y-55237553D01*
X122243624Y-55102188D01*
X122311544Y-54938216D01*
X122410147Y-54790646D01*
X122535646Y-54665147D01*
X122683216Y-54566544D01*
X122847188Y-54498624D01*
X122996488Y-54468927D01*
X123021258Y-54464000D01*
X123198742Y-54464000D01*
X123223512Y-54468927D01*
G37*
G36*
X126551000Y-56266000D02*
G01*
X124749000Y-56266000D01*
X124749000Y-54464000D01*
X126551000Y-54464000D01*
X126551000Y-56266000D01*
G37*
G36*
X151976564Y-54139389D02*
G01*
X152167833Y-54218615D01*
X152167835Y-54218616D01*
X152339973Y-54333635D01*
X152486365Y-54480027D01*
X152601385Y-54652167D01*
X152680611Y-54843436D01*
X152721000Y-55046484D01*
X152721000Y-55253516D01*
X152680611Y-55456564D01*
X152609678Y-55627811D01*
X152601384Y-55647835D01*
X152486365Y-55819973D01*
X152339973Y-55966365D01*
X152167835Y-56081384D01*
X152167834Y-56081385D01*
X152167833Y-56081385D01*
X151976564Y-56160611D01*
X151773516Y-56201000D01*
X151566484Y-56201000D01*
X151363436Y-56160611D01*
X151172167Y-56081385D01*
X151172166Y-56081385D01*
X151172165Y-56081384D01*
X151000027Y-55966365D01*
X150853635Y-55819973D01*
X150738616Y-55647835D01*
X150730322Y-55627811D01*
X150659389Y-55456564D01*
X150619000Y-55253516D01*
X150619000Y-55046484D01*
X150659389Y-54843436D01*
X150738615Y-54652167D01*
X150853635Y-54480027D01*
X151000027Y-54333635D01*
X151172165Y-54218616D01*
X151172167Y-54218615D01*
X151363436Y-54139389D01*
X151566484Y-54099000D01*
X151773516Y-54099000D01*
X151976564Y-54139389D01*
G37*
G36*
X145476564Y-54139389D02*
G01*
X145667833Y-54218615D01*
X145667835Y-54218616D01*
X145839973Y-54333635D01*
X145986365Y-54480027D01*
X146101385Y-54652167D01*
X146180611Y-54843436D01*
X146221000Y-55046484D01*
X146221000Y-55253516D01*
X146180611Y-55456564D01*
X146109678Y-55627811D01*
X146101384Y-55647835D01*
X145986365Y-55819973D01*
X145839973Y-55966365D01*
X145667835Y-56081384D01*
X145667834Y-56081385D01*
X145667833Y-56081385D01*
X145476564Y-56160611D01*
X145273516Y-56201000D01*
X145066484Y-56201000D01*
X144863436Y-56160611D01*
X144672167Y-56081385D01*
X144672166Y-56081385D01*
X144672165Y-56081384D01*
X144500027Y-55966365D01*
X144353635Y-55819973D01*
X144238616Y-55647835D01*
X144230322Y-55627811D01*
X144159389Y-55456564D01*
X144119000Y-55253516D01*
X144119000Y-55046484D01*
X144159389Y-54843436D01*
X144238615Y-54652167D01*
X144353635Y-54480027D01*
X144500027Y-54333635D01*
X144672165Y-54218616D01*
X144672167Y-54218615D01*
X144863436Y-54139389D01*
X145066484Y-54099000D01*
X145273516Y-54099000D01*
X145476564Y-54139389D01*
G37*
G36*
X119884468Y-54831065D02*
G01*
X119923138Y-54842796D01*
X119958777Y-54861846D01*
X119990017Y-54887483D01*
X120015654Y-54918723D01*
X120034704Y-54954362D01*
X120046435Y-54993032D01*
X120051000Y-55039388D01*
X120051000Y-55690612D01*
X120046435Y-55736968D01*
X120034704Y-55775638D01*
X120015654Y-55811277D01*
X119990017Y-55842517D01*
X119958777Y-55868154D01*
X119923138Y-55887204D01*
X119884468Y-55898935D01*
X119838112Y-55903500D01*
X118761888Y-55903500D01*
X118715532Y-55898935D01*
X118676862Y-55887204D01*
X118641223Y-55868154D01*
X118609983Y-55842517D01*
X118584346Y-55811277D01*
X118565296Y-55775638D01*
X118553565Y-55736968D01*
X118549000Y-55690612D01*
X118549000Y-55039388D01*
X118553565Y-54993032D01*
X118565296Y-54954362D01*
X118584346Y-54918723D01*
X118609983Y-54887483D01*
X118641223Y-54861846D01*
X118676862Y-54842796D01*
X118715532Y-54831065D01*
X118761888Y-54826500D01*
X119838112Y-54826500D01*
X119884468Y-54831065D01*
G37*
G36*
X161523648Y-52037000D02*
G01*
X161651579Y-52062447D01*
X161952042Y-52186903D01*
X162222451Y-52367585D01*
X162452415Y-52597549D01*
X162633097Y-52867958D01*
X162723887Y-53087143D01*
X162757553Y-53168422D01*
X162819829Y-53481501D01*
X162821000Y-53487391D01*
X162821000Y-53812609D01*
X162757553Y-54131579D01*
X162633097Y-54432042D01*
X162452415Y-54702451D01*
X162222451Y-54932415D01*
X161952042Y-55113097D01*
X161651579Y-55237553D01*
X161571327Y-55253516D01*
X161332611Y-55301000D01*
X161007389Y-55301000D01*
X160768673Y-55253516D01*
X160688421Y-55237553D01*
X160387958Y-55113097D01*
X160117549Y-54932415D01*
X159887585Y-54702451D01*
X159706903Y-54432042D01*
X159582447Y-54131579D01*
X159519000Y-53812609D01*
X159519000Y-53487391D01*
X159520172Y-53481501D01*
X159582447Y-53168422D01*
X159616114Y-53087143D01*
X159706903Y-52867958D01*
X159887585Y-52597549D01*
X160117549Y-52367585D01*
X160387958Y-52186903D01*
X160688421Y-52062447D01*
X160816352Y-52037000D01*
X161007389Y-51999000D01*
X161332611Y-51999000D01*
X161523648Y-52037000D01*
G37*
G36*
X99523648Y-52037000D02*
G01*
X99651579Y-52062447D01*
X99952042Y-52186903D01*
X100222451Y-52367585D01*
X100452415Y-52597549D01*
X100633097Y-52867958D01*
X100723887Y-53087143D01*
X100757553Y-53168422D01*
X100819829Y-53481501D01*
X100821000Y-53487391D01*
X100821000Y-53812609D01*
X100757553Y-54131579D01*
X100633097Y-54432042D01*
X100452415Y-54702451D01*
X100222451Y-54932415D01*
X99952042Y-55113097D01*
X99651579Y-55237553D01*
X99571327Y-55253516D01*
X99332611Y-55301000D01*
X99007389Y-55301000D01*
X98768673Y-55253516D01*
X98688421Y-55237553D01*
X98387958Y-55113097D01*
X98117549Y-54932415D01*
X97887585Y-54702451D01*
X97706903Y-54432042D01*
X97582447Y-54131579D01*
X97519000Y-53812609D01*
X97519000Y-53487391D01*
X97520172Y-53481501D01*
X97582447Y-53168422D01*
X97616114Y-53087143D01*
X97706903Y-52867958D01*
X97887585Y-52597549D01*
X98117549Y-52367585D01*
X98387958Y-52186903D01*
X98688421Y-52062447D01*
X98816352Y-52037000D01*
X99007389Y-51999000D01*
X99332611Y-51999000D01*
X99523648Y-52037000D01*
G37*
G36*
X114977142Y-52068242D02*
G01*
X115125101Y-52129529D01*
X115258255Y-52218499D01*
X115371501Y-52331745D01*
X115460471Y-52464899D01*
X115521758Y-52612858D01*
X115553000Y-52769925D01*
X115553000Y-52930075D01*
X115521758Y-53087142D01*
X115460471Y-53235101D01*
X115371501Y-53368255D01*
X115258255Y-53481501D01*
X115125101Y-53570471D01*
X114977142Y-53631758D01*
X114820075Y-53663000D01*
X114659925Y-53663000D01*
X114502858Y-53631758D01*
X114354899Y-53570471D01*
X114221745Y-53481501D01*
X114108499Y-53368255D01*
X114019529Y-53235101D01*
X113958242Y-53087142D01*
X113927000Y-52930075D01*
X113927000Y-52769925D01*
X113958242Y-52612858D01*
X114019529Y-52464899D01*
X114108499Y-52331745D01*
X114221745Y-52218499D01*
X114354899Y-52129529D01*
X114502858Y-52068242D01*
X114659925Y-52037000D01*
X114820075Y-52037000D01*
X114977142Y-52068242D01*
G37*
G36*
X112437142Y-52068242D02*
G01*
X112585101Y-52129529D01*
X112718255Y-52218499D01*
X112831501Y-52331745D01*
X112920471Y-52464899D01*
X112981758Y-52612858D01*
X113013000Y-52769925D01*
X113013000Y-52930075D01*
X112981758Y-53087142D01*
X112920471Y-53235101D01*
X112831501Y-53368255D01*
X112718255Y-53481501D01*
X112585101Y-53570471D01*
X112437142Y-53631758D01*
X112280075Y-53663000D01*
X112119925Y-53663000D01*
X111962858Y-53631758D01*
X111814899Y-53570471D01*
X111681745Y-53481501D01*
X111568499Y-53368255D01*
X111479529Y-53235101D01*
X111418242Y-53087142D01*
X111387000Y-52930075D01*
X111387000Y-52769925D01*
X111418242Y-52612858D01*
X111479529Y-52464899D01*
X111568499Y-52331745D01*
X111681745Y-52218499D01*
X111814899Y-52129529D01*
X111962858Y-52068242D01*
X112119925Y-52037000D01*
X112280075Y-52037000D01*
X112437142Y-52068242D01*
G37*
G36*
X109897142Y-52068242D02*
G01*
X110045101Y-52129529D01*
X110178255Y-52218499D01*
X110291501Y-52331745D01*
X110380471Y-52464899D01*
X110441758Y-52612858D01*
X110473000Y-52769925D01*
X110473000Y-52930075D01*
X110441758Y-53087142D01*
X110380471Y-53235101D01*
X110291501Y-53368255D01*
X110178255Y-53481501D01*
X110045101Y-53570471D01*
X109897142Y-53631758D01*
X109740075Y-53663000D01*
X109579925Y-53663000D01*
X109422858Y-53631758D01*
X109274899Y-53570471D01*
X109141745Y-53481501D01*
X109028499Y-53368255D01*
X108939529Y-53235101D01*
X108878242Y-53087142D01*
X108847000Y-52930075D01*
X108847000Y-52769925D01*
X108878242Y-52612858D01*
X108939529Y-52464899D01*
X109028499Y-52331745D01*
X109141745Y-52218499D01*
X109274899Y-52129529D01*
X109422858Y-52068242D01*
X109579925Y-52037000D01*
X109740075Y-52037000D01*
X109897142Y-52068242D01*
G37*
G36*
X117517142Y-52068242D02*
G01*
X117665101Y-52129529D01*
X117798255Y-52218499D01*
X117911501Y-52331745D01*
X118000471Y-52464899D01*
X118061758Y-52612858D01*
X118093000Y-52769925D01*
X118093000Y-52930075D01*
X118061758Y-53087142D01*
X118000471Y-53235101D01*
X117911501Y-53368255D01*
X117798255Y-53481501D01*
X117665101Y-53570471D01*
X117517142Y-53631758D01*
X117360075Y-53663000D01*
X117199925Y-53663000D01*
X117042858Y-53631758D01*
X116894899Y-53570471D01*
X116761745Y-53481501D01*
X116648499Y-53368255D01*
X116559529Y-53235101D01*
X116498242Y-53087142D01*
X116467000Y-52930075D01*
X116467000Y-52769925D01*
X116498242Y-52612858D01*
X116559529Y-52464899D01*
X116648499Y-52331745D01*
X116761745Y-52218499D01*
X116894899Y-52129529D01*
X117042858Y-52068242D01*
X117199925Y-52037000D01*
X117360075Y-52037000D01*
X117517142Y-52068242D01*
G37*
M02*
