G04 #@! TF.GenerationSoftware,KiCad,Pcbnew,(5.1.5)-3*
G04 #@! TF.CreationDate,2020-01-24T01:00:35-05:00*
G04 #@! TF.ProjectId,V-Naught_Display,562d4e61-7567-4687-945f-446973706c61,rev?*
G04 #@! TF.SameCoordinates,Original*
G04 #@! TF.FileFunction,Legend,Top*
G04 #@! TF.FilePolarity,Positive*
%FSLAX46Y46*%
G04 Gerber Fmt 4.6, Leading zero omitted, Abs format (unit mm)*
G04 Created by KiCad (PCBNEW (5.1.5)-3) date 2020-01-24 01:00:35*
%MOMM*%
%LPD*%
G04 APERTURE LIST*
%ADD10C,0.100000*%
%ADD11C,0.120000*%
%ADD12C,0.150000*%
G04 APERTURE END LIST*
D10*
X107759285Y-57243571D02*
X108330714Y-57243571D01*
X108045000Y-57529285D02*
X108045000Y-56957857D01*
X108616428Y-56779285D02*
X109080714Y-56779285D01*
X108830714Y-57065000D01*
X108937857Y-57065000D01*
X109009285Y-57100714D01*
X109045000Y-57136428D01*
X109080714Y-57207857D01*
X109080714Y-57386428D01*
X109045000Y-57457857D01*
X109009285Y-57493571D01*
X108937857Y-57529285D01*
X108723571Y-57529285D01*
X108652142Y-57493571D01*
X108616428Y-57457857D01*
X109295000Y-56779285D02*
X109545000Y-57529285D01*
X109795000Y-56779285D01*
X109973571Y-56779285D02*
X110437857Y-56779285D01*
X110187857Y-57065000D01*
X110295000Y-57065000D01*
X110366428Y-57100714D01*
X110402142Y-57136428D01*
X110437857Y-57207857D01*
X110437857Y-57386428D01*
X110402142Y-57457857D01*
X110366428Y-57493571D01*
X110295000Y-57529285D01*
X110080714Y-57529285D01*
X110009285Y-57493571D01*
X109973571Y-57457857D01*
X111723571Y-56815000D02*
X111652142Y-56779285D01*
X111545000Y-56779285D01*
X111437857Y-56815000D01*
X111366428Y-56886428D01*
X111330714Y-56957857D01*
X111295000Y-57100714D01*
X111295000Y-57207857D01*
X111330714Y-57350714D01*
X111366428Y-57422142D01*
X111437857Y-57493571D01*
X111545000Y-57529285D01*
X111616428Y-57529285D01*
X111723571Y-57493571D01*
X111759285Y-57457857D01*
X111759285Y-57207857D01*
X111616428Y-57207857D01*
X112080714Y-57529285D02*
X112080714Y-56779285D01*
X112509285Y-57529285D01*
X112509285Y-56779285D01*
X112866428Y-57529285D02*
X112866428Y-56779285D01*
X113045000Y-56779285D01*
X113152142Y-56815000D01*
X113223571Y-56886428D01*
X113259285Y-56957857D01*
X113295000Y-57100714D01*
X113295000Y-57207857D01*
X113259285Y-57350714D01*
X113223571Y-57422142D01*
X113152142Y-57493571D01*
X113045000Y-57529285D01*
X112866428Y-57529285D01*
X114152142Y-57493571D02*
X114259285Y-57529285D01*
X114437857Y-57529285D01*
X114509285Y-57493571D01*
X114545000Y-57457857D01*
X114580714Y-57386428D01*
X114580714Y-57315000D01*
X114545000Y-57243571D01*
X114509285Y-57207857D01*
X114437857Y-57172142D01*
X114295000Y-57136428D01*
X114223571Y-57100714D01*
X114187857Y-57065000D01*
X114152142Y-56993571D01*
X114152142Y-56922142D01*
X114187857Y-56850714D01*
X114223571Y-56815000D01*
X114295000Y-56779285D01*
X114473571Y-56779285D01*
X114580714Y-56815000D01*
X115330714Y-57457857D02*
X115295000Y-57493571D01*
X115187857Y-57529285D01*
X115116428Y-57529285D01*
X115009285Y-57493571D01*
X114937857Y-57422142D01*
X114902142Y-57350714D01*
X114866428Y-57207857D01*
X114866428Y-57100714D01*
X114902142Y-56957857D01*
X114937857Y-56886428D01*
X115009285Y-56815000D01*
X115116428Y-56779285D01*
X115187857Y-56779285D01*
X115295000Y-56815000D01*
X115330714Y-56850714D01*
X116009285Y-57529285D02*
X115652142Y-57529285D01*
X115652142Y-56779285D01*
X116795000Y-57493571D02*
X116902142Y-57529285D01*
X117080714Y-57529285D01*
X117152142Y-57493571D01*
X117187857Y-57457857D01*
X117223571Y-57386428D01*
X117223571Y-57315000D01*
X117187857Y-57243571D01*
X117152142Y-57207857D01*
X117080714Y-57172142D01*
X116937857Y-57136428D01*
X116866428Y-57100714D01*
X116830714Y-57065000D01*
X116795000Y-56993571D01*
X116795000Y-56922142D01*
X116830714Y-56850714D01*
X116866428Y-56815000D01*
X116937857Y-56779285D01*
X117116428Y-56779285D01*
X117223571Y-56815000D01*
X117545000Y-57529285D02*
X117545000Y-56779285D01*
X117723571Y-56779285D01*
X117830714Y-56815000D01*
X117902142Y-56886428D01*
X117937857Y-56957857D01*
X117973571Y-57100714D01*
X117973571Y-57207857D01*
X117937857Y-57350714D01*
X117902142Y-57422142D01*
X117830714Y-57493571D01*
X117723571Y-57529285D01*
X117545000Y-57529285D01*
X118259285Y-57315000D02*
X118616428Y-57315000D01*
X118187857Y-57529285D02*
X118437857Y-56779285D01*
X118687857Y-57529285D01*
X108152142Y-50973000D02*
X108080714Y-50937285D01*
X107973571Y-50937285D01*
X107866428Y-50973000D01*
X107795000Y-51044428D01*
X107759285Y-51115857D01*
X107723571Y-51258714D01*
X107723571Y-51365857D01*
X107759285Y-51508714D01*
X107795000Y-51580142D01*
X107866428Y-51651571D01*
X107973571Y-51687285D01*
X108045000Y-51687285D01*
X108152142Y-51651571D01*
X108187857Y-51615857D01*
X108187857Y-51365857D01*
X108045000Y-51365857D01*
X108509285Y-51687285D02*
X108509285Y-50937285D01*
X108937857Y-51687285D01*
X108937857Y-50937285D01*
X109295000Y-51687285D02*
X109295000Y-50937285D01*
X109473571Y-50937285D01*
X109580714Y-50973000D01*
X109652142Y-51044428D01*
X109687857Y-51115857D01*
X109723571Y-51258714D01*
X109723571Y-51365857D01*
X109687857Y-51508714D01*
X109652142Y-51580142D01*
X109580714Y-51651571D01*
X109473571Y-51687285D01*
X109295000Y-51687285D01*
X110616428Y-51401571D02*
X111187857Y-51401571D01*
X110902142Y-51687285D02*
X110902142Y-51115857D01*
X111473571Y-50937285D02*
X111937857Y-50937285D01*
X111687857Y-51223000D01*
X111795000Y-51223000D01*
X111866428Y-51258714D01*
X111902142Y-51294428D01*
X111937857Y-51365857D01*
X111937857Y-51544428D01*
X111902142Y-51615857D01*
X111866428Y-51651571D01*
X111795000Y-51687285D01*
X111580714Y-51687285D01*
X111509285Y-51651571D01*
X111473571Y-51615857D01*
X112152142Y-50937285D02*
X112402142Y-51687285D01*
X112652142Y-50937285D01*
X112830714Y-50937285D02*
X113295000Y-50937285D01*
X113045000Y-51223000D01*
X113152142Y-51223000D01*
X113223571Y-51258714D01*
X113259285Y-51294428D01*
X113295000Y-51365857D01*
X113295000Y-51544428D01*
X113259285Y-51615857D01*
X113223571Y-51651571D01*
X113152142Y-51687285D01*
X112937857Y-51687285D01*
X112866428Y-51651571D01*
X112830714Y-51615857D01*
X114152142Y-51651571D02*
X114259285Y-51687285D01*
X114437857Y-51687285D01*
X114509285Y-51651571D01*
X114545000Y-51615857D01*
X114580714Y-51544428D01*
X114580714Y-51473000D01*
X114545000Y-51401571D01*
X114509285Y-51365857D01*
X114437857Y-51330142D01*
X114295000Y-51294428D01*
X114223571Y-51258714D01*
X114187857Y-51223000D01*
X114152142Y-51151571D01*
X114152142Y-51080142D01*
X114187857Y-51008714D01*
X114223571Y-50973000D01*
X114295000Y-50937285D01*
X114473571Y-50937285D01*
X114580714Y-50973000D01*
X115330714Y-51615857D02*
X115295000Y-51651571D01*
X115187857Y-51687285D01*
X115116428Y-51687285D01*
X115009285Y-51651571D01*
X114937857Y-51580142D01*
X114902142Y-51508714D01*
X114866428Y-51365857D01*
X114866428Y-51258714D01*
X114902142Y-51115857D01*
X114937857Y-51044428D01*
X115009285Y-50973000D01*
X115116428Y-50937285D01*
X115187857Y-50937285D01*
X115295000Y-50973000D01*
X115330714Y-51008714D01*
X116009285Y-51687285D02*
X115652142Y-51687285D01*
X115652142Y-50937285D01*
X116795000Y-51651571D02*
X116902142Y-51687285D01*
X117080714Y-51687285D01*
X117152142Y-51651571D01*
X117187857Y-51615857D01*
X117223571Y-51544428D01*
X117223571Y-51473000D01*
X117187857Y-51401571D01*
X117152142Y-51365857D01*
X117080714Y-51330142D01*
X116937857Y-51294428D01*
X116866428Y-51258714D01*
X116830714Y-51223000D01*
X116795000Y-51151571D01*
X116795000Y-51080142D01*
X116830714Y-51008714D01*
X116866428Y-50973000D01*
X116937857Y-50937285D01*
X117116428Y-50937285D01*
X117223571Y-50973000D01*
X117545000Y-51687285D02*
X117545000Y-50937285D01*
X117723571Y-50937285D01*
X117830714Y-50973000D01*
X117902142Y-51044428D01*
X117937857Y-51115857D01*
X117973571Y-51258714D01*
X117973571Y-51365857D01*
X117937857Y-51508714D01*
X117902142Y-51580142D01*
X117830714Y-51651571D01*
X117723571Y-51687285D01*
X117545000Y-51687285D01*
X118259285Y-51473000D02*
X118616428Y-51473000D01*
X118187857Y-51687285D02*
X118437857Y-50937285D01*
X118687857Y-51687285D01*
D11*
X108330000Y-56720000D02*
X108330000Y-55390000D01*
X109660000Y-56720000D02*
X108330000Y-56720000D01*
X110930000Y-56720000D02*
X110930000Y-54060000D01*
X110930000Y-54060000D02*
X118610000Y-54060000D01*
X110930000Y-56720000D02*
X118610000Y-56720000D01*
X118610000Y-56720000D02*
X118610000Y-54060000D01*
D12*
X131170000Y-50650000D02*
X131170000Y-84150000D01*
X95770000Y-50650000D02*
X95770000Y-84150000D01*
X95770000Y-50650000D02*
X131170000Y-50650000D01*
X95770000Y-84150000D02*
X131170000Y-84150000D01*
X148170000Y-67150000D02*
G75*
G03X148170000Y-67150000I-3750000J0D01*
G01*
D11*
X163420000Y-72900000D02*
X163420000Y-71400000D01*
X162170000Y-68900000D02*
X157670000Y-68900000D01*
X156420000Y-71400000D02*
X156420000Y-72900000D01*
X157670000Y-75400000D02*
X162170000Y-75400000D01*
X156270000Y-59400000D02*
X156270000Y-60550000D01*
X163570000Y-59400000D02*
X156270000Y-59400000D01*
X163570000Y-64900000D02*
X156270000Y-64900000D01*
X142170000Y-82900000D02*
X146670000Y-82900000D01*
X140920000Y-78900000D02*
X140920000Y-80400000D01*
X146670000Y-76400000D02*
X142170000Y-76400000D01*
X147920000Y-80400000D02*
X147920000Y-78900000D01*
X140920000Y-53900000D02*
X140920000Y-55400000D01*
X142170000Y-57900000D02*
X146670000Y-57900000D01*
X147920000Y-55400000D02*
X147920000Y-53900000D01*
X146670000Y-51400000D02*
X142170000Y-51400000D01*
X153670000Y-69400000D02*
X153670000Y-64900000D01*
X149670000Y-70650000D02*
X151170000Y-70650000D01*
X147170000Y-64900000D02*
X147170000Y-69400000D01*
X151170000Y-63650000D02*
X149670000Y-63650000D01*
X137670000Y-70650000D02*
X139170000Y-70650000D01*
X141670000Y-69400000D02*
X141670000Y-64900000D01*
X139170000Y-63650000D02*
X137670000Y-63650000D01*
X135170000Y-64900000D02*
X135170000Y-69400000D01*
D12*
X106996666Y-54842380D02*
X106996666Y-55556666D01*
X106949047Y-55699523D01*
X106853809Y-55794761D01*
X106710952Y-55842380D01*
X106615714Y-55842380D01*
X107901428Y-54842380D02*
X107710952Y-54842380D01*
X107615714Y-54890000D01*
X107568095Y-54937619D01*
X107472857Y-55080476D01*
X107425238Y-55270952D01*
X107425238Y-55651904D01*
X107472857Y-55747142D01*
X107520476Y-55794761D01*
X107615714Y-55842380D01*
X107806190Y-55842380D01*
X107901428Y-55794761D01*
X107949047Y-55747142D01*
X107996666Y-55651904D01*
X107996666Y-55413809D01*
X107949047Y-55318571D01*
X107901428Y-55270952D01*
X107806190Y-55223333D01*
X107615714Y-55223333D01*
X107520476Y-55270952D01*
X107472857Y-55318571D01*
X107425238Y-55413809D01*
X107040666Y-52302380D02*
X107040666Y-53016666D01*
X106993047Y-53159523D01*
X106897809Y-53254761D01*
X106754952Y-53302380D01*
X106659714Y-53302380D01*
X107469238Y-52397619D02*
X107516857Y-52350000D01*
X107612095Y-52302380D01*
X107850190Y-52302380D01*
X107945428Y-52350000D01*
X107993047Y-52397619D01*
X108040666Y-52492857D01*
X108040666Y-52588095D01*
X107993047Y-52730952D01*
X107421619Y-53302380D01*
X108040666Y-53302380D01*
X143086666Y-72634761D02*
X143229523Y-72682380D01*
X143467619Y-72682380D01*
X143562857Y-72634761D01*
X143610476Y-72587142D01*
X143658095Y-72491904D01*
X143658095Y-72396666D01*
X143610476Y-72301428D01*
X143562857Y-72253809D01*
X143467619Y-72206190D01*
X143277142Y-72158571D01*
X143181904Y-72110952D01*
X143134285Y-72063333D01*
X143086666Y-71968095D01*
X143086666Y-71872857D01*
X143134285Y-71777619D01*
X143181904Y-71730000D01*
X143277142Y-71682380D01*
X143515238Y-71682380D01*
X143658095Y-71730000D01*
X143991428Y-71682380D02*
X144229523Y-72682380D01*
X144420000Y-71968095D01*
X144610476Y-72682380D01*
X144848571Y-71682380D01*
X145134285Y-71682380D02*
X145800952Y-71682380D01*
X145372380Y-72682380D01*
X158586666Y-68304761D02*
X158729523Y-68352380D01*
X158967619Y-68352380D01*
X159062857Y-68304761D01*
X159110476Y-68257142D01*
X159158095Y-68161904D01*
X159158095Y-68066666D01*
X159110476Y-67971428D01*
X159062857Y-67923809D01*
X158967619Y-67876190D01*
X158777142Y-67828571D01*
X158681904Y-67780952D01*
X158634285Y-67733333D01*
X158586666Y-67638095D01*
X158586666Y-67542857D01*
X158634285Y-67447619D01*
X158681904Y-67400000D01*
X158777142Y-67352380D01*
X159015238Y-67352380D01*
X159158095Y-67400000D01*
X159491428Y-67352380D02*
X159729523Y-68352380D01*
X159920000Y-67638095D01*
X160110476Y-68352380D01*
X160348571Y-67352380D01*
X161158095Y-67352380D02*
X160967619Y-67352380D01*
X160872380Y-67400000D01*
X160824761Y-67447619D01*
X160729523Y-67590476D01*
X160681904Y-67780952D01*
X160681904Y-68161904D01*
X160729523Y-68257142D01*
X160777142Y-68304761D01*
X160872380Y-68352380D01*
X161062857Y-68352380D01*
X161158095Y-68304761D01*
X161205714Y-68257142D01*
X161253333Y-68161904D01*
X161253333Y-67923809D01*
X161205714Y-67828571D01*
X161158095Y-67780952D01*
X161062857Y-67733333D01*
X160872380Y-67733333D01*
X160777142Y-67780952D01*
X160729523Y-67828571D01*
X160681904Y-67923809D01*
X159181904Y-66102380D02*
X159181904Y-65102380D01*
X159420000Y-65102380D01*
X159562857Y-65150000D01*
X159658095Y-65245238D01*
X159705714Y-65340476D01*
X159753333Y-65530952D01*
X159753333Y-65673809D01*
X159705714Y-65864285D01*
X159658095Y-65959523D01*
X159562857Y-66054761D01*
X159420000Y-66102380D01*
X159181904Y-66102380D01*
X160705714Y-66102380D02*
X160134285Y-66102380D01*
X160420000Y-66102380D02*
X160420000Y-65102380D01*
X160324761Y-65245238D01*
X160229523Y-65340476D01*
X160134285Y-65388095D01*
X164355714Y-64202380D02*
X163784285Y-64202380D01*
X164070000Y-64202380D02*
X164070000Y-63202380D01*
X163974761Y-63345238D01*
X163879523Y-63440476D01*
X163784285Y-63488095D01*
X143176666Y-80244761D02*
X143319523Y-80292380D01*
X143557619Y-80292380D01*
X143652857Y-80244761D01*
X143700476Y-80197142D01*
X143748095Y-80101904D01*
X143748095Y-80006666D01*
X143700476Y-79911428D01*
X143652857Y-79863809D01*
X143557619Y-79816190D01*
X143367142Y-79768571D01*
X143271904Y-79720952D01*
X143224285Y-79673333D01*
X143176666Y-79578095D01*
X143176666Y-79482857D01*
X143224285Y-79387619D01*
X143271904Y-79340000D01*
X143367142Y-79292380D01*
X143605238Y-79292380D01*
X143748095Y-79340000D01*
X144081428Y-79292380D02*
X144319523Y-80292380D01*
X144510000Y-79578095D01*
X144700476Y-80292380D01*
X144938571Y-79292380D01*
X145271904Y-79387619D02*
X145319523Y-79340000D01*
X145414761Y-79292380D01*
X145652857Y-79292380D01*
X145748095Y-79340000D01*
X145795714Y-79387619D01*
X145843333Y-79482857D01*
X145843333Y-79578095D01*
X145795714Y-79720952D01*
X145224285Y-80292380D01*
X145843333Y-80292380D01*
X143086666Y-54924761D02*
X143229523Y-54972380D01*
X143467619Y-54972380D01*
X143562857Y-54924761D01*
X143610476Y-54877142D01*
X143658095Y-54781904D01*
X143658095Y-54686666D01*
X143610476Y-54591428D01*
X143562857Y-54543809D01*
X143467619Y-54496190D01*
X143277142Y-54448571D01*
X143181904Y-54400952D01*
X143134285Y-54353333D01*
X143086666Y-54258095D01*
X143086666Y-54162857D01*
X143134285Y-54067619D01*
X143181904Y-54020000D01*
X143277142Y-53972380D01*
X143515238Y-53972380D01*
X143658095Y-54020000D01*
X143991428Y-53972380D02*
X144229523Y-54972380D01*
X144420000Y-54258095D01*
X144610476Y-54972380D01*
X144848571Y-53972380D01*
X145753333Y-54972380D02*
X145181904Y-54972380D01*
X145467619Y-54972380D02*
X145467619Y-53972380D01*
X145372380Y-54115238D01*
X145277142Y-54210476D01*
X145181904Y-54258095D01*
X151074761Y-68483333D02*
X151122380Y-68340476D01*
X151122380Y-68102380D01*
X151074761Y-68007142D01*
X151027142Y-67959523D01*
X150931904Y-67911904D01*
X150836666Y-67911904D01*
X150741428Y-67959523D01*
X150693809Y-68007142D01*
X150646190Y-68102380D01*
X150598571Y-68292857D01*
X150550952Y-68388095D01*
X150503333Y-68435714D01*
X150408095Y-68483333D01*
X150312857Y-68483333D01*
X150217619Y-68435714D01*
X150170000Y-68388095D01*
X150122380Y-68292857D01*
X150122380Y-68054761D01*
X150170000Y-67911904D01*
X150122380Y-67578571D02*
X151122380Y-67340476D01*
X150408095Y-67150000D01*
X151122380Y-66959523D01*
X150122380Y-66721428D01*
X150455714Y-65911904D02*
X151122380Y-65911904D01*
X150074761Y-66150000D02*
X150789047Y-66388095D01*
X150789047Y-65769047D01*
X138754761Y-68483333D02*
X138802380Y-68340476D01*
X138802380Y-68102380D01*
X138754761Y-68007142D01*
X138707142Y-67959523D01*
X138611904Y-67911904D01*
X138516666Y-67911904D01*
X138421428Y-67959523D01*
X138373809Y-68007142D01*
X138326190Y-68102380D01*
X138278571Y-68292857D01*
X138230952Y-68388095D01*
X138183333Y-68435714D01*
X138088095Y-68483333D01*
X137992857Y-68483333D01*
X137897619Y-68435714D01*
X137850000Y-68388095D01*
X137802380Y-68292857D01*
X137802380Y-68054761D01*
X137850000Y-67911904D01*
X137802380Y-67578571D02*
X138802380Y-67340476D01*
X138088095Y-67150000D01*
X138802380Y-66959523D01*
X137802380Y-66721428D01*
X137802380Y-66435714D02*
X137802380Y-65816666D01*
X138183333Y-66150000D01*
X138183333Y-66007142D01*
X138230952Y-65911904D01*
X138278571Y-65864285D01*
X138373809Y-65816666D01*
X138611904Y-65816666D01*
X138707142Y-65864285D01*
X138754761Y-65911904D01*
X138802380Y-66007142D01*
X138802380Y-66292857D01*
X138754761Y-66388095D01*
X138707142Y-66435714D01*
M02*
