G04 #@! TF.GenerationSoftware,KiCad,Pcbnew,(5.1.5)-3*
G04 #@! TF.CreationDate,2020-02-27T20:47:59-05:00*
G04 #@! TF.ProjectId,V-Naught_Display,562d4e61-7567-4687-945f-446973706c61,rev?*
G04 #@! TF.SameCoordinates,Original*
G04 #@! TF.FileFunction,Copper,L2,Bot*
G04 #@! TF.FilePolarity,Positive*
%FSLAX46Y46*%
G04 Gerber Fmt 4.6, Leading zero omitted, Abs format (unit mm)*
G04 Created by KiCad (PCBNEW (5.1.5)-3) date 2020-02-27 20:47:59*
%MOMM*%
%LPD*%
G04 APERTURE LIST*
%ADD10O,1.700000X1.700000*%
%ADD11R,1.700000X1.700000*%
%ADD12R,0.740000X2.400000*%
%ADD13C,1.524000*%
%ADD14R,0.650000X0.400000*%
%ADD15C,2.000000*%
%ADD16O,2.500000X4.000000*%
%ADD17C,0.100000*%
%ADD18R,1.450000X0.450000*%
%ADD19R,1.060000X0.650000*%
%ADD20R,1.900000X1.200000*%
%ADD21O,1.900000X1.200000*%
%ADD22R,1.900000X1.500000*%
%ADD23C,1.450000*%
%ADD24R,1.350000X0.400000*%
%ADD25C,0.800000*%
%ADD26C,0.250000*%
%ADD27C,0.500000*%
%ADD28C,0.200000*%
%ADD29C,0.254000*%
G04 APERTURE END LIST*
D10*
X117280000Y-55390000D03*
X114740000Y-55390000D03*
X112200000Y-55390000D03*
D11*
X109660000Y-55390000D03*
D12*
X105030000Y-76950000D03*
X105030000Y-80850000D03*
X106300000Y-76950000D03*
X106300000Y-80850000D03*
X107570000Y-76950000D03*
X107570000Y-80850000D03*
X108840000Y-76950000D03*
X108840000Y-80850000D03*
X110110000Y-76950000D03*
X110110000Y-80850000D03*
D13*
X109660000Y-52850000D03*
X112200000Y-52850000D03*
X114740000Y-52850000D03*
X117280000Y-52850000D03*
D14*
X151220000Y-55550000D03*
X151220000Y-54250000D03*
X151220000Y-54900000D03*
X153120000Y-54250000D03*
X153120000Y-55550000D03*
D15*
X141920000Y-74650000D03*
X144420000Y-74650000D03*
X146920000Y-74650000D03*
X141920000Y-60150000D03*
X146920000Y-60150000D03*
D16*
X139340000Y-67150000D03*
X149500000Y-67150000D03*
D15*
X163170000Y-69900000D03*
X163170000Y-74400000D03*
X156670000Y-69900000D03*
X156670000Y-74400000D03*
X122475000Y-73145000D03*
X122475000Y-77645000D03*
X128975000Y-73145000D03*
X128975000Y-77645000D03*
G04 #@! TA.AperFunction,SMDPad,CuDef*
D17*
G36*
X115970142Y-77738674D02*
G01*
X115993803Y-77742184D01*
X116017007Y-77747996D01*
X116039529Y-77756054D01*
X116061153Y-77766282D01*
X116081670Y-77778579D01*
X116100883Y-77792829D01*
X116118607Y-77808893D01*
X116134671Y-77826617D01*
X116148921Y-77845830D01*
X116161218Y-77866347D01*
X116171446Y-77887971D01*
X116179504Y-77910493D01*
X116185316Y-77933697D01*
X116188826Y-77957358D01*
X116190000Y-77981250D01*
X116190000Y-78468750D01*
X116188826Y-78492642D01*
X116185316Y-78516303D01*
X116179504Y-78539507D01*
X116171446Y-78562029D01*
X116161218Y-78583653D01*
X116148921Y-78604170D01*
X116134671Y-78623383D01*
X116118607Y-78641107D01*
X116100883Y-78657171D01*
X116081670Y-78671421D01*
X116061153Y-78683718D01*
X116039529Y-78693946D01*
X116017007Y-78702004D01*
X115993803Y-78707816D01*
X115970142Y-78711326D01*
X115946250Y-78712500D01*
X115033750Y-78712500D01*
X115009858Y-78711326D01*
X114986197Y-78707816D01*
X114962993Y-78702004D01*
X114940471Y-78693946D01*
X114918847Y-78683718D01*
X114898330Y-78671421D01*
X114879117Y-78657171D01*
X114861393Y-78641107D01*
X114845329Y-78623383D01*
X114831079Y-78604170D01*
X114818782Y-78583653D01*
X114808554Y-78562029D01*
X114800496Y-78539507D01*
X114794684Y-78516303D01*
X114791174Y-78492642D01*
X114790000Y-78468750D01*
X114790000Y-77981250D01*
X114791174Y-77957358D01*
X114794684Y-77933697D01*
X114800496Y-77910493D01*
X114808554Y-77887971D01*
X114818782Y-77866347D01*
X114831079Y-77845830D01*
X114845329Y-77826617D01*
X114861393Y-77808893D01*
X114879117Y-77792829D01*
X114898330Y-77778579D01*
X114918847Y-77766282D01*
X114940471Y-77756054D01*
X114962993Y-77747996D01*
X114986197Y-77742184D01*
X115009858Y-77738674D01*
X115033750Y-77737500D01*
X115946250Y-77737500D01*
X115970142Y-77738674D01*
G37*
G04 #@! TD.AperFunction*
G04 #@! TA.AperFunction,SMDPad,CuDef*
G36*
X115970142Y-79613674D02*
G01*
X115993803Y-79617184D01*
X116017007Y-79622996D01*
X116039529Y-79631054D01*
X116061153Y-79641282D01*
X116081670Y-79653579D01*
X116100883Y-79667829D01*
X116118607Y-79683893D01*
X116134671Y-79701617D01*
X116148921Y-79720830D01*
X116161218Y-79741347D01*
X116171446Y-79762971D01*
X116179504Y-79785493D01*
X116185316Y-79808697D01*
X116188826Y-79832358D01*
X116190000Y-79856250D01*
X116190000Y-80343750D01*
X116188826Y-80367642D01*
X116185316Y-80391303D01*
X116179504Y-80414507D01*
X116171446Y-80437029D01*
X116161218Y-80458653D01*
X116148921Y-80479170D01*
X116134671Y-80498383D01*
X116118607Y-80516107D01*
X116100883Y-80532171D01*
X116081670Y-80546421D01*
X116061153Y-80558718D01*
X116039529Y-80568946D01*
X116017007Y-80577004D01*
X115993803Y-80582816D01*
X115970142Y-80586326D01*
X115946250Y-80587500D01*
X115033750Y-80587500D01*
X115009858Y-80586326D01*
X114986197Y-80582816D01*
X114962993Y-80577004D01*
X114940471Y-80568946D01*
X114918847Y-80558718D01*
X114898330Y-80546421D01*
X114879117Y-80532171D01*
X114861393Y-80516107D01*
X114845329Y-80498383D01*
X114831079Y-80479170D01*
X114818782Y-80458653D01*
X114808554Y-80437029D01*
X114800496Y-80414507D01*
X114794684Y-80391303D01*
X114791174Y-80367642D01*
X114790000Y-80343750D01*
X114790000Y-79856250D01*
X114791174Y-79832358D01*
X114794684Y-79808697D01*
X114800496Y-79785493D01*
X114808554Y-79762971D01*
X114818782Y-79741347D01*
X114831079Y-79720830D01*
X114845329Y-79701617D01*
X114861393Y-79683893D01*
X114879117Y-79667829D01*
X114898330Y-79653579D01*
X114918847Y-79641282D01*
X114940471Y-79631054D01*
X114962993Y-79622996D01*
X114986197Y-79617184D01*
X115009858Y-79613674D01*
X115033750Y-79612500D01*
X115946250Y-79612500D01*
X115970142Y-79613674D01*
G37*
G04 #@! TD.AperFunction*
G04 #@! TA.AperFunction,SMDPad,CuDef*
G36*
X125597142Y-57739174D02*
G01*
X125620803Y-57742684D01*
X125644007Y-57748496D01*
X125666529Y-57756554D01*
X125688153Y-57766782D01*
X125708670Y-57779079D01*
X125727883Y-57793329D01*
X125745607Y-57809393D01*
X125761671Y-57827117D01*
X125775921Y-57846330D01*
X125788218Y-57866847D01*
X125798446Y-57888471D01*
X125806504Y-57910993D01*
X125812316Y-57934197D01*
X125815826Y-57957858D01*
X125817000Y-57981750D01*
X125817000Y-58894250D01*
X125815826Y-58918142D01*
X125812316Y-58941803D01*
X125806504Y-58965007D01*
X125798446Y-58987529D01*
X125788218Y-59009153D01*
X125775921Y-59029670D01*
X125761671Y-59048883D01*
X125745607Y-59066607D01*
X125727883Y-59082671D01*
X125708670Y-59096921D01*
X125688153Y-59109218D01*
X125666529Y-59119446D01*
X125644007Y-59127504D01*
X125620803Y-59133316D01*
X125597142Y-59136826D01*
X125573250Y-59138000D01*
X125085750Y-59138000D01*
X125061858Y-59136826D01*
X125038197Y-59133316D01*
X125014993Y-59127504D01*
X124992471Y-59119446D01*
X124970847Y-59109218D01*
X124950330Y-59096921D01*
X124931117Y-59082671D01*
X124913393Y-59066607D01*
X124897329Y-59048883D01*
X124883079Y-59029670D01*
X124870782Y-59009153D01*
X124860554Y-58987529D01*
X124852496Y-58965007D01*
X124846684Y-58941803D01*
X124843174Y-58918142D01*
X124842000Y-58894250D01*
X124842000Y-57981750D01*
X124843174Y-57957858D01*
X124846684Y-57934197D01*
X124852496Y-57910993D01*
X124860554Y-57888471D01*
X124870782Y-57866847D01*
X124883079Y-57846330D01*
X124897329Y-57827117D01*
X124913393Y-57809393D01*
X124931117Y-57793329D01*
X124950330Y-57779079D01*
X124970847Y-57766782D01*
X124992471Y-57756554D01*
X125014993Y-57748496D01*
X125038197Y-57742684D01*
X125061858Y-57739174D01*
X125085750Y-57738000D01*
X125573250Y-57738000D01*
X125597142Y-57739174D01*
G37*
G04 #@! TD.AperFunction*
G04 #@! TA.AperFunction,SMDPad,CuDef*
G36*
X123722142Y-57739174D02*
G01*
X123745803Y-57742684D01*
X123769007Y-57748496D01*
X123791529Y-57756554D01*
X123813153Y-57766782D01*
X123833670Y-57779079D01*
X123852883Y-57793329D01*
X123870607Y-57809393D01*
X123886671Y-57827117D01*
X123900921Y-57846330D01*
X123913218Y-57866847D01*
X123923446Y-57888471D01*
X123931504Y-57910993D01*
X123937316Y-57934197D01*
X123940826Y-57957858D01*
X123942000Y-57981750D01*
X123942000Y-58894250D01*
X123940826Y-58918142D01*
X123937316Y-58941803D01*
X123931504Y-58965007D01*
X123923446Y-58987529D01*
X123913218Y-59009153D01*
X123900921Y-59029670D01*
X123886671Y-59048883D01*
X123870607Y-59066607D01*
X123852883Y-59082671D01*
X123833670Y-59096921D01*
X123813153Y-59109218D01*
X123791529Y-59119446D01*
X123769007Y-59127504D01*
X123745803Y-59133316D01*
X123722142Y-59136826D01*
X123698250Y-59138000D01*
X123210750Y-59138000D01*
X123186858Y-59136826D01*
X123163197Y-59133316D01*
X123139993Y-59127504D01*
X123117471Y-59119446D01*
X123095847Y-59109218D01*
X123075330Y-59096921D01*
X123056117Y-59082671D01*
X123038393Y-59066607D01*
X123022329Y-59048883D01*
X123008079Y-59029670D01*
X122995782Y-59009153D01*
X122985554Y-58987529D01*
X122977496Y-58965007D01*
X122971684Y-58941803D01*
X122968174Y-58918142D01*
X122967000Y-58894250D01*
X122967000Y-57981750D01*
X122968174Y-57957858D01*
X122971684Y-57934197D01*
X122977496Y-57910993D01*
X122985554Y-57888471D01*
X122995782Y-57866847D01*
X123008079Y-57846330D01*
X123022329Y-57827117D01*
X123038393Y-57809393D01*
X123056117Y-57793329D01*
X123075330Y-57779079D01*
X123095847Y-57766782D01*
X123117471Y-57756554D01*
X123139993Y-57748496D01*
X123163197Y-57742684D01*
X123186858Y-57739174D01*
X123210750Y-57738000D01*
X123698250Y-57738000D01*
X123722142Y-57739174D01*
G37*
G04 #@! TD.AperFunction*
G04 #@! TA.AperFunction,SMDPad,CuDef*
G36*
X118510142Y-77738674D02*
G01*
X118533803Y-77742184D01*
X118557007Y-77747996D01*
X118579529Y-77756054D01*
X118601153Y-77766282D01*
X118621670Y-77778579D01*
X118640883Y-77792829D01*
X118658607Y-77808893D01*
X118674671Y-77826617D01*
X118688921Y-77845830D01*
X118701218Y-77866347D01*
X118711446Y-77887971D01*
X118719504Y-77910493D01*
X118725316Y-77933697D01*
X118728826Y-77957358D01*
X118730000Y-77981250D01*
X118730000Y-78468750D01*
X118728826Y-78492642D01*
X118725316Y-78516303D01*
X118719504Y-78539507D01*
X118711446Y-78562029D01*
X118701218Y-78583653D01*
X118688921Y-78604170D01*
X118674671Y-78623383D01*
X118658607Y-78641107D01*
X118640883Y-78657171D01*
X118621670Y-78671421D01*
X118601153Y-78683718D01*
X118579529Y-78693946D01*
X118557007Y-78702004D01*
X118533803Y-78707816D01*
X118510142Y-78711326D01*
X118486250Y-78712500D01*
X117573750Y-78712500D01*
X117549858Y-78711326D01*
X117526197Y-78707816D01*
X117502993Y-78702004D01*
X117480471Y-78693946D01*
X117458847Y-78683718D01*
X117438330Y-78671421D01*
X117419117Y-78657171D01*
X117401393Y-78641107D01*
X117385329Y-78623383D01*
X117371079Y-78604170D01*
X117358782Y-78583653D01*
X117348554Y-78562029D01*
X117340496Y-78539507D01*
X117334684Y-78516303D01*
X117331174Y-78492642D01*
X117330000Y-78468750D01*
X117330000Y-77981250D01*
X117331174Y-77957358D01*
X117334684Y-77933697D01*
X117340496Y-77910493D01*
X117348554Y-77887971D01*
X117358782Y-77866347D01*
X117371079Y-77845830D01*
X117385329Y-77826617D01*
X117401393Y-77808893D01*
X117419117Y-77792829D01*
X117438330Y-77778579D01*
X117458847Y-77766282D01*
X117480471Y-77756054D01*
X117502993Y-77747996D01*
X117526197Y-77742184D01*
X117549858Y-77738674D01*
X117573750Y-77737500D01*
X118486250Y-77737500D01*
X118510142Y-77738674D01*
G37*
G04 #@! TD.AperFunction*
G04 #@! TA.AperFunction,SMDPad,CuDef*
G36*
X118510142Y-79613674D02*
G01*
X118533803Y-79617184D01*
X118557007Y-79622996D01*
X118579529Y-79631054D01*
X118601153Y-79641282D01*
X118621670Y-79653579D01*
X118640883Y-79667829D01*
X118658607Y-79683893D01*
X118674671Y-79701617D01*
X118688921Y-79720830D01*
X118701218Y-79741347D01*
X118711446Y-79762971D01*
X118719504Y-79785493D01*
X118725316Y-79808697D01*
X118728826Y-79832358D01*
X118730000Y-79856250D01*
X118730000Y-80343750D01*
X118728826Y-80367642D01*
X118725316Y-80391303D01*
X118719504Y-80414507D01*
X118711446Y-80437029D01*
X118701218Y-80458653D01*
X118688921Y-80479170D01*
X118674671Y-80498383D01*
X118658607Y-80516107D01*
X118640883Y-80532171D01*
X118621670Y-80546421D01*
X118601153Y-80558718D01*
X118579529Y-80568946D01*
X118557007Y-80577004D01*
X118533803Y-80582816D01*
X118510142Y-80586326D01*
X118486250Y-80587500D01*
X117573750Y-80587500D01*
X117549858Y-80586326D01*
X117526197Y-80582816D01*
X117502993Y-80577004D01*
X117480471Y-80568946D01*
X117458847Y-80558718D01*
X117438330Y-80546421D01*
X117419117Y-80532171D01*
X117401393Y-80516107D01*
X117385329Y-80498383D01*
X117371079Y-80479170D01*
X117358782Y-80458653D01*
X117348554Y-80437029D01*
X117340496Y-80414507D01*
X117334684Y-80391303D01*
X117331174Y-80367642D01*
X117330000Y-80343750D01*
X117330000Y-79856250D01*
X117331174Y-79832358D01*
X117334684Y-79808697D01*
X117340496Y-79785493D01*
X117348554Y-79762971D01*
X117358782Y-79741347D01*
X117371079Y-79720830D01*
X117385329Y-79701617D01*
X117401393Y-79683893D01*
X117419117Y-79667829D01*
X117438330Y-79653579D01*
X117458847Y-79641282D01*
X117480471Y-79631054D01*
X117502993Y-79622996D01*
X117526197Y-79617184D01*
X117549858Y-79613674D01*
X117573750Y-79612500D01*
X118486250Y-79612500D01*
X118510142Y-79613674D01*
G37*
G04 #@! TD.AperFunction*
D10*
X123110000Y-55365000D03*
D11*
X125650000Y-55365000D03*
D10*
X118030000Y-75050000D03*
X115490000Y-75050000D03*
D11*
X112950000Y-75050000D03*
D15*
X141170000Y-81900000D03*
X141170000Y-77400000D03*
X147670000Y-81900000D03*
X147670000Y-77400000D03*
X141170000Y-56900000D03*
X141170000Y-52400000D03*
X147670000Y-56900000D03*
X147670000Y-52400000D03*
X152670000Y-70400000D03*
X148170000Y-70400000D03*
X152670000Y-63900000D03*
X148170000Y-63900000D03*
D18*
X116420000Y-58815000D03*
X116420000Y-59465000D03*
X116420000Y-60115000D03*
X116420000Y-60765000D03*
X116420000Y-61415000D03*
X116420000Y-62065000D03*
X116420000Y-62715000D03*
X116420000Y-63365000D03*
X116420000Y-64015000D03*
X116420000Y-64665000D03*
X110520000Y-64665000D03*
X110520000Y-64015000D03*
X110520000Y-63365000D03*
X110520000Y-62715000D03*
X110520000Y-62065000D03*
X110520000Y-61415000D03*
X110520000Y-60765000D03*
X110520000Y-60115000D03*
X110520000Y-59465000D03*
X110520000Y-58815000D03*
D19*
X104115000Y-70310000D03*
X104115000Y-69360000D03*
X104115000Y-68410000D03*
X106315000Y-68410000D03*
X106315000Y-70310000D03*
D15*
X140670000Y-70400000D03*
X136170000Y-70400000D03*
X140670000Y-63900000D03*
X136170000Y-63900000D03*
D20*
X96682500Y-65800000D03*
X96682500Y-60000000D03*
D21*
X96682500Y-59400000D03*
X96682500Y-66400000D03*
D22*
X96682500Y-63900000D03*
D23*
X99382500Y-60400000D03*
D24*
X99382500Y-62900000D03*
X99382500Y-62250000D03*
X99382500Y-61600000D03*
X99382500Y-64200000D03*
X99382500Y-63550000D03*
D23*
X99382500Y-65400000D03*
D22*
X96682500Y-61900000D03*
G04 #@! TA.AperFunction,SMDPad,CuDef*
D17*
G36*
X122375142Y-60701174D02*
G01*
X122398803Y-60704684D01*
X122422007Y-60710496D01*
X122444529Y-60718554D01*
X122466153Y-60728782D01*
X122486670Y-60741079D01*
X122505883Y-60755329D01*
X122523607Y-60771393D01*
X122539671Y-60789117D01*
X122553921Y-60808330D01*
X122566218Y-60828847D01*
X122576446Y-60850471D01*
X122584504Y-60872993D01*
X122590316Y-60896197D01*
X122593826Y-60919858D01*
X122595000Y-60943750D01*
X122595000Y-61856250D01*
X122593826Y-61880142D01*
X122590316Y-61903803D01*
X122584504Y-61927007D01*
X122576446Y-61949529D01*
X122566218Y-61971153D01*
X122553921Y-61991670D01*
X122539671Y-62010883D01*
X122523607Y-62028607D01*
X122505883Y-62044671D01*
X122486670Y-62058921D01*
X122466153Y-62071218D01*
X122444529Y-62081446D01*
X122422007Y-62089504D01*
X122398803Y-62095316D01*
X122375142Y-62098826D01*
X122351250Y-62100000D01*
X121863750Y-62100000D01*
X121839858Y-62098826D01*
X121816197Y-62095316D01*
X121792993Y-62089504D01*
X121770471Y-62081446D01*
X121748847Y-62071218D01*
X121728330Y-62058921D01*
X121709117Y-62044671D01*
X121691393Y-62028607D01*
X121675329Y-62010883D01*
X121661079Y-61991670D01*
X121648782Y-61971153D01*
X121638554Y-61949529D01*
X121630496Y-61927007D01*
X121624684Y-61903803D01*
X121621174Y-61880142D01*
X121620000Y-61856250D01*
X121620000Y-60943750D01*
X121621174Y-60919858D01*
X121624684Y-60896197D01*
X121630496Y-60872993D01*
X121638554Y-60850471D01*
X121648782Y-60828847D01*
X121661079Y-60808330D01*
X121675329Y-60789117D01*
X121691393Y-60771393D01*
X121709117Y-60755329D01*
X121728330Y-60741079D01*
X121748847Y-60728782D01*
X121770471Y-60718554D01*
X121792993Y-60710496D01*
X121816197Y-60704684D01*
X121839858Y-60701174D01*
X121863750Y-60700000D01*
X122351250Y-60700000D01*
X122375142Y-60701174D01*
G37*
G04 #@! TD.AperFunction*
G04 #@! TA.AperFunction,SMDPad,CuDef*
G36*
X120500142Y-60701174D02*
G01*
X120523803Y-60704684D01*
X120547007Y-60710496D01*
X120569529Y-60718554D01*
X120591153Y-60728782D01*
X120611670Y-60741079D01*
X120630883Y-60755329D01*
X120648607Y-60771393D01*
X120664671Y-60789117D01*
X120678921Y-60808330D01*
X120691218Y-60828847D01*
X120701446Y-60850471D01*
X120709504Y-60872993D01*
X120715316Y-60896197D01*
X120718826Y-60919858D01*
X120720000Y-60943750D01*
X120720000Y-61856250D01*
X120718826Y-61880142D01*
X120715316Y-61903803D01*
X120709504Y-61927007D01*
X120701446Y-61949529D01*
X120691218Y-61971153D01*
X120678921Y-61991670D01*
X120664671Y-62010883D01*
X120648607Y-62028607D01*
X120630883Y-62044671D01*
X120611670Y-62058921D01*
X120591153Y-62071218D01*
X120569529Y-62081446D01*
X120547007Y-62089504D01*
X120523803Y-62095316D01*
X120500142Y-62098826D01*
X120476250Y-62100000D01*
X119988750Y-62100000D01*
X119964858Y-62098826D01*
X119941197Y-62095316D01*
X119917993Y-62089504D01*
X119895471Y-62081446D01*
X119873847Y-62071218D01*
X119853330Y-62058921D01*
X119834117Y-62044671D01*
X119816393Y-62028607D01*
X119800329Y-62010883D01*
X119786079Y-61991670D01*
X119773782Y-61971153D01*
X119763554Y-61949529D01*
X119755496Y-61927007D01*
X119749684Y-61903803D01*
X119746174Y-61880142D01*
X119745000Y-61856250D01*
X119745000Y-60943750D01*
X119746174Y-60919858D01*
X119749684Y-60896197D01*
X119755496Y-60872993D01*
X119763554Y-60850471D01*
X119773782Y-60828847D01*
X119786079Y-60808330D01*
X119800329Y-60789117D01*
X119816393Y-60771393D01*
X119834117Y-60755329D01*
X119853330Y-60741079D01*
X119873847Y-60728782D01*
X119895471Y-60718554D01*
X119917993Y-60710496D01*
X119941197Y-60704684D01*
X119964858Y-60701174D01*
X119988750Y-60700000D01*
X120476250Y-60700000D01*
X120500142Y-60701174D01*
G37*
G04 #@! TD.AperFunction*
G04 #@! TA.AperFunction,SMDPad,CuDef*
G36*
X107850142Y-61228674D02*
G01*
X107873803Y-61232184D01*
X107897007Y-61237996D01*
X107919529Y-61246054D01*
X107941153Y-61256282D01*
X107961670Y-61268579D01*
X107980883Y-61282829D01*
X107998607Y-61298893D01*
X108014671Y-61316617D01*
X108028921Y-61335830D01*
X108041218Y-61356347D01*
X108051446Y-61377971D01*
X108059504Y-61400493D01*
X108065316Y-61423697D01*
X108068826Y-61447358D01*
X108070000Y-61471250D01*
X108070000Y-61958750D01*
X108068826Y-61982642D01*
X108065316Y-62006303D01*
X108059504Y-62029507D01*
X108051446Y-62052029D01*
X108041218Y-62073653D01*
X108028921Y-62094170D01*
X108014671Y-62113383D01*
X107998607Y-62131107D01*
X107980883Y-62147171D01*
X107961670Y-62161421D01*
X107941153Y-62173718D01*
X107919529Y-62183946D01*
X107897007Y-62192004D01*
X107873803Y-62197816D01*
X107850142Y-62201326D01*
X107826250Y-62202500D01*
X106913750Y-62202500D01*
X106889858Y-62201326D01*
X106866197Y-62197816D01*
X106842993Y-62192004D01*
X106820471Y-62183946D01*
X106798847Y-62173718D01*
X106778330Y-62161421D01*
X106759117Y-62147171D01*
X106741393Y-62131107D01*
X106725329Y-62113383D01*
X106711079Y-62094170D01*
X106698782Y-62073653D01*
X106688554Y-62052029D01*
X106680496Y-62029507D01*
X106674684Y-62006303D01*
X106671174Y-61982642D01*
X106670000Y-61958750D01*
X106670000Y-61471250D01*
X106671174Y-61447358D01*
X106674684Y-61423697D01*
X106680496Y-61400493D01*
X106688554Y-61377971D01*
X106698782Y-61356347D01*
X106711079Y-61335830D01*
X106725329Y-61316617D01*
X106741393Y-61298893D01*
X106759117Y-61282829D01*
X106778330Y-61268579D01*
X106798847Y-61256282D01*
X106820471Y-61246054D01*
X106842993Y-61237996D01*
X106866197Y-61232184D01*
X106889858Y-61228674D01*
X106913750Y-61227500D01*
X107826250Y-61227500D01*
X107850142Y-61228674D01*
G37*
G04 #@! TD.AperFunction*
G04 #@! TA.AperFunction,SMDPad,CuDef*
G36*
X107850142Y-63103674D02*
G01*
X107873803Y-63107184D01*
X107897007Y-63112996D01*
X107919529Y-63121054D01*
X107941153Y-63131282D01*
X107961670Y-63143579D01*
X107980883Y-63157829D01*
X107998607Y-63173893D01*
X108014671Y-63191617D01*
X108028921Y-63210830D01*
X108041218Y-63231347D01*
X108051446Y-63252971D01*
X108059504Y-63275493D01*
X108065316Y-63298697D01*
X108068826Y-63322358D01*
X108070000Y-63346250D01*
X108070000Y-63833750D01*
X108068826Y-63857642D01*
X108065316Y-63881303D01*
X108059504Y-63904507D01*
X108051446Y-63927029D01*
X108041218Y-63948653D01*
X108028921Y-63969170D01*
X108014671Y-63988383D01*
X107998607Y-64006107D01*
X107980883Y-64022171D01*
X107961670Y-64036421D01*
X107941153Y-64048718D01*
X107919529Y-64058946D01*
X107897007Y-64067004D01*
X107873803Y-64072816D01*
X107850142Y-64076326D01*
X107826250Y-64077500D01*
X106913750Y-64077500D01*
X106889858Y-64076326D01*
X106866197Y-64072816D01*
X106842993Y-64067004D01*
X106820471Y-64058946D01*
X106798847Y-64048718D01*
X106778330Y-64036421D01*
X106759117Y-64022171D01*
X106741393Y-64006107D01*
X106725329Y-63988383D01*
X106711079Y-63969170D01*
X106698782Y-63948653D01*
X106688554Y-63927029D01*
X106680496Y-63904507D01*
X106674684Y-63881303D01*
X106671174Y-63857642D01*
X106670000Y-63833750D01*
X106670000Y-63346250D01*
X106671174Y-63322358D01*
X106674684Y-63298697D01*
X106680496Y-63275493D01*
X106688554Y-63252971D01*
X106698782Y-63231347D01*
X106711079Y-63210830D01*
X106725329Y-63191617D01*
X106741393Y-63173893D01*
X106759117Y-63157829D01*
X106778330Y-63143579D01*
X106798847Y-63131282D01*
X106820471Y-63121054D01*
X106842993Y-63112996D01*
X106866197Y-63107184D01*
X106889858Y-63103674D01*
X106913750Y-63102500D01*
X107826250Y-63102500D01*
X107850142Y-63103674D01*
G37*
G04 #@! TD.AperFunction*
G04 #@! TA.AperFunction,SMDPad,CuDef*
G36*
X110140142Y-67936174D02*
G01*
X110163803Y-67939684D01*
X110187007Y-67945496D01*
X110209529Y-67953554D01*
X110231153Y-67963782D01*
X110251670Y-67976079D01*
X110270883Y-67990329D01*
X110288607Y-68006393D01*
X110304671Y-68024117D01*
X110318921Y-68043330D01*
X110331218Y-68063847D01*
X110341446Y-68085471D01*
X110349504Y-68107993D01*
X110355316Y-68131197D01*
X110358826Y-68154858D01*
X110360000Y-68178750D01*
X110360000Y-68666250D01*
X110358826Y-68690142D01*
X110355316Y-68713803D01*
X110349504Y-68737007D01*
X110341446Y-68759529D01*
X110331218Y-68781153D01*
X110318921Y-68801670D01*
X110304671Y-68820883D01*
X110288607Y-68838607D01*
X110270883Y-68854671D01*
X110251670Y-68868921D01*
X110231153Y-68881218D01*
X110209529Y-68891446D01*
X110187007Y-68899504D01*
X110163803Y-68905316D01*
X110140142Y-68908826D01*
X110116250Y-68910000D01*
X109203750Y-68910000D01*
X109179858Y-68908826D01*
X109156197Y-68905316D01*
X109132993Y-68899504D01*
X109110471Y-68891446D01*
X109088847Y-68881218D01*
X109068330Y-68868921D01*
X109049117Y-68854671D01*
X109031393Y-68838607D01*
X109015329Y-68820883D01*
X109001079Y-68801670D01*
X108988782Y-68781153D01*
X108978554Y-68759529D01*
X108970496Y-68737007D01*
X108964684Y-68713803D01*
X108961174Y-68690142D01*
X108960000Y-68666250D01*
X108960000Y-68178750D01*
X108961174Y-68154858D01*
X108964684Y-68131197D01*
X108970496Y-68107993D01*
X108978554Y-68085471D01*
X108988782Y-68063847D01*
X109001079Y-68043330D01*
X109015329Y-68024117D01*
X109031393Y-68006393D01*
X109049117Y-67990329D01*
X109068330Y-67976079D01*
X109088847Y-67963782D01*
X109110471Y-67953554D01*
X109132993Y-67945496D01*
X109156197Y-67939684D01*
X109179858Y-67936174D01*
X109203750Y-67935000D01*
X110116250Y-67935000D01*
X110140142Y-67936174D01*
G37*
G04 #@! TD.AperFunction*
G04 #@! TA.AperFunction,SMDPad,CuDef*
G36*
X110140142Y-69811174D02*
G01*
X110163803Y-69814684D01*
X110187007Y-69820496D01*
X110209529Y-69828554D01*
X110231153Y-69838782D01*
X110251670Y-69851079D01*
X110270883Y-69865329D01*
X110288607Y-69881393D01*
X110304671Y-69899117D01*
X110318921Y-69918330D01*
X110331218Y-69938847D01*
X110341446Y-69960471D01*
X110349504Y-69982993D01*
X110355316Y-70006197D01*
X110358826Y-70029858D01*
X110360000Y-70053750D01*
X110360000Y-70541250D01*
X110358826Y-70565142D01*
X110355316Y-70588803D01*
X110349504Y-70612007D01*
X110341446Y-70634529D01*
X110331218Y-70656153D01*
X110318921Y-70676670D01*
X110304671Y-70695883D01*
X110288607Y-70713607D01*
X110270883Y-70729671D01*
X110251670Y-70743921D01*
X110231153Y-70756218D01*
X110209529Y-70766446D01*
X110187007Y-70774504D01*
X110163803Y-70780316D01*
X110140142Y-70783826D01*
X110116250Y-70785000D01*
X109203750Y-70785000D01*
X109179858Y-70783826D01*
X109156197Y-70780316D01*
X109132993Y-70774504D01*
X109110471Y-70766446D01*
X109088847Y-70756218D01*
X109068330Y-70743921D01*
X109049117Y-70729671D01*
X109031393Y-70713607D01*
X109015329Y-70695883D01*
X109001079Y-70676670D01*
X108988782Y-70656153D01*
X108978554Y-70634529D01*
X108970496Y-70612007D01*
X108964684Y-70588803D01*
X108961174Y-70565142D01*
X108960000Y-70541250D01*
X108960000Y-70053750D01*
X108961174Y-70029858D01*
X108964684Y-70006197D01*
X108970496Y-69982993D01*
X108978554Y-69960471D01*
X108988782Y-69938847D01*
X109001079Y-69918330D01*
X109015329Y-69899117D01*
X109031393Y-69881393D01*
X109049117Y-69865329D01*
X109068330Y-69851079D01*
X109088847Y-69838782D01*
X109110471Y-69828554D01*
X109132993Y-69820496D01*
X109156197Y-69814684D01*
X109179858Y-69811174D01*
X109203750Y-69810000D01*
X110116250Y-69810000D01*
X110140142Y-69811174D01*
G37*
G04 #@! TD.AperFunction*
G04 #@! TA.AperFunction,SMDPad,CuDef*
G36*
X101250142Y-69811174D02*
G01*
X101273803Y-69814684D01*
X101297007Y-69820496D01*
X101319529Y-69828554D01*
X101341153Y-69838782D01*
X101361670Y-69851079D01*
X101380883Y-69865329D01*
X101398607Y-69881393D01*
X101414671Y-69899117D01*
X101428921Y-69918330D01*
X101441218Y-69938847D01*
X101451446Y-69960471D01*
X101459504Y-69982993D01*
X101465316Y-70006197D01*
X101468826Y-70029858D01*
X101470000Y-70053750D01*
X101470000Y-70541250D01*
X101468826Y-70565142D01*
X101465316Y-70588803D01*
X101459504Y-70612007D01*
X101451446Y-70634529D01*
X101441218Y-70656153D01*
X101428921Y-70676670D01*
X101414671Y-70695883D01*
X101398607Y-70713607D01*
X101380883Y-70729671D01*
X101361670Y-70743921D01*
X101341153Y-70756218D01*
X101319529Y-70766446D01*
X101297007Y-70774504D01*
X101273803Y-70780316D01*
X101250142Y-70783826D01*
X101226250Y-70785000D01*
X100313750Y-70785000D01*
X100289858Y-70783826D01*
X100266197Y-70780316D01*
X100242993Y-70774504D01*
X100220471Y-70766446D01*
X100198847Y-70756218D01*
X100178330Y-70743921D01*
X100159117Y-70729671D01*
X100141393Y-70713607D01*
X100125329Y-70695883D01*
X100111079Y-70676670D01*
X100098782Y-70656153D01*
X100088554Y-70634529D01*
X100080496Y-70612007D01*
X100074684Y-70588803D01*
X100071174Y-70565142D01*
X100070000Y-70541250D01*
X100070000Y-70053750D01*
X100071174Y-70029858D01*
X100074684Y-70006197D01*
X100080496Y-69982993D01*
X100088554Y-69960471D01*
X100098782Y-69938847D01*
X100111079Y-69918330D01*
X100125329Y-69899117D01*
X100141393Y-69881393D01*
X100159117Y-69865329D01*
X100178330Y-69851079D01*
X100198847Y-69838782D01*
X100220471Y-69828554D01*
X100242993Y-69820496D01*
X100266197Y-69814684D01*
X100289858Y-69811174D01*
X100313750Y-69810000D01*
X101226250Y-69810000D01*
X101250142Y-69811174D01*
G37*
G04 #@! TD.AperFunction*
G04 #@! TA.AperFunction,SMDPad,CuDef*
G36*
X101250142Y-67936174D02*
G01*
X101273803Y-67939684D01*
X101297007Y-67945496D01*
X101319529Y-67953554D01*
X101341153Y-67963782D01*
X101361670Y-67976079D01*
X101380883Y-67990329D01*
X101398607Y-68006393D01*
X101414671Y-68024117D01*
X101428921Y-68043330D01*
X101441218Y-68063847D01*
X101451446Y-68085471D01*
X101459504Y-68107993D01*
X101465316Y-68131197D01*
X101468826Y-68154858D01*
X101470000Y-68178750D01*
X101470000Y-68666250D01*
X101468826Y-68690142D01*
X101465316Y-68713803D01*
X101459504Y-68737007D01*
X101451446Y-68759529D01*
X101441218Y-68781153D01*
X101428921Y-68801670D01*
X101414671Y-68820883D01*
X101398607Y-68838607D01*
X101380883Y-68854671D01*
X101361670Y-68868921D01*
X101341153Y-68881218D01*
X101319529Y-68891446D01*
X101297007Y-68899504D01*
X101273803Y-68905316D01*
X101250142Y-68908826D01*
X101226250Y-68910000D01*
X100313750Y-68910000D01*
X100289858Y-68908826D01*
X100266197Y-68905316D01*
X100242993Y-68899504D01*
X100220471Y-68891446D01*
X100198847Y-68881218D01*
X100178330Y-68868921D01*
X100159117Y-68854671D01*
X100141393Y-68838607D01*
X100125329Y-68820883D01*
X100111079Y-68801670D01*
X100098782Y-68781153D01*
X100088554Y-68759529D01*
X100080496Y-68737007D01*
X100074684Y-68713803D01*
X100071174Y-68690142D01*
X100070000Y-68666250D01*
X100070000Y-68178750D01*
X100071174Y-68154858D01*
X100074684Y-68131197D01*
X100080496Y-68107993D01*
X100088554Y-68085471D01*
X100098782Y-68063847D01*
X100111079Y-68043330D01*
X100125329Y-68024117D01*
X100141393Y-68006393D01*
X100159117Y-67990329D01*
X100178330Y-67976079D01*
X100198847Y-67963782D01*
X100220471Y-67953554D01*
X100242993Y-67945496D01*
X100266197Y-67939684D01*
X100289858Y-67936174D01*
X100313750Y-67935000D01*
X101226250Y-67935000D01*
X101250142Y-67936174D01*
G37*
G04 #@! TD.AperFunction*
D25*
X151670000Y-53150000D03*
X159920000Y-62150000D03*
X104170000Y-73650000D03*
X154370000Y-55650000D03*
X107882000Y-71138000D03*
X107882000Y-69614000D03*
X118670000Y-61400000D03*
X116760000Y-82035000D03*
X105330000Y-62350000D03*
X111570000Y-80850000D03*
X119160000Y-63850000D03*
X119170000Y-66850000D03*
X119160000Y-65850000D03*
X119160000Y-64850000D03*
X113585000Y-65525000D03*
X112315000Y-65525000D03*
X155570000Y-63650000D03*
X120970000Y-67650000D03*
X141770000Y-72850000D03*
X146970000Y-72850000D03*
X149920000Y-54900000D03*
X119177942Y-62842636D03*
X114855000Y-65525000D03*
X109170000Y-75050000D03*
D26*
X101707500Y-69360000D02*
X100770000Y-70297500D01*
X104115000Y-69360000D02*
X101707500Y-69360000D01*
X108895000Y-62065000D02*
X107370000Y-63590000D01*
X110520000Y-62065000D02*
X108895000Y-62065000D01*
X99382500Y-62250000D02*
X99382500Y-60400000D01*
X151220000Y-54250000D02*
X151220000Y-53600000D01*
X151220000Y-53600000D02*
X151670000Y-53150000D01*
X108700000Y-79400000D02*
X108150000Y-78850000D01*
X108700000Y-80850000D02*
X108700000Y-79400000D01*
X108150000Y-78850000D02*
X106170000Y-78850000D01*
X104115000Y-70310000D02*
X104900000Y-70310000D01*
X104900000Y-70310000D02*
X105215000Y-69995000D01*
X105215000Y-69995000D02*
X105215000Y-68725000D01*
X104900000Y-68410000D02*
X104115000Y-68410000D01*
X105215000Y-68725000D02*
X104900000Y-68410000D01*
X104102500Y-68422500D02*
X104115000Y-68410000D01*
X100770000Y-68422500D02*
X104102500Y-68422500D01*
X100770000Y-67935000D02*
X100770000Y-68422500D01*
X100770000Y-64662500D02*
X100770000Y-67935000D01*
X100307500Y-64200000D02*
X100770000Y-64662500D01*
X99382500Y-64200000D02*
X100307500Y-64200000D01*
D27*
X104115000Y-70310000D02*
X104115000Y-73595000D01*
D26*
X104115000Y-73595000D02*
X104170000Y-73650000D01*
X153220000Y-55650000D02*
X153120000Y-55550000D01*
X154370000Y-55650000D02*
X153220000Y-55650000D01*
X108578000Y-70442000D02*
X107882000Y-71138000D01*
X109449000Y-70442000D02*
X108578000Y-70442000D01*
X107198500Y-70454500D02*
X107882000Y-71138000D01*
X106104000Y-70454500D02*
X107198500Y-70454500D01*
X106327500Y-70297500D02*
X106315000Y-70310000D01*
X107186000Y-70310000D02*
X107882000Y-69614000D01*
X106315000Y-70310000D02*
X107186000Y-70310000D01*
X108565500Y-70297500D02*
X107882000Y-69614000D01*
X109660000Y-70297500D02*
X108565500Y-70297500D01*
X116435000Y-61400000D02*
X116420000Y-61415000D01*
X120232500Y-61400000D02*
X118670000Y-61400000D01*
X118670000Y-61400000D02*
X116435000Y-61400000D01*
X118030000Y-80100000D02*
X118030000Y-80765000D01*
X118030000Y-80765000D02*
X116760000Y-82035000D01*
X115490000Y-80765000D02*
X116760000Y-82035000D01*
X115490000Y-80100000D02*
X115490000Y-80765000D01*
X116760000Y-82035000D02*
X116760000Y-82035000D01*
X107670000Y-61415000D02*
X107370000Y-61715000D01*
X110520000Y-61415000D02*
X107670000Y-61415000D01*
X107370000Y-61715000D02*
X105965000Y-61715000D01*
X105965000Y-61715000D02*
X105330000Y-62350000D01*
X109970000Y-80850000D02*
X111570000Y-80850000D01*
D28*
X103095002Y-60199999D02*
X109514999Y-60199999D01*
X100395001Y-62900000D02*
X103095002Y-60199999D01*
X109554999Y-60239999D02*
X110395001Y-60239999D01*
X99382500Y-62900000D02*
X100395001Y-62900000D01*
X109514999Y-60199999D02*
X109554999Y-60239999D01*
X110395001Y-60239999D02*
X110520000Y-60115000D01*
X110381398Y-60889999D02*
X110506397Y-60765000D01*
X110506397Y-60765000D02*
X110520000Y-60765000D01*
X99382500Y-63550000D02*
X100395001Y-63550000D01*
X100395001Y-63550000D02*
X103295011Y-60649990D01*
X109226000Y-60889999D02*
X110381398Y-60889999D01*
X103295011Y-60649990D02*
X108985991Y-60649990D01*
X108985991Y-60649990D02*
X109226000Y-60889999D01*
D26*
X115369999Y-57300001D02*
X117280000Y-55390000D01*
X116420000Y-59465000D02*
X115534998Y-59465000D01*
X115369999Y-59300001D02*
X115369999Y-57300001D01*
X115534998Y-59465000D02*
X115369999Y-59300001D01*
X117280000Y-54312370D02*
X117280000Y-52850000D01*
X117280000Y-55390000D02*
X117280000Y-54312370D01*
X114740000Y-53927630D02*
X114740000Y-52850000D01*
X114740000Y-59410000D02*
X114740000Y-53927630D01*
X115445000Y-60115000D02*
X114740000Y-59410000D01*
X116420000Y-60115000D02*
X115445000Y-60115000D01*
X116420000Y-62715000D02*
X118025000Y-62715000D01*
X118025000Y-62715000D02*
X119160000Y-63850000D01*
X116420000Y-64665000D02*
X116420000Y-65140000D01*
X116420000Y-65140000D02*
X118130003Y-66850003D01*
X118130006Y-66850000D02*
X119170000Y-66850000D01*
X118130003Y-66850003D02*
X118130006Y-66850000D01*
X119086998Y-65850000D02*
X119160000Y-65850000D01*
X116420000Y-64015000D02*
X117251998Y-64015000D01*
X117251998Y-64015000D02*
X119086998Y-65850000D01*
X140670000Y-73400000D02*
X141920000Y-74650000D01*
X140670000Y-70400000D02*
X140670000Y-73400000D01*
X116420000Y-63365000D02*
X117601998Y-63365000D01*
X119086998Y-64850000D02*
X119160000Y-64850000D01*
X117601998Y-63365000D02*
X119086998Y-64850000D01*
X115490000Y-78225000D02*
X115490000Y-75050000D01*
X113585000Y-60905000D02*
X113585000Y-65525000D01*
X110520000Y-58815000D02*
X111495000Y-58815000D01*
X111495000Y-58815000D02*
X113585000Y-60905000D01*
X108700000Y-76950000D02*
X108700000Y-78400000D01*
X108700000Y-78400000D02*
X108950000Y-78650000D01*
X114365000Y-78650000D02*
X108950000Y-78650000D01*
X114790000Y-78225000D02*
X114365000Y-78650000D01*
X115490000Y-78225000D02*
X114790000Y-78225000D01*
X112315000Y-60285000D02*
X112315000Y-65525000D01*
X110520000Y-59465000D02*
X111495000Y-59465000D01*
X111495000Y-59465000D02*
X112315000Y-60285000D01*
X112950000Y-76150000D02*
X112950000Y-75050000D01*
X112150000Y-76950000D02*
X112950000Y-76150000D01*
X109970000Y-76950000D02*
X112150000Y-76950000D01*
X116420000Y-58815000D02*
X120205000Y-58815000D01*
X120582000Y-58438000D02*
X123454500Y-58438000D01*
X120205000Y-58815000D02*
X120582000Y-58438000D01*
X123454500Y-55709500D02*
X123110000Y-55365000D01*
X123454500Y-58438000D02*
X123454500Y-55709500D01*
X153120000Y-54250000D02*
X154170000Y-54250000D01*
X154170000Y-54250000D02*
X155570000Y-55650000D01*
X155570000Y-55650000D02*
X155570000Y-63650000D01*
X110520000Y-66400000D02*
X110520000Y-64665000D01*
X111770000Y-67650000D02*
X120970000Y-67650000D01*
X110520000Y-66400000D02*
X111770000Y-67650000D01*
X146970000Y-72850000D02*
X141770000Y-72850000D01*
X163170000Y-74400000D02*
X156670000Y-74400000D01*
X151220000Y-54900000D02*
X149920000Y-54900000D01*
X119177942Y-62842636D02*
X118485306Y-62150000D01*
X117395000Y-62065000D02*
X116420000Y-62065000D01*
X117480000Y-62150000D02*
X117395000Y-62065000D01*
X118485306Y-62150000D02*
X117480000Y-62150000D01*
X118030000Y-78225000D02*
X118030000Y-75050000D01*
X128975000Y-73145000D02*
X122475000Y-73145000D01*
X119935000Y-73145000D02*
X118030000Y-75050000D01*
X122475000Y-73145000D02*
X119935000Y-73145000D01*
X114855000Y-61355000D02*
X114855000Y-65525000D01*
X116420000Y-60765000D02*
X115445000Y-60765000D01*
X115445000Y-60765000D02*
X114855000Y-61355000D01*
X104890000Y-75500000D02*
X104890000Y-76950000D01*
X109170000Y-75050000D02*
X105340000Y-75050000D01*
X105340000Y-75050000D02*
X104890000Y-75500000D01*
D29*
G36*
X164510001Y-69018292D02*
G01*
X164305413Y-68944192D01*
X163349605Y-69900000D01*
X164305413Y-70855808D01*
X164510001Y-70781708D01*
X164510001Y-73462531D01*
X164439987Y-73357748D01*
X164212252Y-73130013D01*
X163944463Y-72951082D01*
X163646912Y-72827832D01*
X163331033Y-72765000D01*
X163008967Y-72765000D01*
X162693088Y-72827832D01*
X162395537Y-72951082D01*
X162127748Y-73130013D01*
X161900013Y-73357748D01*
X161721082Y-73625537D01*
X161715091Y-73640000D01*
X158124909Y-73640000D01*
X158118918Y-73625537D01*
X157939987Y-73357748D01*
X157712252Y-73130013D01*
X157444463Y-72951082D01*
X157146912Y-72827832D01*
X156831033Y-72765000D01*
X156508967Y-72765000D01*
X156193088Y-72827832D01*
X155895537Y-72951082D01*
X155627748Y-73130013D01*
X155400013Y-73357748D01*
X155221082Y-73625537D01*
X155097832Y-73923088D01*
X155035000Y-74238967D01*
X155035000Y-74561033D01*
X155097832Y-74876912D01*
X155221082Y-75174463D01*
X155400013Y-75442252D01*
X155627748Y-75669987D01*
X155895537Y-75848918D01*
X156193088Y-75972168D01*
X156508967Y-76035000D01*
X156831033Y-76035000D01*
X157146912Y-75972168D01*
X157444463Y-75848918D01*
X157712252Y-75669987D01*
X157939987Y-75442252D01*
X158118918Y-75174463D01*
X158124909Y-75160000D01*
X161715091Y-75160000D01*
X161721082Y-75174463D01*
X161900013Y-75442252D01*
X162127748Y-75669987D01*
X162395537Y-75848918D01*
X162693088Y-75972168D01*
X163008967Y-76035000D01*
X163331033Y-76035000D01*
X163646912Y-75972168D01*
X163944463Y-75848918D01*
X164212252Y-75669987D01*
X164439987Y-75442252D01*
X164510001Y-75337469D01*
X164510001Y-83990000D01*
X95830000Y-83990000D01*
X95830000Y-80429872D01*
X96935000Y-80429872D01*
X96935000Y-80870128D01*
X97020890Y-81301925D01*
X97189369Y-81708669D01*
X97433962Y-82074729D01*
X97745271Y-82386038D01*
X98111331Y-82630631D01*
X98518075Y-82799110D01*
X98949872Y-82885000D01*
X99390128Y-82885000D01*
X99821925Y-82799110D01*
X100228669Y-82630631D01*
X100594729Y-82386038D01*
X100906038Y-82074729D01*
X101150631Y-81708669D01*
X101319110Y-81301925D01*
X101405000Y-80870128D01*
X101405000Y-80429872D01*
X101319110Y-79998075D01*
X101174933Y-79650000D01*
X104021928Y-79650000D01*
X104021928Y-82050000D01*
X104034188Y-82174482D01*
X104070498Y-82294180D01*
X104129463Y-82404494D01*
X104208815Y-82501185D01*
X104305506Y-82580537D01*
X104415820Y-82639502D01*
X104535518Y-82675812D01*
X104660000Y-82688072D01*
X105400000Y-82688072D01*
X105524482Y-82675812D01*
X105644180Y-82639502D01*
X105665000Y-82628373D01*
X105685820Y-82639502D01*
X105805518Y-82675812D01*
X105930000Y-82688072D01*
X106670000Y-82688072D01*
X106794482Y-82675812D01*
X106914180Y-82639502D01*
X106935000Y-82628373D01*
X106955820Y-82639502D01*
X107075518Y-82675812D01*
X107200000Y-82688072D01*
X107284250Y-82685000D01*
X107443000Y-82526250D01*
X107443000Y-80977000D01*
X107697000Y-80977000D01*
X107697000Y-82526250D01*
X107855750Y-82685000D01*
X107940000Y-82688072D01*
X108064482Y-82675812D01*
X108184180Y-82639502D01*
X108205000Y-82628373D01*
X108225820Y-82639502D01*
X108345518Y-82675812D01*
X108470000Y-82688072D01*
X108554250Y-82685000D01*
X108713000Y-82526250D01*
X108713000Y-80977000D01*
X107697000Y-80977000D01*
X107443000Y-80977000D01*
X107423000Y-80977000D01*
X107423000Y-80723000D01*
X107443000Y-80723000D01*
X107443000Y-79173750D01*
X107284250Y-79015000D01*
X107200000Y-79011928D01*
X107075518Y-79024188D01*
X106955820Y-79060498D01*
X106935000Y-79071627D01*
X106914180Y-79060498D01*
X106794482Y-79024188D01*
X106670000Y-79011928D01*
X105930000Y-79011928D01*
X105805518Y-79024188D01*
X105685820Y-79060498D01*
X105665000Y-79071627D01*
X105644180Y-79060498D01*
X105524482Y-79024188D01*
X105400000Y-79011928D01*
X104660000Y-79011928D01*
X104535518Y-79024188D01*
X104415820Y-79060498D01*
X104305506Y-79119463D01*
X104208815Y-79198815D01*
X104129463Y-79295506D01*
X104070498Y-79405820D01*
X104034188Y-79525518D01*
X104021928Y-79650000D01*
X101174933Y-79650000D01*
X101150631Y-79591331D01*
X100906038Y-79225271D01*
X100594729Y-78913962D01*
X100228669Y-78669369D01*
X99821925Y-78500890D01*
X99390128Y-78415000D01*
X98949872Y-78415000D01*
X98518075Y-78500890D01*
X98111331Y-78669369D01*
X97745271Y-78913962D01*
X97433962Y-79225271D01*
X97189369Y-79591331D01*
X97020890Y-79998075D01*
X96935000Y-80429872D01*
X95830000Y-80429872D01*
X95830000Y-75750000D01*
X104021928Y-75750000D01*
X104021928Y-78150000D01*
X104034188Y-78274482D01*
X104070498Y-78394180D01*
X104129463Y-78504494D01*
X104208815Y-78601185D01*
X104305506Y-78680537D01*
X104415820Y-78739502D01*
X104535518Y-78775812D01*
X104660000Y-78788072D01*
X105400000Y-78788072D01*
X105524482Y-78775812D01*
X105644180Y-78739502D01*
X105665000Y-78728373D01*
X105685820Y-78739502D01*
X105805518Y-78775812D01*
X105930000Y-78788072D01*
X106670000Y-78788072D01*
X106794482Y-78775812D01*
X106914180Y-78739502D01*
X106935000Y-78728373D01*
X106955820Y-78739502D01*
X107075518Y-78775812D01*
X107200000Y-78788072D01*
X107940000Y-78788072D01*
X108040390Y-78778185D01*
X108065026Y-78824276D01*
X108136201Y-78911002D01*
X108160000Y-78940001D01*
X108188997Y-78963798D01*
X108271761Y-79046562D01*
X108225820Y-79060498D01*
X108205000Y-79071627D01*
X108184180Y-79060498D01*
X108064482Y-79024188D01*
X107940000Y-79011928D01*
X107855750Y-79015000D01*
X107697000Y-79173750D01*
X107697000Y-80723000D01*
X108713000Y-80723000D01*
X108713000Y-80703000D01*
X108967000Y-80703000D01*
X108967000Y-80723000D01*
X108987000Y-80723000D01*
X108987000Y-80977000D01*
X108967000Y-80977000D01*
X108967000Y-82526250D01*
X109125750Y-82685000D01*
X109210000Y-82688072D01*
X109334482Y-82675812D01*
X109454180Y-82639502D01*
X109475000Y-82628373D01*
X109495820Y-82639502D01*
X109615518Y-82675812D01*
X109740000Y-82688072D01*
X110480000Y-82688072D01*
X110604482Y-82675812D01*
X110724180Y-82639502D01*
X110834494Y-82580537D01*
X110931185Y-82501185D01*
X111010537Y-82404494D01*
X111069502Y-82294180D01*
X111105812Y-82174482D01*
X111118072Y-82050000D01*
X111118072Y-81783081D01*
X111268102Y-81845226D01*
X111468061Y-81885000D01*
X111671939Y-81885000D01*
X111871898Y-81845226D01*
X112060256Y-81767205D01*
X112229774Y-81653937D01*
X112373937Y-81509774D01*
X112487205Y-81340256D01*
X112565226Y-81151898D01*
X112605000Y-80951939D01*
X112605000Y-80748061D01*
X112565226Y-80548102D01*
X112487205Y-80359744D01*
X112373937Y-80190226D01*
X112229774Y-80046063D01*
X112060256Y-79932795D01*
X111871898Y-79854774D01*
X111671939Y-79815000D01*
X111468061Y-79815000D01*
X111268102Y-79854774D01*
X111118072Y-79916919D01*
X111118072Y-79650000D01*
X111105812Y-79525518D01*
X111070770Y-79410000D01*
X114277203Y-79410000D01*
X114219053Y-79518791D01*
X114168872Y-79684215D01*
X114151928Y-79856250D01*
X114151928Y-80343750D01*
X114168872Y-80515785D01*
X114219053Y-80681209D01*
X114300542Y-80833664D01*
X114410208Y-80967292D01*
X114543836Y-81076958D01*
X114696291Y-81158447D01*
X114861715Y-81208628D01*
X114871716Y-81209613D01*
X114925379Y-81275000D01*
X114950000Y-81305001D01*
X114978998Y-81328799D01*
X115725000Y-82074802D01*
X115725000Y-82136939D01*
X115764774Y-82336898D01*
X115842795Y-82525256D01*
X115956063Y-82694774D01*
X116100226Y-82838937D01*
X116269744Y-82952205D01*
X116458102Y-83030226D01*
X116658061Y-83070000D01*
X116861939Y-83070000D01*
X117035820Y-83035413D01*
X140214192Y-83035413D01*
X140309956Y-83299814D01*
X140599571Y-83440704D01*
X140911108Y-83522384D01*
X141232595Y-83541718D01*
X141551675Y-83497961D01*
X141856088Y-83392795D01*
X142030044Y-83299814D01*
X142125808Y-83035413D01*
X146714192Y-83035413D01*
X146809956Y-83299814D01*
X147099571Y-83440704D01*
X147411108Y-83522384D01*
X147732595Y-83541718D01*
X148051675Y-83497961D01*
X148356088Y-83392795D01*
X148530044Y-83299814D01*
X148625808Y-83035413D01*
X147670000Y-82079605D01*
X146714192Y-83035413D01*
X142125808Y-83035413D01*
X141170000Y-82079605D01*
X140214192Y-83035413D01*
X117035820Y-83035413D01*
X117061898Y-83030226D01*
X117250256Y-82952205D01*
X117419774Y-82838937D01*
X117563937Y-82694774D01*
X117677205Y-82525256D01*
X117755226Y-82336898D01*
X117795000Y-82136939D01*
X117795000Y-82074801D01*
X117907206Y-81962595D01*
X139528282Y-81962595D01*
X139572039Y-82281675D01*
X139677205Y-82586088D01*
X139770186Y-82760044D01*
X140034587Y-82855808D01*
X140990395Y-81900000D01*
X141349605Y-81900000D01*
X142305413Y-82855808D01*
X142569814Y-82760044D01*
X142710704Y-82470429D01*
X142792384Y-82158892D01*
X142804189Y-81962595D01*
X146028282Y-81962595D01*
X146072039Y-82281675D01*
X146177205Y-82586088D01*
X146270186Y-82760044D01*
X146534587Y-82855808D01*
X147490395Y-81900000D01*
X147849605Y-81900000D01*
X148805413Y-82855808D01*
X149069814Y-82760044D01*
X149210704Y-82470429D01*
X149292384Y-82158892D01*
X149311718Y-81837405D01*
X149267961Y-81518325D01*
X149162795Y-81213912D01*
X149069814Y-81039956D01*
X148805413Y-80944192D01*
X147849605Y-81900000D01*
X147490395Y-81900000D01*
X146534587Y-80944192D01*
X146270186Y-81039956D01*
X146129296Y-81329571D01*
X146047616Y-81641108D01*
X146028282Y-81962595D01*
X142804189Y-81962595D01*
X142811718Y-81837405D01*
X142767961Y-81518325D01*
X142662795Y-81213912D01*
X142569814Y-81039956D01*
X142305413Y-80944192D01*
X141349605Y-81900000D01*
X140990395Y-81900000D01*
X140034587Y-80944192D01*
X139770186Y-81039956D01*
X139629296Y-81329571D01*
X139547616Y-81641108D01*
X139528282Y-81962595D01*
X117907206Y-81962595D01*
X118541003Y-81328799D01*
X118570001Y-81305001D01*
X118648284Y-81209613D01*
X118658285Y-81208628D01*
X118823709Y-81158447D01*
X118976164Y-81076958D01*
X119109792Y-80967292D01*
X119219458Y-80833664D01*
X119256380Y-80764587D01*
X140214192Y-80764587D01*
X141170000Y-81720395D01*
X142125808Y-80764587D01*
X146714192Y-80764587D01*
X147670000Y-81720395D01*
X148625808Y-80764587D01*
X148530044Y-80500186D01*
X148385506Y-80429872D01*
X158935000Y-80429872D01*
X158935000Y-80870128D01*
X159020890Y-81301925D01*
X159189369Y-81708669D01*
X159433962Y-82074729D01*
X159745271Y-82386038D01*
X160111331Y-82630631D01*
X160518075Y-82799110D01*
X160949872Y-82885000D01*
X161390128Y-82885000D01*
X161821925Y-82799110D01*
X162228669Y-82630631D01*
X162594729Y-82386038D01*
X162906038Y-82074729D01*
X163150631Y-81708669D01*
X163319110Y-81301925D01*
X163405000Y-80870128D01*
X163405000Y-80429872D01*
X163319110Y-79998075D01*
X163150631Y-79591331D01*
X162906038Y-79225271D01*
X162594729Y-78913962D01*
X162228669Y-78669369D01*
X161821925Y-78500890D01*
X161390128Y-78415000D01*
X160949872Y-78415000D01*
X160518075Y-78500890D01*
X160111331Y-78669369D01*
X159745271Y-78913962D01*
X159433962Y-79225271D01*
X159189369Y-79591331D01*
X159020890Y-79998075D01*
X158935000Y-80429872D01*
X148385506Y-80429872D01*
X148240429Y-80359296D01*
X147928892Y-80277616D01*
X147607405Y-80258282D01*
X147288325Y-80302039D01*
X146983912Y-80407205D01*
X146809956Y-80500186D01*
X146714192Y-80764587D01*
X142125808Y-80764587D01*
X142030044Y-80500186D01*
X141740429Y-80359296D01*
X141428892Y-80277616D01*
X141107405Y-80258282D01*
X140788325Y-80302039D01*
X140483912Y-80407205D01*
X140309956Y-80500186D01*
X140214192Y-80764587D01*
X119256380Y-80764587D01*
X119300947Y-80681209D01*
X119351128Y-80515785D01*
X119368072Y-80343750D01*
X119368072Y-79856250D01*
X119351128Y-79684215D01*
X119300947Y-79518791D01*
X119219458Y-79366336D01*
X119109792Y-79232708D01*
X119024244Y-79162500D01*
X119109792Y-79092292D01*
X119219458Y-78958664D01*
X119300947Y-78806209D01*
X119308772Y-78780413D01*
X121519192Y-78780413D01*
X121614956Y-79044814D01*
X121904571Y-79185704D01*
X122216108Y-79267384D01*
X122537595Y-79286718D01*
X122856675Y-79242961D01*
X123161088Y-79137795D01*
X123335044Y-79044814D01*
X123430808Y-78780413D01*
X128019192Y-78780413D01*
X128114956Y-79044814D01*
X128404571Y-79185704D01*
X128716108Y-79267384D01*
X129037595Y-79286718D01*
X129356675Y-79242961D01*
X129661088Y-79137795D01*
X129835044Y-79044814D01*
X129930808Y-78780413D01*
X128975000Y-77824605D01*
X128019192Y-78780413D01*
X123430808Y-78780413D01*
X122475000Y-77824605D01*
X121519192Y-78780413D01*
X119308772Y-78780413D01*
X119351128Y-78640785D01*
X119368072Y-78468750D01*
X119368072Y-77981250D01*
X119351128Y-77809215D01*
X119320302Y-77707595D01*
X120833282Y-77707595D01*
X120877039Y-78026675D01*
X120982205Y-78331088D01*
X121075186Y-78505044D01*
X121339587Y-78600808D01*
X122295395Y-77645000D01*
X122654605Y-77645000D01*
X123610413Y-78600808D01*
X123874814Y-78505044D01*
X124015704Y-78215429D01*
X124097384Y-77903892D01*
X124109189Y-77707595D01*
X127333282Y-77707595D01*
X127377039Y-78026675D01*
X127482205Y-78331088D01*
X127575186Y-78505044D01*
X127839587Y-78600808D01*
X128795395Y-77645000D01*
X129154605Y-77645000D01*
X130110413Y-78600808D01*
X130374814Y-78505044D01*
X130515704Y-78215429D01*
X130597384Y-77903892D01*
X130616718Y-77582405D01*
X130572961Y-77263325D01*
X130467795Y-76958912D01*
X130374814Y-76784956D01*
X130110413Y-76689192D01*
X129154605Y-77645000D01*
X128795395Y-77645000D01*
X127839587Y-76689192D01*
X127575186Y-76784956D01*
X127434296Y-77074571D01*
X127352616Y-77386108D01*
X127333282Y-77707595D01*
X124109189Y-77707595D01*
X124116718Y-77582405D01*
X124072961Y-77263325D01*
X123967795Y-76958912D01*
X123874814Y-76784956D01*
X123610413Y-76689192D01*
X122654605Y-77645000D01*
X122295395Y-77645000D01*
X121339587Y-76689192D01*
X121075186Y-76784956D01*
X120934296Y-77074571D01*
X120852616Y-77386108D01*
X120833282Y-77707595D01*
X119320302Y-77707595D01*
X119300947Y-77643791D01*
X119219458Y-77491336D01*
X119109792Y-77357708D01*
X118976164Y-77248042D01*
X118823709Y-77166553D01*
X118790000Y-77156327D01*
X118790000Y-76509587D01*
X121519192Y-76509587D01*
X122475000Y-77465395D01*
X123430808Y-76509587D01*
X128019192Y-76509587D01*
X128975000Y-77465395D01*
X129930808Y-76509587D01*
X129835044Y-76245186D01*
X129545429Y-76104296D01*
X129233892Y-76022616D01*
X128912405Y-76003282D01*
X128593325Y-76047039D01*
X128288912Y-76152205D01*
X128114956Y-76245186D01*
X128019192Y-76509587D01*
X123430808Y-76509587D01*
X123335044Y-76245186D01*
X123045429Y-76104296D01*
X122733892Y-76022616D01*
X122412405Y-76003282D01*
X122093325Y-76047039D01*
X121788912Y-76152205D01*
X121614956Y-76245186D01*
X121519192Y-76509587D01*
X118790000Y-76509587D01*
X118790000Y-76328178D01*
X118976632Y-76203475D01*
X119183475Y-75996632D01*
X119345990Y-75753411D01*
X119457932Y-75483158D01*
X119515000Y-75196260D01*
X119515000Y-74903740D01*
X119471209Y-74683592D01*
X120249802Y-73905000D01*
X121020091Y-73905000D01*
X121026082Y-73919463D01*
X121205013Y-74187252D01*
X121432748Y-74414987D01*
X121700537Y-74593918D01*
X121998088Y-74717168D01*
X122313967Y-74780000D01*
X122636033Y-74780000D01*
X122951912Y-74717168D01*
X123249463Y-74593918D01*
X123517252Y-74414987D01*
X123744987Y-74187252D01*
X123923918Y-73919463D01*
X123929909Y-73905000D01*
X127520091Y-73905000D01*
X127526082Y-73919463D01*
X127705013Y-74187252D01*
X127932748Y-74414987D01*
X128200537Y-74593918D01*
X128498088Y-74717168D01*
X128813967Y-74780000D01*
X129136033Y-74780000D01*
X129451912Y-74717168D01*
X129749463Y-74593918D01*
X130017252Y-74414987D01*
X130244987Y-74187252D01*
X130423918Y-73919463D01*
X130547168Y-73621912D01*
X130610000Y-73306033D01*
X130610000Y-72983967D01*
X130547168Y-72668088D01*
X130423918Y-72370537D01*
X130244987Y-72102748D01*
X130017252Y-71875013D01*
X129749463Y-71696082D01*
X129451912Y-71572832D01*
X129263794Y-71535413D01*
X135214192Y-71535413D01*
X135309956Y-71799814D01*
X135599571Y-71940704D01*
X135911108Y-72022384D01*
X136232595Y-72041718D01*
X136551675Y-71997961D01*
X136856088Y-71892795D01*
X137030044Y-71799814D01*
X137125808Y-71535413D01*
X136170000Y-70579605D01*
X135214192Y-71535413D01*
X129263794Y-71535413D01*
X129136033Y-71510000D01*
X128813967Y-71510000D01*
X128498088Y-71572832D01*
X128200537Y-71696082D01*
X127932748Y-71875013D01*
X127705013Y-72102748D01*
X127526082Y-72370537D01*
X127520091Y-72385000D01*
X123929909Y-72385000D01*
X123923918Y-72370537D01*
X123744987Y-72102748D01*
X123517252Y-71875013D01*
X123249463Y-71696082D01*
X122951912Y-71572832D01*
X122636033Y-71510000D01*
X122313967Y-71510000D01*
X121998088Y-71572832D01*
X121700537Y-71696082D01*
X121432748Y-71875013D01*
X121205013Y-72102748D01*
X121026082Y-72370537D01*
X121020091Y-72385000D01*
X119972323Y-72385000D01*
X119935000Y-72381324D01*
X119897677Y-72385000D01*
X119897667Y-72385000D01*
X119786014Y-72395997D01*
X119642753Y-72439454D01*
X119510724Y-72510026D01*
X119394999Y-72604999D01*
X119371201Y-72633997D01*
X118396408Y-73608791D01*
X118176260Y-73565000D01*
X117883740Y-73565000D01*
X117596842Y-73622068D01*
X117326589Y-73734010D01*
X117083368Y-73896525D01*
X116876525Y-74103368D01*
X116760000Y-74277760D01*
X116643475Y-74103368D01*
X116436632Y-73896525D01*
X116193411Y-73734010D01*
X115923158Y-73622068D01*
X115636260Y-73565000D01*
X115343740Y-73565000D01*
X115056842Y-73622068D01*
X114786589Y-73734010D01*
X114543368Y-73896525D01*
X114411513Y-74028380D01*
X114389502Y-73955820D01*
X114330537Y-73845506D01*
X114251185Y-73748815D01*
X114154494Y-73669463D01*
X114044180Y-73610498D01*
X113924482Y-73574188D01*
X113800000Y-73561928D01*
X112100000Y-73561928D01*
X111975518Y-73574188D01*
X111855820Y-73610498D01*
X111745506Y-73669463D01*
X111648815Y-73748815D01*
X111569463Y-73845506D01*
X111510498Y-73955820D01*
X111474188Y-74075518D01*
X111461928Y-74200000D01*
X111461928Y-75900000D01*
X111474188Y-76024482D01*
X111510498Y-76144180D01*
X111534990Y-76190000D01*
X111118072Y-76190000D01*
X111118072Y-75750000D01*
X111105812Y-75625518D01*
X111069502Y-75505820D01*
X111010537Y-75395506D01*
X110931185Y-75298815D01*
X110834494Y-75219463D01*
X110724180Y-75160498D01*
X110604482Y-75124188D01*
X110480000Y-75111928D01*
X110205000Y-75111928D01*
X110205000Y-74948061D01*
X110165226Y-74748102D01*
X110087205Y-74559744D01*
X109973937Y-74390226D01*
X109829774Y-74246063D01*
X109660256Y-74132795D01*
X109471898Y-74054774D01*
X109271939Y-74015000D01*
X109068061Y-74015000D01*
X108868102Y-74054774D01*
X108679744Y-74132795D01*
X108510226Y-74246063D01*
X108466289Y-74290000D01*
X105377322Y-74290000D01*
X105339999Y-74286324D01*
X105302676Y-74290000D01*
X105302667Y-74290000D01*
X105191014Y-74300997D01*
X105080861Y-74334411D01*
X105047753Y-74344454D01*
X104915723Y-74415026D01*
X104913819Y-74416589D01*
X104799999Y-74509999D01*
X104776196Y-74539003D01*
X104379003Y-74936196D01*
X104349999Y-74959999D01*
X104306776Y-75012667D01*
X104255026Y-75075724D01*
X104214288Y-75151939D01*
X104184454Y-75207754D01*
X104140997Y-75351015D01*
X104137590Y-75385603D01*
X104129463Y-75395506D01*
X104070498Y-75505820D01*
X104034188Y-75625518D01*
X104021928Y-75750000D01*
X95830000Y-75750000D01*
X95830000Y-70785000D01*
X99431928Y-70785000D01*
X99444188Y-70909482D01*
X99480498Y-71029180D01*
X99539463Y-71139494D01*
X99618815Y-71236185D01*
X99715506Y-71315537D01*
X99825820Y-71374502D01*
X99945518Y-71410812D01*
X100070000Y-71423072D01*
X100484250Y-71420000D01*
X100643000Y-71261250D01*
X100643000Y-70424500D01*
X100897000Y-70424500D01*
X100897000Y-71261250D01*
X101055750Y-71420000D01*
X101470000Y-71423072D01*
X101594482Y-71410812D01*
X101714180Y-71374502D01*
X101824494Y-71315537D01*
X101921185Y-71236185D01*
X102000537Y-71139494D01*
X102059502Y-71029180D01*
X102095812Y-70909482D01*
X102108072Y-70785000D01*
X102105000Y-70583250D01*
X101946250Y-70424500D01*
X100897000Y-70424500D01*
X100643000Y-70424500D01*
X99593750Y-70424500D01*
X99435000Y-70583250D01*
X99431928Y-70785000D01*
X95830000Y-70785000D01*
X95830000Y-67529053D01*
X95967004Y-67586493D01*
X96205500Y-67635000D01*
X96555500Y-67635000D01*
X96555500Y-64027000D01*
X96535500Y-64027000D01*
X96535500Y-63773000D01*
X96555500Y-63773000D01*
X96555500Y-62027000D01*
X96535500Y-62027000D01*
X96535500Y-61773000D01*
X96555500Y-61773000D01*
X96555500Y-58165000D01*
X96809500Y-58165000D01*
X96809500Y-61773000D01*
X96829500Y-61773000D01*
X96829500Y-62027000D01*
X96809500Y-62027000D01*
X96809500Y-63773000D01*
X96829500Y-63773000D01*
X96829500Y-64027000D01*
X96809500Y-64027000D01*
X96809500Y-67635000D01*
X97159500Y-67635000D01*
X97397996Y-67586493D01*
X97622446Y-67492390D01*
X97824225Y-67356307D01*
X97995578Y-67183474D01*
X98129921Y-66980533D01*
X98222091Y-66755282D01*
X98225962Y-66717609D01*
X98202179Y-66681265D01*
X98222002Y-66644180D01*
X98257548Y-66527002D01*
X98267500Y-66527002D01*
X98267500Y-66431192D01*
X98270572Y-66400000D01*
X98267767Y-66113091D01*
X98443367Y-66159528D01*
X99202895Y-65400000D01*
X99188753Y-65385858D01*
X99368358Y-65206253D01*
X99382500Y-65220395D01*
X99396643Y-65206253D01*
X99576248Y-65385858D01*
X99562105Y-65400000D01*
X99576248Y-65414143D01*
X99396643Y-65593748D01*
X99382500Y-65579605D01*
X98622972Y-66339133D01*
X98685465Y-66575450D01*
X98928178Y-66688850D01*
X99188349Y-66752719D01*
X99455982Y-66764604D01*
X99720791Y-66724048D01*
X99972600Y-66632609D01*
X100010001Y-66612618D01*
X100010001Y-67353827D01*
X99976291Y-67364053D01*
X99823836Y-67445542D01*
X99690208Y-67555208D01*
X99580542Y-67688836D01*
X99499053Y-67841291D01*
X99448872Y-68006715D01*
X99431928Y-68178750D01*
X99431928Y-68666250D01*
X99448872Y-68838285D01*
X99499053Y-69003709D01*
X99580542Y-69156164D01*
X99690208Y-69289792D01*
X99696564Y-69295008D01*
X99618815Y-69358815D01*
X99539463Y-69455506D01*
X99480498Y-69565820D01*
X99444188Y-69685518D01*
X99431928Y-69810000D01*
X99435000Y-70011750D01*
X99593750Y-70170500D01*
X100643000Y-70170500D01*
X100643000Y-70150500D01*
X100897000Y-70150500D01*
X100897000Y-70170500D01*
X101946250Y-70170500D01*
X102105000Y-70011750D01*
X102108072Y-69810000D01*
X102095812Y-69685518D01*
X102059502Y-69565820D01*
X102000537Y-69455506D01*
X101921185Y-69358815D01*
X101843436Y-69295008D01*
X101849792Y-69289792D01*
X101937845Y-69182500D01*
X103058250Y-69182500D01*
X103108750Y-69233000D01*
X103190859Y-69233000D01*
X103230506Y-69265537D01*
X103340820Y-69324502D01*
X103457841Y-69360000D01*
X103340820Y-69395498D01*
X103230506Y-69454463D01*
X103190859Y-69487000D01*
X103108750Y-69487000D01*
X102950000Y-69645750D01*
X102946928Y-69685000D01*
X102959188Y-69809482D01*
X102966929Y-69835000D01*
X102959188Y-69860518D01*
X102946928Y-69985000D01*
X102946928Y-70635000D01*
X102959188Y-70759482D01*
X102995498Y-70879180D01*
X103054463Y-70989494D01*
X103133815Y-71086185D01*
X103230000Y-71165122D01*
X103230001Y-73214773D01*
X103174774Y-73348102D01*
X103135000Y-73548061D01*
X103135000Y-73751939D01*
X103174774Y-73951898D01*
X103252795Y-74140256D01*
X103366063Y-74309774D01*
X103510226Y-74453937D01*
X103679744Y-74567205D01*
X103868102Y-74645226D01*
X104068061Y-74685000D01*
X104271939Y-74685000D01*
X104471898Y-74645226D01*
X104660256Y-74567205D01*
X104829774Y-74453937D01*
X104973937Y-74309774D01*
X105087205Y-74140256D01*
X105165226Y-73951898D01*
X105205000Y-73751939D01*
X105205000Y-73548061D01*
X105165226Y-73348102D01*
X105087205Y-73159744D01*
X105000000Y-73029232D01*
X105000000Y-71165122D01*
X105096185Y-71086185D01*
X105141531Y-71030930D01*
X105192247Y-71015546D01*
X105251468Y-70983891D01*
X105254463Y-70989494D01*
X105333815Y-71086185D01*
X105430506Y-71165537D01*
X105540820Y-71224502D01*
X105660518Y-71260812D01*
X105785000Y-71273072D01*
X106845000Y-71273072D01*
X106853425Y-71272242D01*
X106886774Y-71439898D01*
X106964795Y-71628256D01*
X107078063Y-71797774D01*
X107222226Y-71941937D01*
X107391744Y-72055205D01*
X107580102Y-72133226D01*
X107780061Y-72173000D01*
X107983939Y-72173000D01*
X108183898Y-72133226D01*
X108372256Y-72055205D01*
X108541774Y-71941937D01*
X108685937Y-71797774D01*
X108799205Y-71628256D01*
X108877226Y-71439898D01*
X108892352Y-71363853D01*
X109031715Y-71406128D01*
X109203750Y-71423072D01*
X110116250Y-71423072D01*
X110288285Y-71406128D01*
X110453709Y-71355947D01*
X110606164Y-71274458D01*
X110739792Y-71164792D01*
X110849458Y-71031164D01*
X110930947Y-70878709D01*
X110981128Y-70713285D01*
X110998072Y-70541250D01*
X110998072Y-70462595D01*
X134528282Y-70462595D01*
X134572039Y-70781675D01*
X134677205Y-71086088D01*
X134770186Y-71260044D01*
X135034587Y-71355808D01*
X135990395Y-70400000D01*
X136349605Y-70400000D01*
X137305413Y-71355808D01*
X137569814Y-71260044D01*
X137710704Y-70970429D01*
X137792384Y-70658892D01*
X137811718Y-70337405D01*
X137767961Y-70018325D01*
X137662795Y-69713912D01*
X137569814Y-69539956D01*
X137305413Y-69444192D01*
X136349605Y-70400000D01*
X135990395Y-70400000D01*
X135034587Y-69444192D01*
X134770186Y-69539956D01*
X134629296Y-69829571D01*
X134547616Y-70141108D01*
X134528282Y-70462595D01*
X110998072Y-70462595D01*
X110998072Y-70053750D01*
X110981128Y-69881715D01*
X110930947Y-69716291D01*
X110849458Y-69563836D01*
X110739792Y-69430208D01*
X110733436Y-69424992D01*
X110811185Y-69361185D01*
X110890460Y-69264587D01*
X135214192Y-69264587D01*
X136170000Y-70220395D01*
X137125808Y-69264587D01*
X137030044Y-69000186D01*
X136740429Y-68859296D01*
X136428892Y-68777616D01*
X136107405Y-68758282D01*
X135788325Y-68802039D01*
X135483912Y-68907205D01*
X135309956Y-69000186D01*
X135214192Y-69264587D01*
X110890460Y-69264587D01*
X110890537Y-69264494D01*
X110949502Y-69154180D01*
X110985812Y-69034482D01*
X110998072Y-68910000D01*
X110995000Y-68708250D01*
X110836250Y-68549500D01*
X109787000Y-68549500D01*
X109787000Y-68569500D01*
X109533000Y-68569500D01*
X109533000Y-68549500D01*
X108483750Y-68549500D01*
X108346941Y-68686309D01*
X108183898Y-68618774D01*
X107983939Y-68579000D01*
X107780061Y-68579000D01*
X107580102Y-68618774D01*
X107483072Y-68658965D01*
X107483072Y-68085000D01*
X107470812Y-67960518D01*
X107463072Y-67935000D01*
X108321928Y-67935000D01*
X108325000Y-68136750D01*
X108483750Y-68295500D01*
X109533000Y-68295500D01*
X109533000Y-67458750D01*
X109374250Y-67300000D01*
X108960000Y-67296928D01*
X108835518Y-67309188D01*
X108715820Y-67345498D01*
X108605506Y-67404463D01*
X108508815Y-67483815D01*
X108429463Y-67580506D01*
X108370498Y-67690820D01*
X108334188Y-67810518D01*
X108321928Y-67935000D01*
X107463072Y-67935000D01*
X107434502Y-67840820D01*
X107375537Y-67730506D01*
X107296185Y-67633815D01*
X107199494Y-67554463D01*
X107089180Y-67495498D01*
X106969482Y-67459188D01*
X106845000Y-67446928D01*
X105785000Y-67446928D01*
X105660518Y-67459188D01*
X105540820Y-67495498D01*
X105430506Y-67554463D01*
X105333815Y-67633815D01*
X105254463Y-67730506D01*
X105251468Y-67736109D01*
X105192247Y-67704454D01*
X105141531Y-67689070D01*
X105096185Y-67633815D01*
X104999494Y-67554463D01*
X104889180Y-67495498D01*
X104769482Y-67459188D01*
X104645000Y-67446928D01*
X103585000Y-67446928D01*
X103460518Y-67459188D01*
X103340820Y-67495498D01*
X103230506Y-67554463D01*
X103133815Y-67633815D01*
X103110274Y-67662500D01*
X101937845Y-67662500D01*
X101849792Y-67555208D01*
X101716164Y-67445542D01*
X101563709Y-67364053D01*
X101530000Y-67353827D01*
X101530000Y-64699825D01*
X101533676Y-64662500D01*
X101530000Y-64625175D01*
X101530000Y-64625167D01*
X101519003Y-64513514D01*
X101475546Y-64370253D01*
X101404974Y-64238224D01*
X101310001Y-64122499D01*
X101280998Y-64098697D01*
X101259801Y-64077500D01*
X106031928Y-64077500D01*
X106044188Y-64201982D01*
X106080498Y-64321680D01*
X106139463Y-64431994D01*
X106218815Y-64528685D01*
X106315506Y-64608037D01*
X106425820Y-64667002D01*
X106545518Y-64703312D01*
X106670000Y-64715572D01*
X107084250Y-64712500D01*
X107243000Y-64553750D01*
X107243000Y-63717000D01*
X107497000Y-63717000D01*
X107497000Y-64553750D01*
X107655750Y-64712500D01*
X108070000Y-64715572D01*
X108194482Y-64703312D01*
X108314180Y-64667002D01*
X108424494Y-64608037D01*
X108521185Y-64528685D01*
X108600537Y-64431994D01*
X108659502Y-64321680D01*
X108695812Y-64201982D01*
X108708072Y-64077500D01*
X108705000Y-63875750D01*
X108546250Y-63717000D01*
X107497000Y-63717000D01*
X107243000Y-63717000D01*
X106193750Y-63717000D01*
X106035000Y-63875750D01*
X106031928Y-64077500D01*
X101259801Y-64077500D01*
X101083374Y-63901073D01*
X103599458Y-61384990D01*
X104955155Y-61384990D01*
X104839744Y-61432795D01*
X104670226Y-61546063D01*
X104526063Y-61690226D01*
X104412795Y-61859744D01*
X104334774Y-62048102D01*
X104295000Y-62248061D01*
X104295000Y-62451939D01*
X104334774Y-62651898D01*
X104412795Y-62840256D01*
X104526063Y-63009774D01*
X104670226Y-63153937D01*
X104839744Y-63267205D01*
X105028102Y-63345226D01*
X105228061Y-63385000D01*
X105431939Y-63385000D01*
X105631898Y-63345226D01*
X105820256Y-63267205D01*
X105989774Y-63153937D01*
X106032067Y-63111644D01*
X106035000Y-63304250D01*
X106193750Y-63463000D01*
X107243000Y-63463000D01*
X107243000Y-63443000D01*
X107497000Y-63443000D01*
X107497000Y-63463000D01*
X108546250Y-63463000D01*
X108705000Y-63304250D01*
X108708072Y-63102500D01*
X108695812Y-62978018D01*
X108659502Y-62858320D01*
X108600537Y-62748006D01*
X108521185Y-62651315D01*
X108443436Y-62587508D01*
X108449792Y-62582292D01*
X108559458Y-62448664D01*
X108640947Y-62296209D01*
X108677715Y-62175000D01*
X109160000Y-62175000D01*
X109160000Y-62192002D01*
X109234265Y-62192002D01*
X109205498Y-62245820D01*
X109192247Y-62289503D01*
X109160000Y-62321750D01*
X109167095Y-62386773D01*
X109156928Y-62490000D01*
X109156928Y-62940000D01*
X109166777Y-63040000D01*
X109156928Y-63140000D01*
X109156928Y-63590000D01*
X109166777Y-63690000D01*
X109156928Y-63790000D01*
X109156928Y-64240000D01*
X109166777Y-64340000D01*
X109156928Y-64440000D01*
X109156928Y-64890000D01*
X109169188Y-65014482D01*
X109205498Y-65134180D01*
X109264463Y-65244494D01*
X109343815Y-65341185D01*
X109440506Y-65420537D01*
X109550820Y-65479502D01*
X109670518Y-65515812D01*
X109760001Y-65524625D01*
X109760000Y-66362677D01*
X109756324Y-66400000D01*
X109760000Y-66437322D01*
X109760000Y-66437332D01*
X109770997Y-66548985D01*
X109803087Y-66654774D01*
X109814454Y-66692246D01*
X109885026Y-66824276D01*
X109906139Y-66850002D01*
X109979999Y-66940001D01*
X110009003Y-66963804D01*
X110342258Y-67297060D01*
X109945750Y-67300000D01*
X109787000Y-67458750D01*
X109787000Y-68295500D01*
X110836250Y-68295500D01*
X110995000Y-68136750D01*
X110997804Y-67952606D01*
X111206201Y-68161003D01*
X111229999Y-68190001D01*
X111258997Y-68213799D01*
X111345723Y-68284974D01*
X111477753Y-68355546D01*
X111621014Y-68399003D01*
X111732667Y-68410000D01*
X111732677Y-68410000D01*
X111770000Y-68413676D01*
X111807323Y-68410000D01*
X120266289Y-68410000D01*
X120310226Y-68453937D01*
X120479744Y-68567205D01*
X120668102Y-68645226D01*
X120868061Y-68685000D01*
X121071939Y-68685000D01*
X121271898Y-68645226D01*
X121460256Y-68567205D01*
X121629774Y-68453937D01*
X121773937Y-68309774D01*
X121887205Y-68140256D01*
X121965226Y-67951898D01*
X122005000Y-67751939D01*
X122005000Y-67548061D01*
X121965226Y-67348102D01*
X121887205Y-67159744D01*
X121773937Y-66990226D01*
X121629774Y-66846063D01*
X121460256Y-66732795D01*
X121271898Y-66654774D01*
X121071939Y-66615000D01*
X120868061Y-66615000D01*
X120668102Y-66654774D01*
X120479744Y-66732795D01*
X120310226Y-66846063D01*
X120266289Y-66890000D01*
X120205000Y-66890000D01*
X120205000Y-66748061D01*
X120165226Y-66548102D01*
X120087205Y-66359744D01*
X120075694Y-66342517D01*
X120077205Y-66340256D01*
X120090812Y-66307404D01*
X137455000Y-66307404D01*
X137455000Y-67992597D01*
X137482275Y-68269524D01*
X137590062Y-68624848D01*
X137765098Y-68952317D01*
X138000656Y-69239345D01*
X138287684Y-69474903D01*
X138615153Y-69649939D01*
X138970477Y-69757725D01*
X139158651Y-69776259D01*
X139097832Y-69923088D01*
X139035000Y-70238967D01*
X139035000Y-70561033D01*
X139097832Y-70876912D01*
X139221082Y-71174463D01*
X139400013Y-71442252D01*
X139627748Y-71669987D01*
X139895537Y-71848918D01*
X139910000Y-71854909D01*
X139910001Y-73362668D01*
X139906324Y-73400000D01*
X139920998Y-73548985D01*
X139964454Y-73692246D01*
X140035026Y-73824276D01*
X140086705Y-73887246D01*
X140130000Y-73940001D01*
X140158998Y-73963799D01*
X140353823Y-74158624D01*
X140347832Y-74173088D01*
X140285000Y-74488967D01*
X140285000Y-74811033D01*
X140347832Y-75126912D01*
X140471082Y-75424463D01*
X140650013Y-75692252D01*
X140770245Y-75812484D01*
X140693088Y-75827832D01*
X140395537Y-75951082D01*
X140127748Y-76130013D01*
X139900013Y-76357748D01*
X139721082Y-76625537D01*
X139597832Y-76923088D01*
X139535000Y-77238967D01*
X139535000Y-77561033D01*
X139597832Y-77876912D01*
X139721082Y-78174463D01*
X139900013Y-78442252D01*
X140127748Y-78669987D01*
X140395537Y-78848918D01*
X140693088Y-78972168D01*
X141008967Y-79035000D01*
X141331033Y-79035000D01*
X141646912Y-78972168D01*
X141944463Y-78848918D01*
X142212252Y-78669987D01*
X142439987Y-78442252D01*
X142618918Y-78174463D01*
X142742168Y-77876912D01*
X142805000Y-77561033D01*
X142805000Y-77238967D01*
X142742168Y-76923088D01*
X142618918Y-76625537D01*
X142439987Y-76357748D01*
X142319755Y-76237516D01*
X142396912Y-76222168D01*
X142694463Y-76098918D01*
X142962252Y-75919987D01*
X143096826Y-75785413D01*
X143464192Y-75785413D01*
X143559956Y-76049814D01*
X143849571Y-76190704D01*
X144161108Y-76272384D01*
X144482595Y-76291718D01*
X144801675Y-76247961D01*
X145106088Y-76142795D01*
X145280044Y-76049814D01*
X145375808Y-75785413D01*
X144420000Y-74829605D01*
X143464192Y-75785413D01*
X143096826Y-75785413D01*
X143189987Y-75692252D01*
X143254925Y-75595065D01*
X143284587Y-75605808D01*
X144240395Y-74650000D01*
X144226253Y-74635858D01*
X144405858Y-74456253D01*
X144420000Y-74470395D01*
X144434143Y-74456253D01*
X144613748Y-74635858D01*
X144599605Y-74650000D01*
X145555413Y-75605808D01*
X145585075Y-75595065D01*
X145650013Y-75692252D01*
X145877748Y-75919987D01*
X146145537Y-76098918D01*
X146443088Y-76222168D01*
X146520245Y-76237516D01*
X146400013Y-76357748D01*
X146221082Y-76625537D01*
X146097832Y-76923088D01*
X146035000Y-77238967D01*
X146035000Y-77561033D01*
X146097832Y-77876912D01*
X146221082Y-78174463D01*
X146400013Y-78442252D01*
X146627748Y-78669987D01*
X146895537Y-78848918D01*
X147193088Y-78972168D01*
X147508967Y-79035000D01*
X147831033Y-79035000D01*
X148146912Y-78972168D01*
X148444463Y-78848918D01*
X148712252Y-78669987D01*
X148939987Y-78442252D01*
X149118918Y-78174463D01*
X149242168Y-77876912D01*
X149305000Y-77561033D01*
X149305000Y-77238967D01*
X149242168Y-76923088D01*
X149118918Y-76625537D01*
X148939987Y-76357748D01*
X148712252Y-76130013D01*
X148444463Y-75951082D01*
X148146912Y-75827832D01*
X148069755Y-75812484D01*
X148189987Y-75692252D01*
X148368918Y-75424463D01*
X148492168Y-75126912D01*
X148555000Y-74811033D01*
X148555000Y-74488967D01*
X148492168Y-74173088D01*
X148368918Y-73875537D01*
X148189987Y-73607748D01*
X147962252Y-73380013D01*
X147890575Y-73332120D01*
X147965226Y-73151898D01*
X148005000Y-72951939D01*
X148005000Y-72748061D01*
X147965226Y-72548102D01*
X147887205Y-72359744D01*
X147773937Y-72190226D01*
X147629774Y-72046063D01*
X147460256Y-71932795D01*
X147271898Y-71854774D01*
X147071939Y-71815000D01*
X146868061Y-71815000D01*
X146668102Y-71854774D01*
X146479744Y-71932795D01*
X146310226Y-72046063D01*
X146266289Y-72090000D01*
X142473711Y-72090000D01*
X142429774Y-72046063D01*
X142260256Y-71932795D01*
X142071898Y-71854774D01*
X141871939Y-71815000D01*
X141668061Y-71815000D01*
X141468102Y-71854774D01*
X141430000Y-71870556D01*
X141430000Y-71854909D01*
X141444463Y-71848918D01*
X141712252Y-71669987D01*
X141939987Y-71442252D01*
X142118918Y-71174463D01*
X142242168Y-70876912D01*
X142305000Y-70561033D01*
X142305000Y-70238967D01*
X142242168Y-69923088D01*
X142118918Y-69625537D01*
X141939987Y-69357748D01*
X141712252Y-69130013D01*
X141444463Y-68951082D01*
X141146912Y-68827832D01*
X140997344Y-68798081D01*
X141089939Y-68624848D01*
X141197725Y-68269524D01*
X141225000Y-67992597D01*
X141225000Y-66307403D01*
X141197725Y-66030476D01*
X141089939Y-65675152D01*
X140997344Y-65501919D01*
X141146912Y-65472168D01*
X141444463Y-65348918D01*
X141712252Y-65169987D01*
X141939987Y-64942252D01*
X142118918Y-64674463D01*
X142242168Y-64376912D01*
X142305000Y-64061033D01*
X142305000Y-63738967D01*
X146535000Y-63738967D01*
X146535000Y-64061033D01*
X146597832Y-64376912D01*
X146721082Y-64674463D01*
X146900013Y-64942252D01*
X147127748Y-65169987D01*
X147395537Y-65348918D01*
X147693088Y-65472168D01*
X147842657Y-65501919D01*
X147750062Y-65675152D01*
X147642275Y-66030476D01*
X147615000Y-66307403D01*
X147615000Y-67992596D01*
X147642275Y-68269523D01*
X147750061Y-68624847D01*
X147842656Y-68798081D01*
X147693088Y-68827832D01*
X147395537Y-68951082D01*
X147127748Y-69130013D01*
X146900013Y-69357748D01*
X146721082Y-69625537D01*
X146597832Y-69923088D01*
X146535000Y-70238967D01*
X146535000Y-70561033D01*
X146597832Y-70876912D01*
X146721082Y-71174463D01*
X146900013Y-71442252D01*
X147127748Y-71669987D01*
X147395537Y-71848918D01*
X147693088Y-71972168D01*
X148008967Y-72035000D01*
X148331033Y-72035000D01*
X148646912Y-71972168D01*
X148944463Y-71848918D01*
X149212252Y-71669987D01*
X149346826Y-71535413D01*
X151714192Y-71535413D01*
X151809956Y-71799814D01*
X152099571Y-71940704D01*
X152411108Y-72022384D01*
X152732595Y-72041718D01*
X153051675Y-71997961D01*
X153356088Y-71892795D01*
X153530044Y-71799814D01*
X153625808Y-71535413D01*
X152670000Y-70579605D01*
X151714192Y-71535413D01*
X149346826Y-71535413D01*
X149439987Y-71442252D01*
X149618918Y-71174463D01*
X149742168Y-70876912D01*
X149805000Y-70561033D01*
X149805000Y-70462595D01*
X151028282Y-70462595D01*
X151072039Y-70781675D01*
X151177205Y-71086088D01*
X151270186Y-71260044D01*
X151534587Y-71355808D01*
X152490395Y-70400000D01*
X152849605Y-70400000D01*
X153805413Y-71355808D01*
X154069814Y-71260044D01*
X154179091Y-71035413D01*
X155714192Y-71035413D01*
X155809956Y-71299814D01*
X156099571Y-71440704D01*
X156411108Y-71522384D01*
X156732595Y-71541718D01*
X157051675Y-71497961D01*
X157356088Y-71392795D01*
X157530044Y-71299814D01*
X157625808Y-71035413D01*
X162214192Y-71035413D01*
X162309956Y-71299814D01*
X162599571Y-71440704D01*
X162911108Y-71522384D01*
X163232595Y-71541718D01*
X163551675Y-71497961D01*
X163856088Y-71392795D01*
X164030044Y-71299814D01*
X164125808Y-71035413D01*
X163170000Y-70079605D01*
X162214192Y-71035413D01*
X157625808Y-71035413D01*
X156670000Y-70079605D01*
X155714192Y-71035413D01*
X154179091Y-71035413D01*
X154210704Y-70970429D01*
X154292384Y-70658892D01*
X154311718Y-70337405D01*
X154267961Y-70018325D01*
X154248708Y-69962595D01*
X155028282Y-69962595D01*
X155072039Y-70281675D01*
X155177205Y-70586088D01*
X155270186Y-70760044D01*
X155534587Y-70855808D01*
X156490395Y-69900000D01*
X156849605Y-69900000D01*
X157805413Y-70855808D01*
X158069814Y-70760044D01*
X158210704Y-70470429D01*
X158292384Y-70158892D01*
X158304189Y-69962595D01*
X161528282Y-69962595D01*
X161572039Y-70281675D01*
X161677205Y-70586088D01*
X161770186Y-70760044D01*
X162034587Y-70855808D01*
X162990395Y-69900000D01*
X162034587Y-68944192D01*
X161770186Y-69039956D01*
X161629296Y-69329571D01*
X161547616Y-69641108D01*
X161528282Y-69962595D01*
X158304189Y-69962595D01*
X158311718Y-69837405D01*
X158267961Y-69518325D01*
X158162795Y-69213912D01*
X158069814Y-69039956D01*
X157805413Y-68944192D01*
X156849605Y-69900000D01*
X156490395Y-69900000D01*
X155534587Y-68944192D01*
X155270186Y-69039956D01*
X155129296Y-69329571D01*
X155047616Y-69641108D01*
X155028282Y-69962595D01*
X154248708Y-69962595D01*
X154162795Y-69713912D01*
X154069814Y-69539956D01*
X153805413Y-69444192D01*
X152849605Y-70400000D01*
X152490395Y-70400000D01*
X151534587Y-69444192D01*
X151270186Y-69539956D01*
X151129296Y-69829571D01*
X151047616Y-70141108D01*
X151028282Y-70462595D01*
X149805000Y-70462595D01*
X149805000Y-70238967D01*
X149742168Y-69923088D01*
X149681349Y-69776259D01*
X149869523Y-69757725D01*
X150224847Y-69649939D01*
X150552317Y-69474903D01*
X150808587Y-69264587D01*
X151714192Y-69264587D01*
X152670000Y-70220395D01*
X153625808Y-69264587D01*
X153530044Y-69000186D01*
X153240429Y-68859296D01*
X152928892Y-68777616D01*
X152712245Y-68764587D01*
X155714192Y-68764587D01*
X156670000Y-69720395D01*
X157625808Y-68764587D01*
X162214192Y-68764587D01*
X163170000Y-69720395D01*
X164125808Y-68764587D01*
X164030044Y-68500186D01*
X163740429Y-68359296D01*
X163428892Y-68277616D01*
X163107405Y-68258282D01*
X162788325Y-68302039D01*
X162483912Y-68407205D01*
X162309956Y-68500186D01*
X162214192Y-68764587D01*
X157625808Y-68764587D01*
X157530044Y-68500186D01*
X157240429Y-68359296D01*
X156928892Y-68277616D01*
X156607405Y-68258282D01*
X156288325Y-68302039D01*
X155983912Y-68407205D01*
X155809956Y-68500186D01*
X155714192Y-68764587D01*
X152712245Y-68764587D01*
X152607405Y-68758282D01*
X152288325Y-68802039D01*
X151983912Y-68907205D01*
X151809956Y-69000186D01*
X151714192Y-69264587D01*
X150808587Y-69264587D01*
X150839345Y-69239345D01*
X151074903Y-68952317D01*
X151249939Y-68624848D01*
X151357725Y-68269524D01*
X151385000Y-67992597D01*
X151385000Y-66307403D01*
X151357725Y-66030476D01*
X151249939Y-65675152D01*
X151074903Y-65347683D01*
X150839345Y-65060655D01*
X150808588Y-65035413D01*
X151714192Y-65035413D01*
X151809956Y-65299814D01*
X152099571Y-65440704D01*
X152411108Y-65522384D01*
X152732595Y-65541718D01*
X153051675Y-65497961D01*
X153356088Y-65392795D01*
X153530044Y-65299814D01*
X153625808Y-65035413D01*
X152670000Y-64079605D01*
X151714192Y-65035413D01*
X150808588Y-65035413D01*
X150552317Y-64825097D01*
X150224848Y-64650061D01*
X149869524Y-64542275D01*
X149681349Y-64523741D01*
X149742168Y-64376912D01*
X149805000Y-64061033D01*
X149805000Y-63962595D01*
X151028282Y-63962595D01*
X151072039Y-64281675D01*
X151177205Y-64586088D01*
X151270186Y-64760044D01*
X151534587Y-64855808D01*
X152490395Y-63900000D01*
X152849605Y-63900000D01*
X153805413Y-64855808D01*
X154069814Y-64760044D01*
X154210704Y-64470429D01*
X154292384Y-64158892D01*
X154311718Y-63837405D01*
X154267961Y-63518325D01*
X154162795Y-63213912D01*
X154069814Y-63039956D01*
X153805413Y-62944192D01*
X152849605Y-63900000D01*
X152490395Y-63900000D01*
X151534587Y-62944192D01*
X151270186Y-63039956D01*
X151129296Y-63329571D01*
X151047616Y-63641108D01*
X151028282Y-63962595D01*
X149805000Y-63962595D01*
X149805000Y-63738967D01*
X149742168Y-63423088D01*
X149618918Y-63125537D01*
X149439987Y-62857748D01*
X149346826Y-62764587D01*
X151714192Y-62764587D01*
X152670000Y-63720395D01*
X153625808Y-62764587D01*
X153530044Y-62500186D01*
X153240429Y-62359296D01*
X152928892Y-62277616D01*
X152607405Y-62258282D01*
X152288325Y-62302039D01*
X151983912Y-62407205D01*
X151809956Y-62500186D01*
X151714192Y-62764587D01*
X149346826Y-62764587D01*
X149212252Y-62630013D01*
X148944463Y-62451082D01*
X148646912Y-62327832D01*
X148331033Y-62265000D01*
X148008967Y-62265000D01*
X147693088Y-62327832D01*
X147395537Y-62451082D01*
X147127748Y-62630013D01*
X146900013Y-62857748D01*
X146721082Y-63125537D01*
X146597832Y-63423088D01*
X146535000Y-63738967D01*
X142305000Y-63738967D01*
X142242168Y-63423088D01*
X142118918Y-63125537D01*
X141939987Y-62857748D01*
X141712252Y-62630013D01*
X141444463Y-62451082D01*
X141146912Y-62327832D01*
X140831033Y-62265000D01*
X140508967Y-62265000D01*
X140193088Y-62327832D01*
X139895537Y-62451082D01*
X139627748Y-62630013D01*
X139400013Y-62857748D01*
X139221082Y-63125537D01*
X139097832Y-63423088D01*
X139035000Y-63738967D01*
X139035000Y-64061033D01*
X139097832Y-64376912D01*
X139158651Y-64523741D01*
X138970476Y-64542275D01*
X138615152Y-64650061D01*
X138287683Y-64825097D01*
X138000655Y-65060655D01*
X137765097Y-65347683D01*
X137590061Y-65675153D01*
X137482275Y-66030477D01*
X137455000Y-66307404D01*
X120090812Y-66307404D01*
X120155226Y-66151898D01*
X120195000Y-65951939D01*
X120195000Y-65748061D01*
X120155226Y-65548102D01*
X120077205Y-65359744D01*
X120070694Y-65350000D01*
X120077205Y-65340256D01*
X120155226Y-65151898D01*
X120178396Y-65035413D01*
X135214192Y-65035413D01*
X135309956Y-65299814D01*
X135599571Y-65440704D01*
X135911108Y-65522384D01*
X136232595Y-65541718D01*
X136551675Y-65497961D01*
X136856088Y-65392795D01*
X137030044Y-65299814D01*
X137125808Y-65035413D01*
X136170000Y-64079605D01*
X135214192Y-65035413D01*
X120178396Y-65035413D01*
X120195000Y-64951939D01*
X120195000Y-64748061D01*
X120155226Y-64548102D01*
X120077205Y-64359744D01*
X120070694Y-64350000D01*
X120077205Y-64340256D01*
X120155226Y-64151898D01*
X120192880Y-63962595D01*
X134528282Y-63962595D01*
X134572039Y-64281675D01*
X134677205Y-64586088D01*
X134770186Y-64760044D01*
X135034587Y-64855808D01*
X135990395Y-63900000D01*
X136349605Y-63900000D01*
X137305413Y-64855808D01*
X137569814Y-64760044D01*
X137710704Y-64470429D01*
X137792384Y-64158892D01*
X137811718Y-63837405D01*
X137767961Y-63518325D01*
X137662795Y-63213912D01*
X137569814Y-63039956D01*
X137305413Y-62944192D01*
X136349605Y-63900000D01*
X135990395Y-63900000D01*
X135034587Y-62944192D01*
X134770186Y-63039956D01*
X134629296Y-63329571D01*
X134547616Y-63641108D01*
X134528282Y-63962595D01*
X120192880Y-63962595D01*
X120195000Y-63951939D01*
X120195000Y-63748061D01*
X120155226Y-63548102D01*
X120077205Y-63359744D01*
X120095147Y-63332892D01*
X120173168Y-63144534D01*
X120212942Y-62944575D01*
X120212942Y-62764587D01*
X135214192Y-62764587D01*
X136170000Y-63720395D01*
X137125808Y-62764587D01*
X137030044Y-62500186D01*
X136740429Y-62359296D01*
X136428892Y-62277616D01*
X136107405Y-62258282D01*
X135788325Y-62302039D01*
X135483912Y-62407205D01*
X135309956Y-62500186D01*
X135214192Y-62764587D01*
X120212942Y-62764587D01*
X120212942Y-62740697D01*
X120212420Y-62738072D01*
X120476250Y-62738072D01*
X120648285Y-62721128D01*
X120813709Y-62670947D01*
X120966164Y-62589458D01*
X121099792Y-62479792D01*
X121105008Y-62473436D01*
X121168815Y-62551185D01*
X121265506Y-62630537D01*
X121375820Y-62689502D01*
X121495518Y-62725812D01*
X121620000Y-62738072D01*
X121821750Y-62735000D01*
X121980500Y-62576250D01*
X121980500Y-61527000D01*
X122234500Y-61527000D01*
X122234500Y-62576250D01*
X122393250Y-62735000D01*
X122595000Y-62738072D01*
X122719482Y-62725812D01*
X122839180Y-62689502D01*
X122949494Y-62630537D01*
X123046185Y-62551185D01*
X123125537Y-62454494D01*
X123184502Y-62344180D01*
X123220812Y-62224482D01*
X123233072Y-62100000D01*
X123230000Y-61685750D01*
X123071250Y-61527000D01*
X122234500Y-61527000D01*
X121980500Y-61527000D01*
X121960500Y-61527000D01*
X121960500Y-61273000D01*
X121980500Y-61273000D01*
X121980500Y-60223750D01*
X122234500Y-60223750D01*
X122234500Y-61273000D01*
X123071250Y-61273000D01*
X123230000Y-61114250D01*
X123233072Y-60700000D01*
X123220812Y-60575518D01*
X123184502Y-60455820D01*
X123125537Y-60345506D01*
X123046185Y-60248815D01*
X122949494Y-60169463D01*
X122839180Y-60110498D01*
X122719482Y-60074188D01*
X122595000Y-60061928D01*
X122393250Y-60065000D01*
X122234500Y-60223750D01*
X121980500Y-60223750D01*
X121821750Y-60065000D01*
X121620000Y-60061928D01*
X121495518Y-60074188D01*
X121375820Y-60110498D01*
X121265506Y-60169463D01*
X121168815Y-60248815D01*
X121105008Y-60326564D01*
X121099792Y-60320208D01*
X120966164Y-60210542D01*
X120813709Y-60129053D01*
X120648285Y-60078872D01*
X120476250Y-60061928D01*
X119988750Y-60061928D01*
X119816715Y-60078872D01*
X119651291Y-60129053D01*
X119498836Y-60210542D01*
X119365208Y-60320208D01*
X119255542Y-60453836D01*
X119219061Y-60522087D01*
X119160256Y-60482795D01*
X118971898Y-60404774D01*
X118771939Y-60365000D01*
X118568061Y-60365000D01*
X118368102Y-60404774D01*
X118179744Y-60482795D01*
X118010226Y-60596063D01*
X117966289Y-60640000D01*
X117783072Y-60640000D01*
X117783072Y-60540000D01*
X117773223Y-60440000D01*
X117783072Y-60340000D01*
X117783072Y-59988967D01*
X140285000Y-59988967D01*
X140285000Y-60311033D01*
X140347832Y-60626912D01*
X140471082Y-60924463D01*
X140650013Y-61192252D01*
X140877748Y-61419987D01*
X141145537Y-61598918D01*
X141443088Y-61722168D01*
X141758967Y-61785000D01*
X142081033Y-61785000D01*
X142396912Y-61722168D01*
X142694463Y-61598918D01*
X142962252Y-61419987D01*
X143096826Y-61285413D01*
X145964192Y-61285413D01*
X146059956Y-61549814D01*
X146349571Y-61690704D01*
X146661108Y-61772384D01*
X146982595Y-61791718D01*
X147301675Y-61747961D01*
X147606088Y-61642795D01*
X147780044Y-61549814D01*
X147875808Y-61285413D01*
X146920000Y-60329605D01*
X145964192Y-61285413D01*
X143096826Y-61285413D01*
X143189987Y-61192252D01*
X143368918Y-60924463D01*
X143492168Y-60626912D01*
X143555000Y-60311033D01*
X143555000Y-60212595D01*
X145278282Y-60212595D01*
X145322039Y-60531675D01*
X145427205Y-60836088D01*
X145520186Y-61010044D01*
X145784587Y-61105808D01*
X146740395Y-60150000D01*
X147099605Y-60150000D01*
X148055413Y-61105808D01*
X148319814Y-61010044D01*
X148460704Y-60720429D01*
X148542384Y-60408892D01*
X148561718Y-60087405D01*
X148517961Y-59768325D01*
X148412795Y-59463912D01*
X148319814Y-59289956D01*
X148055413Y-59194192D01*
X147099605Y-60150000D01*
X146740395Y-60150000D01*
X145784587Y-59194192D01*
X145520186Y-59289956D01*
X145379296Y-59579571D01*
X145297616Y-59891108D01*
X145278282Y-60212595D01*
X143555000Y-60212595D01*
X143555000Y-59988967D01*
X143492168Y-59673088D01*
X143368918Y-59375537D01*
X143189987Y-59107748D01*
X143096826Y-59014587D01*
X145964192Y-59014587D01*
X146920000Y-59970395D01*
X147875808Y-59014587D01*
X147780044Y-58750186D01*
X147490429Y-58609296D01*
X147178892Y-58527616D01*
X146857405Y-58508282D01*
X146538325Y-58552039D01*
X146233912Y-58657205D01*
X146059956Y-58750186D01*
X145964192Y-59014587D01*
X143096826Y-59014587D01*
X142962252Y-58880013D01*
X142694463Y-58701082D01*
X142396912Y-58577832D01*
X142081033Y-58515000D01*
X141758967Y-58515000D01*
X141443088Y-58577832D01*
X141145537Y-58701082D01*
X140877748Y-58880013D01*
X140650013Y-59107748D01*
X140471082Y-59375537D01*
X140347832Y-59673088D01*
X140285000Y-59988967D01*
X117783072Y-59988967D01*
X117783072Y-59890000D01*
X117773223Y-59790000D01*
X117783072Y-59690000D01*
X117783072Y-59575000D01*
X120167678Y-59575000D01*
X120205000Y-59578676D01*
X120242322Y-59575000D01*
X120242333Y-59575000D01*
X120353986Y-59564003D01*
X120497247Y-59520546D01*
X120629276Y-59449974D01*
X120745001Y-59355001D01*
X120768804Y-59325997D01*
X120896801Y-59198000D01*
X122385827Y-59198000D01*
X122396053Y-59231709D01*
X122477542Y-59384164D01*
X122587208Y-59517792D01*
X122720836Y-59627458D01*
X122873291Y-59708947D01*
X123038715Y-59759128D01*
X123210750Y-59776072D01*
X123698250Y-59776072D01*
X123870285Y-59759128D01*
X124035709Y-59708947D01*
X124188164Y-59627458D01*
X124321792Y-59517792D01*
X124327008Y-59511436D01*
X124390815Y-59589185D01*
X124487506Y-59668537D01*
X124597820Y-59727502D01*
X124717518Y-59763812D01*
X124842000Y-59776072D01*
X125043750Y-59773000D01*
X125202500Y-59614250D01*
X125202500Y-58565000D01*
X125456500Y-58565000D01*
X125456500Y-59614250D01*
X125615250Y-59773000D01*
X125817000Y-59776072D01*
X125941482Y-59763812D01*
X126061180Y-59727502D01*
X126171494Y-59668537D01*
X126268185Y-59589185D01*
X126347537Y-59492494D01*
X126406502Y-59382180D01*
X126442812Y-59262482D01*
X126455072Y-59138000D01*
X126452000Y-58723750D01*
X126293250Y-58565000D01*
X125456500Y-58565000D01*
X125202500Y-58565000D01*
X125182500Y-58565000D01*
X125182500Y-58311000D01*
X125202500Y-58311000D01*
X125202500Y-57261750D01*
X125456500Y-57261750D01*
X125456500Y-58311000D01*
X126293250Y-58311000D01*
X126452000Y-58152250D01*
X126455072Y-57738000D01*
X126442812Y-57613518D01*
X126406502Y-57493820D01*
X126347537Y-57383506D01*
X126268185Y-57286815D01*
X126171494Y-57207463D01*
X126061180Y-57148498D01*
X125941482Y-57112188D01*
X125817000Y-57099928D01*
X125615250Y-57103000D01*
X125456500Y-57261750D01*
X125202500Y-57261750D01*
X125043750Y-57103000D01*
X124842000Y-57099928D01*
X124717518Y-57112188D01*
X124597820Y-57148498D01*
X124487506Y-57207463D01*
X124390815Y-57286815D01*
X124327008Y-57364564D01*
X124321792Y-57358208D01*
X124214500Y-57270155D01*
X124214500Y-56466667D01*
X124269463Y-56569494D01*
X124348815Y-56666185D01*
X124445506Y-56745537D01*
X124555820Y-56804502D01*
X124675518Y-56840812D01*
X124800000Y-56853072D01*
X126500000Y-56853072D01*
X126624482Y-56840812D01*
X126744180Y-56804502D01*
X126854494Y-56745537D01*
X126862499Y-56738967D01*
X139535000Y-56738967D01*
X139535000Y-57061033D01*
X139597832Y-57376912D01*
X139721082Y-57674463D01*
X139900013Y-57942252D01*
X140127748Y-58169987D01*
X140395537Y-58348918D01*
X140693088Y-58472168D01*
X141008967Y-58535000D01*
X141331033Y-58535000D01*
X141646912Y-58472168D01*
X141944463Y-58348918D01*
X142212252Y-58169987D01*
X142439987Y-57942252D01*
X142618918Y-57674463D01*
X142742168Y-57376912D01*
X142805000Y-57061033D01*
X142805000Y-56738967D01*
X146035000Y-56738967D01*
X146035000Y-57061033D01*
X146097832Y-57376912D01*
X146221082Y-57674463D01*
X146400013Y-57942252D01*
X146627748Y-58169987D01*
X146895537Y-58348918D01*
X147193088Y-58472168D01*
X147508967Y-58535000D01*
X147831033Y-58535000D01*
X148146912Y-58472168D01*
X148444463Y-58348918D01*
X148712252Y-58169987D01*
X148939987Y-57942252D01*
X149118918Y-57674463D01*
X149242168Y-57376912D01*
X149305000Y-57061033D01*
X149305000Y-56738967D01*
X149242168Y-56423088D01*
X149118918Y-56125537D01*
X148939987Y-55857748D01*
X148712252Y-55630013D01*
X148444463Y-55451082D01*
X148146912Y-55327832D01*
X147831033Y-55265000D01*
X147508967Y-55265000D01*
X147193088Y-55327832D01*
X146895537Y-55451082D01*
X146627748Y-55630013D01*
X146400013Y-55857748D01*
X146221082Y-56125537D01*
X146097832Y-56423088D01*
X146035000Y-56738967D01*
X142805000Y-56738967D01*
X142742168Y-56423088D01*
X142618918Y-56125537D01*
X142439987Y-55857748D01*
X142212252Y-55630013D01*
X141944463Y-55451082D01*
X141646912Y-55327832D01*
X141331033Y-55265000D01*
X141008967Y-55265000D01*
X140693088Y-55327832D01*
X140395537Y-55451082D01*
X140127748Y-55630013D01*
X139900013Y-55857748D01*
X139721082Y-56125537D01*
X139597832Y-56423088D01*
X139535000Y-56738967D01*
X126862499Y-56738967D01*
X126951185Y-56666185D01*
X127030537Y-56569494D01*
X127089502Y-56459180D01*
X127125812Y-56339482D01*
X127138072Y-56215000D01*
X127138072Y-54798061D01*
X148885000Y-54798061D01*
X148885000Y-55001939D01*
X148924774Y-55201898D01*
X149002795Y-55390256D01*
X149116063Y-55559774D01*
X149260226Y-55703937D01*
X149429744Y-55817205D01*
X149618102Y-55895226D01*
X149818061Y-55935000D01*
X150021939Y-55935000D01*
X150221898Y-55895226D01*
X150269499Y-55875509D01*
X150305498Y-55994180D01*
X150364463Y-56104494D01*
X150443815Y-56201185D01*
X150540506Y-56280537D01*
X150650820Y-56339502D01*
X150770518Y-56375812D01*
X150895000Y-56388072D01*
X151545000Y-56388072D01*
X151669482Y-56375812D01*
X151789180Y-56339502D01*
X151899494Y-56280537D01*
X151996185Y-56201185D01*
X152075537Y-56104494D01*
X152134502Y-55994180D01*
X152170000Y-55877159D01*
X152205498Y-55994180D01*
X152264463Y-56104494D01*
X152343815Y-56201185D01*
X152440506Y-56280537D01*
X152550820Y-56339502D01*
X152670518Y-56375812D01*
X152795000Y-56388072D01*
X153034979Y-56388072D01*
X153071014Y-56399003D01*
X153182667Y-56410000D01*
X153182677Y-56410000D01*
X153219999Y-56413676D01*
X153257322Y-56410000D01*
X153666289Y-56410000D01*
X153710226Y-56453937D01*
X153879744Y-56567205D01*
X154068102Y-56645226D01*
X154268061Y-56685000D01*
X154471939Y-56685000D01*
X154671898Y-56645226D01*
X154810000Y-56588022D01*
X154810001Y-62946288D01*
X154766063Y-62990226D01*
X154652795Y-63159744D01*
X154574774Y-63348102D01*
X154535000Y-63548061D01*
X154535000Y-63751939D01*
X154574774Y-63951898D01*
X154652795Y-64140256D01*
X154766063Y-64309774D01*
X154910226Y-64453937D01*
X155079744Y-64567205D01*
X155268102Y-64645226D01*
X155468061Y-64685000D01*
X155671939Y-64685000D01*
X155871898Y-64645226D01*
X156060256Y-64567205D01*
X156229774Y-64453937D01*
X156373937Y-64309774D01*
X156487205Y-64140256D01*
X156565226Y-63951898D01*
X156605000Y-63751939D01*
X156605000Y-63548061D01*
X156565226Y-63348102D01*
X156487205Y-63159744D01*
X156373937Y-62990226D01*
X156330000Y-62946289D01*
X156330000Y-55687322D01*
X156333676Y-55650000D01*
X156330000Y-55612677D01*
X156330000Y-55612667D01*
X156319003Y-55501014D01*
X156275546Y-55357753D01*
X156257652Y-55324276D01*
X156204974Y-55225723D01*
X156133799Y-55138997D01*
X156110001Y-55109999D01*
X156081004Y-55086202D01*
X154733804Y-53739003D01*
X154710001Y-53709999D01*
X154594276Y-53615026D01*
X154462247Y-53544454D01*
X154318986Y-53500997D01*
X154207333Y-53490000D01*
X154207322Y-53490000D01*
X154170000Y-53486324D01*
X154132678Y-53490000D01*
X153744373Y-53490000D01*
X153689180Y-53460498D01*
X153588220Y-53429872D01*
X158935000Y-53429872D01*
X158935000Y-53870128D01*
X159020890Y-54301925D01*
X159189369Y-54708669D01*
X159433962Y-55074729D01*
X159745271Y-55386038D01*
X160111331Y-55630631D01*
X160518075Y-55799110D01*
X160949872Y-55885000D01*
X161390128Y-55885000D01*
X161821925Y-55799110D01*
X162228669Y-55630631D01*
X162594729Y-55386038D01*
X162906038Y-55074729D01*
X163150631Y-54708669D01*
X163319110Y-54301925D01*
X163405000Y-53870128D01*
X163405000Y-53429872D01*
X163319110Y-52998075D01*
X163150631Y-52591331D01*
X162906038Y-52225271D01*
X162594729Y-51913962D01*
X162228669Y-51669369D01*
X161821925Y-51500890D01*
X161390128Y-51415000D01*
X160949872Y-51415000D01*
X160518075Y-51500890D01*
X160111331Y-51669369D01*
X159745271Y-51913962D01*
X159433962Y-52225271D01*
X159189369Y-52591331D01*
X159020890Y-52998075D01*
X158935000Y-53429872D01*
X153588220Y-53429872D01*
X153569482Y-53424188D01*
X153445000Y-53411928D01*
X152795000Y-53411928D01*
X152670518Y-53424188D01*
X152550820Y-53460498D01*
X152440506Y-53519463D01*
X152343815Y-53598815D01*
X152264463Y-53695506D01*
X152205498Y-53805820D01*
X152169285Y-53925199D01*
X152167546Y-53910098D01*
X152128290Y-53791334D01*
X152066619Y-53682510D01*
X151984903Y-53587808D01*
X151886281Y-53510868D01*
X151774544Y-53454647D01*
X151653986Y-53421305D01*
X151529239Y-53412123D01*
X151505750Y-53415000D01*
X151347000Y-53573750D01*
X151347000Y-54061928D01*
X151093000Y-54061928D01*
X151093000Y-53573750D01*
X150934250Y-53415000D01*
X150910761Y-53412123D01*
X150786014Y-53421305D01*
X150665456Y-53454647D01*
X150553719Y-53510868D01*
X150455097Y-53587808D01*
X150373381Y-53682510D01*
X150311710Y-53791334D01*
X150272454Y-53910098D01*
X150270738Y-53925004D01*
X150221898Y-53904774D01*
X150021939Y-53865000D01*
X149818061Y-53865000D01*
X149618102Y-53904774D01*
X149429744Y-53982795D01*
X149260226Y-54096063D01*
X149116063Y-54240226D01*
X149002795Y-54409744D01*
X148924774Y-54598102D01*
X148885000Y-54798061D01*
X127138072Y-54798061D01*
X127138072Y-54515000D01*
X127125812Y-54390518D01*
X127089502Y-54270820D01*
X127030537Y-54160506D01*
X126951185Y-54063815D01*
X126854494Y-53984463D01*
X126744180Y-53925498D01*
X126624482Y-53889188D01*
X126500000Y-53876928D01*
X124800000Y-53876928D01*
X124675518Y-53889188D01*
X124555820Y-53925498D01*
X124445506Y-53984463D01*
X124348815Y-54063815D01*
X124269463Y-54160506D01*
X124210498Y-54270820D01*
X124188487Y-54343380D01*
X124056632Y-54211525D01*
X123813411Y-54049010D01*
X123543158Y-53937068D01*
X123256260Y-53880000D01*
X122963740Y-53880000D01*
X122676842Y-53937068D01*
X122406589Y-54049010D01*
X122163368Y-54211525D01*
X121956525Y-54418368D01*
X121794010Y-54661589D01*
X121682068Y-54931842D01*
X121625000Y-55218740D01*
X121625000Y-55511260D01*
X121682068Y-55798158D01*
X121794010Y-56068411D01*
X121956525Y-56311632D01*
X122163368Y-56518475D01*
X122406589Y-56680990D01*
X122676842Y-56792932D01*
X122694501Y-56796445D01*
X122694500Y-57270155D01*
X122587208Y-57358208D01*
X122477542Y-57491836D01*
X122396053Y-57644291D01*
X122385827Y-57678000D01*
X120619333Y-57678000D01*
X120582000Y-57674323D01*
X120544667Y-57678000D01*
X120433014Y-57688997D01*
X120289753Y-57732454D01*
X120157724Y-57803026D01*
X120041999Y-57897999D01*
X120018196Y-57927003D01*
X119890199Y-58055000D01*
X117491144Y-58055000D01*
X117389180Y-58000498D01*
X117269482Y-57964188D01*
X117145000Y-57951928D01*
X116129999Y-57951928D01*
X116129999Y-57614802D01*
X116913592Y-56831210D01*
X117133740Y-56875000D01*
X117426260Y-56875000D01*
X117713158Y-56817932D01*
X117983411Y-56705990D01*
X118226632Y-56543475D01*
X118433475Y-56336632D01*
X118595990Y-56093411D01*
X118707932Y-55823158D01*
X118765000Y-55536260D01*
X118765000Y-55243740D01*
X118707932Y-54956842D01*
X118595990Y-54686589D01*
X118433475Y-54443368D01*
X118226632Y-54236525D01*
X118040000Y-54111822D01*
X118040000Y-54022341D01*
X118170535Y-53935120D01*
X118365120Y-53740535D01*
X118502178Y-53535413D01*
X140214192Y-53535413D01*
X140309956Y-53799814D01*
X140599571Y-53940704D01*
X140911108Y-54022384D01*
X141232595Y-54041718D01*
X141551675Y-53997961D01*
X141856088Y-53892795D01*
X142030044Y-53799814D01*
X142125808Y-53535413D01*
X146714192Y-53535413D01*
X146809956Y-53799814D01*
X147099571Y-53940704D01*
X147411108Y-54022384D01*
X147732595Y-54041718D01*
X148051675Y-53997961D01*
X148356088Y-53892795D01*
X148530044Y-53799814D01*
X148625808Y-53535413D01*
X147670000Y-52579605D01*
X146714192Y-53535413D01*
X142125808Y-53535413D01*
X141170000Y-52579605D01*
X140214192Y-53535413D01*
X118502178Y-53535413D01*
X118518005Y-53511727D01*
X118623314Y-53257490D01*
X118677000Y-52987592D01*
X118677000Y-52712408D01*
X118627310Y-52462595D01*
X139528282Y-52462595D01*
X139572039Y-52781675D01*
X139677205Y-53086088D01*
X139770186Y-53260044D01*
X140034587Y-53355808D01*
X140990395Y-52400000D01*
X141349605Y-52400000D01*
X142305413Y-53355808D01*
X142569814Y-53260044D01*
X142710704Y-52970429D01*
X142792384Y-52658892D01*
X142804189Y-52462595D01*
X146028282Y-52462595D01*
X146072039Y-52781675D01*
X146177205Y-53086088D01*
X146270186Y-53260044D01*
X146534587Y-53355808D01*
X147490395Y-52400000D01*
X147849605Y-52400000D01*
X148805413Y-53355808D01*
X149069814Y-53260044D01*
X149210704Y-52970429D01*
X149292384Y-52658892D01*
X149311718Y-52337405D01*
X149267961Y-52018325D01*
X149162795Y-51713912D01*
X149069814Y-51539956D01*
X148805413Y-51444192D01*
X147849605Y-52400000D01*
X147490395Y-52400000D01*
X146534587Y-51444192D01*
X146270186Y-51539956D01*
X146129296Y-51829571D01*
X146047616Y-52141108D01*
X146028282Y-52462595D01*
X142804189Y-52462595D01*
X142811718Y-52337405D01*
X142767961Y-52018325D01*
X142662795Y-51713912D01*
X142569814Y-51539956D01*
X142305413Y-51444192D01*
X141349605Y-52400000D01*
X140990395Y-52400000D01*
X140034587Y-51444192D01*
X139770186Y-51539956D01*
X139629296Y-51829571D01*
X139547616Y-52141108D01*
X139528282Y-52462595D01*
X118627310Y-52462595D01*
X118623314Y-52442510D01*
X118518005Y-52188273D01*
X118365120Y-51959465D01*
X118170535Y-51764880D01*
X117941727Y-51611995D01*
X117687490Y-51506686D01*
X117417592Y-51453000D01*
X117142408Y-51453000D01*
X116872510Y-51506686D01*
X116618273Y-51611995D01*
X116389465Y-51764880D01*
X116194880Y-51959465D01*
X116041995Y-52188273D01*
X116010000Y-52265515D01*
X115978005Y-52188273D01*
X115825120Y-51959465D01*
X115630535Y-51764880D01*
X115401727Y-51611995D01*
X115147490Y-51506686D01*
X114877592Y-51453000D01*
X114602408Y-51453000D01*
X114332510Y-51506686D01*
X114078273Y-51611995D01*
X113849465Y-51764880D01*
X113654880Y-51959465D01*
X113501995Y-52188273D01*
X113470000Y-52265515D01*
X113438005Y-52188273D01*
X113285120Y-51959465D01*
X113090535Y-51764880D01*
X112861727Y-51611995D01*
X112607490Y-51506686D01*
X112337592Y-51453000D01*
X112062408Y-51453000D01*
X111792510Y-51506686D01*
X111538273Y-51611995D01*
X111309465Y-51764880D01*
X111114880Y-51959465D01*
X110961995Y-52188273D01*
X110932308Y-52259943D01*
X110927636Y-52246977D01*
X110865656Y-52131020D01*
X110625565Y-52064040D01*
X109839605Y-52850000D01*
X110625565Y-53635960D01*
X110865656Y-53568980D01*
X110929485Y-53433240D01*
X110961995Y-53511727D01*
X111114880Y-53740535D01*
X111309465Y-53935120D01*
X111521016Y-54076474D01*
X111433080Y-54118359D01*
X111199731Y-54292412D01*
X111123966Y-54376466D01*
X111099502Y-54295820D01*
X111040537Y-54185506D01*
X110961185Y-54088815D01*
X110864494Y-54009463D01*
X110754180Y-53950498D01*
X110634482Y-53914188D01*
X110510000Y-53901928D01*
X110421867Y-53901928D01*
X110445960Y-53815565D01*
X109660000Y-53029605D01*
X108874040Y-53815565D01*
X108898133Y-53901928D01*
X108810000Y-53901928D01*
X108685518Y-53914188D01*
X108565820Y-53950498D01*
X108455506Y-54009463D01*
X108358815Y-54088815D01*
X108279463Y-54185506D01*
X108220498Y-54295820D01*
X108184188Y-54415518D01*
X108171928Y-54540000D01*
X108171928Y-56240000D01*
X108184188Y-56364482D01*
X108220498Y-56484180D01*
X108279463Y-56594494D01*
X108358815Y-56691185D01*
X108455506Y-56770537D01*
X108565820Y-56829502D01*
X108685518Y-56865812D01*
X108810000Y-56878072D01*
X110510000Y-56878072D01*
X110634482Y-56865812D01*
X110754180Y-56829502D01*
X110864494Y-56770537D01*
X110961185Y-56691185D01*
X111040537Y-56594494D01*
X111099502Y-56484180D01*
X111123966Y-56403534D01*
X111199731Y-56487588D01*
X111433080Y-56661641D01*
X111695901Y-56786825D01*
X111843110Y-56831476D01*
X112073000Y-56710155D01*
X112073000Y-55517000D01*
X112053000Y-55517000D01*
X112053000Y-55263000D01*
X112073000Y-55263000D01*
X112073000Y-55243000D01*
X112327000Y-55243000D01*
X112327000Y-55263000D01*
X112347000Y-55263000D01*
X112347000Y-55517000D01*
X112327000Y-55517000D01*
X112327000Y-56710155D01*
X112556890Y-56831476D01*
X112704099Y-56786825D01*
X112966920Y-56661641D01*
X113200269Y-56487588D01*
X113395178Y-56271355D01*
X113464805Y-56154466D01*
X113586525Y-56336632D01*
X113793368Y-56543475D01*
X113980001Y-56668179D01*
X113980000Y-59372677D01*
X113976324Y-59410000D01*
X113980000Y-59447322D01*
X113980000Y-59447332D01*
X113990997Y-59558985D01*
X114023402Y-59665812D01*
X114034454Y-59702246D01*
X114105026Y-59834276D01*
X114136806Y-59873000D01*
X114199999Y-59950001D01*
X114229002Y-59973803D01*
X114695198Y-60440000D01*
X114344002Y-60791197D01*
X114337957Y-60796158D01*
X114334003Y-60756014D01*
X114290546Y-60612753D01*
X114219974Y-60480724D01*
X114125001Y-60364999D01*
X114096004Y-60341202D01*
X112058804Y-58304003D01*
X112035001Y-58274999D01*
X111919276Y-58180026D01*
X111787247Y-58109454D01*
X111643986Y-58065997D01*
X111602474Y-58061908D01*
X111599494Y-58059463D01*
X111489180Y-58000498D01*
X111369482Y-57964188D01*
X111245000Y-57951928D01*
X109795000Y-57951928D01*
X109670518Y-57964188D01*
X109550820Y-58000498D01*
X109440506Y-58059463D01*
X109343815Y-58138815D01*
X109264463Y-58235506D01*
X109205498Y-58345820D01*
X109169188Y-58465518D01*
X109156928Y-58590000D01*
X109156928Y-59040000D01*
X109166777Y-59140000D01*
X109156928Y-59240000D01*
X109156928Y-59464999D01*
X103131106Y-59464999D01*
X103095001Y-59461443D01*
X102950916Y-59475634D01*
X102936438Y-59480026D01*
X102812369Y-59517662D01*
X102684682Y-59585912D01*
X102572764Y-59677761D01*
X102549748Y-59705806D01*
X100692500Y-61563055D01*
X100692500Y-61472998D01*
X100587752Y-61472998D01*
X100692500Y-61368250D01*
X100681241Y-61265526D01*
X100643021Y-61146424D01*
X100584292Y-61040655D01*
X100671350Y-60854322D01*
X100735219Y-60594151D01*
X100747104Y-60326518D01*
X100706548Y-60061709D01*
X100615109Y-59809900D01*
X100557950Y-59702965D01*
X100321633Y-59640472D01*
X99562105Y-60400000D01*
X99576248Y-60414143D01*
X99396643Y-60593748D01*
X99382500Y-60579605D01*
X99368358Y-60593748D01*
X99188753Y-60414143D01*
X99202895Y-60400000D01*
X98443367Y-59640472D01*
X98267767Y-59686909D01*
X98269976Y-59460867D01*
X98622972Y-59460867D01*
X99382500Y-60220395D01*
X100142028Y-59460867D01*
X100079535Y-59224550D01*
X99836822Y-59111150D01*
X99576651Y-59047281D01*
X99309018Y-59035396D01*
X99044209Y-59075952D01*
X98792400Y-59167391D01*
X98685465Y-59224550D01*
X98622972Y-59460867D01*
X98269976Y-59460867D01*
X98270572Y-59400000D01*
X98267500Y-59368808D01*
X98267500Y-59272998D01*
X98257548Y-59272998D01*
X98222002Y-59155820D01*
X98202179Y-59118735D01*
X98225962Y-59082391D01*
X98222091Y-59044718D01*
X98129921Y-58819467D01*
X97995578Y-58616526D01*
X97824225Y-58443693D01*
X97622446Y-58307610D01*
X97397996Y-58213507D01*
X97159500Y-58165000D01*
X96809500Y-58165000D01*
X96555500Y-58165000D01*
X96205500Y-58165000D01*
X95967004Y-58213507D01*
X95830000Y-58270947D01*
X95830000Y-53429872D01*
X96935000Y-53429872D01*
X96935000Y-53870128D01*
X97020890Y-54301925D01*
X97189369Y-54708669D01*
X97433962Y-55074729D01*
X97745271Y-55386038D01*
X98111331Y-55630631D01*
X98518075Y-55799110D01*
X98949872Y-55885000D01*
X99390128Y-55885000D01*
X99821925Y-55799110D01*
X100228669Y-55630631D01*
X100594729Y-55386038D01*
X100906038Y-55074729D01*
X101150631Y-54708669D01*
X101319110Y-54301925D01*
X101405000Y-53870128D01*
X101405000Y-53429872D01*
X101319110Y-52998075D01*
X101287606Y-52922017D01*
X108258090Y-52922017D01*
X108299078Y-53194133D01*
X108392364Y-53453023D01*
X108454344Y-53568980D01*
X108694435Y-53635960D01*
X109480395Y-52850000D01*
X108694435Y-52064040D01*
X108454344Y-52131020D01*
X108337244Y-52380048D01*
X108270977Y-52647135D01*
X108258090Y-52922017D01*
X101287606Y-52922017D01*
X101150631Y-52591331D01*
X100906038Y-52225271D01*
X100594729Y-51913962D01*
X100550539Y-51884435D01*
X108874040Y-51884435D01*
X109660000Y-52670395D01*
X110445960Y-51884435D01*
X110378980Y-51644344D01*
X110129952Y-51527244D01*
X109862865Y-51460977D01*
X109587983Y-51448090D01*
X109315867Y-51489078D01*
X109056977Y-51582364D01*
X108941020Y-51644344D01*
X108874040Y-51884435D01*
X100550539Y-51884435D01*
X100228669Y-51669369D01*
X99821925Y-51500890D01*
X99390128Y-51415000D01*
X98949872Y-51415000D01*
X98518075Y-51500890D01*
X98111331Y-51669369D01*
X97745271Y-51913962D01*
X97433962Y-52225271D01*
X97189369Y-52591331D01*
X97020890Y-52998075D01*
X96935000Y-53429872D01*
X95830000Y-53429872D01*
X95830000Y-51264587D01*
X140214192Y-51264587D01*
X141170000Y-52220395D01*
X142125808Y-51264587D01*
X146714192Y-51264587D01*
X147670000Y-52220395D01*
X148625808Y-51264587D01*
X148530044Y-51000186D01*
X148240429Y-50859296D01*
X147928892Y-50777616D01*
X147607405Y-50758282D01*
X147288325Y-50802039D01*
X146983912Y-50907205D01*
X146809956Y-51000186D01*
X146714192Y-51264587D01*
X142125808Y-51264587D01*
X142030044Y-51000186D01*
X141740429Y-50859296D01*
X141428892Y-50777616D01*
X141107405Y-50758282D01*
X140788325Y-50802039D01*
X140483912Y-50907205D01*
X140309956Y-51000186D01*
X140214192Y-51264587D01*
X95830000Y-51264587D01*
X95830000Y-50310000D01*
X164510000Y-50310000D01*
X164510001Y-69018292D01*
G37*
X164510001Y-69018292D02*
X164305413Y-68944192D01*
X163349605Y-69900000D01*
X164305413Y-70855808D01*
X164510001Y-70781708D01*
X164510001Y-73462531D01*
X164439987Y-73357748D01*
X164212252Y-73130013D01*
X163944463Y-72951082D01*
X163646912Y-72827832D01*
X163331033Y-72765000D01*
X163008967Y-72765000D01*
X162693088Y-72827832D01*
X162395537Y-72951082D01*
X162127748Y-73130013D01*
X161900013Y-73357748D01*
X161721082Y-73625537D01*
X161715091Y-73640000D01*
X158124909Y-73640000D01*
X158118918Y-73625537D01*
X157939987Y-73357748D01*
X157712252Y-73130013D01*
X157444463Y-72951082D01*
X157146912Y-72827832D01*
X156831033Y-72765000D01*
X156508967Y-72765000D01*
X156193088Y-72827832D01*
X155895537Y-72951082D01*
X155627748Y-73130013D01*
X155400013Y-73357748D01*
X155221082Y-73625537D01*
X155097832Y-73923088D01*
X155035000Y-74238967D01*
X155035000Y-74561033D01*
X155097832Y-74876912D01*
X155221082Y-75174463D01*
X155400013Y-75442252D01*
X155627748Y-75669987D01*
X155895537Y-75848918D01*
X156193088Y-75972168D01*
X156508967Y-76035000D01*
X156831033Y-76035000D01*
X157146912Y-75972168D01*
X157444463Y-75848918D01*
X157712252Y-75669987D01*
X157939987Y-75442252D01*
X158118918Y-75174463D01*
X158124909Y-75160000D01*
X161715091Y-75160000D01*
X161721082Y-75174463D01*
X161900013Y-75442252D01*
X162127748Y-75669987D01*
X162395537Y-75848918D01*
X162693088Y-75972168D01*
X163008967Y-76035000D01*
X163331033Y-76035000D01*
X163646912Y-75972168D01*
X163944463Y-75848918D01*
X164212252Y-75669987D01*
X164439987Y-75442252D01*
X164510001Y-75337469D01*
X164510001Y-83990000D01*
X95830000Y-83990000D01*
X95830000Y-80429872D01*
X96935000Y-80429872D01*
X96935000Y-80870128D01*
X97020890Y-81301925D01*
X97189369Y-81708669D01*
X97433962Y-82074729D01*
X97745271Y-82386038D01*
X98111331Y-82630631D01*
X98518075Y-82799110D01*
X98949872Y-82885000D01*
X99390128Y-82885000D01*
X99821925Y-82799110D01*
X100228669Y-82630631D01*
X100594729Y-82386038D01*
X100906038Y-82074729D01*
X101150631Y-81708669D01*
X101319110Y-81301925D01*
X101405000Y-80870128D01*
X101405000Y-80429872D01*
X101319110Y-79998075D01*
X101174933Y-79650000D01*
X104021928Y-79650000D01*
X104021928Y-82050000D01*
X104034188Y-82174482D01*
X104070498Y-82294180D01*
X104129463Y-82404494D01*
X104208815Y-82501185D01*
X104305506Y-82580537D01*
X104415820Y-82639502D01*
X104535518Y-82675812D01*
X104660000Y-82688072D01*
X105400000Y-82688072D01*
X105524482Y-82675812D01*
X105644180Y-82639502D01*
X105665000Y-82628373D01*
X105685820Y-82639502D01*
X105805518Y-82675812D01*
X105930000Y-82688072D01*
X106670000Y-82688072D01*
X106794482Y-82675812D01*
X106914180Y-82639502D01*
X106935000Y-82628373D01*
X106955820Y-82639502D01*
X107075518Y-82675812D01*
X107200000Y-82688072D01*
X107284250Y-82685000D01*
X107443000Y-82526250D01*
X107443000Y-80977000D01*
X107697000Y-80977000D01*
X107697000Y-82526250D01*
X107855750Y-82685000D01*
X107940000Y-82688072D01*
X108064482Y-82675812D01*
X108184180Y-82639502D01*
X108205000Y-82628373D01*
X108225820Y-82639502D01*
X108345518Y-82675812D01*
X108470000Y-82688072D01*
X108554250Y-82685000D01*
X108713000Y-82526250D01*
X108713000Y-80977000D01*
X107697000Y-80977000D01*
X107443000Y-80977000D01*
X107423000Y-80977000D01*
X107423000Y-80723000D01*
X107443000Y-80723000D01*
X107443000Y-79173750D01*
X107284250Y-79015000D01*
X107200000Y-79011928D01*
X107075518Y-79024188D01*
X106955820Y-79060498D01*
X106935000Y-79071627D01*
X106914180Y-79060498D01*
X106794482Y-79024188D01*
X106670000Y-79011928D01*
X105930000Y-79011928D01*
X105805518Y-79024188D01*
X105685820Y-79060498D01*
X105665000Y-79071627D01*
X105644180Y-79060498D01*
X105524482Y-79024188D01*
X105400000Y-79011928D01*
X104660000Y-79011928D01*
X104535518Y-79024188D01*
X104415820Y-79060498D01*
X104305506Y-79119463D01*
X104208815Y-79198815D01*
X104129463Y-79295506D01*
X104070498Y-79405820D01*
X104034188Y-79525518D01*
X104021928Y-79650000D01*
X101174933Y-79650000D01*
X101150631Y-79591331D01*
X100906038Y-79225271D01*
X100594729Y-78913962D01*
X100228669Y-78669369D01*
X99821925Y-78500890D01*
X99390128Y-78415000D01*
X98949872Y-78415000D01*
X98518075Y-78500890D01*
X98111331Y-78669369D01*
X97745271Y-78913962D01*
X97433962Y-79225271D01*
X97189369Y-79591331D01*
X97020890Y-79998075D01*
X96935000Y-80429872D01*
X95830000Y-80429872D01*
X95830000Y-75750000D01*
X104021928Y-75750000D01*
X104021928Y-78150000D01*
X104034188Y-78274482D01*
X104070498Y-78394180D01*
X104129463Y-78504494D01*
X104208815Y-78601185D01*
X104305506Y-78680537D01*
X104415820Y-78739502D01*
X104535518Y-78775812D01*
X104660000Y-78788072D01*
X105400000Y-78788072D01*
X105524482Y-78775812D01*
X105644180Y-78739502D01*
X105665000Y-78728373D01*
X105685820Y-78739502D01*
X105805518Y-78775812D01*
X105930000Y-78788072D01*
X106670000Y-78788072D01*
X106794482Y-78775812D01*
X106914180Y-78739502D01*
X106935000Y-78728373D01*
X106955820Y-78739502D01*
X107075518Y-78775812D01*
X107200000Y-78788072D01*
X107940000Y-78788072D01*
X108040390Y-78778185D01*
X108065026Y-78824276D01*
X108136201Y-78911002D01*
X108160000Y-78940001D01*
X108188997Y-78963798D01*
X108271761Y-79046562D01*
X108225820Y-79060498D01*
X108205000Y-79071627D01*
X108184180Y-79060498D01*
X108064482Y-79024188D01*
X107940000Y-79011928D01*
X107855750Y-79015000D01*
X107697000Y-79173750D01*
X107697000Y-80723000D01*
X108713000Y-80723000D01*
X108713000Y-80703000D01*
X108967000Y-80703000D01*
X108967000Y-80723000D01*
X108987000Y-80723000D01*
X108987000Y-80977000D01*
X108967000Y-80977000D01*
X108967000Y-82526250D01*
X109125750Y-82685000D01*
X109210000Y-82688072D01*
X109334482Y-82675812D01*
X109454180Y-82639502D01*
X109475000Y-82628373D01*
X109495820Y-82639502D01*
X109615518Y-82675812D01*
X109740000Y-82688072D01*
X110480000Y-82688072D01*
X110604482Y-82675812D01*
X110724180Y-82639502D01*
X110834494Y-82580537D01*
X110931185Y-82501185D01*
X111010537Y-82404494D01*
X111069502Y-82294180D01*
X111105812Y-82174482D01*
X111118072Y-82050000D01*
X111118072Y-81783081D01*
X111268102Y-81845226D01*
X111468061Y-81885000D01*
X111671939Y-81885000D01*
X111871898Y-81845226D01*
X112060256Y-81767205D01*
X112229774Y-81653937D01*
X112373937Y-81509774D01*
X112487205Y-81340256D01*
X112565226Y-81151898D01*
X112605000Y-80951939D01*
X112605000Y-80748061D01*
X112565226Y-80548102D01*
X112487205Y-80359744D01*
X112373937Y-80190226D01*
X112229774Y-80046063D01*
X112060256Y-79932795D01*
X111871898Y-79854774D01*
X111671939Y-79815000D01*
X111468061Y-79815000D01*
X111268102Y-79854774D01*
X111118072Y-79916919D01*
X111118072Y-79650000D01*
X111105812Y-79525518D01*
X111070770Y-79410000D01*
X114277203Y-79410000D01*
X114219053Y-79518791D01*
X114168872Y-79684215D01*
X114151928Y-79856250D01*
X114151928Y-80343750D01*
X114168872Y-80515785D01*
X114219053Y-80681209D01*
X114300542Y-80833664D01*
X114410208Y-80967292D01*
X114543836Y-81076958D01*
X114696291Y-81158447D01*
X114861715Y-81208628D01*
X114871716Y-81209613D01*
X114925379Y-81275000D01*
X114950000Y-81305001D01*
X114978998Y-81328799D01*
X115725000Y-82074802D01*
X115725000Y-82136939D01*
X115764774Y-82336898D01*
X115842795Y-82525256D01*
X115956063Y-82694774D01*
X116100226Y-82838937D01*
X116269744Y-82952205D01*
X116458102Y-83030226D01*
X116658061Y-83070000D01*
X116861939Y-83070000D01*
X117035820Y-83035413D01*
X140214192Y-83035413D01*
X140309956Y-83299814D01*
X140599571Y-83440704D01*
X140911108Y-83522384D01*
X141232595Y-83541718D01*
X141551675Y-83497961D01*
X141856088Y-83392795D01*
X142030044Y-83299814D01*
X142125808Y-83035413D01*
X146714192Y-83035413D01*
X146809956Y-83299814D01*
X147099571Y-83440704D01*
X147411108Y-83522384D01*
X147732595Y-83541718D01*
X148051675Y-83497961D01*
X148356088Y-83392795D01*
X148530044Y-83299814D01*
X148625808Y-83035413D01*
X147670000Y-82079605D01*
X146714192Y-83035413D01*
X142125808Y-83035413D01*
X141170000Y-82079605D01*
X140214192Y-83035413D01*
X117035820Y-83035413D01*
X117061898Y-83030226D01*
X117250256Y-82952205D01*
X117419774Y-82838937D01*
X117563937Y-82694774D01*
X117677205Y-82525256D01*
X117755226Y-82336898D01*
X117795000Y-82136939D01*
X117795000Y-82074801D01*
X117907206Y-81962595D01*
X139528282Y-81962595D01*
X139572039Y-82281675D01*
X139677205Y-82586088D01*
X139770186Y-82760044D01*
X140034587Y-82855808D01*
X140990395Y-81900000D01*
X141349605Y-81900000D01*
X142305413Y-82855808D01*
X142569814Y-82760044D01*
X142710704Y-82470429D01*
X142792384Y-82158892D01*
X142804189Y-81962595D01*
X146028282Y-81962595D01*
X146072039Y-82281675D01*
X146177205Y-82586088D01*
X146270186Y-82760044D01*
X146534587Y-82855808D01*
X147490395Y-81900000D01*
X147849605Y-81900000D01*
X148805413Y-82855808D01*
X149069814Y-82760044D01*
X149210704Y-82470429D01*
X149292384Y-82158892D01*
X149311718Y-81837405D01*
X149267961Y-81518325D01*
X149162795Y-81213912D01*
X149069814Y-81039956D01*
X148805413Y-80944192D01*
X147849605Y-81900000D01*
X147490395Y-81900000D01*
X146534587Y-80944192D01*
X146270186Y-81039956D01*
X146129296Y-81329571D01*
X146047616Y-81641108D01*
X146028282Y-81962595D01*
X142804189Y-81962595D01*
X142811718Y-81837405D01*
X142767961Y-81518325D01*
X142662795Y-81213912D01*
X142569814Y-81039956D01*
X142305413Y-80944192D01*
X141349605Y-81900000D01*
X140990395Y-81900000D01*
X140034587Y-80944192D01*
X139770186Y-81039956D01*
X139629296Y-81329571D01*
X139547616Y-81641108D01*
X139528282Y-81962595D01*
X117907206Y-81962595D01*
X118541003Y-81328799D01*
X118570001Y-81305001D01*
X118648284Y-81209613D01*
X118658285Y-81208628D01*
X118823709Y-81158447D01*
X118976164Y-81076958D01*
X119109792Y-80967292D01*
X119219458Y-80833664D01*
X119256380Y-80764587D01*
X140214192Y-80764587D01*
X141170000Y-81720395D01*
X142125808Y-80764587D01*
X146714192Y-80764587D01*
X147670000Y-81720395D01*
X148625808Y-80764587D01*
X148530044Y-80500186D01*
X148385506Y-80429872D01*
X158935000Y-80429872D01*
X158935000Y-80870128D01*
X159020890Y-81301925D01*
X159189369Y-81708669D01*
X159433962Y-82074729D01*
X159745271Y-82386038D01*
X160111331Y-82630631D01*
X160518075Y-82799110D01*
X160949872Y-82885000D01*
X161390128Y-82885000D01*
X161821925Y-82799110D01*
X162228669Y-82630631D01*
X162594729Y-82386038D01*
X162906038Y-82074729D01*
X163150631Y-81708669D01*
X163319110Y-81301925D01*
X163405000Y-80870128D01*
X163405000Y-80429872D01*
X163319110Y-79998075D01*
X163150631Y-79591331D01*
X162906038Y-79225271D01*
X162594729Y-78913962D01*
X162228669Y-78669369D01*
X161821925Y-78500890D01*
X161390128Y-78415000D01*
X160949872Y-78415000D01*
X160518075Y-78500890D01*
X160111331Y-78669369D01*
X159745271Y-78913962D01*
X159433962Y-79225271D01*
X159189369Y-79591331D01*
X159020890Y-79998075D01*
X158935000Y-80429872D01*
X148385506Y-80429872D01*
X148240429Y-80359296D01*
X147928892Y-80277616D01*
X147607405Y-80258282D01*
X147288325Y-80302039D01*
X146983912Y-80407205D01*
X146809956Y-80500186D01*
X146714192Y-80764587D01*
X142125808Y-80764587D01*
X142030044Y-80500186D01*
X141740429Y-80359296D01*
X141428892Y-80277616D01*
X141107405Y-80258282D01*
X140788325Y-80302039D01*
X140483912Y-80407205D01*
X140309956Y-80500186D01*
X140214192Y-80764587D01*
X119256380Y-80764587D01*
X119300947Y-80681209D01*
X119351128Y-80515785D01*
X119368072Y-80343750D01*
X119368072Y-79856250D01*
X119351128Y-79684215D01*
X119300947Y-79518791D01*
X119219458Y-79366336D01*
X119109792Y-79232708D01*
X119024244Y-79162500D01*
X119109792Y-79092292D01*
X119219458Y-78958664D01*
X119300947Y-78806209D01*
X119308772Y-78780413D01*
X121519192Y-78780413D01*
X121614956Y-79044814D01*
X121904571Y-79185704D01*
X122216108Y-79267384D01*
X122537595Y-79286718D01*
X122856675Y-79242961D01*
X123161088Y-79137795D01*
X123335044Y-79044814D01*
X123430808Y-78780413D01*
X128019192Y-78780413D01*
X128114956Y-79044814D01*
X128404571Y-79185704D01*
X128716108Y-79267384D01*
X129037595Y-79286718D01*
X129356675Y-79242961D01*
X129661088Y-79137795D01*
X129835044Y-79044814D01*
X129930808Y-78780413D01*
X128975000Y-77824605D01*
X128019192Y-78780413D01*
X123430808Y-78780413D01*
X122475000Y-77824605D01*
X121519192Y-78780413D01*
X119308772Y-78780413D01*
X119351128Y-78640785D01*
X119368072Y-78468750D01*
X119368072Y-77981250D01*
X119351128Y-77809215D01*
X119320302Y-77707595D01*
X120833282Y-77707595D01*
X120877039Y-78026675D01*
X120982205Y-78331088D01*
X121075186Y-78505044D01*
X121339587Y-78600808D01*
X122295395Y-77645000D01*
X122654605Y-77645000D01*
X123610413Y-78600808D01*
X123874814Y-78505044D01*
X124015704Y-78215429D01*
X124097384Y-77903892D01*
X124109189Y-77707595D01*
X127333282Y-77707595D01*
X127377039Y-78026675D01*
X127482205Y-78331088D01*
X127575186Y-78505044D01*
X127839587Y-78600808D01*
X128795395Y-77645000D01*
X129154605Y-77645000D01*
X130110413Y-78600808D01*
X130374814Y-78505044D01*
X130515704Y-78215429D01*
X130597384Y-77903892D01*
X130616718Y-77582405D01*
X130572961Y-77263325D01*
X130467795Y-76958912D01*
X130374814Y-76784956D01*
X130110413Y-76689192D01*
X129154605Y-77645000D01*
X128795395Y-77645000D01*
X127839587Y-76689192D01*
X127575186Y-76784956D01*
X127434296Y-77074571D01*
X127352616Y-77386108D01*
X127333282Y-77707595D01*
X124109189Y-77707595D01*
X124116718Y-77582405D01*
X124072961Y-77263325D01*
X123967795Y-76958912D01*
X123874814Y-76784956D01*
X123610413Y-76689192D01*
X122654605Y-77645000D01*
X122295395Y-77645000D01*
X121339587Y-76689192D01*
X121075186Y-76784956D01*
X120934296Y-77074571D01*
X120852616Y-77386108D01*
X120833282Y-77707595D01*
X119320302Y-77707595D01*
X119300947Y-77643791D01*
X119219458Y-77491336D01*
X119109792Y-77357708D01*
X118976164Y-77248042D01*
X118823709Y-77166553D01*
X118790000Y-77156327D01*
X118790000Y-76509587D01*
X121519192Y-76509587D01*
X122475000Y-77465395D01*
X123430808Y-76509587D01*
X128019192Y-76509587D01*
X128975000Y-77465395D01*
X129930808Y-76509587D01*
X129835044Y-76245186D01*
X129545429Y-76104296D01*
X129233892Y-76022616D01*
X128912405Y-76003282D01*
X128593325Y-76047039D01*
X128288912Y-76152205D01*
X128114956Y-76245186D01*
X128019192Y-76509587D01*
X123430808Y-76509587D01*
X123335044Y-76245186D01*
X123045429Y-76104296D01*
X122733892Y-76022616D01*
X122412405Y-76003282D01*
X122093325Y-76047039D01*
X121788912Y-76152205D01*
X121614956Y-76245186D01*
X121519192Y-76509587D01*
X118790000Y-76509587D01*
X118790000Y-76328178D01*
X118976632Y-76203475D01*
X119183475Y-75996632D01*
X119345990Y-75753411D01*
X119457932Y-75483158D01*
X119515000Y-75196260D01*
X119515000Y-74903740D01*
X119471209Y-74683592D01*
X120249802Y-73905000D01*
X121020091Y-73905000D01*
X121026082Y-73919463D01*
X121205013Y-74187252D01*
X121432748Y-74414987D01*
X121700537Y-74593918D01*
X121998088Y-74717168D01*
X122313967Y-74780000D01*
X122636033Y-74780000D01*
X122951912Y-74717168D01*
X123249463Y-74593918D01*
X123517252Y-74414987D01*
X123744987Y-74187252D01*
X123923918Y-73919463D01*
X123929909Y-73905000D01*
X127520091Y-73905000D01*
X127526082Y-73919463D01*
X127705013Y-74187252D01*
X127932748Y-74414987D01*
X128200537Y-74593918D01*
X128498088Y-74717168D01*
X128813967Y-74780000D01*
X129136033Y-74780000D01*
X129451912Y-74717168D01*
X129749463Y-74593918D01*
X130017252Y-74414987D01*
X130244987Y-74187252D01*
X130423918Y-73919463D01*
X130547168Y-73621912D01*
X130610000Y-73306033D01*
X130610000Y-72983967D01*
X130547168Y-72668088D01*
X130423918Y-72370537D01*
X130244987Y-72102748D01*
X130017252Y-71875013D01*
X129749463Y-71696082D01*
X129451912Y-71572832D01*
X129263794Y-71535413D01*
X135214192Y-71535413D01*
X135309956Y-71799814D01*
X135599571Y-71940704D01*
X135911108Y-72022384D01*
X136232595Y-72041718D01*
X136551675Y-71997961D01*
X136856088Y-71892795D01*
X137030044Y-71799814D01*
X137125808Y-71535413D01*
X136170000Y-70579605D01*
X135214192Y-71535413D01*
X129263794Y-71535413D01*
X129136033Y-71510000D01*
X128813967Y-71510000D01*
X128498088Y-71572832D01*
X128200537Y-71696082D01*
X127932748Y-71875013D01*
X127705013Y-72102748D01*
X127526082Y-72370537D01*
X127520091Y-72385000D01*
X123929909Y-72385000D01*
X123923918Y-72370537D01*
X123744987Y-72102748D01*
X123517252Y-71875013D01*
X123249463Y-71696082D01*
X122951912Y-71572832D01*
X122636033Y-71510000D01*
X122313967Y-71510000D01*
X121998088Y-71572832D01*
X121700537Y-71696082D01*
X121432748Y-71875013D01*
X121205013Y-72102748D01*
X121026082Y-72370537D01*
X121020091Y-72385000D01*
X119972323Y-72385000D01*
X119935000Y-72381324D01*
X119897677Y-72385000D01*
X119897667Y-72385000D01*
X119786014Y-72395997D01*
X119642753Y-72439454D01*
X119510724Y-72510026D01*
X119394999Y-72604999D01*
X119371201Y-72633997D01*
X118396408Y-73608791D01*
X118176260Y-73565000D01*
X117883740Y-73565000D01*
X117596842Y-73622068D01*
X117326589Y-73734010D01*
X117083368Y-73896525D01*
X116876525Y-74103368D01*
X116760000Y-74277760D01*
X116643475Y-74103368D01*
X116436632Y-73896525D01*
X116193411Y-73734010D01*
X115923158Y-73622068D01*
X115636260Y-73565000D01*
X115343740Y-73565000D01*
X115056842Y-73622068D01*
X114786589Y-73734010D01*
X114543368Y-73896525D01*
X114411513Y-74028380D01*
X114389502Y-73955820D01*
X114330537Y-73845506D01*
X114251185Y-73748815D01*
X114154494Y-73669463D01*
X114044180Y-73610498D01*
X113924482Y-73574188D01*
X113800000Y-73561928D01*
X112100000Y-73561928D01*
X111975518Y-73574188D01*
X111855820Y-73610498D01*
X111745506Y-73669463D01*
X111648815Y-73748815D01*
X111569463Y-73845506D01*
X111510498Y-73955820D01*
X111474188Y-74075518D01*
X111461928Y-74200000D01*
X111461928Y-75900000D01*
X111474188Y-76024482D01*
X111510498Y-76144180D01*
X111534990Y-76190000D01*
X111118072Y-76190000D01*
X111118072Y-75750000D01*
X111105812Y-75625518D01*
X111069502Y-75505820D01*
X111010537Y-75395506D01*
X110931185Y-75298815D01*
X110834494Y-75219463D01*
X110724180Y-75160498D01*
X110604482Y-75124188D01*
X110480000Y-75111928D01*
X110205000Y-75111928D01*
X110205000Y-74948061D01*
X110165226Y-74748102D01*
X110087205Y-74559744D01*
X109973937Y-74390226D01*
X109829774Y-74246063D01*
X109660256Y-74132795D01*
X109471898Y-74054774D01*
X109271939Y-74015000D01*
X109068061Y-74015000D01*
X108868102Y-74054774D01*
X108679744Y-74132795D01*
X108510226Y-74246063D01*
X108466289Y-74290000D01*
X105377322Y-74290000D01*
X105339999Y-74286324D01*
X105302676Y-74290000D01*
X105302667Y-74290000D01*
X105191014Y-74300997D01*
X105080861Y-74334411D01*
X105047753Y-74344454D01*
X104915723Y-74415026D01*
X104913819Y-74416589D01*
X104799999Y-74509999D01*
X104776196Y-74539003D01*
X104379003Y-74936196D01*
X104349999Y-74959999D01*
X104306776Y-75012667D01*
X104255026Y-75075724D01*
X104214288Y-75151939D01*
X104184454Y-75207754D01*
X104140997Y-75351015D01*
X104137590Y-75385603D01*
X104129463Y-75395506D01*
X104070498Y-75505820D01*
X104034188Y-75625518D01*
X104021928Y-75750000D01*
X95830000Y-75750000D01*
X95830000Y-70785000D01*
X99431928Y-70785000D01*
X99444188Y-70909482D01*
X99480498Y-71029180D01*
X99539463Y-71139494D01*
X99618815Y-71236185D01*
X99715506Y-71315537D01*
X99825820Y-71374502D01*
X99945518Y-71410812D01*
X100070000Y-71423072D01*
X100484250Y-71420000D01*
X100643000Y-71261250D01*
X100643000Y-70424500D01*
X100897000Y-70424500D01*
X100897000Y-71261250D01*
X101055750Y-71420000D01*
X101470000Y-71423072D01*
X101594482Y-71410812D01*
X101714180Y-71374502D01*
X101824494Y-71315537D01*
X101921185Y-71236185D01*
X102000537Y-71139494D01*
X102059502Y-71029180D01*
X102095812Y-70909482D01*
X102108072Y-70785000D01*
X102105000Y-70583250D01*
X101946250Y-70424500D01*
X100897000Y-70424500D01*
X100643000Y-70424500D01*
X99593750Y-70424500D01*
X99435000Y-70583250D01*
X99431928Y-70785000D01*
X95830000Y-70785000D01*
X95830000Y-67529053D01*
X95967004Y-67586493D01*
X96205500Y-67635000D01*
X96555500Y-67635000D01*
X96555500Y-64027000D01*
X96535500Y-64027000D01*
X96535500Y-63773000D01*
X96555500Y-63773000D01*
X96555500Y-62027000D01*
X96535500Y-62027000D01*
X96535500Y-61773000D01*
X96555500Y-61773000D01*
X96555500Y-58165000D01*
X96809500Y-58165000D01*
X96809500Y-61773000D01*
X96829500Y-61773000D01*
X96829500Y-62027000D01*
X96809500Y-62027000D01*
X96809500Y-63773000D01*
X96829500Y-63773000D01*
X96829500Y-64027000D01*
X96809500Y-64027000D01*
X96809500Y-67635000D01*
X97159500Y-67635000D01*
X97397996Y-67586493D01*
X97622446Y-67492390D01*
X97824225Y-67356307D01*
X97995578Y-67183474D01*
X98129921Y-66980533D01*
X98222091Y-66755282D01*
X98225962Y-66717609D01*
X98202179Y-66681265D01*
X98222002Y-66644180D01*
X98257548Y-66527002D01*
X98267500Y-66527002D01*
X98267500Y-66431192D01*
X98270572Y-66400000D01*
X98267767Y-66113091D01*
X98443367Y-66159528D01*
X99202895Y-65400000D01*
X99188753Y-65385858D01*
X99368358Y-65206253D01*
X99382500Y-65220395D01*
X99396643Y-65206253D01*
X99576248Y-65385858D01*
X99562105Y-65400000D01*
X99576248Y-65414143D01*
X99396643Y-65593748D01*
X99382500Y-65579605D01*
X98622972Y-66339133D01*
X98685465Y-66575450D01*
X98928178Y-66688850D01*
X99188349Y-66752719D01*
X99455982Y-66764604D01*
X99720791Y-66724048D01*
X99972600Y-66632609D01*
X100010001Y-66612618D01*
X100010001Y-67353827D01*
X99976291Y-67364053D01*
X99823836Y-67445542D01*
X99690208Y-67555208D01*
X99580542Y-67688836D01*
X99499053Y-67841291D01*
X99448872Y-68006715D01*
X99431928Y-68178750D01*
X99431928Y-68666250D01*
X99448872Y-68838285D01*
X99499053Y-69003709D01*
X99580542Y-69156164D01*
X99690208Y-69289792D01*
X99696564Y-69295008D01*
X99618815Y-69358815D01*
X99539463Y-69455506D01*
X99480498Y-69565820D01*
X99444188Y-69685518D01*
X99431928Y-69810000D01*
X99435000Y-70011750D01*
X99593750Y-70170500D01*
X100643000Y-70170500D01*
X100643000Y-70150500D01*
X100897000Y-70150500D01*
X100897000Y-70170500D01*
X101946250Y-70170500D01*
X102105000Y-70011750D01*
X102108072Y-69810000D01*
X102095812Y-69685518D01*
X102059502Y-69565820D01*
X102000537Y-69455506D01*
X101921185Y-69358815D01*
X101843436Y-69295008D01*
X101849792Y-69289792D01*
X101937845Y-69182500D01*
X103058250Y-69182500D01*
X103108750Y-69233000D01*
X103190859Y-69233000D01*
X103230506Y-69265537D01*
X103340820Y-69324502D01*
X103457841Y-69360000D01*
X103340820Y-69395498D01*
X103230506Y-69454463D01*
X103190859Y-69487000D01*
X103108750Y-69487000D01*
X102950000Y-69645750D01*
X102946928Y-69685000D01*
X102959188Y-69809482D01*
X102966929Y-69835000D01*
X102959188Y-69860518D01*
X102946928Y-69985000D01*
X102946928Y-70635000D01*
X102959188Y-70759482D01*
X102995498Y-70879180D01*
X103054463Y-70989494D01*
X103133815Y-71086185D01*
X103230000Y-71165122D01*
X103230001Y-73214773D01*
X103174774Y-73348102D01*
X103135000Y-73548061D01*
X103135000Y-73751939D01*
X103174774Y-73951898D01*
X103252795Y-74140256D01*
X103366063Y-74309774D01*
X103510226Y-74453937D01*
X103679744Y-74567205D01*
X103868102Y-74645226D01*
X104068061Y-74685000D01*
X104271939Y-74685000D01*
X104471898Y-74645226D01*
X104660256Y-74567205D01*
X104829774Y-74453937D01*
X104973937Y-74309774D01*
X105087205Y-74140256D01*
X105165226Y-73951898D01*
X105205000Y-73751939D01*
X105205000Y-73548061D01*
X105165226Y-73348102D01*
X105087205Y-73159744D01*
X105000000Y-73029232D01*
X105000000Y-71165122D01*
X105096185Y-71086185D01*
X105141531Y-71030930D01*
X105192247Y-71015546D01*
X105251468Y-70983891D01*
X105254463Y-70989494D01*
X105333815Y-71086185D01*
X105430506Y-71165537D01*
X105540820Y-71224502D01*
X105660518Y-71260812D01*
X105785000Y-71273072D01*
X106845000Y-71273072D01*
X106853425Y-71272242D01*
X106886774Y-71439898D01*
X106964795Y-71628256D01*
X107078063Y-71797774D01*
X107222226Y-71941937D01*
X107391744Y-72055205D01*
X107580102Y-72133226D01*
X107780061Y-72173000D01*
X107983939Y-72173000D01*
X108183898Y-72133226D01*
X108372256Y-72055205D01*
X108541774Y-71941937D01*
X108685937Y-71797774D01*
X108799205Y-71628256D01*
X108877226Y-71439898D01*
X108892352Y-71363853D01*
X109031715Y-71406128D01*
X109203750Y-71423072D01*
X110116250Y-71423072D01*
X110288285Y-71406128D01*
X110453709Y-71355947D01*
X110606164Y-71274458D01*
X110739792Y-71164792D01*
X110849458Y-71031164D01*
X110930947Y-70878709D01*
X110981128Y-70713285D01*
X110998072Y-70541250D01*
X110998072Y-70462595D01*
X134528282Y-70462595D01*
X134572039Y-70781675D01*
X134677205Y-71086088D01*
X134770186Y-71260044D01*
X135034587Y-71355808D01*
X135990395Y-70400000D01*
X136349605Y-70400000D01*
X137305413Y-71355808D01*
X137569814Y-71260044D01*
X137710704Y-70970429D01*
X137792384Y-70658892D01*
X137811718Y-70337405D01*
X137767961Y-70018325D01*
X137662795Y-69713912D01*
X137569814Y-69539956D01*
X137305413Y-69444192D01*
X136349605Y-70400000D01*
X135990395Y-70400000D01*
X135034587Y-69444192D01*
X134770186Y-69539956D01*
X134629296Y-69829571D01*
X134547616Y-70141108D01*
X134528282Y-70462595D01*
X110998072Y-70462595D01*
X110998072Y-70053750D01*
X110981128Y-69881715D01*
X110930947Y-69716291D01*
X110849458Y-69563836D01*
X110739792Y-69430208D01*
X110733436Y-69424992D01*
X110811185Y-69361185D01*
X110890460Y-69264587D01*
X135214192Y-69264587D01*
X136170000Y-70220395D01*
X137125808Y-69264587D01*
X137030044Y-69000186D01*
X136740429Y-68859296D01*
X136428892Y-68777616D01*
X136107405Y-68758282D01*
X135788325Y-68802039D01*
X135483912Y-68907205D01*
X135309956Y-69000186D01*
X135214192Y-69264587D01*
X110890460Y-69264587D01*
X110890537Y-69264494D01*
X110949502Y-69154180D01*
X110985812Y-69034482D01*
X110998072Y-68910000D01*
X110995000Y-68708250D01*
X110836250Y-68549500D01*
X109787000Y-68549500D01*
X109787000Y-68569500D01*
X109533000Y-68569500D01*
X109533000Y-68549500D01*
X108483750Y-68549500D01*
X108346941Y-68686309D01*
X108183898Y-68618774D01*
X107983939Y-68579000D01*
X107780061Y-68579000D01*
X107580102Y-68618774D01*
X107483072Y-68658965D01*
X107483072Y-68085000D01*
X107470812Y-67960518D01*
X107463072Y-67935000D01*
X108321928Y-67935000D01*
X108325000Y-68136750D01*
X108483750Y-68295500D01*
X109533000Y-68295500D01*
X109533000Y-67458750D01*
X109374250Y-67300000D01*
X108960000Y-67296928D01*
X108835518Y-67309188D01*
X108715820Y-67345498D01*
X108605506Y-67404463D01*
X108508815Y-67483815D01*
X108429463Y-67580506D01*
X108370498Y-67690820D01*
X108334188Y-67810518D01*
X108321928Y-67935000D01*
X107463072Y-67935000D01*
X107434502Y-67840820D01*
X107375537Y-67730506D01*
X107296185Y-67633815D01*
X107199494Y-67554463D01*
X107089180Y-67495498D01*
X106969482Y-67459188D01*
X106845000Y-67446928D01*
X105785000Y-67446928D01*
X105660518Y-67459188D01*
X105540820Y-67495498D01*
X105430506Y-67554463D01*
X105333815Y-67633815D01*
X105254463Y-67730506D01*
X105251468Y-67736109D01*
X105192247Y-67704454D01*
X105141531Y-67689070D01*
X105096185Y-67633815D01*
X104999494Y-67554463D01*
X104889180Y-67495498D01*
X104769482Y-67459188D01*
X104645000Y-67446928D01*
X103585000Y-67446928D01*
X103460518Y-67459188D01*
X103340820Y-67495498D01*
X103230506Y-67554463D01*
X103133815Y-67633815D01*
X103110274Y-67662500D01*
X101937845Y-67662500D01*
X101849792Y-67555208D01*
X101716164Y-67445542D01*
X101563709Y-67364053D01*
X101530000Y-67353827D01*
X101530000Y-64699825D01*
X101533676Y-64662500D01*
X101530000Y-64625175D01*
X101530000Y-64625167D01*
X101519003Y-64513514D01*
X101475546Y-64370253D01*
X101404974Y-64238224D01*
X101310001Y-64122499D01*
X101280998Y-64098697D01*
X101259801Y-64077500D01*
X106031928Y-64077500D01*
X106044188Y-64201982D01*
X106080498Y-64321680D01*
X106139463Y-64431994D01*
X106218815Y-64528685D01*
X106315506Y-64608037D01*
X106425820Y-64667002D01*
X106545518Y-64703312D01*
X106670000Y-64715572D01*
X107084250Y-64712500D01*
X107243000Y-64553750D01*
X107243000Y-63717000D01*
X107497000Y-63717000D01*
X107497000Y-64553750D01*
X107655750Y-64712500D01*
X108070000Y-64715572D01*
X108194482Y-64703312D01*
X108314180Y-64667002D01*
X108424494Y-64608037D01*
X108521185Y-64528685D01*
X108600537Y-64431994D01*
X108659502Y-64321680D01*
X108695812Y-64201982D01*
X108708072Y-64077500D01*
X108705000Y-63875750D01*
X108546250Y-63717000D01*
X107497000Y-63717000D01*
X107243000Y-63717000D01*
X106193750Y-63717000D01*
X106035000Y-63875750D01*
X106031928Y-64077500D01*
X101259801Y-64077500D01*
X101083374Y-63901073D01*
X103599458Y-61384990D01*
X104955155Y-61384990D01*
X104839744Y-61432795D01*
X104670226Y-61546063D01*
X104526063Y-61690226D01*
X104412795Y-61859744D01*
X104334774Y-62048102D01*
X104295000Y-62248061D01*
X104295000Y-62451939D01*
X104334774Y-62651898D01*
X104412795Y-62840256D01*
X104526063Y-63009774D01*
X104670226Y-63153937D01*
X104839744Y-63267205D01*
X105028102Y-63345226D01*
X105228061Y-63385000D01*
X105431939Y-63385000D01*
X105631898Y-63345226D01*
X105820256Y-63267205D01*
X105989774Y-63153937D01*
X106032067Y-63111644D01*
X106035000Y-63304250D01*
X106193750Y-63463000D01*
X107243000Y-63463000D01*
X107243000Y-63443000D01*
X107497000Y-63443000D01*
X107497000Y-63463000D01*
X108546250Y-63463000D01*
X108705000Y-63304250D01*
X108708072Y-63102500D01*
X108695812Y-62978018D01*
X108659502Y-62858320D01*
X108600537Y-62748006D01*
X108521185Y-62651315D01*
X108443436Y-62587508D01*
X108449792Y-62582292D01*
X108559458Y-62448664D01*
X108640947Y-62296209D01*
X108677715Y-62175000D01*
X109160000Y-62175000D01*
X109160000Y-62192002D01*
X109234265Y-62192002D01*
X109205498Y-62245820D01*
X109192247Y-62289503D01*
X109160000Y-62321750D01*
X109167095Y-62386773D01*
X109156928Y-62490000D01*
X109156928Y-62940000D01*
X109166777Y-63040000D01*
X109156928Y-63140000D01*
X109156928Y-63590000D01*
X109166777Y-63690000D01*
X109156928Y-63790000D01*
X109156928Y-64240000D01*
X109166777Y-64340000D01*
X109156928Y-64440000D01*
X109156928Y-64890000D01*
X109169188Y-65014482D01*
X109205498Y-65134180D01*
X109264463Y-65244494D01*
X109343815Y-65341185D01*
X109440506Y-65420537D01*
X109550820Y-65479502D01*
X109670518Y-65515812D01*
X109760001Y-65524625D01*
X109760000Y-66362677D01*
X109756324Y-66400000D01*
X109760000Y-66437322D01*
X109760000Y-66437332D01*
X109770997Y-66548985D01*
X109803087Y-66654774D01*
X109814454Y-66692246D01*
X109885026Y-66824276D01*
X109906139Y-66850002D01*
X109979999Y-66940001D01*
X110009003Y-66963804D01*
X110342258Y-67297060D01*
X109945750Y-67300000D01*
X109787000Y-67458750D01*
X109787000Y-68295500D01*
X110836250Y-68295500D01*
X110995000Y-68136750D01*
X110997804Y-67952606D01*
X111206201Y-68161003D01*
X111229999Y-68190001D01*
X111258997Y-68213799D01*
X111345723Y-68284974D01*
X111477753Y-68355546D01*
X111621014Y-68399003D01*
X111732667Y-68410000D01*
X111732677Y-68410000D01*
X111770000Y-68413676D01*
X111807323Y-68410000D01*
X120266289Y-68410000D01*
X120310226Y-68453937D01*
X120479744Y-68567205D01*
X120668102Y-68645226D01*
X120868061Y-68685000D01*
X121071939Y-68685000D01*
X121271898Y-68645226D01*
X121460256Y-68567205D01*
X121629774Y-68453937D01*
X121773937Y-68309774D01*
X121887205Y-68140256D01*
X121965226Y-67951898D01*
X122005000Y-67751939D01*
X122005000Y-67548061D01*
X121965226Y-67348102D01*
X121887205Y-67159744D01*
X121773937Y-66990226D01*
X121629774Y-66846063D01*
X121460256Y-66732795D01*
X121271898Y-66654774D01*
X121071939Y-66615000D01*
X120868061Y-66615000D01*
X120668102Y-66654774D01*
X120479744Y-66732795D01*
X120310226Y-66846063D01*
X120266289Y-66890000D01*
X120205000Y-66890000D01*
X120205000Y-66748061D01*
X120165226Y-66548102D01*
X120087205Y-66359744D01*
X120075694Y-66342517D01*
X120077205Y-66340256D01*
X120090812Y-66307404D01*
X137455000Y-66307404D01*
X137455000Y-67992597D01*
X137482275Y-68269524D01*
X137590062Y-68624848D01*
X137765098Y-68952317D01*
X138000656Y-69239345D01*
X138287684Y-69474903D01*
X138615153Y-69649939D01*
X138970477Y-69757725D01*
X139158651Y-69776259D01*
X139097832Y-69923088D01*
X139035000Y-70238967D01*
X139035000Y-70561033D01*
X139097832Y-70876912D01*
X139221082Y-71174463D01*
X139400013Y-71442252D01*
X139627748Y-71669987D01*
X139895537Y-71848918D01*
X139910000Y-71854909D01*
X139910001Y-73362668D01*
X139906324Y-73400000D01*
X139920998Y-73548985D01*
X139964454Y-73692246D01*
X140035026Y-73824276D01*
X140086705Y-73887246D01*
X140130000Y-73940001D01*
X140158998Y-73963799D01*
X140353823Y-74158624D01*
X140347832Y-74173088D01*
X140285000Y-74488967D01*
X140285000Y-74811033D01*
X140347832Y-75126912D01*
X140471082Y-75424463D01*
X140650013Y-75692252D01*
X140770245Y-75812484D01*
X140693088Y-75827832D01*
X140395537Y-75951082D01*
X140127748Y-76130013D01*
X139900013Y-76357748D01*
X139721082Y-76625537D01*
X139597832Y-76923088D01*
X139535000Y-77238967D01*
X139535000Y-77561033D01*
X139597832Y-77876912D01*
X139721082Y-78174463D01*
X139900013Y-78442252D01*
X140127748Y-78669987D01*
X140395537Y-78848918D01*
X140693088Y-78972168D01*
X141008967Y-79035000D01*
X141331033Y-79035000D01*
X141646912Y-78972168D01*
X141944463Y-78848918D01*
X142212252Y-78669987D01*
X142439987Y-78442252D01*
X142618918Y-78174463D01*
X142742168Y-77876912D01*
X142805000Y-77561033D01*
X142805000Y-77238967D01*
X142742168Y-76923088D01*
X142618918Y-76625537D01*
X142439987Y-76357748D01*
X142319755Y-76237516D01*
X142396912Y-76222168D01*
X142694463Y-76098918D01*
X142962252Y-75919987D01*
X143096826Y-75785413D01*
X143464192Y-75785413D01*
X143559956Y-76049814D01*
X143849571Y-76190704D01*
X144161108Y-76272384D01*
X144482595Y-76291718D01*
X144801675Y-76247961D01*
X145106088Y-76142795D01*
X145280044Y-76049814D01*
X145375808Y-75785413D01*
X144420000Y-74829605D01*
X143464192Y-75785413D01*
X143096826Y-75785413D01*
X143189987Y-75692252D01*
X143254925Y-75595065D01*
X143284587Y-75605808D01*
X144240395Y-74650000D01*
X144226253Y-74635858D01*
X144405858Y-74456253D01*
X144420000Y-74470395D01*
X144434143Y-74456253D01*
X144613748Y-74635858D01*
X144599605Y-74650000D01*
X145555413Y-75605808D01*
X145585075Y-75595065D01*
X145650013Y-75692252D01*
X145877748Y-75919987D01*
X146145537Y-76098918D01*
X146443088Y-76222168D01*
X146520245Y-76237516D01*
X146400013Y-76357748D01*
X146221082Y-76625537D01*
X146097832Y-76923088D01*
X146035000Y-77238967D01*
X146035000Y-77561033D01*
X146097832Y-77876912D01*
X146221082Y-78174463D01*
X146400013Y-78442252D01*
X146627748Y-78669987D01*
X146895537Y-78848918D01*
X147193088Y-78972168D01*
X147508967Y-79035000D01*
X147831033Y-79035000D01*
X148146912Y-78972168D01*
X148444463Y-78848918D01*
X148712252Y-78669987D01*
X148939987Y-78442252D01*
X149118918Y-78174463D01*
X149242168Y-77876912D01*
X149305000Y-77561033D01*
X149305000Y-77238967D01*
X149242168Y-76923088D01*
X149118918Y-76625537D01*
X148939987Y-76357748D01*
X148712252Y-76130013D01*
X148444463Y-75951082D01*
X148146912Y-75827832D01*
X148069755Y-75812484D01*
X148189987Y-75692252D01*
X148368918Y-75424463D01*
X148492168Y-75126912D01*
X148555000Y-74811033D01*
X148555000Y-74488967D01*
X148492168Y-74173088D01*
X148368918Y-73875537D01*
X148189987Y-73607748D01*
X147962252Y-73380013D01*
X147890575Y-73332120D01*
X147965226Y-73151898D01*
X148005000Y-72951939D01*
X148005000Y-72748061D01*
X147965226Y-72548102D01*
X147887205Y-72359744D01*
X147773937Y-72190226D01*
X147629774Y-72046063D01*
X147460256Y-71932795D01*
X147271898Y-71854774D01*
X147071939Y-71815000D01*
X146868061Y-71815000D01*
X146668102Y-71854774D01*
X146479744Y-71932795D01*
X146310226Y-72046063D01*
X146266289Y-72090000D01*
X142473711Y-72090000D01*
X142429774Y-72046063D01*
X142260256Y-71932795D01*
X142071898Y-71854774D01*
X141871939Y-71815000D01*
X141668061Y-71815000D01*
X141468102Y-71854774D01*
X141430000Y-71870556D01*
X141430000Y-71854909D01*
X141444463Y-71848918D01*
X141712252Y-71669987D01*
X141939987Y-71442252D01*
X142118918Y-71174463D01*
X142242168Y-70876912D01*
X142305000Y-70561033D01*
X142305000Y-70238967D01*
X142242168Y-69923088D01*
X142118918Y-69625537D01*
X141939987Y-69357748D01*
X141712252Y-69130013D01*
X141444463Y-68951082D01*
X141146912Y-68827832D01*
X140997344Y-68798081D01*
X141089939Y-68624848D01*
X141197725Y-68269524D01*
X141225000Y-67992597D01*
X141225000Y-66307403D01*
X141197725Y-66030476D01*
X141089939Y-65675152D01*
X140997344Y-65501919D01*
X141146912Y-65472168D01*
X141444463Y-65348918D01*
X141712252Y-65169987D01*
X141939987Y-64942252D01*
X142118918Y-64674463D01*
X142242168Y-64376912D01*
X142305000Y-64061033D01*
X142305000Y-63738967D01*
X146535000Y-63738967D01*
X146535000Y-64061033D01*
X146597832Y-64376912D01*
X146721082Y-64674463D01*
X146900013Y-64942252D01*
X147127748Y-65169987D01*
X147395537Y-65348918D01*
X147693088Y-65472168D01*
X147842657Y-65501919D01*
X147750062Y-65675152D01*
X147642275Y-66030476D01*
X147615000Y-66307403D01*
X147615000Y-67992596D01*
X147642275Y-68269523D01*
X147750061Y-68624847D01*
X147842656Y-68798081D01*
X147693088Y-68827832D01*
X147395537Y-68951082D01*
X147127748Y-69130013D01*
X146900013Y-69357748D01*
X146721082Y-69625537D01*
X146597832Y-69923088D01*
X146535000Y-70238967D01*
X146535000Y-70561033D01*
X146597832Y-70876912D01*
X146721082Y-71174463D01*
X146900013Y-71442252D01*
X147127748Y-71669987D01*
X147395537Y-71848918D01*
X147693088Y-71972168D01*
X148008967Y-72035000D01*
X148331033Y-72035000D01*
X148646912Y-71972168D01*
X148944463Y-71848918D01*
X149212252Y-71669987D01*
X149346826Y-71535413D01*
X151714192Y-71535413D01*
X151809956Y-71799814D01*
X152099571Y-71940704D01*
X152411108Y-72022384D01*
X152732595Y-72041718D01*
X153051675Y-71997961D01*
X153356088Y-71892795D01*
X153530044Y-71799814D01*
X153625808Y-71535413D01*
X152670000Y-70579605D01*
X151714192Y-71535413D01*
X149346826Y-71535413D01*
X149439987Y-71442252D01*
X149618918Y-71174463D01*
X149742168Y-70876912D01*
X149805000Y-70561033D01*
X149805000Y-70462595D01*
X151028282Y-70462595D01*
X151072039Y-70781675D01*
X151177205Y-71086088D01*
X151270186Y-71260044D01*
X151534587Y-71355808D01*
X152490395Y-70400000D01*
X152849605Y-70400000D01*
X153805413Y-71355808D01*
X154069814Y-71260044D01*
X154179091Y-71035413D01*
X155714192Y-71035413D01*
X155809956Y-71299814D01*
X156099571Y-71440704D01*
X156411108Y-71522384D01*
X156732595Y-71541718D01*
X157051675Y-71497961D01*
X157356088Y-71392795D01*
X157530044Y-71299814D01*
X157625808Y-71035413D01*
X162214192Y-71035413D01*
X162309956Y-71299814D01*
X162599571Y-71440704D01*
X162911108Y-71522384D01*
X163232595Y-71541718D01*
X163551675Y-71497961D01*
X163856088Y-71392795D01*
X164030044Y-71299814D01*
X164125808Y-71035413D01*
X163170000Y-70079605D01*
X162214192Y-71035413D01*
X157625808Y-71035413D01*
X156670000Y-70079605D01*
X155714192Y-71035413D01*
X154179091Y-71035413D01*
X154210704Y-70970429D01*
X154292384Y-70658892D01*
X154311718Y-70337405D01*
X154267961Y-70018325D01*
X154248708Y-69962595D01*
X155028282Y-69962595D01*
X155072039Y-70281675D01*
X155177205Y-70586088D01*
X155270186Y-70760044D01*
X155534587Y-70855808D01*
X156490395Y-69900000D01*
X156849605Y-69900000D01*
X157805413Y-70855808D01*
X158069814Y-70760044D01*
X158210704Y-70470429D01*
X158292384Y-70158892D01*
X158304189Y-69962595D01*
X161528282Y-69962595D01*
X161572039Y-70281675D01*
X161677205Y-70586088D01*
X161770186Y-70760044D01*
X162034587Y-70855808D01*
X162990395Y-69900000D01*
X162034587Y-68944192D01*
X161770186Y-69039956D01*
X161629296Y-69329571D01*
X161547616Y-69641108D01*
X161528282Y-69962595D01*
X158304189Y-69962595D01*
X158311718Y-69837405D01*
X158267961Y-69518325D01*
X158162795Y-69213912D01*
X158069814Y-69039956D01*
X157805413Y-68944192D01*
X156849605Y-69900000D01*
X156490395Y-69900000D01*
X155534587Y-68944192D01*
X155270186Y-69039956D01*
X155129296Y-69329571D01*
X155047616Y-69641108D01*
X155028282Y-69962595D01*
X154248708Y-69962595D01*
X154162795Y-69713912D01*
X154069814Y-69539956D01*
X153805413Y-69444192D01*
X152849605Y-70400000D01*
X152490395Y-70400000D01*
X151534587Y-69444192D01*
X151270186Y-69539956D01*
X151129296Y-69829571D01*
X151047616Y-70141108D01*
X151028282Y-70462595D01*
X149805000Y-70462595D01*
X149805000Y-70238967D01*
X149742168Y-69923088D01*
X149681349Y-69776259D01*
X149869523Y-69757725D01*
X150224847Y-69649939D01*
X150552317Y-69474903D01*
X150808587Y-69264587D01*
X151714192Y-69264587D01*
X152670000Y-70220395D01*
X153625808Y-69264587D01*
X153530044Y-69000186D01*
X153240429Y-68859296D01*
X152928892Y-68777616D01*
X152712245Y-68764587D01*
X155714192Y-68764587D01*
X156670000Y-69720395D01*
X157625808Y-68764587D01*
X162214192Y-68764587D01*
X163170000Y-69720395D01*
X164125808Y-68764587D01*
X164030044Y-68500186D01*
X163740429Y-68359296D01*
X163428892Y-68277616D01*
X163107405Y-68258282D01*
X162788325Y-68302039D01*
X162483912Y-68407205D01*
X162309956Y-68500186D01*
X162214192Y-68764587D01*
X157625808Y-68764587D01*
X157530044Y-68500186D01*
X157240429Y-68359296D01*
X156928892Y-68277616D01*
X156607405Y-68258282D01*
X156288325Y-68302039D01*
X155983912Y-68407205D01*
X155809956Y-68500186D01*
X155714192Y-68764587D01*
X152712245Y-68764587D01*
X152607405Y-68758282D01*
X152288325Y-68802039D01*
X151983912Y-68907205D01*
X151809956Y-69000186D01*
X151714192Y-69264587D01*
X150808587Y-69264587D01*
X150839345Y-69239345D01*
X151074903Y-68952317D01*
X151249939Y-68624848D01*
X151357725Y-68269524D01*
X151385000Y-67992597D01*
X151385000Y-66307403D01*
X151357725Y-66030476D01*
X151249939Y-65675152D01*
X151074903Y-65347683D01*
X150839345Y-65060655D01*
X150808588Y-65035413D01*
X151714192Y-65035413D01*
X151809956Y-65299814D01*
X152099571Y-65440704D01*
X152411108Y-65522384D01*
X152732595Y-65541718D01*
X153051675Y-65497961D01*
X153356088Y-65392795D01*
X153530044Y-65299814D01*
X153625808Y-65035413D01*
X152670000Y-64079605D01*
X151714192Y-65035413D01*
X150808588Y-65035413D01*
X150552317Y-64825097D01*
X150224848Y-64650061D01*
X149869524Y-64542275D01*
X149681349Y-64523741D01*
X149742168Y-64376912D01*
X149805000Y-64061033D01*
X149805000Y-63962595D01*
X151028282Y-63962595D01*
X151072039Y-64281675D01*
X151177205Y-64586088D01*
X151270186Y-64760044D01*
X151534587Y-64855808D01*
X152490395Y-63900000D01*
X152849605Y-63900000D01*
X153805413Y-64855808D01*
X154069814Y-64760044D01*
X154210704Y-64470429D01*
X154292384Y-64158892D01*
X154311718Y-63837405D01*
X154267961Y-63518325D01*
X154162795Y-63213912D01*
X154069814Y-63039956D01*
X153805413Y-62944192D01*
X152849605Y-63900000D01*
X152490395Y-63900000D01*
X151534587Y-62944192D01*
X151270186Y-63039956D01*
X151129296Y-63329571D01*
X151047616Y-63641108D01*
X151028282Y-63962595D01*
X149805000Y-63962595D01*
X149805000Y-63738967D01*
X149742168Y-63423088D01*
X149618918Y-63125537D01*
X149439987Y-62857748D01*
X149346826Y-62764587D01*
X151714192Y-62764587D01*
X152670000Y-63720395D01*
X153625808Y-62764587D01*
X153530044Y-62500186D01*
X153240429Y-62359296D01*
X152928892Y-62277616D01*
X152607405Y-62258282D01*
X152288325Y-62302039D01*
X151983912Y-62407205D01*
X151809956Y-62500186D01*
X151714192Y-62764587D01*
X149346826Y-62764587D01*
X149212252Y-62630013D01*
X148944463Y-62451082D01*
X148646912Y-62327832D01*
X148331033Y-62265000D01*
X148008967Y-62265000D01*
X147693088Y-62327832D01*
X147395537Y-62451082D01*
X147127748Y-62630013D01*
X146900013Y-62857748D01*
X146721082Y-63125537D01*
X146597832Y-63423088D01*
X146535000Y-63738967D01*
X142305000Y-63738967D01*
X142242168Y-63423088D01*
X142118918Y-63125537D01*
X141939987Y-62857748D01*
X141712252Y-62630013D01*
X141444463Y-62451082D01*
X141146912Y-62327832D01*
X140831033Y-62265000D01*
X140508967Y-62265000D01*
X140193088Y-62327832D01*
X139895537Y-62451082D01*
X139627748Y-62630013D01*
X139400013Y-62857748D01*
X139221082Y-63125537D01*
X139097832Y-63423088D01*
X139035000Y-63738967D01*
X139035000Y-64061033D01*
X139097832Y-64376912D01*
X139158651Y-64523741D01*
X138970476Y-64542275D01*
X138615152Y-64650061D01*
X138287683Y-64825097D01*
X138000655Y-65060655D01*
X137765097Y-65347683D01*
X137590061Y-65675153D01*
X137482275Y-66030477D01*
X137455000Y-66307404D01*
X120090812Y-66307404D01*
X120155226Y-66151898D01*
X120195000Y-65951939D01*
X120195000Y-65748061D01*
X120155226Y-65548102D01*
X120077205Y-65359744D01*
X120070694Y-65350000D01*
X120077205Y-65340256D01*
X120155226Y-65151898D01*
X120178396Y-65035413D01*
X135214192Y-65035413D01*
X135309956Y-65299814D01*
X135599571Y-65440704D01*
X135911108Y-65522384D01*
X136232595Y-65541718D01*
X136551675Y-65497961D01*
X136856088Y-65392795D01*
X137030044Y-65299814D01*
X137125808Y-65035413D01*
X136170000Y-64079605D01*
X135214192Y-65035413D01*
X120178396Y-65035413D01*
X120195000Y-64951939D01*
X120195000Y-64748061D01*
X120155226Y-64548102D01*
X120077205Y-64359744D01*
X120070694Y-64350000D01*
X120077205Y-64340256D01*
X120155226Y-64151898D01*
X120192880Y-63962595D01*
X134528282Y-63962595D01*
X134572039Y-64281675D01*
X134677205Y-64586088D01*
X134770186Y-64760044D01*
X135034587Y-64855808D01*
X135990395Y-63900000D01*
X136349605Y-63900000D01*
X137305413Y-64855808D01*
X137569814Y-64760044D01*
X137710704Y-64470429D01*
X137792384Y-64158892D01*
X137811718Y-63837405D01*
X137767961Y-63518325D01*
X137662795Y-63213912D01*
X137569814Y-63039956D01*
X137305413Y-62944192D01*
X136349605Y-63900000D01*
X135990395Y-63900000D01*
X135034587Y-62944192D01*
X134770186Y-63039956D01*
X134629296Y-63329571D01*
X134547616Y-63641108D01*
X134528282Y-63962595D01*
X120192880Y-63962595D01*
X120195000Y-63951939D01*
X120195000Y-63748061D01*
X120155226Y-63548102D01*
X120077205Y-63359744D01*
X120095147Y-63332892D01*
X120173168Y-63144534D01*
X120212942Y-62944575D01*
X120212942Y-62764587D01*
X135214192Y-62764587D01*
X136170000Y-63720395D01*
X137125808Y-62764587D01*
X137030044Y-62500186D01*
X136740429Y-62359296D01*
X136428892Y-62277616D01*
X136107405Y-62258282D01*
X135788325Y-62302039D01*
X135483912Y-62407205D01*
X135309956Y-62500186D01*
X135214192Y-62764587D01*
X120212942Y-62764587D01*
X120212942Y-62740697D01*
X120212420Y-62738072D01*
X120476250Y-62738072D01*
X120648285Y-62721128D01*
X120813709Y-62670947D01*
X120966164Y-62589458D01*
X121099792Y-62479792D01*
X121105008Y-62473436D01*
X121168815Y-62551185D01*
X121265506Y-62630537D01*
X121375820Y-62689502D01*
X121495518Y-62725812D01*
X121620000Y-62738072D01*
X121821750Y-62735000D01*
X121980500Y-62576250D01*
X121980500Y-61527000D01*
X122234500Y-61527000D01*
X122234500Y-62576250D01*
X122393250Y-62735000D01*
X122595000Y-62738072D01*
X122719482Y-62725812D01*
X122839180Y-62689502D01*
X122949494Y-62630537D01*
X123046185Y-62551185D01*
X123125537Y-62454494D01*
X123184502Y-62344180D01*
X123220812Y-62224482D01*
X123233072Y-62100000D01*
X123230000Y-61685750D01*
X123071250Y-61527000D01*
X122234500Y-61527000D01*
X121980500Y-61527000D01*
X121960500Y-61527000D01*
X121960500Y-61273000D01*
X121980500Y-61273000D01*
X121980500Y-60223750D01*
X122234500Y-60223750D01*
X122234500Y-61273000D01*
X123071250Y-61273000D01*
X123230000Y-61114250D01*
X123233072Y-60700000D01*
X123220812Y-60575518D01*
X123184502Y-60455820D01*
X123125537Y-60345506D01*
X123046185Y-60248815D01*
X122949494Y-60169463D01*
X122839180Y-60110498D01*
X122719482Y-60074188D01*
X122595000Y-60061928D01*
X122393250Y-60065000D01*
X122234500Y-60223750D01*
X121980500Y-60223750D01*
X121821750Y-60065000D01*
X121620000Y-60061928D01*
X121495518Y-60074188D01*
X121375820Y-60110498D01*
X121265506Y-60169463D01*
X121168815Y-60248815D01*
X121105008Y-60326564D01*
X121099792Y-60320208D01*
X120966164Y-60210542D01*
X120813709Y-60129053D01*
X120648285Y-60078872D01*
X120476250Y-60061928D01*
X119988750Y-60061928D01*
X119816715Y-60078872D01*
X119651291Y-60129053D01*
X119498836Y-60210542D01*
X119365208Y-60320208D01*
X119255542Y-60453836D01*
X119219061Y-60522087D01*
X119160256Y-60482795D01*
X118971898Y-60404774D01*
X118771939Y-60365000D01*
X118568061Y-60365000D01*
X118368102Y-60404774D01*
X118179744Y-60482795D01*
X118010226Y-60596063D01*
X117966289Y-60640000D01*
X117783072Y-60640000D01*
X117783072Y-60540000D01*
X117773223Y-60440000D01*
X117783072Y-60340000D01*
X117783072Y-59988967D01*
X140285000Y-59988967D01*
X140285000Y-60311033D01*
X140347832Y-60626912D01*
X140471082Y-60924463D01*
X140650013Y-61192252D01*
X140877748Y-61419987D01*
X141145537Y-61598918D01*
X141443088Y-61722168D01*
X141758967Y-61785000D01*
X142081033Y-61785000D01*
X142396912Y-61722168D01*
X142694463Y-61598918D01*
X142962252Y-61419987D01*
X143096826Y-61285413D01*
X145964192Y-61285413D01*
X146059956Y-61549814D01*
X146349571Y-61690704D01*
X146661108Y-61772384D01*
X146982595Y-61791718D01*
X147301675Y-61747961D01*
X147606088Y-61642795D01*
X147780044Y-61549814D01*
X147875808Y-61285413D01*
X146920000Y-60329605D01*
X145964192Y-61285413D01*
X143096826Y-61285413D01*
X143189987Y-61192252D01*
X143368918Y-60924463D01*
X143492168Y-60626912D01*
X143555000Y-60311033D01*
X143555000Y-60212595D01*
X145278282Y-60212595D01*
X145322039Y-60531675D01*
X145427205Y-60836088D01*
X145520186Y-61010044D01*
X145784587Y-61105808D01*
X146740395Y-60150000D01*
X147099605Y-60150000D01*
X148055413Y-61105808D01*
X148319814Y-61010044D01*
X148460704Y-60720429D01*
X148542384Y-60408892D01*
X148561718Y-60087405D01*
X148517961Y-59768325D01*
X148412795Y-59463912D01*
X148319814Y-59289956D01*
X148055413Y-59194192D01*
X147099605Y-60150000D01*
X146740395Y-60150000D01*
X145784587Y-59194192D01*
X145520186Y-59289956D01*
X145379296Y-59579571D01*
X145297616Y-59891108D01*
X145278282Y-60212595D01*
X143555000Y-60212595D01*
X143555000Y-59988967D01*
X143492168Y-59673088D01*
X143368918Y-59375537D01*
X143189987Y-59107748D01*
X143096826Y-59014587D01*
X145964192Y-59014587D01*
X146920000Y-59970395D01*
X147875808Y-59014587D01*
X147780044Y-58750186D01*
X147490429Y-58609296D01*
X147178892Y-58527616D01*
X146857405Y-58508282D01*
X146538325Y-58552039D01*
X146233912Y-58657205D01*
X146059956Y-58750186D01*
X145964192Y-59014587D01*
X143096826Y-59014587D01*
X142962252Y-58880013D01*
X142694463Y-58701082D01*
X142396912Y-58577832D01*
X142081033Y-58515000D01*
X141758967Y-58515000D01*
X141443088Y-58577832D01*
X141145537Y-58701082D01*
X140877748Y-58880013D01*
X140650013Y-59107748D01*
X140471082Y-59375537D01*
X140347832Y-59673088D01*
X140285000Y-59988967D01*
X117783072Y-59988967D01*
X117783072Y-59890000D01*
X117773223Y-59790000D01*
X117783072Y-59690000D01*
X117783072Y-59575000D01*
X120167678Y-59575000D01*
X120205000Y-59578676D01*
X120242322Y-59575000D01*
X120242333Y-59575000D01*
X120353986Y-59564003D01*
X120497247Y-59520546D01*
X120629276Y-59449974D01*
X120745001Y-59355001D01*
X120768804Y-59325997D01*
X120896801Y-59198000D01*
X122385827Y-59198000D01*
X122396053Y-59231709D01*
X122477542Y-59384164D01*
X122587208Y-59517792D01*
X122720836Y-59627458D01*
X122873291Y-59708947D01*
X123038715Y-59759128D01*
X123210750Y-59776072D01*
X123698250Y-59776072D01*
X123870285Y-59759128D01*
X124035709Y-59708947D01*
X124188164Y-59627458D01*
X124321792Y-59517792D01*
X124327008Y-59511436D01*
X124390815Y-59589185D01*
X124487506Y-59668537D01*
X124597820Y-59727502D01*
X124717518Y-59763812D01*
X124842000Y-59776072D01*
X125043750Y-59773000D01*
X125202500Y-59614250D01*
X125202500Y-58565000D01*
X125456500Y-58565000D01*
X125456500Y-59614250D01*
X125615250Y-59773000D01*
X125817000Y-59776072D01*
X125941482Y-59763812D01*
X126061180Y-59727502D01*
X126171494Y-59668537D01*
X126268185Y-59589185D01*
X126347537Y-59492494D01*
X126406502Y-59382180D01*
X126442812Y-59262482D01*
X126455072Y-59138000D01*
X126452000Y-58723750D01*
X126293250Y-58565000D01*
X125456500Y-58565000D01*
X125202500Y-58565000D01*
X125182500Y-58565000D01*
X125182500Y-58311000D01*
X125202500Y-58311000D01*
X125202500Y-57261750D01*
X125456500Y-57261750D01*
X125456500Y-58311000D01*
X126293250Y-58311000D01*
X126452000Y-58152250D01*
X126455072Y-57738000D01*
X126442812Y-57613518D01*
X126406502Y-57493820D01*
X126347537Y-57383506D01*
X126268185Y-57286815D01*
X126171494Y-57207463D01*
X126061180Y-57148498D01*
X125941482Y-57112188D01*
X125817000Y-57099928D01*
X125615250Y-57103000D01*
X125456500Y-57261750D01*
X125202500Y-57261750D01*
X125043750Y-57103000D01*
X124842000Y-57099928D01*
X124717518Y-57112188D01*
X124597820Y-57148498D01*
X124487506Y-57207463D01*
X124390815Y-57286815D01*
X124327008Y-57364564D01*
X124321792Y-57358208D01*
X124214500Y-57270155D01*
X124214500Y-56466667D01*
X124269463Y-56569494D01*
X124348815Y-56666185D01*
X124445506Y-56745537D01*
X124555820Y-56804502D01*
X124675518Y-56840812D01*
X124800000Y-56853072D01*
X126500000Y-56853072D01*
X126624482Y-56840812D01*
X126744180Y-56804502D01*
X126854494Y-56745537D01*
X126862499Y-56738967D01*
X139535000Y-56738967D01*
X139535000Y-57061033D01*
X139597832Y-57376912D01*
X139721082Y-57674463D01*
X139900013Y-57942252D01*
X140127748Y-58169987D01*
X140395537Y-58348918D01*
X140693088Y-58472168D01*
X141008967Y-58535000D01*
X141331033Y-58535000D01*
X141646912Y-58472168D01*
X141944463Y-58348918D01*
X142212252Y-58169987D01*
X142439987Y-57942252D01*
X142618918Y-57674463D01*
X142742168Y-57376912D01*
X142805000Y-57061033D01*
X142805000Y-56738967D01*
X146035000Y-56738967D01*
X146035000Y-57061033D01*
X146097832Y-57376912D01*
X146221082Y-57674463D01*
X146400013Y-57942252D01*
X146627748Y-58169987D01*
X146895537Y-58348918D01*
X147193088Y-58472168D01*
X147508967Y-58535000D01*
X147831033Y-58535000D01*
X148146912Y-58472168D01*
X148444463Y-58348918D01*
X148712252Y-58169987D01*
X148939987Y-57942252D01*
X149118918Y-57674463D01*
X149242168Y-57376912D01*
X149305000Y-57061033D01*
X149305000Y-56738967D01*
X149242168Y-56423088D01*
X149118918Y-56125537D01*
X148939987Y-55857748D01*
X148712252Y-55630013D01*
X148444463Y-55451082D01*
X148146912Y-55327832D01*
X147831033Y-55265000D01*
X147508967Y-55265000D01*
X147193088Y-55327832D01*
X146895537Y-55451082D01*
X146627748Y-55630013D01*
X146400013Y-55857748D01*
X146221082Y-56125537D01*
X146097832Y-56423088D01*
X146035000Y-56738967D01*
X142805000Y-56738967D01*
X142742168Y-56423088D01*
X142618918Y-56125537D01*
X142439987Y-55857748D01*
X142212252Y-55630013D01*
X141944463Y-55451082D01*
X141646912Y-55327832D01*
X141331033Y-55265000D01*
X141008967Y-55265000D01*
X140693088Y-55327832D01*
X140395537Y-55451082D01*
X140127748Y-55630013D01*
X139900013Y-55857748D01*
X139721082Y-56125537D01*
X139597832Y-56423088D01*
X139535000Y-56738967D01*
X126862499Y-56738967D01*
X126951185Y-56666185D01*
X127030537Y-56569494D01*
X127089502Y-56459180D01*
X127125812Y-56339482D01*
X127138072Y-56215000D01*
X127138072Y-54798061D01*
X148885000Y-54798061D01*
X148885000Y-55001939D01*
X148924774Y-55201898D01*
X149002795Y-55390256D01*
X149116063Y-55559774D01*
X149260226Y-55703937D01*
X149429744Y-55817205D01*
X149618102Y-55895226D01*
X149818061Y-55935000D01*
X150021939Y-55935000D01*
X150221898Y-55895226D01*
X150269499Y-55875509D01*
X150305498Y-55994180D01*
X150364463Y-56104494D01*
X150443815Y-56201185D01*
X150540506Y-56280537D01*
X150650820Y-56339502D01*
X150770518Y-56375812D01*
X150895000Y-56388072D01*
X151545000Y-56388072D01*
X151669482Y-56375812D01*
X151789180Y-56339502D01*
X151899494Y-56280537D01*
X151996185Y-56201185D01*
X152075537Y-56104494D01*
X152134502Y-55994180D01*
X152170000Y-55877159D01*
X152205498Y-55994180D01*
X152264463Y-56104494D01*
X152343815Y-56201185D01*
X152440506Y-56280537D01*
X152550820Y-56339502D01*
X152670518Y-56375812D01*
X152795000Y-56388072D01*
X153034979Y-56388072D01*
X153071014Y-56399003D01*
X153182667Y-56410000D01*
X153182677Y-56410000D01*
X153219999Y-56413676D01*
X153257322Y-56410000D01*
X153666289Y-56410000D01*
X153710226Y-56453937D01*
X153879744Y-56567205D01*
X154068102Y-56645226D01*
X154268061Y-56685000D01*
X154471939Y-56685000D01*
X154671898Y-56645226D01*
X154810000Y-56588022D01*
X154810001Y-62946288D01*
X154766063Y-62990226D01*
X154652795Y-63159744D01*
X154574774Y-63348102D01*
X154535000Y-63548061D01*
X154535000Y-63751939D01*
X154574774Y-63951898D01*
X154652795Y-64140256D01*
X154766063Y-64309774D01*
X154910226Y-64453937D01*
X155079744Y-64567205D01*
X155268102Y-64645226D01*
X155468061Y-64685000D01*
X155671939Y-64685000D01*
X155871898Y-64645226D01*
X156060256Y-64567205D01*
X156229774Y-64453937D01*
X156373937Y-64309774D01*
X156487205Y-64140256D01*
X156565226Y-63951898D01*
X156605000Y-63751939D01*
X156605000Y-63548061D01*
X156565226Y-63348102D01*
X156487205Y-63159744D01*
X156373937Y-62990226D01*
X156330000Y-62946289D01*
X156330000Y-55687322D01*
X156333676Y-55650000D01*
X156330000Y-55612677D01*
X156330000Y-55612667D01*
X156319003Y-55501014D01*
X156275546Y-55357753D01*
X156257652Y-55324276D01*
X156204974Y-55225723D01*
X156133799Y-55138997D01*
X156110001Y-55109999D01*
X156081004Y-55086202D01*
X154733804Y-53739003D01*
X154710001Y-53709999D01*
X154594276Y-53615026D01*
X154462247Y-53544454D01*
X154318986Y-53500997D01*
X154207333Y-53490000D01*
X154207322Y-53490000D01*
X154170000Y-53486324D01*
X154132678Y-53490000D01*
X153744373Y-53490000D01*
X153689180Y-53460498D01*
X153588220Y-53429872D01*
X158935000Y-53429872D01*
X158935000Y-53870128D01*
X159020890Y-54301925D01*
X159189369Y-54708669D01*
X159433962Y-55074729D01*
X159745271Y-55386038D01*
X160111331Y-55630631D01*
X160518075Y-55799110D01*
X160949872Y-55885000D01*
X161390128Y-55885000D01*
X161821925Y-55799110D01*
X162228669Y-55630631D01*
X162594729Y-55386038D01*
X162906038Y-55074729D01*
X163150631Y-54708669D01*
X163319110Y-54301925D01*
X163405000Y-53870128D01*
X163405000Y-53429872D01*
X163319110Y-52998075D01*
X163150631Y-52591331D01*
X162906038Y-52225271D01*
X162594729Y-51913962D01*
X162228669Y-51669369D01*
X161821925Y-51500890D01*
X161390128Y-51415000D01*
X160949872Y-51415000D01*
X160518075Y-51500890D01*
X160111331Y-51669369D01*
X159745271Y-51913962D01*
X159433962Y-52225271D01*
X159189369Y-52591331D01*
X159020890Y-52998075D01*
X158935000Y-53429872D01*
X153588220Y-53429872D01*
X153569482Y-53424188D01*
X153445000Y-53411928D01*
X152795000Y-53411928D01*
X152670518Y-53424188D01*
X152550820Y-53460498D01*
X152440506Y-53519463D01*
X152343815Y-53598815D01*
X152264463Y-53695506D01*
X152205498Y-53805820D01*
X152169285Y-53925199D01*
X152167546Y-53910098D01*
X152128290Y-53791334D01*
X152066619Y-53682510D01*
X151984903Y-53587808D01*
X151886281Y-53510868D01*
X151774544Y-53454647D01*
X151653986Y-53421305D01*
X151529239Y-53412123D01*
X151505750Y-53415000D01*
X151347000Y-53573750D01*
X151347000Y-54061928D01*
X151093000Y-54061928D01*
X151093000Y-53573750D01*
X150934250Y-53415000D01*
X150910761Y-53412123D01*
X150786014Y-53421305D01*
X150665456Y-53454647D01*
X150553719Y-53510868D01*
X150455097Y-53587808D01*
X150373381Y-53682510D01*
X150311710Y-53791334D01*
X150272454Y-53910098D01*
X150270738Y-53925004D01*
X150221898Y-53904774D01*
X150021939Y-53865000D01*
X149818061Y-53865000D01*
X149618102Y-53904774D01*
X149429744Y-53982795D01*
X149260226Y-54096063D01*
X149116063Y-54240226D01*
X149002795Y-54409744D01*
X148924774Y-54598102D01*
X148885000Y-54798061D01*
X127138072Y-54798061D01*
X127138072Y-54515000D01*
X127125812Y-54390518D01*
X127089502Y-54270820D01*
X127030537Y-54160506D01*
X126951185Y-54063815D01*
X126854494Y-53984463D01*
X126744180Y-53925498D01*
X126624482Y-53889188D01*
X126500000Y-53876928D01*
X124800000Y-53876928D01*
X124675518Y-53889188D01*
X124555820Y-53925498D01*
X124445506Y-53984463D01*
X124348815Y-54063815D01*
X124269463Y-54160506D01*
X124210498Y-54270820D01*
X124188487Y-54343380D01*
X124056632Y-54211525D01*
X123813411Y-54049010D01*
X123543158Y-53937068D01*
X123256260Y-53880000D01*
X122963740Y-53880000D01*
X122676842Y-53937068D01*
X122406589Y-54049010D01*
X122163368Y-54211525D01*
X121956525Y-54418368D01*
X121794010Y-54661589D01*
X121682068Y-54931842D01*
X121625000Y-55218740D01*
X121625000Y-55511260D01*
X121682068Y-55798158D01*
X121794010Y-56068411D01*
X121956525Y-56311632D01*
X122163368Y-56518475D01*
X122406589Y-56680990D01*
X122676842Y-56792932D01*
X122694501Y-56796445D01*
X122694500Y-57270155D01*
X122587208Y-57358208D01*
X122477542Y-57491836D01*
X122396053Y-57644291D01*
X122385827Y-57678000D01*
X120619333Y-57678000D01*
X120582000Y-57674323D01*
X120544667Y-57678000D01*
X120433014Y-57688997D01*
X120289753Y-57732454D01*
X120157724Y-57803026D01*
X120041999Y-57897999D01*
X120018196Y-57927003D01*
X119890199Y-58055000D01*
X117491144Y-58055000D01*
X117389180Y-58000498D01*
X117269482Y-57964188D01*
X117145000Y-57951928D01*
X116129999Y-57951928D01*
X116129999Y-57614802D01*
X116913592Y-56831210D01*
X117133740Y-56875000D01*
X117426260Y-56875000D01*
X117713158Y-56817932D01*
X117983411Y-56705990D01*
X118226632Y-56543475D01*
X118433475Y-56336632D01*
X118595990Y-56093411D01*
X118707932Y-55823158D01*
X118765000Y-55536260D01*
X118765000Y-55243740D01*
X118707932Y-54956842D01*
X118595990Y-54686589D01*
X118433475Y-54443368D01*
X118226632Y-54236525D01*
X118040000Y-54111822D01*
X118040000Y-54022341D01*
X118170535Y-53935120D01*
X118365120Y-53740535D01*
X118502178Y-53535413D01*
X140214192Y-53535413D01*
X140309956Y-53799814D01*
X140599571Y-53940704D01*
X140911108Y-54022384D01*
X141232595Y-54041718D01*
X141551675Y-53997961D01*
X141856088Y-53892795D01*
X142030044Y-53799814D01*
X142125808Y-53535413D01*
X146714192Y-53535413D01*
X146809956Y-53799814D01*
X147099571Y-53940704D01*
X147411108Y-54022384D01*
X147732595Y-54041718D01*
X148051675Y-53997961D01*
X148356088Y-53892795D01*
X148530044Y-53799814D01*
X148625808Y-53535413D01*
X147670000Y-52579605D01*
X146714192Y-53535413D01*
X142125808Y-53535413D01*
X141170000Y-52579605D01*
X140214192Y-53535413D01*
X118502178Y-53535413D01*
X118518005Y-53511727D01*
X118623314Y-53257490D01*
X118677000Y-52987592D01*
X118677000Y-52712408D01*
X118627310Y-52462595D01*
X139528282Y-52462595D01*
X139572039Y-52781675D01*
X139677205Y-53086088D01*
X139770186Y-53260044D01*
X140034587Y-53355808D01*
X140990395Y-52400000D01*
X141349605Y-52400000D01*
X142305413Y-53355808D01*
X142569814Y-53260044D01*
X142710704Y-52970429D01*
X142792384Y-52658892D01*
X142804189Y-52462595D01*
X146028282Y-52462595D01*
X146072039Y-52781675D01*
X146177205Y-53086088D01*
X146270186Y-53260044D01*
X146534587Y-53355808D01*
X147490395Y-52400000D01*
X147849605Y-52400000D01*
X148805413Y-53355808D01*
X149069814Y-53260044D01*
X149210704Y-52970429D01*
X149292384Y-52658892D01*
X149311718Y-52337405D01*
X149267961Y-52018325D01*
X149162795Y-51713912D01*
X149069814Y-51539956D01*
X148805413Y-51444192D01*
X147849605Y-52400000D01*
X147490395Y-52400000D01*
X146534587Y-51444192D01*
X146270186Y-51539956D01*
X146129296Y-51829571D01*
X146047616Y-52141108D01*
X146028282Y-52462595D01*
X142804189Y-52462595D01*
X142811718Y-52337405D01*
X142767961Y-52018325D01*
X142662795Y-51713912D01*
X142569814Y-51539956D01*
X142305413Y-51444192D01*
X141349605Y-52400000D01*
X140990395Y-52400000D01*
X140034587Y-51444192D01*
X139770186Y-51539956D01*
X139629296Y-51829571D01*
X139547616Y-52141108D01*
X139528282Y-52462595D01*
X118627310Y-52462595D01*
X118623314Y-52442510D01*
X118518005Y-52188273D01*
X118365120Y-51959465D01*
X118170535Y-51764880D01*
X117941727Y-51611995D01*
X117687490Y-51506686D01*
X117417592Y-51453000D01*
X117142408Y-51453000D01*
X116872510Y-51506686D01*
X116618273Y-51611995D01*
X116389465Y-51764880D01*
X116194880Y-51959465D01*
X116041995Y-52188273D01*
X116010000Y-52265515D01*
X115978005Y-52188273D01*
X115825120Y-51959465D01*
X115630535Y-51764880D01*
X115401727Y-51611995D01*
X115147490Y-51506686D01*
X114877592Y-51453000D01*
X114602408Y-51453000D01*
X114332510Y-51506686D01*
X114078273Y-51611995D01*
X113849465Y-51764880D01*
X113654880Y-51959465D01*
X113501995Y-52188273D01*
X113470000Y-52265515D01*
X113438005Y-52188273D01*
X113285120Y-51959465D01*
X113090535Y-51764880D01*
X112861727Y-51611995D01*
X112607490Y-51506686D01*
X112337592Y-51453000D01*
X112062408Y-51453000D01*
X111792510Y-51506686D01*
X111538273Y-51611995D01*
X111309465Y-51764880D01*
X111114880Y-51959465D01*
X110961995Y-52188273D01*
X110932308Y-52259943D01*
X110927636Y-52246977D01*
X110865656Y-52131020D01*
X110625565Y-52064040D01*
X109839605Y-52850000D01*
X110625565Y-53635960D01*
X110865656Y-53568980D01*
X110929485Y-53433240D01*
X110961995Y-53511727D01*
X111114880Y-53740535D01*
X111309465Y-53935120D01*
X111521016Y-54076474D01*
X111433080Y-54118359D01*
X111199731Y-54292412D01*
X111123966Y-54376466D01*
X111099502Y-54295820D01*
X111040537Y-54185506D01*
X110961185Y-54088815D01*
X110864494Y-54009463D01*
X110754180Y-53950498D01*
X110634482Y-53914188D01*
X110510000Y-53901928D01*
X110421867Y-53901928D01*
X110445960Y-53815565D01*
X109660000Y-53029605D01*
X108874040Y-53815565D01*
X108898133Y-53901928D01*
X108810000Y-53901928D01*
X108685518Y-53914188D01*
X108565820Y-53950498D01*
X108455506Y-54009463D01*
X108358815Y-54088815D01*
X108279463Y-54185506D01*
X108220498Y-54295820D01*
X108184188Y-54415518D01*
X108171928Y-54540000D01*
X108171928Y-56240000D01*
X108184188Y-56364482D01*
X108220498Y-56484180D01*
X108279463Y-56594494D01*
X108358815Y-56691185D01*
X108455506Y-56770537D01*
X108565820Y-56829502D01*
X108685518Y-56865812D01*
X108810000Y-56878072D01*
X110510000Y-56878072D01*
X110634482Y-56865812D01*
X110754180Y-56829502D01*
X110864494Y-56770537D01*
X110961185Y-56691185D01*
X111040537Y-56594494D01*
X111099502Y-56484180D01*
X111123966Y-56403534D01*
X111199731Y-56487588D01*
X111433080Y-56661641D01*
X111695901Y-56786825D01*
X111843110Y-56831476D01*
X112073000Y-56710155D01*
X112073000Y-55517000D01*
X112053000Y-55517000D01*
X112053000Y-55263000D01*
X112073000Y-55263000D01*
X112073000Y-55243000D01*
X112327000Y-55243000D01*
X112327000Y-55263000D01*
X112347000Y-55263000D01*
X112347000Y-55517000D01*
X112327000Y-55517000D01*
X112327000Y-56710155D01*
X112556890Y-56831476D01*
X112704099Y-56786825D01*
X112966920Y-56661641D01*
X113200269Y-56487588D01*
X113395178Y-56271355D01*
X113464805Y-56154466D01*
X113586525Y-56336632D01*
X113793368Y-56543475D01*
X113980001Y-56668179D01*
X113980000Y-59372677D01*
X113976324Y-59410000D01*
X113980000Y-59447322D01*
X113980000Y-59447332D01*
X113990997Y-59558985D01*
X114023402Y-59665812D01*
X114034454Y-59702246D01*
X114105026Y-59834276D01*
X114136806Y-59873000D01*
X114199999Y-59950001D01*
X114229002Y-59973803D01*
X114695198Y-60440000D01*
X114344002Y-60791197D01*
X114337957Y-60796158D01*
X114334003Y-60756014D01*
X114290546Y-60612753D01*
X114219974Y-60480724D01*
X114125001Y-60364999D01*
X114096004Y-60341202D01*
X112058804Y-58304003D01*
X112035001Y-58274999D01*
X111919276Y-58180026D01*
X111787247Y-58109454D01*
X111643986Y-58065997D01*
X111602474Y-58061908D01*
X111599494Y-58059463D01*
X111489180Y-58000498D01*
X111369482Y-57964188D01*
X111245000Y-57951928D01*
X109795000Y-57951928D01*
X109670518Y-57964188D01*
X109550820Y-58000498D01*
X109440506Y-58059463D01*
X109343815Y-58138815D01*
X109264463Y-58235506D01*
X109205498Y-58345820D01*
X109169188Y-58465518D01*
X109156928Y-58590000D01*
X109156928Y-59040000D01*
X109166777Y-59140000D01*
X109156928Y-59240000D01*
X109156928Y-59464999D01*
X103131106Y-59464999D01*
X103095001Y-59461443D01*
X102950916Y-59475634D01*
X102936438Y-59480026D01*
X102812369Y-59517662D01*
X102684682Y-59585912D01*
X102572764Y-59677761D01*
X102549748Y-59705806D01*
X100692500Y-61563055D01*
X100692500Y-61472998D01*
X100587752Y-61472998D01*
X100692500Y-61368250D01*
X100681241Y-61265526D01*
X100643021Y-61146424D01*
X100584292Y-61040655D01*
X100671350Y-60854322D01*
X100735219Y-60594151D01*
X100747104Y-60326518D01*
X100706548Y-60061709D01*
X100615109Y-59809900D01*
X100557950Y-59702965D01*
X100321633Y-59640472D01*
X99562105Y-60400000D01*
X99576248Y-60414143D01*
X99396643Y-60593748D01*
X99382500Y-60579605D01*
X99368358Y-60593748D01*
X99188753Y-60414143D01*
X99202895Y-60400000D01*
X98443367Y-59640472D01*
X98267767Y-59686909D01*
X98269976Y-59460867D01*
X98622972Y-59460867D01*
X99382500Y-60220395D01*
X100142028Y-59460867D01*
X100079535Y-59224550D01*
X99836822Y-59111150D01*
X99576651Y-59047281D01*
X99309018Y-59035396D01*
X99044209Y-59075952D01*
X98792400Y-59167391D01*
X98685465Y-59224550D01*
X98622972Y-59460867D01*
X98269976Y-59460867D01*
X98270572Y-59400000D01*
X98267500Y-59368808D01*
X98267500Y-59272998D01*
X98257548Y-59272998D01*
X98222002Y-59155820D01*
X98202179Y-59118735D01*
X98225962Y-59082391D01*
X98222091Y-59044718D01*
X98129921Y-58819467D01*
X97995578Y-58616526D01*
X97824225Y-58443693D01*
X97622446Y-58307610D01*
X97397996Y-58213507D01*
X97159500Y-58165000D01*
X96809500Y-58165000D01*
X96555500Y-58165000D01*
X96205500Y-58165000D01*
X95967004Y-58213507D01*
X95830000Y-58270947D01*
X95830000Y-53429872D01*
X96935000Y-53429872D01*
X96935000Y-53870128D01*
X97020890Y-54301925D01*
X97189369Y-54708669D01*
X97433962Y-55074729D01*
X97745271Y-55386038D01*
X98111331Y-55630631D01*
X98518075Y-55799110D01*
X98949872Y-55885000D01*
X99390128Y-55885000D01*
X99821925Y-55799110D01*
X100228669Y-55630631D01*
X100594729Y-55386038D01*
X100906038Y-55074729D01*
X101150631Y-54708669D01*
X101319110Y-54301925D01*
X101405000Y-53870128D01*
X101405000Y-53429872D01*
X101319110Y-52998075D01*
X101287606Y-52922017D01*
X108258090Y-52922017D01*
X108299078Y-53194133D01*
X108392364Y-53453023D01*
X108454344Y-53568980D01*
X108694435Y-53635960D01*
X109480395Y-52850000D01*
X108694435Y-52064040D01*
X108454344Y-52131020D01*
X108337244Y-52380048D01*
X108270977Y-52647135D01*
X108258090Y-52922017D01*
X101287606Y-52922017D01*
X101150631Y-52591331D01*
X100906038Y-52225271D01*
X100594729Y-51913962D01*
X100550539Y-51884435D01*
X108874040Y-51884435D01*
X109660000Y-52670395D01*
X110445960Y-51884435D01*
X110378980Y-51644344D01*
X110129952Y-51527244D01*
X109862865Y-51460977D01*
X109587983Y-51448090D01*
X109315867Y-51489078D01*
X109056977Y-51582364D01*
X108941020Y-51644344D01*
X108874040Y-51884435D01*
X100550539Y-51884435D01*
X100228669Y-51669369D01*
X99821925Y-51500890D01*
X99390128Y-51415000D01*
X98949872Y-51415000D01*
X98518075Y-51500890D01*
X98111331Y-51669369D01*
X97745271Y-51913962D01*
X97433962Y-52225271D01*
X97189369Y-52591331D01*
X97020890Y-52998075D01*
X96935000Y-53429872D01*
X95830000Y-53429872D01*
X95830000Y-51264587D01*
X140214192Y-51264587D01*
X141170000Y-52220395D01*
X142125808Y-51264587D01*
X146714192Y-51264587D01*
X147670000Y-52220395D01*
X148625808Y-51264587D01*
X148530044Y-51000186D01*
X148240429Y-50859296D01*
X147928892Y-50777616D01*
X147607405Y-50758282D01*
X147288325Y-50802039D01*
X146983912Y-50907205D01*
X146809956Y-51000186D01*
X146714192Y-51264587D01*
X142125808Y-51264587D01*
X142030044Y-51000186D01*
X141740429Y-50859296D01*
X141428892Y-50777616D01*
X141107405Y-50758282D01*
X140788325Y-50802039D01*
X140483912Y-50907205D01*
X140309956Y-51000186D01*
X140214192Y-51264587D01*
X95830000Y-51264587D01*
X95830000Y-50310000D01*
X164510000Y-50310000D01*
X164510001Y-69018292D01*
M02*
