%TF.GenerationSoftware,KiCad,Pcbnew,(5.1.5)-3*%
%TF.CreationDate,2020-01-16T23:09:47-05:00*%
%TF.ProjectId,V-Naught_Display,562d4e61-7567-4687-945f-446973706c61,rev?*%
%TF.SameCoordinates,Original*%
%TF.FileFunction,Plated,1,2,PTH,Mixed*%
%TF.FilePolarity,Positive*%
%FSLAX46Y46*%
G04 Gerber Fmt 4.6, Leading zero omitted, Abs format (unit mm)*
G04 Created by KiCad (PCBNEW (5.1.5)-3) date 2020-01-16 23:09:47*
%MOMM*%
%LPD*%
G04 APERTURE LIST*
%TA.AperFunction,ViaDrill*%
%ADD10C,0.400000*%
%TD*%
G04 aperture for slot hole*
%TA.AperFunction,ComponentDrill*%
%ADD11C,0.600000*%
%TD*%
%TA.AperFunction,ComponentDrill*%
%ADD12C,0.762000*%
%TD*%
%TA.AperFunction,ComponentDrill*%
%ADD13C,0.850000*%
%TD*%
%TA.AperFunction,ComponentDrill*%
%ADD14C,1.000000*%
%TD*%
%TA.AperFunction,ComponentDrill*%
%ADD15C,1.100000*%
%TD*%
G04 APERTURE END LIST*
D10*
X105330000Y-62350000D03*
X107882000Y-69614000D03*
X107882000Y-71138000D03*
X112315000Y-65525000D03*
X113585000Y-65525000D03*
X114855000Y-65525000D03*
X116760000Y-82035000D03*
X118670000Y-61400000D03*
X119160000Y-63850000D03*
X119160000Y-64850000D03*
X119160000Y-65850000D03*
X119160000Y-66850003D03*
D11*
%TO.C,J1*%
X97032500Y-59400000D02*
X96332500Y-59400000D01*
X96332500Y-66400000D02*
X97032500Y-66400000D01*
D12*
%TO.C,J2*%
X109660000Y-52850000D03*
X112200000Y-52850000D03*
X114740000Y-52850000D03*
X117280000Y-52850000D03*
D13*
%TO.C,J1*%
X99382500Y-60400000D03*
X99382500Y-65400000D03*
D14*
%TO.C,J3*%
X112950000Y-75050000D03*
X115490000Y-75050000D03*
X118030000Y-75050000D03*
%TO.C,J4*%
X123110000Y-55365000D03*
X125650000Y-55365000D03*
D15*
%TO.C,SW1*%
X145170000Y-55150000D03*
X145170000Y-59650000D03*
X151670000Y-55150000D03*
X151670000Y-59650000D03*
%TO.C,SW3*%
X136170000Y-64150000D03*
X136170000Y-70650000D03*
X140670000Y-64150000D03*
X140670000Y-70650000D03*
%TO.C,SW4*%
X156170000Y-64150000D03*
X156170000Y-70650000D03*
X160670000Y-64150000D03*
X160670000Y-70650000D03*
%TO.C,SW2*%
X145170000Y-75150000D03*
X145170000Y-79650000D03*
X151670000Y-75150000D03*
X151670000Y-79650000D03*
%TO.C,SW5*%
X122475000Y-73145000D03*
X122475000Y-77645000D03*
X128975000Y-73145000D03*
X128975000Y-77645000D03*
M02*
