%TF.GenerationSoftware,KiCad,Pcbnew,(5.1.5)-3*%
%TF.CreationDate,2020-01-20T18:08:54-05:00*%
%TF.ProjectId,V-Naught_Display,562d4e61-7567-4687-945f-446973706c61,rev?*%
%TF.SameCoordinates,Original*%
%TF.FileFunction,Plated,1,2,PTH,Mixed*%
%TF.FilePolarity,Positive*%
%FSLAX46Y46*%
G04 Gerber Fmt 4.6, Leading zero omitted, Abs format (unit mm)*
G04 Created by KiCad (PCBNEW (5.1.5)-3) date 2020-01-20 18:08:54*
%MOMM*%
%LPD*%
G04 APERTURE LIST*
%TA.AperFunction,ViaDrill*%
%ADD10C,0.400000*%
%TD*%
G04 aperture for slot hole*
%TA.AperFunction,ComponentDrill*%
%ADD11C,0.600000*%
%TD*%
%TA.AperFunction,ComponentDrill*%
%ADD12C,0.762000*%
%TD*%
%TA.AperFunction,ComponentDrill*%
%ADD13C,0.850000*%
%TD*%
%TA.AperFunction,ComponentDrill*%
%ADD14C,1.000000*%
%TD*%
%TA.AperFunction,ComponentDrill*%
%ADD15C,1.100000*%
%TD*%
G04 aperture for slot hole*
%TA.AperFunction,ComponentDrill*%
%ADD16C,2.000000*%
%TD*%
G04 APERTURE END LIST*
D10*
X104170000Y-73650000D03*
X105330000Y-62350000D03*
X107882000Y-69614000D03*
X107882000Y-71138000D03*
X112315000Y-65525000D03*
X113585000Y-65525000D03*
X114855000Y-65525000D03*
X116760000Y-82035000D03*
X118670000Y-61400000D03*
X119160000Y-63850000D03*
X119160000Y-64850000D03*
X119160000Y-65850000D03*
X119170000Y-66850000D03*
X119177942Y-62842636D03*
X120970000Y-67650000D03*
X141770000Y-72850000D03*
X146970000Y-72850000D03*
X149920000Y-54900000D03*
X151670000Y-53150000D03*
X154370000Y-55650000D03*
X155570000Y-63650000D03*
X159920000Y-62150000D03*
D11*
%TO.C,J1*%
X97032500Y-59400000D02*
X96332500Y-59400000D01*
X96332500Y-66400000D02*
X97032500Y-66400000D01*
D12*
%TO.C,J2*%
X109660000Y-52850000D03*
X112200000Y-52850000D03*
X114740000Y-52850000D03*
X117280000Y-52850000D03*
D13*
%TO.C,J1*%
X99382500Y-60400000D03*
X99382500Y-65400000D03*
D14*
%TO.C,J3*%
X112950000Y-75050000D03*
X115490000Y-75050000D03*
X118030000Y-75050000D03*
%TO.C,J4*%
X123110000Y-55365000D03*
X125650000Y-55365000D03*
D15*
%TO.C,SW4*%
X148170000Y-63900000D03*
X148170000Y-70400000D03*
X152670000Y-63900000D03*
X152670000Y-70400000D03*
%TO.C,SW7*%
X141920000Y-60150000D03*
X141920000Y-74650000D03*
X144420000Y-74650000D03*
X146920000Y-60150000D03*
X146920000Y-74650000D03*
%TO.C,SW1*%
X141170000Y-52400000D03*
X141170000Y-56900000D03*
X147670000Y-52400000D03*
X147670000Y-56900000D03*
%TO.C,SW3*%
X136170000Y-63900000D03*
X136170000Y-70400000D03*
X140670000Y-63900000D03*
X140670000Y-70400000D03*
%TO.C,SW6*%
X156670000Y-69900000D03*
X156670000Y-74400000D03*
X163170000Y-69900000D03*
X163170000Y-74400000D03*
%TO.C,SW2*%
X141170000Y-77400000D03*
X141170000Y-81900000D03*
X147670000Y-77400000D03*
X147670000Y-81900000D03*
%TO.C,SW5*%
X122475000Y-73145000D03*
X122475000Y-77645000D03*
X128975000Y-73145000D03*
X128975000Y-77645000D03*
D16*
%TO.C,SW7*%
X139340000Y-67650000D02*
X139340000Y-66650000D01*
X149500000Y-66650000D02*
X149500000Y-67650000D01*
M02*
