G04 #@! TF.GenerationSoftware,KiCad,Pcbnew,(5.1.5)-3*
G04 #@! TF.CreationDate,2020-01-16T23:09:46-05:00*
G04 #@! TF.ProjectId,V-Naught_Display,562d4e61-7567-4687-945f-446973706c61,rev?*
G04 #@! TF.SameCoordinates,Original*
G04 #@! TF.FileFunction,Legend,Bot*
G04 #@! TF.FilePolarity,Positive*
%FSLAX46Y46*%
G04 Gerber Fmt 4.6, Leading zero omitted, Abs format (unit mm)*
G04 Created by KiCad (PCBNEW (5.1.5)-3) date 2020-01-16 23:09:46*
%MOMM*%
%LPD*%
G04 APERTURE LIST*
%ADD10C,0.300000*%
%ADD11C,0.150000*%
%ADD12C,0.100000*%
%ADD13C,0.010000*%
%ADD14C,0.120000*%
G04 APERTURE END LIST*
D10*
X127828571Y-81443571D02*
X128328571Y-80729285D01*
X128685714Y-81443571D02*
X128685714Y-79943571D01*
X128114285Y-79943571D01*
X127971428Y-80015000D01*
X127900000Y-80086428D01*
X127828571Y-80229285D01*
X127828571Y-80443571D01*
X127900000Y-80586428D01*
X127971428Y-80657857D01*
X128114285Y-80729285D01*
X128685714Y-80729285D01*
X127185714Y-80657857D02*
X126685714Y-80657857D01*
X126471428Y-81443571D02*
X127185714Y-81443571D01*
X127185714Y-79943571D01*
X126471428Y-79943571D01*
X125900000Y-81372142D02*
X125685714Y-81443571D01*
X125328571Y-81443571D01*
X125185714Y-81372142D01*
X125114285Y-81300714D01*
X125042857Y-81157857D01*
X125042857Y-81015000D01*
X125114285Y-80872142D01*
X125185714Y-80800714D01*
X125328571Y-80729285D01*
X125614285Y-80657857D01*
X125757142Y-80586428D01*
X125828571Y-80515000D01*
X125900000Y-80372142D01*
X125900000Y-80229285D01*
X125828571Y-80086428D01*
X125757142Y-80015000D01*
X125614285Y-79943571D01*
X125257142Y-79943571D01*
X125042857Y-80015000D01*
X124400000Y-80657857D02*
X123900000Y-80657857D01*
X123685714Y-81443571D02*
X124400000Y-81443571D01*
X124400000Y-79943571D01*
X123685714Y-79943571D01*
X123257142Y-79943571D02*
X122400000Y-79943571D01*
X122828571Y-81443571D02*
X122828571Y-79943571D01*
X149598571Y-56448571D02*
X149598571Y-57662857D01*
X149527142Y-57805714D01*
X149455714Y-57877142D01*
X149312857Y-57948571D01*
X149027142Y-57948571D01*
X148884285Y-57877142D01*
X148812857Y-57805714D01*
X148741428Y-57662857D01*
X148741428Y-56448571D01*
X148027142Y-57948571D02*
X148027142Y-56448571D01*
X147455714Y-56448571D01*
X147312857Y-56520000D01*
X147241428Y-56591428D01*
X147170000Y-56734285D01*
X147170000Y-56948571D01*
X147241428Y-57091428D01*
X147312857Y-57162857D01*
X147455714Y-57234285D01*
X148027142Y-57234285D01*
X159348571Y-65430000D02*
X158634285Y-64930000D01*
X159348571Y-64572857D02*
X157848571Y-64572857D01*
X157848571Y-65144285D01*
X157920000Y-65287142D01*
X157991428Y-65358571D01*
X158134285Y-65430000D01*
X158348571Y-65430000D01*
X158491428Y-65358571D01*
X158562857Y-65287142D01*
X158634285Y-65144285D01*
X158634285Y-64572857D01*
X159348571Y-66072857D02*
X157848571Y-66072857D01*
X157920000Y-67572857D02*
X157848571Y-67430000D01*
X157848571Y-67215714D01*
X157920000Y-67001428D01*
X158062857Y-66858571D01*
X158205714Y-66787142D01*
X158491428Y-66715714D01*
X158705714Y-66715714D01*
X158991428Y-66787142D01*
X159134285Y-66858571D01*
X159277142Y-67001428D01*
X159348571Y-67215714D01*
X159348571Y-67358571D01*
X159277142Y-67572857D01*
X159205714Y-67644285D01*
X158705714Y-67644285D01*
X158705714Y-67358571D01*
X159348571Y-68287142D02*
X157848571Y-68287142D01*
X158562857Y-68287142D02*
X158562857Y-69144285D01*
X159348571Y-69144285D02*
X157848571Y-69144285D01*
X157848571Y-69644285D02*
X157848571Y-70501428D01*
X159348571Y-70072857D02*
X157848571Y-70072857D01*
X137671428Y-68858571D02*
X137671428Y-69572857D01*
X139171428Y-69572857D01*
X138457142Y-68358571D02*
X138457142Y-67858571D01*
X137671428Y-67644285D02*
X137671428Y-68358571D01*
X139171428Y-68358571D01*
X139171428Y-67644285D01*
X138457142Y-66501428D02*
X138457142Y-67001428D01*
X137671428Y-67001428D02*
X139171428Y-67001428D01*
X139171428Y-66287142D01*
X139171428Y-65930000D02*
X139171428Y-65072857D01*
X137671428Y-65501428D02*
X139171428Y-65501428D01*
X151331428Y-78268571D02*
X151331428Y-76768571D01*
X150974285Y-76768571D01*
X150760000Y-76840000D01*
X150617142Y-76982857D01*
X150545714Y-77125714D01*
X150474285Y-77411428D01*
X150474285Y-77625714D01*
X150545714Y-77911428D01*
X150617142Y-78054285D01*
X150760000Y-78197142D01*
X150974285Y-78268571D01*
X151331428Y-78268571D01*
X149545714Y-76768571D02*
X149260000Y-76768571D01*
X149117142Y-76840000D01*
X148974285Y-76982857D01*
X148902857Y-77268571D01*
X148902857Y-77768571D01*
X148974285Y-78054285D01*
X149117142Y-78197142D01*
X149260000Y-78268571D01*
X149545714Y-78268571D01*
X149688571Y-78197142D01*
X149831428Y-78054285D01*
X149902857Y-77768571D01*
X149902857Y-77268571D01*
X149831428Y-76982857D01*
X149688571Y-76840000D01*
X149545714Y-76768571D01*
X148402857Y-76768571D02*
X148045714Y-78268571D01*
X147760000Y-77197142D01*
X147474285Y-78268571D01*
X147117142Y-76768571D01*
X146545714Y-78268571D02*
X146545714Y-76768571D01*
X145688571Y-78268571D01*
X145688571Y-76768571D01*
D11*
X125737142Y-57833571D02*
X125594285Y-57881190D01*
X125546666Y-57928809D01*
X125499047Y-58024047D01*
X125499047Y-58166904D01*
X125546666Y-58262142D01*
X125594285Y-58309761D01*
X125689523Y-58357380D01*
X126070476Y-58357380D01*
X126070476Y-57357380D01*
X125737142Y-57357380D01*
X125641904Y-57405000D01*
X125594285Y-57452619D01*
X125546666Y-57547857D01*
X125546666Y-57643095D01*
X125594285Y-57738333D01*
X125641904Y-57785952D01*
X125737142Y-57833571D01*
X126070476Y-57833571D01*
X124880000Y-57357380D02*
X124689523Y-57357380D01*
X124594285Y-57405000D01*
X124499047Y-57500238D01*
X124451428Y-57690714D01*
X124451428Y-58024047D01*
X124499047Y-58214523D01*
X124594285Y-58309761D01*
X124689523Y-58357380D01*
X124880000Y-58357380D01*
X124975238Y-58309761D01*
X125070476Y-58214523D01*
X125118095Y-58024047D01*
X125118095Y-57690714D01*
X125070476Y-57500238D01*
X124975238Y-57405000D01*
X124880000Y-57357380D01*
X123832380Y-57357380D02*
X123641904Y-57357380D01*
X123546666Y-57405000D01*
X123451428Y-57500238D01*
X123403809Y-57690714D01*
X123403809Y-58024047D01*
X123451428Y-58214523D01*
X123546666Y-58309761D01*
X123641904Y-58357380D01*
X123832380Y-58357380D01*
X123927619Y-58309761D01*
X124022857Y-58214523D01*
X124070476Y-58024047D01*
X124070476Y-57690714D01*
X124022857Y-57500238D01*
X123927619Y-57405000D01*
X123832380Y-57357380D01*
X123118095Y-57357380D02*
X122546666Y-57357380D01*
X122832380Y-58357380D02*
X122832380Y-57357380D01*
D12*
X127040714Y-52414285D02*
X126576428Y-52414285D01*
X126826428Y-52700000D01*
X126719285Y-52700000D01*
X126647857Y-52735714D01*
X126612142Y-52771428D01*
X126576428Y-52842857D01*
X126576428Y-53021428D01*
X126612142Y-53092857D01*
X126647857Y-53128571D01*
X126719285Y-53164285D01*
X126933571Y-53164285D01*
X127005000Y-53128571D01*
X127040714Y-53092857D01*
X126362142Y-52414285D02*
X126112142Y-53164285D01*
X125862142Y-52414285D01*
X125683571Y-52414285D02*
X125219285Y-52414285D01*
X125469285Y-52700000D01*
X125362142Y-52700000D01*
X125290714Y-52735714D01*
X125255000Y-52771428D01*
X125219285Y-52842857D01*
X125219285Y-53021428D01*
X125255000Y-53092857D01*
X125290714Y-53128571D01*
X125362142Y-53164285D01*
X125576428Y-53164285D01*
X125647857Y-53128571D01*
X125683571Y-53092857D01*
X124076428Y-52771428D02*
X123969285Y-52807142D01*
X123933571Y-52842857D01*
X123897857Y-52914285D01*
X123897857Y-53021428D01*
X123933571Y-53092857D01*
X123969285Y-53128571D01*
X124040714Y-53164285D01*
X124326428Y-53164285D01*
X124326428Y-52414285D01*
X124076428Y-52414285D01*
X124005000Y-52450000D01*
X123969285Y-52485714D01*
X123933571Y-52557142D01*
X123933571Y-52628571D01*
X123969285Y-52700000D01*
X124005000Y-52735714D01*
X124076428Y-52771428D01*
X124326428Y-52771428D01*
X123433571Y-52414285D02*
X123290714Y-52414285D01*
X123219285Y-52450000D01*
X123147857Y-52521428D01*
X123112142Y-52664285D01*
X123112142Y-52914285D01*
X123147857Y-53057142D01*
X123219285Y-53128571D01*
X123290714Y-53164285D01*
X123433571Y-53164285D01*
X123505000Y-53128571D01*
X123576428Y-53057142D01*
X123612142Y-52914285D01*
X123612142Y-52664285D01*
X123576428Y-52521428D01*
X123505000Y-52450000D01*
X123433571Y-52414285D01*
X122647857Y-52414285D02*
X122505000Y-52414285D01*
X122433571Y-52450000D01*
X122362142Y-52521428D01*
X122326428Y-52664285D01*
X122326428Y-52914285D01*
X122362142Y-53057142D01*
X122433571Y-53128571D01*
X122505000Y-53164285D01*
X122647857Y-53164285D01*
X122719285Y-53128571D01*
X122790714Y-53057142D01*
X122826428Y-52914285D01*
X122826428Y-52664285D01*
X122790714Y-52521428D01*
X122719285Y-52450000D01*
X122647857Y-52414285D01*
X122112142Y-52414285D02*
X121683571Y-52414285D01*
X121897857Y-53164285D02*
X121897857Y-52414285D01*
X120936428Y-72849285D02*
X121186428Y-72492142D01*
X121365000Y-72849285D02*
X121365000Y-72099285D01*
X121079285Y-72099285D01*
X121007857Y-72135000D01*
X120972142Y-72170714D01*
X120936428Y-72242142D01*
X120936428Y-72349285D01*
X120972142Y-72420714D01*
X121007857Y-72456428D01*
X121079285Y-72492142D01*
X121365000Y-72492142D01*
X120329285Y-72813571D02*
X120400714Y-72849285D01*
X120543571Y-72849285D01*
X120615000Y-72813571D01*
X120650714Y-72742142D01*
X120650714Y-72456428D01*
X120615000Y-72385000D01*
X120543571Y-72349285D01*
X120400714Y-72349285D01*
X120329285Y-72385000D01*
X120293571Y-72456428D01*
X120293571Y-72527857D01*
X120650714Y-72599285D01*
X120007857Y-72813571D02*
X119936428Y-72849285D01*
X119793571Y-72849285D01*
X119722142Y-72813571D01*
X119686428Y-72742142D01*
X119686428Y-72706428D01*
X119722142Y-72635000D01*
X119793571Y-72599285D01*
X119900714Y-72599285D01*
X119972142Y-72563571D01*
X120007857Y-72492142D01*
X120007857Y-72456428D01*
X119972142Y-72385000D01*
X119900714Y-72349285D01*
X119793571Y-72349285D01*
X119722142Y-72385000D01*
X119079285Y-72813571D02*
X119150714Y-72849285D01*
X119293571Y-72849285D01*
X119365000Y-72813571D01*
X119400714Y-72742142D01*
X119400714Y-72456428D01*
X119365000Y-72385000D01*
X119293571Y-72349285D01*
X119150714Y-72349285D01*
X119079285Y-72385000D01*
X119043571Y-72456428D01*
X119043571Y-72527857D01*
X119400714Y-72599285D01*
X118829285Y-72349285D02*
X118543571Y-72349285D01*
X118722142Y-72099285D02*
X118722142Y-72742142D01*
X118686428Y-72813571D01*
X118615000Y-72849285D01*
X118543571Y-72849285D01*
X117757857Y-72813571D02*
X117650714Y-72849285D01*
X117472142Y-72849285D01*
X117400714Y-72813571D01*
X117365000Y-72777857D01*
X117329285Y-72706428D01*
X117329285Y-72635000D01*
X117365000Y-72563571D01*
X117400714Y-72527857D01*
X117472142Y-72492142D01*
X117615000Y-72456428D01*
X117686428Y-72420714D01*
X117722142Y-72385000D01*
X117757857Y-72313571D01*
X117757857Y-72242142D01*
X117722142Y-72170714D01*
X117686428Y-72135000D01*
X117615000Y-72099285D01*
X117436428Y-72099285D01*
X117329285Y-72135000D01*
X117079285Y-72099285D02*
X116900714Y-72849285D01*
X116757857Y-72313571D01*
X116615000Y-72849285D01*
X116436428Y-72099285D01*
X116150714Y-72849285D02*
X116150714Y-72099285D01*
X115972142Y-72099285D01*
X115865000Y-72135000D01*
X115793571Y-72206428D01*
X115757857Y-72277857D01*
X115722142Y-72420714D01*
X115722142Y-72527857D01*
X115757857Y-72670714D01*
X115793571Y-72742142D01*
X115865000Y-72813571D01*
X115972142Y-72849285D01*
X116150714Y-72849285D01*
X114972142Y-72777857D02*
X115007857Y-72813571D01*
X115115000Y-72849285D01*
X115186428Y-72849285D01*
X115293571Y-72813571D01*
X115365000Y-72742142D01*
X115400714Y-72670714D01*
X115436428Y-72527857D01*
X115436428Y-72420714D01*
X115400714Y-72277857D01*
X115365000Y-72206428D01*
X115293571Y-72135000D01*
X115186428Y-72099285D01*
X115115000Y-72099285D01*
X115007857Y-72135000D01*
X114972142Y-72170714D01*
X114293571Y-72849285D02*
X114650714Y-72849285D01*
X114650714Y-72099285D01*
X114043571Y-72849285D02*
X114043571Y-72099285D01*
X113615000Y-72849285D02*
X113936428Y-72420714D01*
X113615000Y-72099285D02*
X114043571Y-72527857D01*
X112757857Y-72813571D02*
X112650714Y-72849285D01*
X112472142Y-72849285D01*
X112400714Y-72813571D01*
X112365000Y-72777857D01*
X112329285Y-72706428D01*
X112329285Y-72635000D01*
X112365000Y-72563571D01*
X112400714Y-72527857D01*
X112472142Y-72492142D01*
X112615000Y-72456428D01*
X112686428Y-72420714D01*
X112722142Y-72385000D01*
X112757857Y-72313571D01*
X112757857Y-72242142D01*
X112722142Y-72170714D01*
X112686428Y-72135000D01*
X112615000Y-72099285D01*
X112436428Y-72099285D01*
X112329285Y-72135000D01*
X112079285Y-72099285D02*
X111900714Y-72849285D01*
X111757857Y-72313571D01*
X111615000Y-72849285D01*
X111436428Y-72099285D01*
X111150714Y-72849285D02*
X111150714Y-72099285D01*
X110972142Y-72099285D01*
X110865000Y-72135000D01*
X110793571Y-72206428D01*
X110757857Y-72277857D01*
X110722142Y-72420714D01*
X110722142Y-72527857D01*
X110757857Y-72670714D01*
X110793571Y-72742142D01*
X110865000Y-72813571D01*
X110972142Y-72849285D01*
X111150714Y-72849285D01*
X110400714Y-72849285D02*
X110400714Y-72099285D01*
X109900714Y-72099285D02*
X109757857Y-72099285D01*
X109686428Y-72135000D01*
X109615000Y-72206428D01*
X109579285Y-72349285D01*
X109579285Y-72599285D01*
X109615000Y-72742142D01*
X109686428Y-72813571D01*
X109757857Y-72849285D01*
X109900714Y-72849285D01*
X109972142Y-72813571D01*
X110043571Y-72742142D01*
X110079285Y-72599285D01*
X110079285Y-72349285D01*
X110043571Y-72206428D01*
X109972142Y-72135000D01*
X109900714Y-72099285D01*
D13*
G36*
X151278600Y-69079850D02*
G01*
X151278600Y-65780151D01*
X149889308Y-64979476D01*
X149549339Y-64783815D01*
X149239012Y-64605733D01*
X148968882Y-64451246D01*
X148749505Y-64326370D01*
X148591439Y-64237123D01*
X148505239Y-64189522D01*
X148492308Y-64183230D01*
X148448181Y-64208834D01*
X148326791Y-64279287D01*
X148138745Y-64388434D01*
X147894649Y-64530119D01*
X147605109Y-64698185D01*
X147280731Y-64886475D01*
X147113000Y-64983838D01*
X145887648Y-65695124D01*
X146943666Y-65695124D01*
X146982441Y-65675598D01*
X147100479Y-65660813D01*
X147275467Y-65653109D01*
X147350066Y-65652521D01*
X147773400Y-65653041D01*
X147787821Y-65674924D01*
X148510000Y-65674924D01*
X148556850Y-65664437D01*
X148681616Y-65656500D01*
X148860623Y-65652404D01*
X148929100Y-65652114D01*
X149348200Y-65652228D01*
X149830800Y-66395957D01*
X149995838Y-66650322D01*
X150147963Y-66884834D01*
X150275863Y-67082049D01*
X150368223Y-67224524D01*
X150407288Y-67284844D01*
X150501177Y-67430000D01*
X149639093Y-67430000D01*
X149074546Y-66563924D01*
X148904034Y-66301265D01*
X148754186Y-66068381D01*
X148633286Y-65878317D01*
X148549618Y-65744118D01*
X148511465Y-65678828D01*
X148510000Y-65674924D01*
X147787821Y-65674924D01*
X148916400Y-67387397D01*
X149164036Y-67763568D01*
X149394037Y-68113745D01*
X149600420Y-68428762D01*
X149777202Y-68699449D01*
X149918399Y-68916639D01*
X150018029Y-69071163D01*
X150070108Y-69153852D01*
X150076333Y-69164877D01*
X150037558Y-69184403D01*
X149919520Y-69199188D01*
X149744532Y-69206892D01*
X149669933Y-69207480D01*
X149246600Y-69206960D01*
X148103600Y-67472604D01*
X147855963Y-67096433D01*
X147625962Y-66746256D01*
X147419579Y-66431239D01*
X147242797Y-66160552D01*
X147101600Y-65943362D01*
X147001970Y-65788838D01*
X146949891Y-65706149D01*
X146943666Y-65695124D01*
X145887648Y-65695124D01*
X145741400Y-65780017D01*
X145741400Y-67430000D01*
X146518822Y-67430000D01*
X147380906Y-67430000D01*
X147945453Y-68296077D01*
X148115965Y-68558736D01*
X148265813Y-68791620D01*
X148386713Y-68981684D01*
X148470381Y-69115883D01*
X148508534Y-69181173D01*
X148510000Y-69185077D01*
X148463149Y-69195564D01*
X148338383Y-69203501D01*
X148159376Y-69207597D01*
X148090900Y-69207887D01*
X147671800Y-69207773D01*
X147189200Y-68464044D01*
X147024161Y-68209679D01*
X146872036Y-67975167D01*
X146744136Y-67777952D01*
X146651776Y-67635477D01*
X146612711Y-67575157D01*
X146518822Y-67430000D01*
X145741400Y-67430000D01*
X145741400Y-69079850D01*
X148510000Y-70675448D01*
X151278600Y-69079850D01*
G37*
X151278600Y-69079850D02*
X151278600Y-65780151D01*
X149889308Y-64979476D01*
X149549339Y-64783815D01*
X149239012Y-64605733D01*
X148968882Y-64451246D01*
X148749505Y-64326370D01*
X148591439Y-64237123D01*
X148505239Y-64189522D01*
X148492308Y-64183230D01*
X148448181Y-64208834D01*
X148326791Y-64279287D01*
X148138745Y-64388434D01*
X147894649Y-64530119D01*
X147605109Y-64698185D01*
X147280731Y-64886475D01*
X147113000Y-64983838D01*
X145887648Y-65695124D01*
X146943666Y-65695124D01*
X146982441Y-65675598D01*
X147100479Y-65660813D01*
X147275467Y-65653109D01*
X147350066Y-65652521D01*
X147773400Y-65653041D01*
X147787821Y-65674924D01*
X148510000Y-65674924D01*
X148556850Y-65664437D01*
X148681616Y-65656500D01*
X148860623Y-65652404D01*
X148929100Y-65652114D01*
X149348200Y-65652228D01*
X149830800Y-66395957D01*
X149995838Y-66650322D01*
X150147963Y-66884834D01*
X150275863Y-67082049D01*
X150368223Y-67224524D01*
X150407288Y-67284844D01*
X150501177Y-67430000D01*
X149639093Y-67430000D01*
X149074546Y-66563924D01*
X148904034Y-66301265D01*
X148754186Y-66068381D01*
X148633286Y-65878317D01*
X148549618Y-65744118D01*
X148511465Y-65678828D01*
X148510000Y-65674924D01*
X147787821Y-65674924D01*
X148916400Y-67387397D01*
X149164036Y-67763568D01*
X149394037Y-68113745D01*
X149600420Y-68428762D01*
X149777202Y-68699449D01*
X149918399Y-68916639D01*
X150018029Y-69071163D01*
X150070108Y-69153852D01*
X150076333Y-69164877D01*
X150037558Y-69184403D01*
X149919520Y-69199188D01*
X149744532Y-69206892D01*
X149669933Y-69207480D01*
X149246600Y-69206960D01*
X148103600Y-67472604D01*
X147855963Y-67096433D01*
X147625962Y-66746256D01*
X147419579Y-66431239D01*
X147242797Y-66160552D01*
X147101600Y-65943362D01*
X147001970Y-65788838D01*
X146949891Y-65706149D01*
X146943666Y-65695124D01*
X145887648Y-65695124D01*
X145741400Y-65780017D01*
X145741400Y-67430000D01*
X146518822Y-67430000D01*
X147380906Y-67430000D01*
X147945453Y-68296077D01*
X148115965Y-68558736D01*
X148265813Y-68791620D01*
X148386713Y-68981684D01*
X148470381Y-69115883D01*
X148508534Y-69181173D01*
X148510000Y-69185077D01*
X148463149Y-69195564D01*
X148338383Y-69203501D01*
X148159376Y-69207597D01*
X148090900Y-69207887D01*
X147671800Y-69207773D01*
X147189200Y-68464044D01*
X147024161Y-68209679D01*
X146872036Y-67975167D01*
X146744136Y-67777952D01*
X146651776Y-67635477D01*
X146612711Y-67575157D01*
X146518822Y-67430000D01*
X145741400Y-67430000D01*
X145741400Y-69079850D01*
X148510000Y-70675448D01*
X151278600Y-69079850D01*
D14*
X122225000Y-76145000D02*
X122225000Y-74645000D01*
X123475000Y-72145000D02*
X127975000Y-72145000D01*
X129225000Y-74645000D02*
X129225000Y-76145000D01*
X127975000Y-78645000D02*
X123475000Y-78645000D01*
X114780000Y-79421078D02*
X114780000Y-78903922D01*
X116200000Y-79421078D02*
X116200000Y-78903922D01*
X120010000Y-56043922D02*
X120010000Y-56561078D01*
X118590000Y-56043922D02*
X118590000Y-56561078D01*
X117320000Y-79421078D02*
X117320000Y-78903922D01*
X118740000Y-79421078D02*
X118740000Y-78903922D01*
X126980000Y-56695000D02*
X126980000Y-55365000D01*
X125650000Y-56695000D02*
X126980000Y-56695000D01*
X124380000Y-56695000D02*
X124380000Y-54035000D01*
X124380000Y-54035000D02*
X121780000Y-54035000D01*
X124380000Y-56695000D02*
X121780000Y-56695000D01*
X121780000Y-56695000D02*
X121780000Y-54035000D01*
X111620000Y-73720000D02*
X111620000Y-75050000D01*
X112950000Y-73720000D02*
X111620000Y-73720000D01*
X114220000Y-73720000D02*
X114220000Y-76380000D01*
X114220000Y-76380000D02*
X119360000Y-76380000D01*
X114220000Y-73720000D02*
X119360000Y-73720000D01*
X119360000Y-73720000D02*
X119360000Y-76380000D01*
D11*
X117220000Y-58290000D02*
X111245000Y-58290000D01*
X115695000Y-65190000D02*
X111245000Y-65190000D01*
D14*
X106115000Y-70970000D02*
X103665000Y-70970000D01*
X104315000Y-67750000D02*
X106115000Y-67750000D01*
X100232500Y-64600000D02*
X99782500Y-64600000D01*
X100232500Y-64600000D02*
X100232500Y-64150000D01*
X99682500Y-59000000D02*
X99682500Y-59450000D01*
X97832500Y-59000000D02*
X99682500Y-59000000D01*
X95282500Y-66800000D02*
X95532500Y-66800000D01*
X95282500Y-59000000D02*
X95532500Y-59000000D01*
X97832500Y-66800000D02*
X99682500Y-66800000D01*
X99682500Y-66800000D02*
X99682500Y-66350000D01*
X120911422Y-60690000D02*
X121428578Y-60690000D01*
X120911422Y-62110000D02*
X121428578Y-62110000D01*
X106660000Y-62911078D02*
X106660000Y-62393922D01*
X108080000Y-62911078D02*
X108080000Y-62393922D01*
X108950000Y-69618578D02*
X108950000Y-69101422D01*
X110370000Y-69618578D02*
X110370000Y-69101422D01*
X101480000Y-69101422D02*
X101480000Y-69618578D01*
X100060000Y-69101422D02*
X100060000Y-69618578D01*
D11*
X127058333Y-71549761D02*
X126915476Y-71597380D01*
X126677380Y-71597380D01*
X126582142Y-71549761D01*
X126534523Y-71502142D01*
X126486904Y-71406904D01*
X126486904Y-71311666D01*
X126534523Y-71216428D01*
X126582142Y-71168809D01*
X126677380Y-71121190D01*
X126867857Y-71073571D01*
X126963095Y-71025952D01*
X127010714Y-70978333D01*
X127058333Y-70883095D01*
X127058333Y-70787857D01*
X127010714Y-70692619D01*
X126963095Y-70645000D01*
X126867857Y-70597380D01*
X126629761Y-70597380D01*
X126486904Y-70645000D01*
X126153571Y-70597380D02*
X125915476Y-71597380D01*
X125725000Y-70883095D01*
X125534523Y-71597380D01*
X125296428Y-70597380D01*
X124439285Y-70597380D02*
X124915476Y-70597380D01*
X124963095Y-71073571D01*
X124915476Y-71025952D01*
X124820238Y-70978333D01*
X124582142Y-70978333D01*
X124486904Y-71025952D01*
X124439285Y-71073571D01*
X124391666Y-71168809D01*
X124391666Y-71406904D01*
X124439285Y-71502142D01*
X124486904Y-71549761D01*
X124582142Y-71597380D01*
X124820238Y-71597380D01*
X124915476Y-71549761D01*
X124963095Y-71502142D01*
X114242380Y-78995833D02*
X113766190Y-78662500D01*
X114242380Y-78424404D02*
X113242380Y-78424404D01*
X113242380Y-78805357D01*
X113290000Y-78900595D01*
X113337619Y-78948214D01*
X113432857Y-78995833D01*
X113575714Y-78995833D01*
X113670952Y-78948214D01*
X113718571Y-78900595D01*
X113766190Y-78805357D01*
X113766190Y-78424404D01*
X113242380Y-79329166D02*
X113242380Y-79948214D01*
X113623333Y-79614880D01*
X113623333Y-79757738D01*
X113670952Y-79852976D01*
X113718571Y-79900595D01*
X113813809Y-79948214D01*
X114051904Y-79948214D01*
X114147142Y-79900595D01*
X114194761Y-79852976D01*
X114242380Y-79757738D01*
X114242380Y-79472023D01*
X114194761Y-79376785D01*
X114147142Y-79329166D01*
X118102380Y-56135833D02*
X117626190Y-55802500D01*
X118102380Y-55564404D02*
X117102380Y-55564404D01*
X117102380Y-55945357D01*
X117150000Y-56040595D01*
X117197619Y-56088214D01*
X117292857Y-56135833D01*
X117435714Y-56135833D01*
X117530952Y-56088214D01*
X117578571Y-56040595D01*
X117626190Y-55945357D01*
X117626190Y-55564404D01*
X117197619Y-56516785D02*
X117150000Y-56564404D01*
X117102380Y-56659642D01*
X117102380Y-56897738D01*
X117150000Y-56992976D01*
X117197619Y-57040595D01*
X117292857Y-57088214D01*
X117388095Y-57088214D01*
X117530952Y-57040595D01*
X118102380Y-56469166D01*
X118102380Y-57088214D01*
X120132380Y-78995833D02*
X119656190Y-78662500D01*
X120132380Y-78424404D02*
X119132380Y-78424404D01*
X119132380Y-78805357D01*
X119180000Y-78900595D01*
X119227619Y-78948214D01*
X119322857Y-78995833D01*
X119465714Y-78995833D01*
X119560952Y-78948214D01*
X119608571Y-78900595D01*
X119656190Y-78805357D01*
X119656190Y-78424404D01*
X120132380Y-79948214D02*
X120132380Y-79376785D01*
X120132380Y-79662500D02*
X119132380Y-79662500D01*
X119275238Y-79567261D01*
X119370476Y-79472023D01*
X119418095Y-79376785D01*
X127432380Y-55031666D02*
X128146666Y-55031666D01*
X128289523Y-54984047D01*
X128384761Y-54888809D01*
X128432380Y-54745952D01*
X128432380Y-54650714D01*
X127765714Y-55936428D02*
X128432380Y-55936428D01*
X127384761Y-55698333D02*
X128099047Y-55460238D01*
X128099047Y-56079285D01*
X110072380Y-74716666D02*
X110786666Y-74716666D01*
X110929523Y-74669047D01*
X111024761Y-74573809D01*
X111072380Y-74430952D01*
X111072380Y-74335714D01*
X110072380Y-75097619D02*
X110072380Y-75716666D01*
X110453333Y-75383333D01*
X110453333Y-75526190D01*
X110500952Y-75621428D01*
X110548571Y-75669047D01*
X110643809Y-75716666D01*
X110881904Y-75716666D01*
X110977142Y-75669047D01*
X111024761Y-75621428D01*
X111072380Y-75526190D01*
X111072380Y-75240476D01*
X111024761Y-75145238D01*
X110977142Y-75097619D01*
X114231904Y-56892380D02*
X114231904Y-57701904D01*
X114184285Y-57797142D01*
X114136666Y-57844761D01*
X114041428Y-57892380D01*
X113850952Y-57892380D01*
X113755714Y-57844761D01*
X113708095Y-57797142D01*
X113660476Y-57701904D01*
X113660476Y-56892380D01*
X113231904Y-56987619D02*
X113184285Y-56940000D01*
X113089047Y-56892380D01*
X112850952Y-56892380D01*
X112755714Y-56940000D01*
X112708095Y-56987619D01*
X112660476Y-57082857D01*
X112660476Y-57178095D01*
X112708095Y-57320952D01*
X113279523Y-57892380D01*
X112660476Y-57892380D01*
X105976904Y-71712380D02*
X105976904Y-72521904D01*
X105929285Y-72617142D01*
X105881666Y-72664761D01*
X105786428Y-72712380D01*
X105595952Y-72712380D01*
X105500714Y-72664761D01*
X105453095Y-72617142D01*
X105405476Y-72521904D01*
X105405476Y-71712380D01*
X104405476Y-72712380D02*
X104976904Y-72712380D01*
X104691190Y-72712380D02*
X104691190Y-71712380D01*
X104786428Y-71855238D01*
X104881666Y-71950476D01*
X104976904Y-71998095D01*
X101580119Y-63233333D02*
X100865833Y-63233333D01*
X100722976Y-63280952D01*
X100627738Y-63376190D01*
X100580119Y-63519047D01*
X100580119Y-63614285D01*
X100580119Y-62233333D02*
X100580119Y-62804761D01*
X100580119Y-62519047D02*
X101580119Y-62519047D01*
X101437261Y-62614285D01*
X101342023Y-62709523D01*
X101294404Y-62804761D01*
X121336666Y-63407142D02*
X121384285Y-63454761D01*
X121527142Y-63502380D01*
X121622380Y-63502380D01*
X121765238Y-63454761D01*
X121860476Y-63359523D01*
X121908095Y-63264285D01*
X121955714Y-63073809D01*
X121955714Y-62930952D01*
X121908095Y-62740476D01*
X121860476Y-62645238D01*
X121765238Y-62550000D01*
X121622380Y-62502380D01*
X121527142Y-62502380D01*
X121384285Y-62550000D01*
X121336666Y-62597619D01*
X120479523Y-62835714D02*
X120479523Y-63502380D01*
X120717619Y-62454761D02*
X120955714Y-63169047D01*
X120336666Y-63169047D01*
X109377142Y-62485833D02*
X109424761Y-62438214D01*
X109472380Y-62295357D01*
X109472380Y-62200119D01*
X109424761Y-62057261D01*
X109329523Y-61962023D01*
X109234285Y-61914404D01*
X109043809Y-61866785D01*
X108900952Y-61866785D01*
X108710476Y-61914404D01*
X108615238Y-61962023D01*
X108520000Y-62057261D01*
X108472380Y-62200119D01*
X108472380Y-62295357D01*
X108520000Y-62438214D01*
X108567619Y-62485833D01*
X108472380Y-62819166D02*
X108472380Y-63438214D01*
X108853333Y-63104880D01*
X108853333Y-63247738D01*
X108900952Y-63342976D01*
X108948571Y-63390595D01*
X109043809Y-63438214D01*
X109281904Y-63438214D01*
X109377142Y-63390595D01*
X109424761Y-63342976D01*
X109472380Y-63247738D01*
X109472380Y-62962023D01*
X109424761Y-62866785D01*
X109377142Y-62819166D01*
X111667142Y-69193333D02*
X111714761Y-69145714D01*
X111762380Y-69002857D01*
X111762380Y-68907619D01*
X111714761Y-68764761D01*
X111619523Y-68669523D01*
X111524285Y-68621904D01*
X111333809Y-68574285D01*
X111190952Y-68574285D01*
X111000476Y-68621904D01*
X110905238Y-68669523D01*
X110810000Y-68764761D01*
X110762380Y-68907619D01*
X110762380Y-69002857D01*
X110810000Y-69145714D01*
X110857619Y-69193333D01*
X110857619Y-69574285D02*
X110810000Y-69621904D01*
X110762380Y-69717142D01*
X110762380Y-69955238D01*
X110810000Y-70050476D01*
X110857619Y-70098095D01*
X110952857Y-70145714D01*
X111048095Y-70145714D01*
X111190952Y-70098095D01*
X111762380Y-69526666D01*
X111762380Y-70145714D01*
X99477142Y-69193333D02*
X99524761Y-69145714D01*
X99572380Y-69002857D01*
X99572380Y-68907619D01*
X99524761Y-68764761D01*
X99429523Y-68669523D01*
X99334285Y-68621904D01*
X99143809Y-68574285D01*
X99000952Y-68574285D01*
X98810476Y-68621904D01*
X98715238Y-68669523D01*
X98620000Y-68764761D01*
X98572380Y-68907619D01*
X98572380Y-69002857D01*
X98620000Y-69145714D01*
X98667619Y-69193333D01*
X99572380Y-70145714D02*
X99572380Y-69574285D01*
X99572380Y-69860000D02*
X98572380Y-69860000D01*
X98715238Y-69764761D01*
X98810476Y-69669523D01*
X98858095Y-69574285D01*
M02*
