G04 #@! TF.GenerationSoftware,KiCad,Pcbnew,(5.1.5)-3*
G04 #@! TF.CreationDate,2020-01-16T23:09:46-05:00*
G04 #@! TF.ProjectId,V-Naught_Display,562d4e61-7567-4687-945f-446973706c61,rev?*
G04 #@! TF.SameCoordinates,Original*
G04 #@! TF.FileFunction,Soldermask,Top*
G04 #@! TF.FilePolarity,Negative*
%FSLAX46Y46*%
G04 Gerber Fmt 4.6, Leading zero omitted, Abs format (unit mm)*
G04 Created by KiCad (PCBNEW (5.1.5)-3) date 2020-01-16 23:09:46*
%MOMM*%
%LPD*%
G04 APERTURE LIST*
%ADD10C,0.100000*%
G04 APERTURE END LIST*
D10*
G36*
X161545256Y-79041298D02*
G01*
X161651579Y-79062447D01*
X161952042Y-79186903D01*
X162222451Y-79367585D01*
X162452415Y-79597549D01*
X162633097Y-79867958D01*
X162757553Y-80168421D01*
X162821000Y-80487391D01*
X162821000Y-80812609D01*
X162757553Y-81131579D01*
X162633097Y-81432042D01*
X162452415Y-81702451D01*
X162222451Y-81932415D01*
X161952042Y-82113097D01*
X161651579Y-82237553D01*
X161545256Y-82258702D01*
X161332611Y-82301000D01*
X161007389Y-82301000D01*
X160794744Y-82258702D01*
X160688421Y-82237553D01*
X160387958Y-82113097D01*
X160117549Y-81932415D01*
X159887585Y-81702451D01*
X159706903Y-81432042D01*
X159582447Y-81131579D01*
X159519000Y-80812609D01*
X159519000Y-80487391D01*
X159582447Y-80168421D01*
X159706903Y-79867958D01*
X159887585Y-79597549D01*
X160117549Y-79367585D01*
X160387958Y-79186903D01*
X160688421Y-79062447D01*
X160794744Y-79041298D01*
X161007389Y-78999000D01*
X161332611Y-78999000D01*
X161545256Y-79041298D01*
G37*
G36*
X99545256Y-79041298D02*
G01*
X99651579Y-79062447D01*
X99952042Y-79186903D01*
X100222451Y-79367585D01*
X100452415Y-79597549D01*
X100633097Y-79867958D01*
X100757553Y-80168421D01*
X100821000Y-80487391D01*
X100821000Y-80812609D01*
X100757553Y-81131579D01*
X100633097Y-81432042D01*
X100452415Y-81702451D01*
X100222451Y-81932415D01*
X99952042Y-82113097D01*
X99651579Y-82237553D01*
X99545256Y-82258702D01*
X99332611Y-82301000D01*
X99007389Y-82301000D01*
X98794744Y-82258702D01*
X98688421Y-82237553D01*
X98387958Y-82113097D01*
X98117549Y-81932415D01*
X97887585Y-81702451D01*
X97706903Y-81432042D01*
X97582447Y-81131579D01*
X97519000Y-80812609D01*
X97519000Y-80487391D01*
X97582447Y-80168421D01*
X97706903Y-79867958D01*
X97887585Y-79597549D01*
X98117549Y-79367585D01*
X98387958Y-79186903D01*
X98688421Y-79062447D01*
X98794744Y-79041298D01*
X99007389Y-78999000D01*
X99332611Y-78999000D01*
X99545256Y-79041298D01*
G37*
G36*
X145476564Y-78639389D02*
G01*
X145613235Y-78696000D01*
X145667835Y-78718616D01*
X145839973Y-78833635D01*
X145986365Y-78980027D01*
X146101385Y-79152167D01*
X146180611Y-79343436D01*
X146221000Y-79546484D01*
X146221000Y-79753516D01*
X146180611Y-79956564D01*
X146101385Y-80147833D01*
X146101384Y-80147835D01*
X145986365Y-80319973D01*
X145839973Y-80466365D01*
X145667835Y-80581384D01*
X145667834Y-80581385D01*
X145667833Y-80581385D01*
X145476564Y-80660611D01*
X145273516Y-80701000D01*
X145066484Y-80701000D01*
X144863436Y-80660611D01*
X144672167Y-80581385D01*
X144672166Y-80581385D01*
X144672165Y-80581384D01*
X144500027Y-80466365D01*
X144353635Y-80319973D01*
X144238616Y-80147835D01*
X144238615Y-80147833D01*
X144159389Y-79956564D01*
X144119000Y-79753516D01*
X144119000Y-79546484D01*
X144159389Y-79343436D01*
X144238615Y-79152167D01*
X144353635Y-78980027D01*
X144500027Y-78833635D01*
X144672165Y-78718616D01*
X144726765Y-78696000D01*
X144863436Y-78639389D01*
X145066484Y-78599000D01*
X145273516Y-78599000D01*
X145476564Y-78639389D01*
G37*
G36*
X151976564Y-78639389D02*
G01*
X152113235Y-78696000D01*
X152167835Y-78718616D01*
X152339973Y-78833635D01*
X152486365Y-78980027D01*
X152601385Y-79152167D01*
X152680611Y-79343436D01*
X152721000Y-79546484D01*
X152721000Y-79753516D01*
X152680611Y-79956564D01*
X152601385Y-80147833D01*
X152601384Y-80147835D01*
X152486365Y-80319973D01*
X152339973Y-80466365D01*
X152167835Y-80581384D01*
X152167834Y-80581385D01*
X152167833Y-80581385D01*
X151976564Y-80660611D01*
X151773516Y-80701000D01*
X151566484Y-80701000D01*
X151363436Y-80660611D01*
X151172167Y-80581385D01*
X151172166Y-80581385D01*
X151172165Y-80581384D01*
X151000027Y-80466365D01*
X150853635Y-80319973D01*
X150738616Y-80147835D01*
X150738615Y-80147833D01*
X150659389Y-79956564D01*
X150619000Y-79753516D01*
X150619000Y-79546484D01*
X150659389Y-79343436D01*
X150738615Y-79152167D01*
X150853635Y-78980027D01*
X151000027Y-78833635D01*
X151172165Y-78718616D01*
X151226765Y-78696000D01*
X151363436Y-78639389D01*
X151566484Y-78599000D01*
X151773516Y-78599000D01*
X151976564Y-78639389D01*
G37*
G36*
X122781564Y-76634389D02*
G01*
X122972833Y-76713615D01*
X122972835Y-76713616D01*
X123144973Y-76828635D01*
X123291365Y-76975027D01*
X123406385Y-77147167D01*
X123485611Y-77338436D01*
X123526000Y-77541484D01*
X123526000Y-77748516D01*
X123485611Y-77951564D01*
X123406385Y-78142833D01*
X123406384Y-78142835D01*
X123291365Y-78314973D01*
X123144973Y-78461365D01*
X122972835Y-78576384D01*
X122972834Y-78576385D01*
X122972833Y-78576385D01*
X122781564Y-78655611D01*
X122578516Y-78696000D01*
X122371484Y-78696000D01*
X122168436Y-78655611D01*
X121977167Y-78576385D01*
X121977166Y-78576385D01*
X121977165Y-78576384D01*
X121805027Y-78461365D01*
X121658635Y-78314973D01*
X121543616Y-78142835D01*
X121543615Y-78142833D01*
X121464389Y-77951564D01*
X121424000Y-77748516D01*
X121424000Y-77541484D01*
X121464389Y-77338436D01*
X121543615Y-77147167D01*
X121658635Y-76975027D01*
X121805027Y-76828635D01*
X121977165Y-76713616D01*
X121977167Y-76713615D01*
X122168436Y-76634389D01*
X122371484Y-76594000D01*
X122578516Y-76594000D01*
X122781564Y-76634389D01*
G37*
G36*
X129281564Y-76634389D02*
G01*
X129472833Y-76713615D01*
X129472835Y-76713616D01*
X129644973Y-76828635D01*
X129791365Y-76975027D01*
X129906385Y-77147167D01*
X129985611Y-77338436D01*
X130026000Y-77541484D01*
X130026000Y-77748516D01*
X129985611Y-77951564D01*
X129906385Y-78142833D01*
X129906384Y-78142835D01*
X129791365Y-78314973D01*
X129644973Y-78461365D01*
X129472835Y-78576384D01*
X129472834Y-78576385D01*
X129472833Y-78576385D01*
X129281564Y-78655611D01*
X129078516Y-78696000D01*
X128871484Y-78696000D01*
X128668436Y-78655611D01*
X128477167Y-78576385D01*
X128477166Y-78576385D01*
X128477165Y-78576384D01*
X128305027Y-78461365D01*
X128158635Y-78314973D01*
X128043616Y-78142835D01*
X128043615Y-78142833D01*
X127964389Y-77951564D01*
X127924000Y-77748516D01*
X127924000Y-77541484D01*
X127964389Y-77338436D01*
X128043615Y-77147167D01*
X128158635Y-76975027D01*
X128305027Y-76828635D01*
X128477165Y-76713616D01*
X128477167Y-76713615D01*
X128668436Y-76634389D01*
X128871484Y-76594000D01*
X129078516Y-76594000D01*
X129281564Y-76634389D01*
G37*
G36*
X145476564Y-74139389D02*
G01*
X145583359Y-74183625D01*
X145667835Y-74218616D01*
X145717115Y-74251544D01*
X145839973Y-74333635D01*
X145986365Y-74480027D01*
X146101385Y-74652167D01*
X146180611Y-74843436D01*
X146221000Y-75046484D01*
X146221000Y-75253516D01*
X146180611Y-75456564D01*
X146111110Y-75624354D01*
X146101384Y-75647835D01*
X145986365Y-75819973D01*
X145839973Y-75966365D01*
X145667835Y-76081384D01*
X145667834Y-76081385D01*
X145667833Y-76081385D01*
X145476564Y-76160611D01*
X145273516Y-76201000D01*
X145066484Y-76201000D01*
X144863436Y-76160611D01*
X144672167Y-76081385D01*
X144672166Y-76081385D01*
X144672165Y-76081384D01*
X144500027Y-75966365D01*
X144353635Y-75819973D01*
X144238616Y-75647835D01*
X144228890Y-75624354D01*
X144159389Y-75456564D01*
X144119000Y-75253516D01*
X144119000Y-75046484D01*
X144159389Y-74843436D01*
X144238615Y-74652167D01*
X144353635Y-74480027D01*
X144500027Y-74333635D01*
X144622885Y-74251544D01*
X144672165Y-74218616D01*
X144756641Y-74183625D01*
X144863436Y-74139389D01*
X145066484Y-74099000D01*
X145273516Y-74099000D01*
X145476564Y-74139389D01*
G37*
G36*
X151976564Y-74139389D02*
G01*
X152083359Y-74183625D01*
X152167835Y-74218616D01*
X152217115Y-74251544D01*
X152339973Y-74333635D01*
X152486365Y-74480027D01*
X152601385Y-74652167D01*
X152680611Y-74843436D01*
X152721000Y-75046484D01*
X152721000Y-75253516D01*
X152680611Y-75456564D01*
X152611110Y-75624354D01*
X152601384Y-75647835D01*
X152486365Y-75819973D01*
X152339973Y-75966365D01*
X152167835Y-76081384D01*
X152167834Y-76081385D01*
X152167833Y-76081385D01*
X151976564Y-76160611D01*
X151773516Y-76201000D01*
X151566484Y-76201000D01*
X151363436Y-76160611D01*
X151172167Y-76081385D01*
X151172166Y-76081385D01*
X151172165Y-76081384D01*
X151000027Y-75966365D01*
X150853635Y-75819973D01*
X150738616Y-75647835D01*
X150728890Y-75624354D01*
X150659389Y-75456564D01*
X150619000Y-75253516D01*
X150619000Y-75046484D01*
X150659389Y-74843436D01*
X150738615Y-74652167D01*
X150853635Y-74480027D01*
X151000027Y-74333635D01*
X151122885Y-74251544D01*
X151172165Y-74218616D01*
X151256641Y-74183625D01*
X151363436Y-74139389D01*
X151566484Y-74099000D01*
X151773516Y-74099000D01*
X151976564Y-74139389D01*
G37*
G36*
X118143512Y-74153927D02*
G01*
X118292812Y-74183624D01*
X118456784Y-74251544D01*
X118604354Y-74350147D01*
X118729853Y-74475646D01*
X118828456Y-74623216D01*
X118896376Y-74787188D01*
X118931000Y-74961259D01*
X118931000Y-75138741D01*
X118896376Y-75312812D01*
X118828456Y-75476784D01*
X118729853Y-75624354D01*
X118604354Y-75749853D01*
X118456784Y-75848456D01*
X118292812Y-75916376D01*
X118143512Y-75946073D01*
X118118742Y-75951000D01*
X117941258Y-75951000D01*
X117916488Y-75946073D01*
X117767188Y-75916376D01*
X117603216Y-75848456D01*
X117455646Y-75749853D01*
X117330147Y-75624354D01*
X117231544Y-75476784D01*
X117163624Y-75312812D01*
X117129000Y-75138741D01*
X117129000Y-74961259D01*
X117163624Y-74787188D01*
X117231544Y-74623216D01*
X117330147Y-74475646D01*
X117455646Y-74350147D01*
X117603216Y-74251544D01*
X117767188Y-74183624D01*
X117916488Y-74153927D01*
X117941258Y-74149000D01*
X118118742Y-74149000D01*
X118143512Y-74153927D01*
G37*
G36*
X115603512Y-74153927D02*
G01*
X115752812Y-74183624D01*
X115916784Y-74251544D01*
X116064354Y-74350147D01*
X116189853Y-74475646D01*
X116288456Y-74623216D01*
X116356376Y-74787188D01*
X116391000Y-74961259D01*
X116391000Y-75138741D01*
X116356376Y-75312812D01*
X116288456Y-75476784D01*
X116189853Y-75624354D01*
X116064354Y-75749853D01*
X115916784Y-75848456D01*
X115752812Y-75916376D01*
X115603512Y-75946073D01*
X115578742Y-75951000D01*
X115401258Y-75951000D01*
X115376488Y-75946073D01*
X115227188Y-75916376D01*
X115063216Y-75848456D01*
X114915646Y-75749853D01*
X114790147Y-75624354D01*
X114691544Y-75476784D01*
X114623624Y-75312812D01*
X114589000Y-75138741D01*
X114589000Y-74961259D01*
X114623624Y-74787188D01*
X114691544Y-74623216D01*
X114790147Y-74475646D01*
X114915646Y-74350147D01*
X115063216Y-74251544D01*
X115227188Y-74183624D01*
X115376488Y-74153927D01*
X115401258Y-74149000D01*
X115578742Y-74149000D01*
X115603512Y-74153927D01*
G37*
G36*
X113851000Y-75951000D02*
G01*
X112049000Y-75951000D01*
X112049000Y-74149000D01*
X113851000Y-74149000D01*
X113851000Y-75951000D01*
G37*
G36*
X129281564Y-72134389D02*
G01*
X129472833Y-72213615D01*
X129472835Y-72213616D01*
X129644973Y-72328635D01*
X129791365Y-72475027D01*
X129906385Y-72647167D01*
X129985611Y-72838436D01*
X130026000Y-73041484D01*
X130026000Y-73248516D01*
X129985611Y-73451564D01*
X129906385Y-73642833D01*
X129906384Y-73642835D01*
X129791365Y-73814973D01*
X129644973Y-73961365D01*
X129472835Y-74076384D01*
X129472834Y-74076385D01*
X129472833Y-74076385D01*
X129281564Y-74155611D01*
X129078516Y-74196000D01*
X128871484Y-74196000D01*
X128668436Y-74155611D01*
X128477167Y-74076385D01*
X128477166Y-74076385D01*
X128477165Y-74076384D01*
X128305027Y-73961365D01*
X128158635Y-73814973D01*
X128043616Y-73642835D01*
X128043615Y-73642833D01*
X127964389Y-73451564D01*
X127924000Y-73248516D01*
X127924000Y-73041484D01*
X127964389Y-72838436D01*
X128043615Y-72647167D01*
X128158635Y-72475027D01*
X128305027Y-72328635D01*
X128477165Y-72213616D01*
X128477167Y-72213615D01*
X128668436Y-72134389D01*
X128871484Y-72094000D01*
X129078516Y-72094000D01*
X129281564Y-72134389D01*
G37*
G36*
X122781564Y-72134389D02*
G01*
X122972833Y-72213615D01*
X122972835Y-72213616D01*
X123144973Y-72328635D01*
X123291365Y-72475027D01*
X123406385Y-72647167D01*
X123485611Y-72838436D01*
X123526000Y-73041484D01*
X123526000Y-73248516D01*
X123485611Y-73451564D01*
X123406385Y-73642833D01*
X123406384Y-73642835D01*
X123291365Y-73814973D01*
X123144973Y-73961365D01*
X122972835Y-74076384D01*
X122972834Y-74076385D01*
X122972833Y-74076385D01*
X122781564Y-74155611D01*
X122578516Y-74196000D01*
X122371484Y-74196000D01*
X122168436Y-74155611D01*
X121977167Y-74076385D01*
X121977166Y-74076385D01*
X121977165Y-74076384D01*
X121805027Y-73961365D01*
X121658635Y-73814973D01*
X121543616Y-73642835D01*
X121543615Y-73642833D01*
X121464389Y-73451564D01*
X121424000Y-73248516D01*
X121424000Y-73041484D01*
X121464389Y-72838436D01*
X121543615Y-72647167D01*
X121658635Y-72475027D01*
X121805027Y-72328635D01*
X121977165Y-72213616D01*
X121977167Y-72213615D01*
X122168436Y-72134389D01*
X122371484Y-72094000D01*
X122578516Y-72094000D01*
X122781564Y-72134389D01*
G37*
G36*
X156476564Y-69639389D02*
G01*
X156667833Y-69718615D01*
X156667835Y-69718616D01*
X156839973Y-69833635D01*
X156986365Y-69980027D01*
X157101385Y-70152167D01*
X157180611Y-70343436D01*
X157221000Y-70546484D01*
X157221000Y-70753516D01*
X157180611Y-70956564D01*
X157101385Y-71147833D01*
X157101384Y-71147835D01*
X156986365Y-71319973D01*
X156839973Y-71466365D01*
X156667835Y-71581384D01*
X156667834Y-71581385D01*
X156667833Y-71581385D01*
X156476564Y-71660611D01*
X156273516Y-71701000D01*
X156066484Y-71701000D01*
X155863436Y-71660611D01*
X155672167Y-71581385D01*
X155672166Y-71581385D01*
X155672165Y-71581384D01*
X155500027Y-71466365D01*
X155353635Y-71319973D01*
X155238616Y-71147835D01*
X155238615Y-71147833D01*
X155159389Y-70956564D01*
X155119000Y-70753516D01*
X155119000Y-70546484D01*
X155159389Y-70343436D01*
X155238615Y-70152167D01*
X155353635Y-69980027D01*
X155500027Y-69833635D01*
X155672165Y-69718616D01*
X155672167Y-69718615D01*
X155863436Y-69639389D01*
X156066484Y-69599000D01*
X156273516Y-69599000D01*
X156476564Y-69639389D01*
G37*
G36*
X160976564Y-69639389D02*
G01*
X161167833Y-69718615D01*
X161167835Y-69718616D01*
X161339973Y-69833635D01*
X161486365Y-69980027D01*
X161601385Y-70152167D01*
X161680611Y-70343436D01*
X161721000Y-70546484D01*
X161721000Y-70753516D01*
X161680611Y-70956564D01*
X161601385Y-71147833D01*
X161601384Y-71147835D01*
X161486365Y-71319973D01*
X161339973Y-71466365D01*
X161167835Y-71581384D01*
X161167834Y-71581385D01*
X161167833Y-71581385D01*
X160976564Y-71660611D01*
X160773516Y-71701000D01*
X160566484Y-71701000D01*
X160363436Y-71660611D01*
X160172167Y-71581385D01*
X160172166Y-71581385D01*
X160172165Y-71581384D01*
X160000027Y-71466365D01*
X159853635Y-71319973D01*
X159738616Y-71147835D01*
X159738615Y-71147833D01*
X159659389Y-70956564D01*
X159619000Y-70753516D01*
X159619000Y-70546484D01*
X159659389Y-70343436D01*
X159738615Y-70152167D01*
X159853635Y-69980027D01*
X160000027Y-69833635D01*
X160172165Y-69718616D01*
X160172167Y-69718615D01*
X160363436Y-69639389D01*
X160566484Y-69599000D01*
X160773516Y-69599000D01*
X160976564Y-69639389D01*
G37*
G36*
X140976564Y-69639389D02*
G01*
X141167833Y-69718615D01*
X141167835Y-69718616D01*
X141339973Y-69833635D01*
X141486365Y-69980027D01*
X141601385Y-70152167D01*
X141680611Y-70343436D01*
X141721000Y-70546484D01*
X141721000Y-70753516D01*
X141680611Y-70956564D01*
X141601385Y-71147833D01*
X141601384Y-71147835D01*
X141486365Y-71319973D01*
X141339973Y-71466365D01*
X141167835Y-71581384D01*
X141167834Y-71581385D01*
X141167833Y-71581385D01*
X140976564Y-71660611D01*
X140773516Y-71701000D01*
X140566484Y-71701000D01*
X140363436Y-71660611D01*
X140172167Y-71581385D01*
X140172166Y-71581385D01*
X140172165Y-71581384D01*
X140000027Y-71466365D01*
X139853635Y-71319973D01*
X139738616Y-71147835D01*
X139738615Y-71147833D01*
X139659389Y-70956564D01*
X139619000Y-70753516D01*
X139619000Y-70546484D01*
X139659389Y-70343436D01*
X139738615Y-70152167D01*
X139853635Y-69980027D01*
X140000027Y-69833635D01*
X140172165Y-69718616D01*
X140172167Y-69718615D01*
X140363436Y-69639389D01*
X140566484Y-69599000D01*
X140773516Y-69599000D01*
X140976564Y-69639389D01*
G37*
G36*
X136476564Y-69639389D02*
G01*
X136667833Y-69718615D01*
X136667835Y-69718616D01*
X136839973Y-69833635D01*
X136986365Y-69980027D01*
X137101385Y-70152167D01*
X137180611Y-70343436D01*
X137221000Y-70546484D01*
X137221000Y-70753516D01*
X137180611Y-70956564D01*
X137101385Y-71147833D01*
X137101384Y-71147835D01*
X136986365Y-71319973D01*
X136839973Y-71466365D01*
X136667835Y-71581384D01*
X136667834Y-71581385D01*
X136667833Y-71581385D01*
X136476564Y-71660611D01*
X136273516Y-71701000D01*
X136066484Y-71701000D01*
X135863436Y-71660611D01*
X135672167Y-71581385D01*
X135672166Y-71581385D01*
X135672165Y-71581384D01*
X135500027Y-71466365D01*
X135353635Y-71319973D01*
X135238616Y-71147835D01*
X135238615Y-71147833D01*
X135159389Y-70956564D01*
X135119000Y-70753516D01*
X135119000Y-70546484D01*
X135159389Y-70343436D01*
X135238615Y-70152167D01*
X135353635Y-69980027D01*
X135500027Y-69833635D01*
X135672165Y-69718616D01*
X135672167Y-69718615D01*
X135863436Y-69639389D01*
X136066484Y-69599000D01*
X136273516Y-69599000D01*
X136476564Y-69639389D01*
G37*
G36*
X97096355Y-65752140D02*
G01*
X97160118Y-65758420D01*
X97250904Y-65785960D01*
X97282836Y-65795646D01*
X97395925Y-65856094D01*
X97495054Y-65937446D01*
X97576406Y-66036575D01*
X97636854Y-66149664D01*
X97636855Y-66149668D01*
X97674080Y-66272382D01*
X97686649Y-66400000D01*
X97674080Y-66527618D01*
X97646540Y-66618404D01*
X97636854Y-66650336D01*
X97576406Y-66763425D01*
X97495054Y-66862554D01*
X97395925Y-66943906D01*
X97282836Y-67004354D01*
X97250904Y-67014040D01*
X97160118Y-67041580D01*
X97096355Y-67047860D01*
X97064474Y-67051000D01*
X96300526Y-67051000D01*
X96268645Y-67047860D01*
X96204882Y-67041580D01*
X96114096Y-67014040D01*
X96082164Y-67004354D01*
X95969075Y-66943906D01*
X95869946Y-66862554D01*
X95788594Y-66763425D01*
X95728146Y-66650336D01*
X95718460Y-66618404D01*
X95690920Y-66527618D01*
X95678351Y-66400000D01*
X95690920Y-66272382D01*
X95728145Y-66149668D01*
X95728146Y-66149664D01*
X95788594Y-66036575D01*
X95869946Y-65937446D01*
X95969075Y-65856094D01*
X96082164Y-65795646D01*
X96114096Y-65785960D01*
X96204882Y-65758420D01*
X96268645Y-65752140D01*
X96300526Y-65749000D01*
X97064474Y-65749000D01*
X97096355Y-65752140D01*
G37*
G36*
X99608848Y-64653820D02*
G01*
X99608850Y-64653821D01*
X99608851Y-64653821D01*
X99750074Y-64712317D01*
X99750077Y-64712319D01*
X99877169Y-64797239D01*
X99985261Y-64905331D01*
X100070181Y-65032423D01*
X100070183Y-65032426D01*
X100128679Y-65173649D01*
X100128680Y-65173652D01*
X100158500Y-65323569D01*
X100158500Y-65476429D01*
X100128679Y-65626351D01*
X100070183Y-65767574D01*
X100070181Y-65767577D01*
X99985261Y-65894669D01*
X99877169Y-66002761D01*
X99750077Y-66087681D01*
X99750074Y-66087683D01*
X99608851Y-66146179D01*
X99608850Y-66146179D01*
X99608848Y-66146180D01*
X99458931Y-66176000D01*
X99306069Y-66176000D01*
X99156152Y-66146180D01*
X99156150Y-66146179D01*
X99156149Y-66146179D01*
X99014926Y-66087683D01*
X99014923Y-66087681D01*
X98887831Y-66002761D01*
X98779739Y-65894669D01*
X98694819Y-65767577D01*
X98694817Y-65767574D01*
X98636321Y-65626351D01*
X98606500Y-65476429D01*
X98606500Y-65323569D01*
X98636320Y-65173652D01*
X98636321Y-65173649D01*
X98694817Y-65032426D01*
X98694819Y-65032423D01*
X98779739Y-64905331D01*
X98887831Y-64797239D01*
X99014923Y-64712319D01*
X99014926Y-64712317D01*
X99156149Y-64653821D01*
X99156150Y-64653821D01*
X99156152Y-64653820D01*
X99306069Y-64624000D01*
X99458931Y-64624000D01*
X99608848Y-64653820D01*
G37*
G36*
X160976564Y-63139389D02*
G01*
X161167833Y-63218615D01*
X161167835Y-63218616D01*
X161339973Y-63333635D01*
X161486365Y-63480027D01*
X161601385Y-63652167D01*
X161680611Y-63843436D01*
X161721000Y-64046484D01*
X161721000Y-64253516D01*
X161680611Y-64456564D01*
X161611257Y-64624000D01*
X161601384Y-64647835D01*
X161486365Y-64819973D01*
X161339973Y-64966365D01*
X161167835Y-65081384D01*
X161167834Y-65081385D01*
X161167833Y-65081385D01*
X160976564Y-65160611D01*
X160773516Y-65201000D01*
X160566484Y-65201000D01*
X160363436Y-65160611D01*
X160172167Y-65081385D01*
X160172166Y-65081385D01*
X160172165Y-65081384D01*
X160000027Y-64966365D01*
X159853635Y-64819973D01*
X159738616Y-64647835D01*
X159728743Y-64624000D01*
X159659389Y-64456564D01*
X159619000Y-64253516D01*
X159619000Y-64046484D01*
X159659389Y-63843436D01*
X159738615Y-63652167D01*
X159853635Y-63480027D01*
X160000027Y-63333635D01*
X160172165Y-63218616D01*
X160172167Y-63218615D01*
X160363436Y-63139389D01*
X160566484Y-63099000D01*
X160773516Y-63099000D01*
X160976564Y-63139389D01*
G37*
G36*
X156476564Y-63139389D02*
G01*
X156667833Y-63218615D01*
X156667835Y-63218616D01*
X156839973Y-63333635D01*
X156986365Y-63480027D01*
X157101385Y-63652167D01*
X157180611Y-63843436D01*
X157221000Y-64046484D01*
X157221000Y-64253516D01*
X157180611Y-64456564D01*
X157111257Y-64624000D01*
X157101384Y-64647835D01*
X156986365Y-64819973D01*
X156839973Y-64966365D01*
X156667835Y-65081384D01*
X156667834Y-65081385D01*
X156667833Y-65081385D01*
X156476564Y-65160611D01*
X156273516Y-65201000D01*
X156066484Y-65201000D01*
X155863436Y-65160611D01*
X155672167Y-65081385D01*
X155672166Y-65081385D01*
X155672165Y-65081384D01*
X155500027Y-64966365D01*
X155353635Y-64819973D01*
X155238616Y-64647835D01*
X155228743Y-64624000D01*
X155159389Y-64456564D01*
X155119000Y-64253516D01*
X155119000Y-64046484D01*
X155159389Y-63843436D01*
X155238615Y-63652167D01*
X155353635Y-63480027D01*
X155500027Y-63333635D01*
X155672165Y-63218616D01*
X155672167Y-63218615D01*
X155863436Y-63139389D01*
X156066484Y-63099000D01*
X156273516Y-63099000D01*
X156476564Y-63139389D01*
G37*
G36*
X140976564Y-63139389D02*
G01*
X141167833Y-63218615D01*
X141167835Y-63218616D01*
X141339973Y-63333635D01*
X141486365Y-63480027D01*
X141601385Y-63652167D01*
X141680611Y-63843436D01*
X141721000Y-64046484D01*
X141721000Y-64253516D01*
X141680611Y-64456564D01*
X141611257Y-64624000D01*
X141601384Y-64647835D01*
X141486365Y-64819973D01*
X141339973Y-64966365D01*
X141167835Y-65081384D01*
X141167834Y-65081385D01*
X141167833Y-65081385D01*
X140976564Y-65160611D01*
X140773516Y-65201000D01*
X140566484Y-65201000D01*
X140363436Y-65160611D01*
X140172167Y-65081385D01*
X140172166Y-65081385D01*
X140172165Y-65081384D01*
X140000027Y-64966365D01*
X139853635Y-64819973D01*
X139738616Y-64647835D01*
X139728743Y-64624000D01*
X139659389Y-64456564D01*
X139619000Y-64253516D01*
X139619000Y-64046484D01*
X139659389Y-63843436D01*
X139738615Y-63652167D01*
X139853635Y-63480027D01*
X140000027Y-63333635D01*
X140172165Y-63218616D01*
X140172167Y-63218615D01*
X140363436Y-63139389D01*
X140566484Y-63099000D01*
X140773516Y-63099000D01*
X140976564Y-63139389D01*
G37*
G36*
X136476564Y-63139389D02*
G01*
X136667833Y-63218615D01*
X136667835Y-63218616D01*
X136839973Y-63333635D01*
X136986365Y-63480027D01*
X137101385Y-63652167D01*
X137180611Y-63843436D01*
X137221000Y-64046484D01*
X137221000Y-64253516D01*
X137180611Y-64456564D01*
X137111257Y-64624000D01*
X137101384Y-64647835D01*
X136986365Y-64819973D01*
X136839973Y-64966365D01*
X136667835Y-65081384D01*
X136667834Y-65081385D01*
X136667833Y-65081385D01*
X136476564Y-65160611D01*
X136273516Y-65201000D01*
X136066484Y-65201000D01*
X135863436Y-65160611D01*
X135672167Y-65081385D01*
X135672166Y-65081385D01*
X135672165Y-65081384D01*
X135500027Y-64966365D01*
X135353635Y-64819973D01*
X135238616Y-64647835D01*
X135228743Y-64624000D01*
X135159389Y-64456564D01*
X135119000Y-64253516D01*
X135119000Y-64046484D01*
X135159389Y-63843436D01*
X135238615Y-63652167D01*
X135353635Y-63480027D01*
X135500027Y-63333635D01*
X135672165Y-63218616D01*
X135672167Y-63218615D01*
X135863436Y-63139389D01*
X136066484Y-63099000D01*
X136273516Y-63099000D01*
X136476564Y-63139389D01*
G37*
G36*
X99608848Y-59653820D02*
G01*
X99608850Y-59653821D01*
X99608851Y-59653821D01*
X99750074Y-59712317D01*
X99750077Y-59712319D01*
X99877169Y-59797239D01*
X99985261Y-59905331D01*
X100070181Y-60032423D01*
X100070183Y-60032426D01*
X100128679Y-60173649D01*
X100128680Y-60173652D01*
X100158500Y-60323569D01*
X100158500Y-60476431D01*
X100137624Y-60581385D01*
X100128679Y-60626351D01*
X100070183Y-60767574D01*
X100070181Y-60767577D01*
X99985261Y-60894669D01*
X99877169Y-61002761D01*
X99750077Y-61087681D01*
X99750074Y-61087683D01*
X99608851Y-61146179D01*
X99608850Y-61146179D01*
X99608848Y-61146180D01*
X99458931Y-61176000D01*
X99306069Y-61176000D01*
X99156152Y-61146180D01*
X99156150Y-61146179D01*
X99156149Y-61146179D01*
X99014926Y-61087683D01*
X99014923Y-61087681D01*
X98887831Y-61002761D01*
X98779739Y-60894669D01*
X98694819Y-60767577D01*
X98694817Y-60767574D01*
X98636321Y-60626351D01*
X98627377Y-60581385D01*
X98606500Y-60476431D01*
X98606500Y-60323569D01*
X98636320Y-60173652D01*
X98636321Y-60173649D01*
X98694817Y-60032426D01*
X98694819Y-60032423D01*
X98779739Y-59905331D01*
X98887831Y-59797239D01*
X99014923Y-59712319D01*
X99014926Y-59712317D01*
X99156149Y-59653821D01*
X99156150Y-59653821D01*
X99156152Y-59653820D01*
X99306069Y-59624000D01*
X99458931Y-59624000D01*
X99608848Y-59653820D01*
G37*
G36*
X145476564Y-58639389D02*
G01*
X145667833Y-58718615D01*
X145667835Y-58718616D01*
X145839973Y-58833635D01*
X145986365Y-58980027D01*
X146099716Y-59149668D01*
X146101385Y-59152167D01*
X146180611Y-59343436D01*
X146221000Y-59546484D01*
X146221000Y-59753516D01*
X146180611Y-59956564D01*
X146160815Y-60004355D01*
X146101384Y-60147835D01*
X145986365Y-60319973D01*
X145839973Y-60466365D01*
X145667835Y-60581384D01*
X145667834Y-60581385D01*
X145667833Y-60581385D01*
X145476564Y-60660611D01*
X145273516Y-60701000D01*
X145066484Y-60701000D01*
X144863436Y-60660611D01*
X144672167Y-60581385D01*
X144672166Y-60581385D01*
X144672165Y-60581384D01*
X144500027Y-60466365D01*
X144353635Y-60319973D01*
X144238616Y-60147835D01*
X144179185Y-60004355D01*
X144159389Y-59956564D01*
X144119000Y-59753516D01*
X144119000Y-59546484D01*
X144159389Y-59343436D01*
X144238615Y-59152167D01*
X144240285Y-59149668D01*
X144353635Y-58980027D01*
X144500027Y-58833635D01*
X144672165Y-58718616D01*
X144672167Y-58718615D01*
X144863436Y-58639389D01*
X145066484Y-58599000D01*
X145273516Y-58599000D01*
X145476564Y-58639389D01*
G37*
G36*
X151976564Y-58639389D02*
G01*
X152167833Y-58718615D01*
X152167835Y-58718616D01*
X152339973Y-58833635D01*
X152486365Y-58980027D01*
X152599716Y-59149668D01*
X152601385Y-59152167D01*
X152680611Y-59343436D01*
X152721000Y-59546484D01*
X152721000Y-59753516D01*
X152680611Y-59956564D01*
X152660815Y-60004355D01*
X152601384Y-60147835D01*
X152486365Y-60319973D01*
X152339973Y-60466365D01*
X152167835Y-60581384D01*
X152167834Y-60581385D01*
X152167833Y-60581385D01*
X151976564Y-60660611D01*
X151773516Y-60701000D01*
X151566484Y-60701000D01*
X151363436Y-60660611D01*
X151172167Y-60581385D01*
X151172166Y-60581385D01*
X151172165Y-60581384D01*
X151000027Y-60466365D01*
X150853635Y-60319973D01*
X150738616Y-60147835D01*
X150679185Y-60004355D01*
X150659389Y-59956564D01*
X150619000Y-59753516D01*
X150619000Y-59546484D01*
X150659389Y-59343436D01*
X150738615Y-59152167D01*
X150740285Y-59149668D01*
X150853635Y-58980027D01*
X151000027Y-58833635D01*
X151172165Y-58718616D01*
X151172167Y-58718615D01*
X151363436Y-58639389D01*
X151566484Y-58599000D01*
X151773516Y-58599000D01*
X151976564Y-58639389D01*
G37*
G36*
X97096355Y-58752140D02*
G01*
X97160118Y-58758420D01*
X97250904Y-58785960D01*
X97282836Y-58795646D01*
X97395925Y-58856094D01*
X97495054Y-58937446D01*
X97576406Y-59036575D01*
X97636854Y-59149664D01*
X97637613Y-59152167D01*
X97674080Y-59272382D01*
X97686649Y-59400000D01*
X97674080Y-59527618D01*
X97668357Y-59546484D01*
X97636854Y-59650336D01*
X97576406Y-59763425D01*
X97495054Y-59862554D01*
X97395925Y-59943906D01*
X97282836Y-60004354D01*
X97250904Y-60014040D01*
X97160118Y-60041580D01*
X97096355Y-60047860D01*
X97064474Y-60051000D01*
X96300526Y-60051000D01*
X96268645Y-60047860D01*
X96204882Y-60041580D01*
X96114096Y-60014040D01*
X96082164Y-60004354D01*
X95969075Y-59943906D01*
X95869946Y-59862554D01*
X95788594Y-59763425D01*
X95728146Y-59650336D01*
X95696643Y-59546484D01*
X95690920Y-59527618D01*
X95678351Y-59400000D01*
X95690920Y-59272382D01*
X95727387Y-59152167D01*
X95728146Y-59149664D01*
X95788594Y-59036575D01*
X95869946Y-58937446D01*
X95969075Y-58856094D01*
X96082164Y-58795646D01*
X96114096Y-58785960D01*
X96204882Y-58758420D01*
X96268645Y-58752140D01*
X96300526Y-58749000D01*
X97064474Y-58749000D01*
X97096355Y-58752140D01*
G37*
G36*
X126551000Y-56266000D02*
G01*
X124749000Y-56266000D01*
X124749000Y-54464000D01*
X126551000Y-54464000D01*
X126551000Y-56266000D01*
G37*
G36*
X123223512Y-54468927D02*
G01*
X123372812Y-54498624D01*
X123536784Y-54566544D01*
X123684354Y-54665147D01*
X123809853Y-54790646D01*
X123908456Y-54938216D01*
X123976376Y-55102188D01*
X124003301Y-55237553D01*
X124011000Y-55276258D01*
X124011000Y-55453742D01*
X124010438Y-55456565D01*
X123976376Y-55627812D01*
X123908456Y-55791784D01*
X123809853Y-55939354D01*
X123684354Y-56064853D01*
X123536784Y-56163456D01*
X123372812Y-56231376D01*
X123223512Y-56261073D01*
X123198742Y-56266000D01*
X123021258Y-56266000D01*
X122996488Y-56261073D01*
X122847188Y-56231376D01*
X122683216Y-56163456D01*
X122535646Y-56064853D01*
X122410147Y-55939354D01*
X122311544Y-55791784D01*
X122243624Y-55627812D01*
X122209562Y-55456565D01*
X122209000Y-55453742D01*
X122209000Y-55276258D01*
X122216699Y-55237553D01*
X122243624Y-55102188D01*
X122311544Y-54938216D01*
X122410147Y-54790646D01*
X122535646Y-54665147D01*
X122683216Y-54566544D01*
X122847188Y-54498624D01*
X122996488Y-54468927D01*
X123021258Y-54464000D01*
X123198742Y-54464000D01*
X123223512Y-54468927D01*
G37*
G36*
X145476564Y-54139389D02*
G01*
X145667833Y-54218615D01*
X145667835Y-54218616D01*
X145839973Y-54333635D01*
X145986365Y-54480027D01*
X146101385Y-54652167D01*
X146180611Y-54843436D01*
X146221000Y-55046484D01*
X146221000Y-55253516D01*
X146180611Y-55456564D01*
X146109678Y-55627811D01*
X146101384Y-55647835D01*
X145986365Y-55819973D01*
X145839973Y-55966365D01*
X145667835Y-56081384D01*
X145667834Y-56081385D01*
X145667833Y-56081385D01*
X145476564Y-56160611D01*
X145273516Y-56201000D01*
X145066484Y-56201000D01*
X144863436Y-56160611D01*
X144672167Y-56081385D01*
X144672166Y-56081385D01*
X144672165Y-56081384D01*
X144500027Y-55966365D01*
X144353635Y-55819973D01*
X144238616Y-55647835D01*
X144230322Y-55627811D01*
X144159389Y-55456564D01*
X144119000Y-55253516D01*
X144119000Y-55046484D01*
X144159389Y-54843436D01*
X144238615Y-54652167D01*
X144353635Y-54480027D01*
X144500027Y-54333635D01*
X144672165Y-54218616D01*
X144672167Y-54218615D01*
X144863436Y-54139389D01*
X145066484Y-54099000D01*
X145273516Y-54099000D01*
X145476564Y-54139389D01*
G37*
G36*
X151976564Y-54139389D02*
G01*
X152167833Y-54218615D01*
X152167835Y-54218616D01*
X152339973Y-54333635D01*
X152486365Y-54480027D01*
X152601385Y-54652167D01*
X152680611Y-54843436D01*
X152721000Y-55046484D01*
X152721000Y-55253516D01*
X152680611Y-55456564D01*
X152609678Y-55627811D01*
X152601384Y-55647835D01*
X152486365Y-55819973D01*
X152339973Y-55966365D01*
X152167835Y-56081384D01*
X152167834Y-56081385D01*
X152167833Y-56081385D01*
X151976564Y-56160611D01*
X151773516Y-56201000D01*
X151566484Y-56201000D01*
X151363436Y-56160611D01*
X151172167Y-56081385D01*
X151172166Y-56081385D01*
X151172165Y-56081384D01*
X151000027Y-55966365D01*
X150853635Y-55819973D01*
X150738616Y-55647835D01*
X150730322Y-55627811D01*
X150659389Y-55456564D01*
X150619000Y-55253516D01*
X150619000Y-55046484D01*
X150659389Y-54843436D01*
X150738615Y-54652167D01*
X150853635Y-54480027D01*
X151000027Y-54333635D01*
X151172165Y-54218616D01*
X151172167Y-54218615D01*
X151363436Y-54139389D01*
X151566484Y-54099000D01*
X151773516Y-54099000D01*
X151976564Y-54139389D01*
G37*
G36*
X161523648Y-52037000D02*
G01*
X161651579Y-52062447D01*
X161952042Y-52186903D01*
X162222451Y-52367585D01*
X162452415Y-52597549D01*
X162633097Y-52867958D01*
X162723887Y-53087143D01*
X162757553Y-53168422D01*
X162819829Y-53481501D01*
X162821000Y-53487391D01*
X162821000Y-53812609D01*
X162757553Y-54131579D01*
X162633097Y-54432042D01*
X162452415Y-54702451D01*
X162222451Y-54932415D01*
X161952042Y-55113097D01*
X161651579Y-55237553D01*
X161571327Y-55253516D01*
X161332611Y-55301000D01*
X161007389Y-55301000D01*
X160768673Y-55253516D01*
X160688421Y-55237553D01*
X160387958Y-55113097D01*
X160117549Y-54932415D01*
X159887585Y-54702451D01*
X159706903Y-54432042D01*
X159582447Y-54131579D01*
X159519000Y-53812609D01*
X159519000Y-53487391D01*
X159520172Y-53481501D01*
X159582447Y-53168422D01*
X159616114Y-53087143D01*
X159706903Y-52867958D01*
X159887585Y-52597549D01*
X160117549Y-52367585D01*
X160387958Y-52186903D01*
X160688421Y-52062447D01*
X160816352Y-52037000D01*
X161007389Y-51999000D01*
X161332611Y-51999000D01*
X161523648Y-52037000D01*
G37*
G36*
X99523648Y-52037000D02*
G01*
X99651579Y-52062447D01*
X99952042Y-52186903D01*
X100222451Y-52367585D01*
X100452415Y-52597549D01*
X100633097Y-52867958D01*
X100723887Y-53087143D01*
X100757553Y-53168422D01*
X100819829Y-53481501D01*
X100821000Y-53487391D01*
X100821000Y-53812609D01*
X100757553Y-54131579D01*
X100633097Y-54432042D01*
X100452415Y-54702451D01*
X100222451Y-54932415D01*
X99952042Y-55113097D01*
X99651579Y-55237553D01*
X99571327Y-55253516D01*
X99332611Y-55301000D01*
X99007389Y-55301000D01*
X98768673Y-55253516D01*
X98688421Y-55237553D01*
X98387958Y-55113097D01*
X98117549Y-54932415D01*
X97887585Y-54702451D01*
X97706903Y-54432042D01*
X97582447Y-54131579D01*
X97519000Y-53812609D01*
X97519000Y-53487391D01*
X97520172Y-53481501D01*
X97582447Y-53168422D01*
X97616114Y-53087143D01*
X97706903Y-52867958D01*
X97887585Y-52597549D01*
X98117549Y-52367585D01*
X98387958Y-52186903D01*
X98688421Y-52062447D01*
X98816352Y-52037000D01*
X99007389Y-51999000D01*
X99332611Y-51999000D01*
X99523648Y-52037000D01*
G37*
G36*
X117517142Y-52068242D02*
G01*
X117665101Y-52129529D01*
X117798255Y-52218499D01*
X117911501Y-52331745D01*
X118000471Y-52464899D01*
X118061758Y-52612858D01*
X118093000Y-52769925D01*
X118093000Y-52930075D01*
X118061758Y-53087142D01*
X118000471Y-53235101D01*
X117911501Y-53368255D01*
X117798255Y-53481501D01*
X117665101Y-53570471D01*
X117517142Y-53631758D01*
X117360075Y-53663000D01*
X117199925Y-53663000D01*
X117042858Y-53631758D01*
X116894899Y-53570471D01*
X116761745Y-53481501D01*
X116648499Y-53368255D01*
X116559529Y-53235101D01*
X116498242Y-53087142D01*
X116467000Y-52930075D01*
X116467000Y-52769925D01*
X116498242Y-52612858D01*
X116559529Y-52464899D01*
X116648499Y-52331745D01*
X116761745Y-52218499D01*
X116894899Y-52129529D01*
X117042858Y-52068242D01*
X117199925Y-52037000D01*
X117360075Y-52037000D01*
X117517142Y-52068242D01*
G37*
G36*
X114977142Y-52068242D02*
G01*
X115125101Y-52129529D01*
X115258255Y-52218499D01*
X115371501Y-52331745D01*
X115460471Y-52464899D01*
X115521758Y-52612858D01*
X115553000Y-52769925D01*
X115553000Y-52930075D01*
X115521758Y-53087142D01*
X115460471Y-53235101D01*
X115371501Y-53368255D01*
X115258255Y-53481501D01*
X115125101Y-53570471D01*
X114977142Y-53631758D01*
X114820075Y-53663000D01*
X114659925Y-53663000D01*
X114502858Y-53631758D01*
X114354899Y-53570471D01*
X114221745Y-53481501D01*
X114108499Y-53368255D01*
X114019529Y-53235101D01*
X113958242Y-53087142D01*
X113927000Y-52930075D01*
X113927000Y-52769925D01*
X113958242Y-52612858D01*
X114019529Y-52464899D01*
X114108499Y-52331745D01*
X114221745Y-52218499D01*
X114354899Y-52129529D01*
X114502858Y-52068242D01*
X114659925Y-52037000D01*
X114820075Y-52037000D01*
X114977142Y-52068242D01*
G37*
G36*
X112437142Y-52068242D02*
G01*
X112585101Y-52129529D01*
X112718255Y-52218499D01*
X112831501Y-52331745D01*
X112920471Y-52464899D01*
X112981758Y-52612858D01*
X113013000Y-52769925D01*
X113013000Y-52930075D01*
X112981758Y-53087142D01*
X112920471Y-53235101D01*
X112831501Y-53368255D01*
X112718255Y-53481501D01*
X112585101Y-53570471D01*
X112437142Y-53631758D01*
X112280075Y-53663000D01*
X112119925Y-53663000D01*
X111962858Y-53631758D01*
X111814899Y-53570471D01*
X111681745Y-53481501D01*
X111568499Y-53368255D01*
X111479529Y-53235101D01*
X111418242Y-53087142D01*
X111387000Y-52930075D01*
X111387000Y-52769925D01*
X111418242Y-52612858D01*
X111479529Y-52464899D01*
X111568499Y-52331745D01*
X111681745Y-52218499D01*
X111814899Y-52129529D01*
X111962858Y-52068242D01*
X112119925Y-52037000D01*
X112280075Y-52037000D01*
X112437142Y-52068242D01*
G37*
G36*
X109897142Y-52068242D02*
G01*
X110045101Y-52129529D01*
X110178255Y-52218499D01*
X110291501Y-52331745D01*
X110380471Y-52464899D01*
X110441758Y-52612858D01*
X110473000Y-52769925D01*
X110473000Y-52930075D01*
X110441758Y-53087142D01*
X110380471Y-53235101D01*
X110291501Y-53368255D01*
X110178255Y-53481501D01*
X110045101Y-53570471D01*
X109897142Y-53631758D01*
X109740075Y-53663000D01*
X109579925Y-53663000D01*
X109422858Y-53631758D01*
X109274899Y-53570471D01*
X109141745Y-53481501D01*
X109028499Y-53368255D01*
X108939529Y-53235101D01*
X108878242Y-53087142D01*
X108847000Y-52930075D01*
X108847000Y-52769925D01*
X108878242Y-52612858D01*
X108939529Y-52464899D01*
X109028499Y-52331745D01*
X109141745Y-52218499D01*
X109274899Y-52129529D01*
X109422858Y-52068242D01*
X109579925Y-52037000D01*
X109740075Y-52037000D01*
X109897142Y-52068242D01*
G37*
M02*
