G04 #@! TF.GenerationSoftware,KiCad,Pcbnew,(5.1.5)-3*
G04 #@! TF.CreationDate,2020-01-16T23:09:46-05:00*
G04 #@! TF.ProjectId,V-Naught_Display,562d4e61-7567-4687-945f-446973706c61,rev?*
G04 #@! TF.SameCoordinates,Original*
G04 #@! TF.FileFunction,Copper,L1,Top*
G04 #@! TF.FilePolarity,Positive*
%FSLAX46Y46*%
G04 Gerber Fmt 4.6, Leading zero omitted, Abs format (unit mm)*
G04 Created by KiCad (PCBNEW (5.1.5)-3) date 2020-01-16 23:09:46*
%MOMM*%
%LPD*%
G04 APERTURE LIST*
%ADD10C,1.524000*%
%ADD11C,2.000000*%
%ADD12O,1.700000X1.700000*%
%ADD13R,1.700000X1.700000*%
%ADD14O,1.900000X1.200000*%
%ADD15C,1.450000*%
%ADD16C,0.800000*%
%ADD17C,0.250000*%
%ADD18C,0.254000*%
G04 APERTURE END LIST*
D10*
X117280000Y-52850000D03*
X114740000Y-52850000D03*
X112200000Y-52850000D03*
X109660000Y-52850000D03*
D11*
X122475000Y-73145000D03*
X122475000Y-77645000D03*
X128975000Y-73145000D03*
X128975000Y-77645000D03*
D12*
X123110000Y-55365000D03*
D13*
X125650000Y-55365000D03*
D12*
X118030000Y-75050000D03*
X115490000Y-75050000D03*
D13*
X112950000Y-75050000D03*
D11*
X145170000Y-79650000D03*
X145170000Y-75150000D03*
X151670000Y-79650000D03*
X151670000Y-75150000D03*
X145170000Y-59650000D03*
X145170000Y-55150000D03*
X151670000Y-59650000D03*
X151670000Y-55150000D03*
X160670000Y-70650000D03*
X156170000Y-70650000D03*
X160670000Y-64150000D03*
X156170000Y-64150000D03*
X140670000Y-70650000D03*
X136170000Y-70650000D03*
X140670000Y-64150000D03*
X136170000Y-64150000D03*
D14*
X96682500Y-59400000D03*
X96682500Y-66400000D03*
D15*
X99382500Y-60400000D03*
X99382500Y-65400000D03*
D16*
X107882000Y-71138000D03*
X107882000Y-69614000D03*
X118670000Y-61400000D03*
X116760000Y-82035000D03*
X105330000Y-62350000D03*
X119160000Y-63850000D03*
X119160000Y-66850003D03*
X119160000Y-65850000D03*
X119160000Y-64850000D03*
X114855000Y-65525000D03*
X113585000Y-65525000D03*
X112315000Y-65525000D03*
D17*
X151670000Y-59650000D02*
X145170000Y-59650000D01*
X136370000Y-59650000D02*
X145170000Y-59650000D01*
X132170000Y-63850000D02*
X136370000Y-59650000D01*
X119160000Y-63850000D02*
X132170000Y-63850000D01*
X127459997Y-75150000D02*
X151670000Y-75150000D01*
X119160000Y-66850003D02*
X127459997Y-75150000D01*
X140670000Y-69235787D02*
X138834213Y-67400000D01*
X140670000Y-70650000D02*
X140670000Y-69235787D01*
X140670000Y-65564213D02*
X138834213Y-67400000D01*
X140670000Y-64150000D02*
X140670000Y-65564213D01*
X138670000Y-67400000D02*
X138834213Y-67400000D01*
X123170000Y-67400000D02*
X138670000Y-67400000D01*
X119160000Y-65850000D02*
X121620000Y-65850000D01*
X121620000Y-65850000D02*
X123170000Y-67400000D01*
X156170000Y-69235787D02*
X156170000Y-64150000D01*
X156170000Y-70650000D02*
X156170000Y-69235787D01*
X154755787Y-64150000D02*
X152505787Y-61900000D01*
X156170000Y-64150000D02*
X154755787Y-64150000D01*
X152505787Y-61900000D02*
X135170000Y-61900000D01*
X132220000Y-64850000D02*
X135170000Y-61900000D01*
X119160000Y-64850000D02*
X132220000Y-64850000D01*
X114855000Y-71875000D02*
X118030000Y-75050000D01*
X114855000Y-65525000D02*
X114855000Y-71875000D01*
X113585000Y-73145000D02*
X115490000Y-75050000D01*
X113585000Y-65525000D02*
X113585000Y-73145000D01*
X112315000Y-74415000D02*
X112950000Y-75050000D01*
X112315000Y-65525000D02*
X112315000Y-74415000D01*
D18*
G36*
X164510001Y-83990000D02*
G01*
X95830000Y-83990000D01*
X95830000Y-80429872D01*
X96935000Y-80429872D01*
X96935000Y-80870128D01*
X97020890Y-81301925D01*
X97189369Y-81708669D01*
X97433962Y-82074729D01*
X97745271Y-82386038D01*
X98111331Y-82630631D01*
X98518075Y-82799110D01*
X98949872Y-82885000D01*
X99390128Y-82885000D01*
X99821925Y-82799110D01*
X100228669Y-82630631D01*
X100594729Y-82386038D01*
X100906038Y-82074729D01*
X101150631Y-81708669D01*
X101319110Y-81301925D01*
X101405000Y-80870128D01*
X101405000Y-80429872D01*
X101319110Y-79998075D01*
X101150631Y-79591331D01*
X101082234Y-79488967D01*
X143535000Y-79488967D01*
X143535000Y-79811033D01*
X143597832Y-80126912D01*
X143721082Y-80424463D01*
X143900013Y-80692252D01*
X144127748Y-80919987D01*
X144395537Y-81098918D01*
X144693088Y-81222168D01*
X145008967Y-81285000D01*
X145331033Y-81285000D01*
X145646912Y-81222168D01*
X145944463Y-81098918D01*
X146212252Y-80919987D01*
X146439987Y-80692252D01*
X146618918Y-80424463D01*
X146742168Y-80126912D01*
X146805000Y-79811033D01*
X146805000Y-79488967D01*
X150035000Y-79488967D01*
X150035000Y-79811033D01*
X150097832Y-80126912D01*
X150221082Y-80424463D01*
X150400013Y-80692252D01*
X150627748Y-80919987D01*
X150895537Y-81098918D01*
X151193088Y-81222168D01*
X151508967Y-81285000D01*
X151831033Y-81285000D01*
X152146912Y-81222168D01*
X152444463Y-81098918D01*
X152712252Y-80919987D01*
X152939987Y-80692252D01*
X153115303Y-80429872D01*
X158935000Y-80429872D01*
X158935000Y-80870128D01*
X159020890Y-81301925D01*
X159189369Y-81708669D01*
X159433962Y-82074729D01*
X159745271Y-82386038D01*
X160111331Y-82630631D01*
X160518075Y-82799110D01*
X160949872Y-82885000D01*
X161390128Y-82885000D01*
X161821925Y-82799110D01*
X162228669Y-82630631D01*
X162594729Y-82386038D01*
X162906038Y-82074729D01*
X163150631Y-81708669D01*
X163319110Y-81301925D01*
X163405000Y-80870128D01*
X163405000Y-80429872D01*
X163319110Y-79998075D01*
X163150631Y-79591331D01*
X162906038Y-79225271D01*
X162594729Y-78913962D01*
X162228669Y-78669369D01*
X161821925Y-78500890D01*
X161390128Y-78415000D01*
X160949872Y-78415000D01*
X160518075Y-78500890D01*
X160111331Y-78669369D01*
X159745271Y-78913962D01*
X159433962Y-79225271D01*
X159189369Y-79591331D01*
X159020890Y-79998075D01*
X158935000Y-80429872D01*
X153115303Y-80429872D01*
X153118918Y-80424463D01*
X153242168Y-80126912D01*
X153305000Y-79811033D01*
X153305000Y-79488967D01*
X153242168Y-79173088D01*
X153118918Y-78875537D01*
X152939987Y-78607748D01*
X152712252Y-78380013D01*
X152444463Y-78201082D01*
X152146912Y-78077832D01*
X151831033Y-78015000D01*
X151508967Y-78015000D01*
X151193088Y-78077832D01*
X150895537Y-78201082D01*
X150627748Y-78380013D01*
X150400013Y-78607748D01*
X150221082Y-78875537D01*
X150097832Y-79173088D01*
X150035000Y-79488967D01*
X146805000Y-79488967D01*
X146742168Y-79173088D01*
X146618918Y-78875537D01*
X146439987Y-78607748D01*
X146212252Y-78380013D01*
X145944463Y-78201082D01*
X145646912Y-78077832D01*
X145331033Y-78015000D01*
X145008967Y-78015000D01*
X144693088Y-78077832D01*
X144395537Y-78201082D01*
X144127748Y-78380013D01*
X143900013Y-78607748D01*
X143721082Y-78875537D01*
X143597832Y-79173088D01*
X143535000Y-79488967D01*
X101082234Y-79488967D01*
X100906038Y-79225271D01*
X100594729Y-78913962D01*
X100228669Y-78669369D01*
X99821925Y-78500890D01*
X99390128Y-78415000D01*
X98949872Y-78415000D01*
X98518075Y-78500890D01*
X98111331Y-78669369D01*
X97745271Y-78913962D01*
X97433962Y-79225271D01*
X97189369Y-79591331D01*
X97020890Y-79998075D01*
X96935000Y-80429872D01*
X95830000Y-80429872D01*
X95830000Y-77483967D01*
X120840000Y-77483967D01*
X120840000Y-77806033D01*
X120902832Y-78121912D01*
X121026082Y-78419463D01*
X121205013Y-78687252D01*
X121432748Y-78914987D01*
X121700537Y-79093918D01*
X121998088Y-79217168D01*
X122313967Y-79280000D01*
X122636033Y-79280000D01*
X122951912Y-79217168D01*
X123249463Y-79093918D01*
X123517252Y-78914987D01*
X123744987Y-78687252D01*
X123923918Y-78419463D01*
X124047168Y-78121912D01*
X124110000Y-77806033D01*
X124110000Y-77483967D01*
X127340000Y-77483967D01*
X127340000Y-77806033D01*
X127402832Y-78121912D01*
X127526082Y-78419463D01*
X127705013Y-78687252D01*
X127932748Y-78914987D01*
X128200537Y-79093918D01*
X128498088Y-79217168D01*
X128813967Y-79280000D01*
X129136033Y-79280000D01*
X129451912Y-79217168D01*
X129749463Y-79093918D01*
X130017252Y-78914987D01*
X130244987Y-78687252D01*
X130423918Y-78419463D01*
X130547168Y-78121912D01*
X130610000Y-77806033D01*
X130610000Y-77483967D01*
X130547168Y-77168088D01*
X130423918Y-76870537D01*
X130244987Y-76602748D01*
X130017252Y-76375013D01*
X129749463Y-76196082D01*
X129451912Y-76072832D01*
X129136033Y-76010000D01*
X128813967Y-76010000D01*
X128498088Y-76072832D01*
X128200537Y-76196082D01*
X127932748Y-76375013D01*
X127705013Y-76602748D01*
X127526082Y-76870537D01*
X127402832Y-77168088D01*
X127340000Y-77483967D01*
X124110000Y-77483967D01*
X124047168Y-77168088D01*
X123923918Y-76870537D01*
X123744987Y-76602748D01*
X123517252Y-76375013D01*
X123249463Y-76196082D01*
X122951912Y-76072832D01*
X122636033Y-76010000D01*
X122313967Y-76010000D01*
X121998088Y-76072832D01*
X121700537Y-76196082D01*
X121432748Y-76375013D01*
X121205013Y-76602748D01*
X121026082Y-76870537D01*
X120902832Y-77168088D01*
X120840000Y-77483967D01*
X95830000Y-77483967D01*
X95830000Y-67531759D01*
X95857599Y-67546511D01*
X96090398Y-67617130D01*
X96271835Y-67635000D01*
X97093165Y-67635000D01*
X97274602Y-67617130D01*
X97507401Y-67546511D01*
X97721949Y-67431833D01*
X97910002Y-67277502D01*
X98064333Y-67089449D01*
X98179011Y-66874901D01*
X98249630Y-66642102D01*
X98273475Y-66400000D01*
X98249630Y-66157898D01*
X98246617Y-66147965D01*
X98326119Y-66266949D01*
X98515551Y-66456381D01*
X98738299Y-66605216D01*
X98985803Y-66707736D01*
X99248552Y-66760000D01*
X99516448Y-66760000D01*
X99779197Y-66707736D01*
X100026701Y-66605216D01*
X100249449Y-66456381D01*
X100438881Y-66266949D01*
X100587716Y-66044201D01*
X100690236Y-65796697D01*
X100742500Y-65533948D01*
X100742500Y-65423061D01*
X111280000Y-65423061D01*
X111280000Y-65626939D01*
X111319774Y-65826898D01*
X111397795Y-66015256D01*
X111511063Y-66184774D01*
X111555000Y-66228711D01*
X111555001Y-73872562D01*
X111510498Y-73955820D01*
X111474188Y-74075518D01*
X111461928Y-74200000D01*
X111461928Y-75900000D01*
X111474188Y-76024482D01*
X111510498Y-76144180D01*
X111569463Y-76254494D01*
X111648815Y-76351185D01*
X111745506Y-76430537D01*
X111855820Y-76489502D01*
X111975518Y-76525812D01*
X112100000Y-76538072D01*
X113800000Y-76538072D01*
X113924482Y-76525812D01*
X114044180Y-76489502D01*
X114154494Y-76430537D01*
X114251185Y-76351185D01*
X114330537Y-76254494D01*
X114389502Y-76144180D01*
X114411513Y-76071620D01*
X114543368Y-76203475D01*
X114786589Y-76365990D01*
X115056842Y-76477932D01*
X115343740Y-76535000D01*
X115636260Y-76535000D01*
X115923158Y-76477932D01*
X116193411Y-76365990D01*
X116436632Y-76203475D01*
X116643475Y-75996632D01*
X116760000Y-75822240D01*
X116876525Y-75996632D01*
X117083368Y-76203475D01*
X117326589Y-76365990D01*
X117596842Y-76477932D01*
X117883740Y-76535000D01*
X118176260Y-76535000D01*
X118463158Y-76477932D01*
X118733411Y-76365990D01*
X118976632Y-76203475D01*
X119183475Y-75996632D01*
X119345990Y-75753411D01*
X119457932Y-75483158D01*
X119515000Y-75196260D01*
X119515000Y-74903740D01*
X119457932Y-74616842D01*
X119345990Y-74346589D01*
X119183475Y-74103368D01*
X118976632Y-73896525D01*
X118733411Y-73734010D01*
X118463158Y-73622068D01*
X118176260Y-73565000D01*
X117883740Y-73565000D01*
X117663592Y-73608790D01*
X115615000Y-71560199D01*
X115615000Y-66228711D01*
X115658937Y-66184774D01*
X115772205Y-66015256D01*
X115850226Y-65826898D01*
X115890000Y-65626939D01*
X115890000Y-65423061D01*
X115850226Y-65223102D01*
X115772205Y-65034744D01*
X115658937Y-64865226D01*
X115514774Y-64721063D01*
X115345256Y-64607795D01*
X115156898Y-64529774D01*
X114956939Y-64490000D01*
X114753061Y-64490000D01*
X114553102Y-64529774D01*
X114364744Y-64607795D01*
X114220000Y-64704510D01*
X114075256Y-64607795D01*
X113886898Y-64529774D01*
X113686939Y-64490000D01*
X113483061Y-64490000D01*
X113283102Y-64529774D01*
X113094744Y-64607795D01*
X112950000Y-64704510D01*
X112805256Y-64607795D01*
X112616898Y-64529774D01*
X112416939Y-64490000D01*
X112213061Y-64490000D01*
X112013102Y-64529774D01*
X111824744Y-64607795D01*
X111655226Y-64721063D01*
X111511063Y-64865226D01*
X111397795Y-65034744D01*
X111319774Y-65223102D01*
X111280000Y-65423061D01*
X100742500Y-65423061D01*
X100742500Y-65266052D01*
X100690236Y-65003303D01*
X100587716Y-64755799D01*
X100438881Y-64533051D01*
X100249449Y-64343619D01*
X100026701Y-64194784D01*
X99779197Y-64092264D01*
X99516448Y-64040000D01*
X99248552Y-64040000D01*
X98985803Y-64092264D01*
X98738299Y-64194784D01*
X98515551Y-64343619D01*
X98326119Y-64533051D01*
X98177284Y-64755799D01*
X98074764Y-65003303D01*
X98022500Y-65266052D01*
X98022500Y-65533948D01*
X98055484Y-65699768D01*
X97910002Y-65522498D01*
X97721949Y-65368167D01*
X97507401Y-65253489D01*
X97274602Y-65182870D01*
X97093165Y-65165000D01*
X96271835Y-65165000D01*
X96090398Y-65182870D01*
X95857599Y-65253489D01*
X95830000Y-65268241D01*
X95830000Y-63748061D01*
X118125000Y-63748061D01*
X118125000Y-63951939D01*
X118164774Y-64151898D01*
X118242795Y-64340256D01*
X118249306Y-64350000D01*
X118242795Y-64359744D01*
X118164774Y-64548102D01*
X118125000Y-64748061D01*
X118125000Y-64951939D01*
X118164774Y-65151898D01*
X118242795Y-65340256D01*
X118249306Y-65350000D01*
X118242795Y-65359744D01*
X118164774Y-65548102D01*
X118125000Y-65748061D01*
X118125000Y-65951939D01*
X118164774Y-66151898D01*
X118242795Y-66340256D01*
X118249307Y-66350001D01*
X118242795Y-66359747D01*
X118164774Y-66548105D01*
X118125000Y-66748064D01*
X118125000Y-66951942D01*
X118164774Y-67151901D01*
X118242795Y-67340259D01*
X118356063Y-67509777D01*
X118500226Y-67653940D01*
X118669744Y-67767208D01*
X118858102Y-67845229D01*
X119058061Y-67885003D01*
X119120199Y-67885003D01*
X122772301Y-71537105D01*
X122636033Y-71510000D01*
X122313967Y-71510000D01*
X121998088Y-71572832D01*
X121700537Y-71696082D01*
X121432748Y-71875013D01*
X121205013Y-72102748D01*
X121026082Y-72370537D01*
X120902832Y-72668088D01*
X120840000Y-72983967D01*
X120840000Y-73306033D01*
X120902832Y-73621912D01*
X121026082Y-73919463D01*
X121205013Y-74187252D01*
X121432748Y-74414987D01*
X121700537Y-74593918D01*
X121998088Y-74717168D01*
X122313967Y-74780000D01*
X122636033Y-74780000D01*
X122951912Y-74717168D01*
X123249463Y-74593918D01*
X123517252Y-74414987D01*
X123744987Y-74187252D01*
X123923918Y-73919463D01*
X124047168Y-73621912D01*
X124110000Y-73306033D01*
X124110000Y-72983967D01*
X124082895Y-72847699D01*
X126896198Y-75661003D01*
X126919996Y-75690001D01*
X127035721Y-75784974D01*
X127167750Y-75855546D01*
X127311011Y-75899003D01*
X127422664Y-75910000D01*
X127422673Y-75910000D01*
X127459996Y-75913676D01*
X127497319Y-75910000D01*
X143715091Y-75910000D01*
X143721082Y-75924463D01*
X143900013Y-76192252D01*
X144127748Y-76419987D01*
X144395537Y-76598918D01*
X144693088Y-76722168D01*
X145008967Y-76785000D01*
X145331033Y-76785000D01*
X145646912Y-76722168D01*
X145944463Y-76598918D01*
X146212252Y-76419987D01*
X146439987Y-76192252D01*
X146618918Y-75924463D01*
X146624909Y-75910000D01*
X150215091Y-75910000D01*
X150221082Y-75924463D01*
X150400013Y-76192252D01*
X150627748Y-76419987D01*
X150895537Y-76598918D01*
X151193088Y-76722168D01*
X151508967Y-76785000D01*
X151831033Y-76785000D01*
X152146912Y-76722168D01*
X152444463Y-76598918D01*
X152712252Y-76419987D01*
X152939987Y-76192252D01*
X153118918Y-75924463D01*
X153242168Y-75626912D01*
X153305000Y-75311033D01*
X153305000Y-74988967D01*
X153242168Y-74673088D01*
X153118918Y-74375537D01*
X152939987Y-74107748D01*
X152712252Y-73880013D01*
X152444463Y-73701082D01*
X152146912Y-73577832D01*
X151831033Y-73515000D01*
X151508967Y-73515000D01*
X151193088Y-73577832D01*
X150895537Y-73701082D01*
X150627748Y-73880013D01*
X150400013Y-74107748D01*
X150221082Y-74375537D01*
X150215091Y-74390000D01*
X146624909Y-74390000D01*
X146618918Y-74375537D01*
X146439987Y-74107748D01*
X146212252Y-73880013D01*
X145944463Y-73701082D01*
X145646912Y-73577832D01*
X145331033Y-73515000D01*
X145008967Y-73515000D01*
X144693088Y-73577832D01*
X144395537Y-73701082D01*
X144127748Y-73880013D01*
X143900013Y-74107748D01*
X143721082Y-74375537D01*
X143715091Y-74390000D01*
X130042239Y-74390000D01*
X130244987Y-74187252D01*
X130423918Y-73919463D01*
X130547168Y-73621912D01*
X130610000Y-73306033D01*
X130610000Y-72983967D01*
X130547168Y-72668088D01*
X130423918Y-72370537D01*
X130244987Y-72102748D01*
X130017252Y-71875013D01*
X129749463Y-71696082D01*
X129451912Y-71572832D01*
X129136033Y-71510000D01*
X128813967Y-71510000D01*
X128498088Y-71572832D01*
X128200537Y-71696082D01*
X127932748Y-71875013D01*
X127705013Y-72102748D01*
X127526082Y-72370537D01*
X127402832Y-72668088D01*
X127340000Y-72983967D01*
X127340000Y-73306033D01*
X127402832Y-73621912D01*
X127526082Y-73919463D01*
X127705013Y-74187252D01*
X127907761Y-74390000D01*
X127774799Y-74390000D01*
X123873766Y-70488967D01*
X134535000Y-70488967D01*
X134535000Y-70811033D01*
X134597832Y-71126912D01*
X134721082Y-71424463D01*
X134900013Y-71692252D01*
X135127748Y-71919987D01*
X135395537Y-72098918D01*
X135693088Y-72222168D01*
X136008967Y-72285000D01*
X136331033Y-72285000D01*
X136646912Y-72222168D01*
X136944463Y-72098918D01*
X137212252Y-71919987D01*
X137439987Y-71692252D01*
X137618918Y-71424463D01*
X137742168Y-71126912D01*
X137805000Y-70811033D01*
X137805000Y-70488967D01*
X137742168Y-70173088D01*
X137618918Y-69875537D01*
X137439987Y-69607748D01*
X137212252Y-69380013D01*
X136944463Y-69201082D01*
X136646912Y-69077832D01*
X136331033Y-69015000D01*
X136008967Y-69015000D01*
X135693088Y-69077832D01*
X135395537Y-69201082D01*
X135127748Y-69380013D01*
X134900013Y-69607748D01*
X134721082Y-69875537D01*
X134597832Y-70173088D01*
X134535000Y-70488967D01*
X123873766Y-70488967D01*
X120195000Y-66810202D01*
X120195000Y-66748064D01*
X120167538Y-66610000D01*
X121305199Y-66610000D01*
X122606200Y-67911002D01*
X122629999Y-67940001D01*
X122658997Y-67963799D01*
X122745723Y-68034974D01*
X122877753Y-68105546D01*
X123021014Y-68149003D01*
X123132667Y-68160000D01*
X123132677Y-68160000D01*
X123169999Y-68163676D01*
X123207322Y-68160000D01*
X138519412Y-68160000D01*
X139694693Y-69335282D01*
X139627748Y-69380013D01*
X139400013Y-69607748D01*
X139221082Y-69875537D01*
X139097832Y-70173088D01*
X139035000Y-70488967D01*
X139035000Y-70811033D01*
X139097832Y-71126912D01*
X139221082Y-71424463D01*
X139400013Y-71692252D01*
X139627748Y-71919987D01*
X139895537Y-72098918D01*
X140193088Y-72222168D01*
X140508967Y-72285000D01*
X140831033Y-72285000D01*
X141146912Y-72222168D01*
X141444463Y-72098918D01*
X141712252Y-71919987D01*
X141939987Y-71692252D01*
X142118918Y-71424463D01*
X142242168Y-71126912D01*
X142305000Y-70811033D01*
X142305000Y-70488967D01*
X142242168Y-70173088D01*
X142118918Y-69875537D01*
X141939987Y-69607748D01*
X141712252Y-69380013D01*
X141444463Y-69201082D01*
X141429655Y-69194948D01*
X141419003Y-69086801D01*
X141375546Y-68943540D01*
X141304974Y-68811511D01*
X141210001Y-68695786D01*
X141181003Y-68671988D01*
X139909014Y-67400000D01*
X141181003Y-66128012D01*
X141210001Y-66104214D01*
X141304974Y-65988489D01*
X141375546Y-65856460D01*
X141419003Y-65713199D01*
X141429655Y-65605052D01*
X141444463Y-65598918D01*
X141712252Y-65419987D01*
X141939987Y-65192252D01*
X142118918Y-64924463D01*
X142242168Y-64626912D01*
X142305000Y-64311033D01*
X142305000Y-63988967D01*
X142242168Y-63673088D01*
X142118918Y-63375537D01*
X141939987Y-63107748D01*
X141712252Y-62880013D01*
X141444463Y-62701082D01*
X141345283Y-62660000D01*
X152190986Y-62660000D01*
X154191988Y-64661003D01*
X154215786Y-64690001D01*
X154244784Y-64713799D01*
X154331511Y-64784974D01*
X154463540Y-64855546D01*
X154606801Y-64899003D01*
X154714948Y-64909655D01*
X154721082Y-64924463D01*
X154900013Y-65192252D01*
X155127748Y-65419987D01*
X155395537Y-65598918D01*
X155410001Y-65604909D01*
X155410000Y-69195091D01*
X155395537Y-69201082D01*
X155127748Y-69380013D01*
X154900013Y-69607748D01*
X154721082Y-69875537D01*
X154597832Y-70173088D01*
X154535000Y-70488967D01*
X154535000Y-70811033D01*
X154597832Y-71126912D01*
X154721082Y-71424463D01*
X154900013Y-71692252D01*
X155127748Y-71919987D01*
X155395537Y-72098918D01*
X155693088Y-72222168D01*
X156008967Y-72285000D01*
X156331033Y-72285000D01*
X156646912Y-72222168D01*
X156944463Y-72098918D01*
X157212252Y-71919987D01*
X157439987Y-71692252D01*
X157618918Y-71424463D01*
X157742168Y-71126912D01*
X157805000Y-70811033D01*
X157805000Y-70488967D01*
X159035000Y-70488967D01*
X159035000Y-70811033D01*
X159097832Y-71126912D01*
X159221082Y-71424463D01*
X159400013Y-71692252D01*
X159627748Y-71919987D01*
X159895537Y-72098918D01*
X160193088Y-72222168D01*
X160508967Y-72285000D01*
X160831033Y-72285000D01*
X161146912Y-72222168D01*
X161444463Y-72098918D01*
X161712252Y-71919987D01*
X161939987Y-71692252D01*
X162118918Y-71424463D01*
X162242168Y-71126912D01*
X162305000Y-70811033D01*
X162305000Y-70488967D01*
X162242168Y-70173088D01*
X162118918Y-69875537D01*
X161939987Y-69607748D01*
X161712252Y-69380013D01*
X161444463Y-69201082D01*
X161146912Y-69077832D01*
X160831033Y-69015000D01*
X160508967Y-69015000D01*
X160193088Y-69077832D01*
X159895537Y-69201082D01*
X159627748Y-69380013D01*
X159400013Y-69607748D01*
X159221082Y-69875537D01*
X159097832Y-70173088D01*
X159035000Y-70488967D01*
X157805000Y-70488967D01*
X157742168Y-70173088D01*
X157618918Y-69875537D01*
X157439987Y-69607748D01*
X157212252Y-69380013D01*
X156944463Y-69201082D01*
X156930000Y-69195091D01*
X156930000Y-65604909D01*
X156944463Y-65598918D01*
X157212252Y-65419987D01*
X157439987Y-65192252D01*
X157618918Y-64924463D01*
X157742168Y-64626912D01*
X157805000Y-64311033D01*
X157805000Y-63988967D01*
X159035000Y-63988967D01*
X159035000Y-64311033D01*
X159097832Y-64626912D01*
X159221082Y-64924463D01*
X159400013Y-65192252D01*
X159627748Y-65419987D01*
X159895537Y-65598918D01*
X160193088Y-65722168D01*
X160508967Y-65785000D01*
X160831033Y-65785000D01*
X161146912Y-65722168D01*
X161444463Y-65598918D01*
X161712252Y-65419987D01*
X161939987Y-65192252D01*
X162118918Y-64924463D01*
X162242168Y-64626912D01*
X162305000Y-64311033D01*
X162305000Y-63988967D01*
X162242168Y-63673088D01*
X162118918Y-63375537D01*
X161939987Y-63107748D01*
X161712252Y-62880013D01*
X161444463Y-62701082D01*
X161146912Y-62577832D01*
X160831033Y-62515000D01*
X160508967Y-62515000D01*
X160193088Y-62577832D01*
X159895537Y-62701082D01*
X159627748Y-62880013D01*
X159400013Y-63107748D01*
X159221082Y-63375537D01*
X159097832Y-63673088D01*
X159035000Y-63988967D01*
X157805000Y-63988967D01*
X157742168Y-63673088D01*
X157618918Y-63375537D01*
X157439987Y-63107748D01*
X157212252Y-62880013D01*
X156944463Y-62701082D01*
X156646912Y-62577832D01*
X156331033Y-62515000D01*
X156008967Y-62515000D01*
X155693088Y-62577832D01*
X155395537Y-62701082D01*
X155127748Y-62880013D01*
X154900013Y-63107748D01*
X154855282Y-63174693D01*
X153069591Y-61389003D01*
X153045788Y-61359999D01*
X152930063Y-61265026D01*
X152798034Y-61194454D01*
X152654773Y-61150997D01*
X152543120Y-61140000D01*
X152543109Y-61140000D01*
X152505787Y-61136324D01*
X152468465Y-61140000D01*
X152345283Y-61140000D01*
X152444463Y-61098918D01*
X152712252Y-60919987D01*
X152939987Y-60692252D01*
X153118918Y-60424463D01*
X153242168Y-60126912D01*
X153305000Y-59811033D01*
X153305000Y-59488967D01*
X153242168Y-59173088D01*
X153118918Y-58875537D01*
X152939987Y-58607748D01*
X152712252Y-58380013D01*
X152444463Y-58201082D01*
X152146912Y-58077832D01*
X151831033Y-58015000D01*
X151508967Y-58015000D01*
X151193088Y-58077832D01*
X150895537Y-58201082D01*
X150627748Y-58380013D01*
X150400013Y-58607748D01*
X150221082Y-58875537D01*
X150215091Y-58890000D01*
X146624909Y-58890000D01*
X146618918Y-58875537D01*
X146439987Y-58607748D01*
X146212252Y-58380013D01*
X145944463Y-58201082D01*
X145646912Y-58077832D01*
X145331033Y-58015000D01*
X145008967Y-58015000D01*
X144693088Y-58077832D01*
X144395537Y-58201082D01*
X144127748Y-58380013D01*
X143900013Y-58607748D01*
X143721082Y-58875537D01*
X143715091Y-58890000D01*
X136407323Y-58890000D01*
X136370000Y-58886324D01*
X136332677Y-58890000D01*
X136332667Y-58890000D01*
X136221014Y-58900997D01*
X136077753Y-58944454D01*
X135945723Y-59015026D01*
X135862083Y-59083668D01*
X135829999Y-59109999D01*
X135806201Y-59138997D01*
X131855199Y-63090000D01*
X119863711Y-63090000D01*
X119819774Y-63046063D01*
X119650256Y-62932795D01*
X119461898Y-62854774D01*
X119261939Y-62815000D01*
X119058061Y-62815000D01*
X118858102Y-62854774D01*
X118669744Y-62932795D01*
X118500226Y-63046063D01*
X118356063Y-63190226D01*
X118242795Y-63359744D01*
X118164774Y-63548102D01*
X118125000Y-63748061D01*
X95830000Y-63748061D01*
X95830000Y-60531759D01*
X95857599Y-60546511D01*
X96090398Y-60617130D01*
X96271835Y-60635000D01*
X97093165Y-60635000D01*
X97274602Y-60617130D01*
X97507401Y-60546511D01*
X97721949Y-60431833D01*
X97910002Y-60277502D01*
X98055484Y-60100232D01*
X98022500Y-60266052D01*
X98022500Y-60533948D01*
X98074764Y-60796697D01*
X98177284Y-61044201D01*
X98326119Y-61266949D01*
X98515551Y-61456381D01*
X98738299Y-61605216D01*
X98985803Y-61707736D01*
X99248552Y-61760000D01*
X99516448Y-61760000D01*
X99779197Y-61707736D01*
X100026701Y-61605216D01*
X100249449Y-61456381D01*
X100438881Y-61266949D01*
X100587716Y-61044201D01*
X100690236Y-60796697D01*
X100742500Y-60533948D01*
X100742500Y-60266052D01*
X100690236Y-60003303D01*
X100587716Y-59755799D01*
X100438881Y-59533051D01*
X100249449Y-59343619D01*
X100026701Y-59194784D01*
X99779197Y-59092264D01*
X99516448Y-59040000D01*
X99248552Y-59040000D01*
X98985803Y-59092264D01*
X98738299Y-59194784D01*
X98515551Y-59343619D01*
X98326119Y-59533051D01*
X98246617Y-59652035D01*
X98249630Y-59642102D01*
X98273475Y-59400000D01*
X98249630Y-59157898D01*
X98179011Y-58925099D01*
X98064333Y-58710551D01*
X97910002Y-58522498D01*
X97721949Y-58368167D01*
X97507401Y-58253489D01*
X97274602Y-58182870D01*
X97093165Y-58165000D01*
X96271835Y-58165000D01*
X96090398Y-58182870D01*
X95857599Y-58253489D01*
X95830000Y-58268241D01*
X95830000Y-53429872D01*
X96935000Y-53429872D01*
X96935000Y-53870128D01*
X97020890Y-54301925D01*
X97189369Y-54708669D01*
X97433962Y-55074729D01*
X97745271Y-55386038D01*
X98111331Y-55630631D01*
X98518075Y-55799110D01*
X98949872Y-55885000D01*
X99390128Y-55885000D01*
X99821925Y-55799110D01*
X100228669Y-55630631D01*
X100594729Y-55386038D01*
X100762027Y-55218740D01*
X121625000Y-55218740D01*
X121625000Y-55511260D01*
X121682068Y-55798158D01*
X121794010Y-56068411D01*
X121956525Y-56311632D01*
X122163368Y-56518475D01*
X122406589Y-56680990D01*
X122676842Y-56792932D01*
X122963740Y-56850000D01*
X123256260Y-56850000D01*
X123543158Y-56792932D01*
X123813411Y-56680990D01*
X124056632Y-56518475D01*
X124188487Y-56386620D01*
X124210498Y-56459180D01*
X124269463Y-56569494D01*
X124348815Y-56666185D01*
X124445506Y-56745537D01*
X124555820Y-56804502D01*
X124675518Y-56840812D01*
X124800000Y-56853072D01*
X125364250Y-56850000D01*
X125523000Y-56691250D01*
X125523000Y-55492000D01*
X125777000Y-55492000D01*
X125777000Y-56691250D01*
X125935750Y-56850000D01*
X126500000Y-56853072D01*
X126624482Y-56840812D01*
X126744180Y-56804502D01*
X126854494Y-56745537D01*
X126951185Y-56666185D01*
X127030537Y-56569494D01*
X127089502Y-56459180D01*
X127125812Y-56339482D01*
X127138072Y-56215000D01*
X127135000Y-55650750D01*
X126976250Y-55492000D01*
X125777000Y-55492000D01*
X125523000Y-55492000D01*
X125503000Y-55492000D01*
X125503000Y-55238000D01*
X125523000Y-55238000D01*
X125523000Y-54038750D01*
X125777000Y-54038750D01*
X125777000Y-55238000D01*
X126976250Y-55238000D01*
X127135000Y-55079250D01*
X127135491Y-54988967D01*
X143535000Y-54988967D01*
X143535000Y-55311033D01*
X143597832Y-55626912D01*
X143721082Y-55924463D01*
X143900013Y-56192252D01*
X144127748Y-56419987D01*
X144395537Y-56598918D01*
X144693088Y-56722168D01*
X145008967Y-56785000D01*
X145331033Y-56785000D01*
X145646912Y-56722168D01*
X145944463Y-56598918D01*
X146212252Y-56419987D01*
X146439987Y-56192252D01*
X146618918Y-55924463D01*
X146742168Y-55626912D01*
X146805000Y-55311033D01*
X146805000Y-54988967D01*
X150035000Y-54988967D01*
X150035000Y-55311033D01*
X150097832Y-55626912D01*
X150221082Y-55924463D01*
X150400013Y-56192252D01*
X150627748Y-56419987D01*
X150895537Y-56598918D01*
X151193088Y-56722168D01*
X151508967Y-56785000D01*
X151831033Y-56785000D01*
X152146912Y-56722168D01*
X152444463Y-56598918D01*
X152712252Y-56419987D01*
X152939987Y-56192252D01*
X153118918Y-55924463D01*
X153242168Y-55626912D01*
X153305000Y-55311033D01*
X153305000Y-54988967D01*
X153242168Y-54673088D01*
X153118918Y-54375537D01*
X152939987Y-54107748D01*
X152712252Y-53880013D01*
X152444463Y-53701082D01*
X152146912Y-53577832D01*
X151831033Y-53515000D01*
X151508967Y-53515000D01*
X151193088Y-53577832D01*
X150895537Y-53701082D01*
X150627748Y-53880013D01*
X150400013Y-54107748D01*
X150221082Y-54375537D01*
X150097832Y-54673088D01*
X150035000Y-54988967D01*
X146805000Y-54988967D01*
X146742168Y-54673088D01*
X146618918Y-54375537D01*
X146439987Y-54107748D01*
X146212252Y-53880013D01*
X145944463Y-53701082D01*
X145646912Y-53577832D01*
X145331033Y-53515000D01*
X145008967Y-53515000D01*
X144693088Y-53577832D01*
X144395537Y-53701082D01*
X144127748Y-53880013D01*
X143900013Y-54107748D01*
X143721082Y-54375537D01*
X143597832Y-54673088D01*
X143535000Y-54988967D01*
X127135491Y-54988967D01*
X127138072Y-54515000D01*
X127125812Y-54390518D01*
X127089502Y-54270820D01*
X127030537Y-54160506D01*
X126951185Y-54063815D01*
X126854494Y-53984463D01*
X126744180Y-53925498D01*
X126624482Y-53889188D01*
X126500000Y-53876928D01*
X125935750Y-53880000D01*
X125777000Y-54038750D01*
X125523000Y-54038750D01*
X125364250Y-53880000D01*
X124800000Y-53876928D01*
X124675518Y-53889188D01*
X124555820Y-53925498D01*
X124445506Y-53984463D01*
X124348815Y-54063815D01*
X124269463Y-54160506D01*
X124210498Y-54270820D01*
X124188487Y-54343380D01*
X124056632Y-54211525D01*
X123813411Y-54049010D01*
X123543158Y-53937068D01*
X123256260Y-53880000D01*
X122963740Y-53880000D01*
X122676842Y-53937068D01*
X122406589Y-54049010D01*
X122163368Y-54211525D01*
X121956525Y-54418368D01*
X121794010Y-54661589D01*
X121682068Y-54931842D01*
X121625000Y-55218740D01*
X100762027Y-55218740D01*
X100906038Y-55074729D01*
X101150631Y-54708669D01*
X101319110Y-54301925D01*
X101405000Y-53870128D01*
X101405000Y-53429872D01*
X101319110Y-52998075D01*
X101200783Y-52712408D01*
X108263000Y-52712408D01*
X108263000Y-52987592D01*
X108316686Y-53257490D01*
X108421995Y-53511727D01*
X108574880Y-53740535D01*
X108769465Y-53935120D01*
X108998273Y-54088005D01*
X109252510Y-54193314D01*
X109522408Y-54247000D01*
X109797592Y-54247000D01*
X110067490Y-54193314D01*
X110321727Y-54088005D01*
X110550535Y-53935120D01*
X110670090Y-53815565D01*
X111414040Y-53815565D01*
X111481020Y-54055656D01*
X111730048Y-54172756D01*
X111997135Y-54239023D01*
X112272017Y-54251910D01*
X112544133Y-54210922D01*
X112803023Y-54117636D01*
X112918980Y-54055656D01*
X112985960Y-53815565D01*
X112200000Y-53029605D01*
X111414040Y-53815565D01*
X110670090Y-53815565D01*
X110745120Y-53740535D01*
X110898005Y-53511727D01*
X110927692Y-53440057D01*
X110932364Y-53453023D01*
X110994344Y-53568980D01*
X111234435Y-53635960D01*
X112020395Y-52850000D01*
X112379605Y-52850000D01*
X113165565Y-53635960D01*
X113405656Y-53568980D01*
X113469485Y-53433240D01*
X113501995Y-53511727D01*
X113654880Y-53740535D01*
X113849465Y-53935120D01*
X114078273Y-54088005D01*
X114332510Y-54193314D01*
X114602408Y-54247000D01*
X114877592Y-54247000D01*
X115147490Y-54193314D01*
X115401727Y-54088005D01*
X115630535Y-53935120D01*
X115825120Y-53740535D01*
X115978005Y-53511727D01*
X116010000Y-53434485D01*
X116041995Y-53511727D01*
X116194880Y-53740535D01*
X116389465Y-53935120D01*
X116618273Y-54088005D01*
X116872510Y-54193314D01*
X117142408Y-54247000D01*
X117417592Y-54247000D01*
X117687490Y-54193314D01*
X117941727Y-54088005D01*
X118170535Y-53935120D01*
X118365120Y-53740535D01*
X118518005Y-53511727D01*
X118551910Y-53429872D01*
X158935000Y-53429872D01*
X158935000Y-53870128D01*
X159020890Y-54301925D01*
X159189369Y-54708669D01*
X159433962Y-55074729D01*
X159745271Y-55386038D01*
X160111331Y-55630631D01*
X160518075Y-55799110D01*
X160949872Y-55885000D01*
X161390128Y-55885000D01*
X161821925Y-55799110D01*
X162228669Y-55630631D01*
X162594729Y-55386038D01*
X162906038Y-55074729D01*
X163150631Y-54708669D01*
X163319110Y-54301925D01*
X163405000Y-53870128D01*
X163405000Y-53429872D01*
X163319110Y-52998075D01*
X163150631Y-52591331D01*
X162906038Y-52225271D01*
X162594729Y-51913962D01*
X162228669Y-51669369D01*
X161821925Y-51500890D01*
X161390128Y-51415000D01*
X160949872Y-51415000D01*
X160518075Y-51500890D01*
X160111331Y-51669369D01*
X159745271Y-51913962D01*
X159433962Y-52225271D01*
X159189369Y-52591331D01*
X159020890Y-52998075D01*
X158935000Y-53429872D01*
X118551910Y-53429872D01*
X118623314Y-53257490D01*
X118677000Y-52987592D01*
X118677000Y-52712408D01*
X118623314Y-52442510D01*
X118518005Y-52188273D01*
X118365120Y-51959465D01*
X118170535Y-51764880D01*
X117941727Y-51611995D01*
X117687490Y-51506686D01*
X117417592Y-51453000D01*
X117142408Y-51453000D01*
X116872510Y-51506686D01*
X116618273Y-51611995D01*
X116389465Y-51764880D01*
X116194880Y-51959465D01*
X116041995Y-52188273D01*
X116010000Y-52265515D01*
X115978005Y-52188273D01*
X115825120Y-51959465D01*
X115630535Y-51764880D01*
X115401727Y-51611995D01*
X115147490Y-51506686D01*
X114877592Y-51453000D01*
X114602408Y-51453000D01*
X114332510Y-51506686D01*
X114078273Y-51611995D01*
X113849465Y-51764880D01*
X113654880Y-51959465D01*
X113501995Y-52188273D01*
X113472308Y-52259943D01*
X113467636Y-52246977D01*
X113405656Y-52131020D01*
X113165565Y-52064040D01*
X112379605Y-52850000D01*
X112020395Y-52850000D01*
X111234435Y-52064040D01*
X110994344Y-52131020D01*
X110930515Y-52266760D01*
X110898005Y-52188273D01*
X110745120Y-51959465D01*
X110670090Y-51884435D01*
X111414040Y-51884435D01*
X112200000Y-52670395D01*
X112985960Y-51884435D01*
X112918980Y-51644344D01*
X112669952Y-51527244D01*
X112402865Y-51460977D01*
X112127983Y-51448090D01*
X111855867Y-51489078D01*
X111596977Y-51582364D01*
X111481020Y-51644344D01*
X111414040Y-51884435D01*
X110670090Y-51884435D01*
X110550535Y-51764880D01*
X110321727Y-51611995D01*
X110067490Y-51506686D01*
X109797592Y-51453000D01*
X109522408Y-51453000D01*
X109252510Y-51506686D01*
X108998273Y-51611995D01*
X108769465Y-51764880D01*
X108574880Y-51959465D01*
X108421995Y-52188273D01*
X108316686Y-52442510D01*
X108263000Y-52712408D01*
X101200783Y-52712408D01*
X101150631Y-52591331D01*
X100906038Y-52225271D01*
X100594729Y-51913962D01*
X100228669Y-51669369D01*
X99821925Y-51500890D01*
X99390128Y-51415000D01*
X98949872Y-51415000D01*
X98518075Y-51500890D01*
X98111331Y-51669369D01*
X97745271Y-51913962D01*
X97433962Y-52225271D01*
X97189369Y-52591331D01*
X97020890Y-52998075D01*
X96935000Y-53429872D01*
X95830000Y-53429872D01*
X95830000Y-50310000D01*
X164510000Y-50310000D01*
X164510001Y-83990000D01*
G37*
X164510001Y-83990000D02*
X95830000Y-83990000D01*
X95830000Y-80429872D01*
X96935000Y-80429872D01*
X96935000Y-80870128D01*
X97020890Y-81301925D01*
X97189369Y-81708669D01*
X97433962Y-82074729D01*
X97745271Y-82386038D01*
X98111331Y-82630631D01*
X98518075Y-82799110D01*
X98949872Y-82885000D01*
X99390128Y-82885000D01*
X99821925Y-82799110D01*
X100228669Y-82630631D01*
X100594729Y-82386038D01*
X100906038Y-82074729D01*
X101150631Y-81708669D01*
X101319110Y-81301925D01*
X101405000Y-80870128D01*
X101405000Y-80429872D01*
X101319110Y-79998075D01*
X101150631Y-79591331D01*
X101082234Y-79488967D01*
X143535000Y-79488967D01*
X143535000Y-79811033D01*
X143597832Y-80126912D01*
X143721082Y-80424463D01*
X143900013Y-80692252D01*
X144127748Y-80919987D01*
X144395537Y-81098918D01*
X144693088Y-81222168D01*
X145008967Y-81285000D01*
X145331033Y-81285000D01*
X145646912Y-81222168D01*
X145944463Y-81098918D01*
X146212252Y-80919987D01*
X146439987Y-80692252D01*
X146618918Y-80424463D01*
X146742168Y-80126912D01*
X146805000Y-79811033D01*
X146805000Y-79488967D01*
X150035000Y-79488967D01*
X150035000Y-79811033D01*
X150097832Y-80126912D01*
X150221082Y-80424463D01*
X150400013Y-80692252D01*
X150627748Y-80919987D01*
X150895537Y-81098918D01*
X151193088Y-81222168D01*
X151508967Y-81285000D01*
X151831033Y-81285000D01*
X152146912Y-81222168D01*
X152444463Y-81098918D01*
X152712252Y-80919987D01*
X152939987Y-80692252D01*
X153115303Y-80429872D01*
X158935000Y-80429872D01*
X158935000Y-80870128D01*
X159020890Y-81301925D01*
X159189369Y-81708669D01*
X159433962Y-82074729D01*
X159745271Y-82386038D01*
X160111331Y-82630631D01*
X160518075Y-82799110D01*
X160949872Y-82885000D01*
X161390128Y-82885000D01*
X161821925Y-82799110D01*
X162228669Y-82630631D01*
X162594729Y-82386038D01*
X162906038Y-82074729D01*
X163150631Y-81708669D01*
X163319110Y-81301925D01*
X163405000Y-80870128D01*
X163405000Y-80429872D01*
X163319110Y-79998075D01*
X163150631Y-79591331D01*
X162906038Y-79225271D01*
X162594729Y-78913962D01*
X162228669Y-78669369D01*
X161821925Y-78500890D01*
X161390128Y-78415000D01*
X160949872Y-78415000D01*
X160518075Y-78500890D01*
X160111331Y-78669369D01*
X159745271Y-78913962D01*
X159433962Y-79225271D01*
X159189369Y-79591331D01*
X159020890Y-79998075D01*
X158935000Y-80429872D01*
X153115303Y-80429872D01*
X153118918Y-80424463D01*
X153242168Y-80126912D01*
X153305000Y-79811033D01*
X153305000Y-79488967D01*
X153242168Y-79173088D01*
X153118918Y-78875537D01*
X152939987Y-78607748D01*
X152712252Y-78380013D01*
X152444463Y-78201082D01*
X152146912Y-78077832D01*
X151831033Y-78015000D01*
X151508967Y-78015000D01*
X151193088Y-78077832D01*
X150895537Y-78201082D01*
X150627748Y-78380013D01*
X150400013Y-78607748D01*
X150221082Y-78875537D01*
X150097832Y-79173088D01*
X150035000Y-79488967D01*
X146805000Y-79488967D01*
X146742168Y-79173088D01*
X146618918Y-78875537D01*
X146439987Y-78607748D01*
X146212252Y-78380013D01*
X145944463Y-78201082D01*
X145646912Y-78077832D01*
X145331033Y-78015000D01*
X145008967Y-78015000D01*
X144693088Y-78077832D01*
X144395537Y-78201082D01*
X144127748Y-78380013D01*
X143900013Y-78607748D01*
X143721082Y-78875537D01*
X143597832Y-79173088D01*
X143535000Y-79488967D01*
X101082234Y-79488967D01*
X100906038Y-79225271D01*
X100594729Y-78913962D01*
X100228669Y-78669369D01*
X99821925Y-78500890D01*
X99390128Y-78415000D01*
X98949872Y-78415000D01*
X98518075Y-78500890D01*
X98111331Y-78669369D01*
X97745271Y-78913962D01*
X97433962Y-79225271D01*
X97189369Y-79591331D01*
X97020890Y-79998075D01*
X96935000Y-80429872D01*
X95830000Y-80429872D01*
X95830000Y-77483967D01*
X120840000Y-77483967D01*
X120840000Y-77806033D01*
X120902832Y-78121912D01*
X121026082Y-78419463D01*
X121205013Y-78687252D01*
X121432748Y-78914987D01*
X121700537Y-79093918D01*
X121998088Y-79217168D01*
X122313967Y-79280000D01*
X122636033Y-79280000D01*
X122951912Y-79217168D01*
X123249463Y-79093918D01*
X123517252Y-78914987D01*
X123744987Y-78687252D01*
X123923918Y-78419463D01*
X124047168Y-78121912D01*
X124110000Y-77806033D01*
X124110000Y-77483967D01*
X127340000Y-77483967D01*
X127340000Y-77806033D01*
X127402832Y-78121912D01*
X127526082Y-78419463D01*
X127705013Y-78687252D01*
X127932748Y-78914987D01*
X128200537Y-79093918D01*
X128498088Y-79217168D01*
X128813967Y-79280000D01*
X129136033Y-79280000D01*
X129451912Y-79217168D01*
X129749463Y-79093918D01*
X130017252Y-78914987D01*
X130244987Y-78687252D01*
X130423918Y-78419463D01*
X130547168Y-78121912D01*
X130610000Y-77806033D01*
X130610000Y-77483967D01*
X130547168Y-77168088D01*
X130423918Y-76870537D01*
X130244987Y-76602748D01*
X130017252Y-76375013D01*
X129749463Y-76196082D01*
X129451912Y-76072832D01*
X129136033Y-76010000D01*
X128813967Y-76010000D01*
X128498088Y-76072832D01*
X128200537Y-76196082D01*
X127932748Y-76375013D01*
X127705013Y-76602748D01*
X127526082Y-76870537D01*
X127402832Y-77168088D01*
X127340000Y-77483967D01*
X124110000Y-77483967D01*
X124047168Y-77168088D01*
X123923918Y-76870537D01*
X123744987Y-76602748D01*
X123517252Y-76375013D01*
X123249463Y-76196082D01*
X122951912Y-76072832D01*
X122636033Y-76010000D01*
X122313967Y-76010000D01*
X121998088Y-76072832D01*
X121700537Y-76196082D01*
X121432748Y-76375013D01*
X121205013Y-76602748D01*
X121026082Y-76870537D01*
X120902832Y-77168088D01*
X120840000Y-77483967D01*
X95830000Y-77483967D01*
X95830000Y-67531759D01*
X95857599Y-67546511D01*
X96090398Y-67617130D01*
X96271835Y-67635000D01*
X97093165Y-67635000D01*
X97274602Y-67617130D01*
X97507401Y-67546511D01*
X97721949Y-67431833D01*
X97910002Y-67277502D01*
X98064333Y-67089449D01*
X98179011Y-66874901D01*
X98249630Y-66642102D01*
X98273475Y-66400000D01*
X98249630Y-66157898D01*
X98246617Y-66147965D01*
X98326119Y-66266949D01*
X98515551Y-66456381D01*
X98738299Y-66605216D01*
X98985803Y-66707736D01*
X99248552Y-66760000D01*
X99516448Y-66760000D01*
X99779197Y-66707736D01*
X100026701Y-66605216D01*
X100249449Y-66456381D01*
X100438881Y-66266949D01*
X100587716Y-66044201D01*
X100690236Y-65796697D01*
X100742500Y-65533948D01*
X100742500Y-65423061D01*
X111280000Y-65423061D01*
X111280000Y-65626939D01*
X111319774Y-65826898D01*
X111397795Y-66015256D01*
X111511063Y-66184774D01*
X111555000Y-66228711D01*
X111555001Y-73872562D01*
X111510498Y-73955820D01*
X111474188Y-74075518D01*
X111461928Y-74200000D01*
X111461928Y-75900000D01*
X111474188Y-76024482D01*
X111510498Y-76144180D01*
X111569463Y-76254494D01*
X111648815Y-76351185D01*
X111745506Y-76430537D01*
X111855820Y-76489502D01*
X111975518Y-76525812D01*
X112100000Y-76538072D01*
X113800000Y-76538072D01*
X113924482Y-76525812D01*
X114044180Y-76489502D01*
X114154494Y-76430537D01*
X114251185Y-76351185D01*
X114330537Y-76254494D01*
X114389502Y-76144180D01*
X114411513Y-76071620D01*
X114543368Y-76203475D01*
X114786589Y-76365990D01*
X115056842Y-76477932D01*
X115343740Y-76535000D01*
X115636260Y-76535000D01*
X115923158Y-76477932D01*
X116193411Y-76365990D01*
X116436632Y-76203475D01*
X116643475Y-75996632D01*
X116760000Y-75822240D01*
X116876525Y-75996632D01*
X117083368Y-76203475D01*
X117326589Y-76365990D01*
X117596842Y-76477932D01*
X117883740Y-76535000D01*
X118176260Y-76535000D01*
X118463158Y-76477932D01*
X118733411Y-76365990D01*
X118976632Y-76203475D01*
X119183475Y-75996632D01*
X119345990Y-75753411D01*
X119457932Y-75483158D01*
X119515000Y-75196260D01*
X119515000Y-74903740D01*
X119457932Y-74616842D01*
X119345990Y-74346589D01*
X119183475Y-74103368D01*
X118976632Y-73896525D01*
X118733411Y-73734010D01*
X118463158Y-73622068D01*
X118176260Y-73565000D01*
X117883740Y-73565000D01*
X117663592Y-73608790D01*
X115615000Y-71560199D01*
X115615000Y-66228711D01*
X115658937Y-66184774D01*
X115772205Y-66015256D01*
X115850226Y-65826898D01*
X115890000Y-65626939D01*
X115890000Y-65423061D01*
X115850226Y-65223102D01*
X115772205Y-65034744D01*
X115658937Y-64865226D01*
X115514774Y-64721063D01*
X115345256Y-64607795D01*
X115156898Y-64529774D01*
X114956939Y-64490000D01*
X114753061Y-64490000D01*
X114553102Y-64529774D01*
X114364744Y-64607795D01*
X114220000Y-64704510D01*
X114075256Y-64607795D01*
X113886898Y-64529774D01*
X113686939Y-64490000D01*
X113483061Y-64490000D01*
X113283102Y-64529774D01*
X113094744Y-64607795D01*
X112950000Y-64704510D01*
X112805256Y-64607795D01*
X112616898Y-64529774D01*
X112416939Y-64490000D01*
X112213061Y-64490000D01*
X112013102Y-64529774D01*
X111824744Y-64607795D01*
X111655226Y-64721063D01*
X111511063Y-64865226D01*
X111397795Y-65034744D01*
X111319774Y-65223102D01*
X111280000Y-65423061D01*
X100742500Y-65423061D01*
X100742500Y-65266052D01*
X100690236Y-65003303D01*
X100587716Y-64755799D01*
X100438881Y-64533051D01*
X100249449Y-64343619D01*
X100026701Y-64194784D01*
X99779197Y-64092264D01*
X99516448Y-64040000D01*
X99248552Y-64040000D01*
X98985803Y-64092264D01*
X98738299Y-64194784D01*
X98515551Y-64343619D01*
X98326119Y-64533051D01*
X98177284Y-64755799D01*
X98074764Y-65003303D01*
X98022500Y-65266052D01*
X98022500Y-65533948D01*
X98055484Y-65699768D01*
X97910002Y-65522498D01*
X97721949Y-65368167D01*
X97507401Y-65253489D01*
X97274602Y-65182870D01*
X97093165Y-65165000D01*
X96271835Y-65165000D01*
X96090398Y-65182870D01*
X95857599Y-65253489D01*
X95830000Y-65268241D01*
X95830000Y-63748061D01*
X118125000Y-63748061D01*
X118125000Y-63951939D01*
X118164774Y-64151898D01*
X118242795Y-64340256D01*
X118249306Y-64350000D01*
X118242795Y-64359744D01*
X118164774Y-64548102D01*
X118125000Y-64748061D01*
X118125000Y-64951939D01*
X118164774Y-65151898D01*
X118242795Y-65340256D01*
X118249306Y-65350000D01*
X118242795Y-65359744D01*
X118164774Y-65548102D01*
X118125000Y-65748061D01*
X118125000Y-65951939D01*
X118164774Y-66151898D01*
X118242795Y-66340256D01*
X118249307Y-66350001D01*
X118242795Y-66359747D01*
X118164774Y-66548105D01*
X118125000Y-66748064D01*
X118125000Y-66951942D01*
X118164774Y-67151901D01*
X118242795Y-67340259D01*
X118356063Y-67509777D01*
X118500226Y-67653940D01*
X118669744Y-67767208D01*
X118858102Y-67845229D01*
X119058061Y-67885003D01*
X119120199Y-67885003D01*
X122772301Y-71537105D01*
X122636033Y-71510000D01*
X122313967Y-71510000D01*
X121998088Y-71572832D01*
X121700537Y-71696082D01*
X121432748Y-71875013D01*
X121205013Y-72102748D01*
X121026082Y-72370537D01*
X120902832Y-72668088D01*
X120840000Y-72983967D01*
X120840000Y-73306033D01*
X120902832Y-73621912D01*
X121026082Y-73919463D01*
X121205013Y-74187252D01*
X121432748Y-74414987D01*
X121700537Y-74593918D01*
X121998088Y-74717168D01*
X122313967Y-74780000D01*
X122636033Y-74780000D01*
X122951912Y-74717168D01*
X123249463Y-74593918D01*
X123517252Y-74414987D01*
X123744987Y-74187252D01*
X123923918Y-73919463D01*
X124047168Y-73621912D01*
X124110000Y-73306033D01*
X124110000Y-72983967D01*
X124082895Y-72847699D01*
X126896198Y-75661003D01*
X126919996Y-75690001D01*
X127035721Y-75784974D01*
X127167750Y-75855546D01*
X127311011Y-75899003D01*
X127422664Y-75910000D01*
X127422673Y-75910000D01*
X127459996Y-75913676D01*
X127497319Y-75910000D01*
X143715091Y-75910000D01*
X143721082Y-75924463D01*
X143900013Y-76192252D01*
X144127748Y-76419987D01*
X144395537Y-76598918D01*
X144693088Y-76722168D01*
X145008967Y-76785000D01*
X145331033Y-76785000D01*
X145646912Y-76722168D01*
X145944463Y-76598918D01*
X146212252Y-76419987D01*
X146439987Y-76192252D01*
X146618918Y-75924463D01*
X146624909Y-75910000D01*
X150215091Y-75910000D01*
X150221082Y-75924463D01*
X150400013Y-76192252D01*
X150627748Y-76419987D01*
X150895537Y-76598918D01*
X151193088Y-76722168D01*
X151508967Y-76785000D01*
X151831033Y-76785000D01*
X152146912Y-76722168D01*
X152444463Y-76598918D01*
X152712252Y-76419987D01*
X152939987Y-76192252D01*
X153118918Y-75924463D01*
X153242168Y-75626912D01*
X153305000Y-75311033D01*
X153305000Y-74988967D01*
X153242168Y-74673088D01*
X153118918Y-74375537D01*
X152939987Y-74107748D01*
X152712252Y-73880013D01*
X152444463Y-73701082D01*
X152146912Y-73577832D01*
X151831033Y-73515000D01*
X151508967Y-73515000D01*
X151193088Y-73577832D01*
X150895537Y-73701082D01*
X150627748Y-73880013D01*
X150400013Y-74107748D01*
X150221082Y-74375537D01*
X150215091Y-74390000D01*
X146624909Y-74390000D01*
X146618918Y-74375537D01*
X146439987Y-74107748D01*
X146212252Y-73880013D01*
X145944463Y-73701082D01*
X145646912Y-73577832D01*
X145331033Y-73515000D01*
X145008967Y-73515000D01*
X144693088Y-73577832D01*
X144395537Y-73701082D01*
X144127748Y-73880013D01*
X143900013Y-74107748D01*
X143721082Y-74375537D01*
X143715091Y-74390000D01*
X130042239Y-74390000D01*
X130244987Y-74187252D01*
X130423918Y-73919463D01*
X130547168Y-73621912D01*
X130610000Y-73306033D01*
X130610000Y-72983967D01*
X130547168Y-72668088D01*
X130423918Y-72370537D01*
X130244987Y-72102748D01*
X130017252Y-71875013D01*
X129749463Y-71696082D01*
X129451912Y-71572832D01*
X129136033Y-71510000D01*
X128813967Y-71510000D01*
X128498088Y-71572832D01*
X128200537Y-71696082D01*
X127932748Y-71875013D01*
X127705013Y-72102748D01*
X127526082Y-72370537D01*
X127402832Y-72668088D01*
X127340000Y-72983967D01*
X127340000Y-73306033D01*
X127402832Y-73621912D01*
X127526082Y-73919463D01*
X127705013Y-74187252D01*
X127907761Y-74390000D01*
X127774799Y-74390000D01*
X123873766Y-70488967D01*
X134535000Y-70488967D01*
X134535000Y-70811033D01*
X134597832Y-71126912D01*
X134721082Y-71424463D01*
X134900013Y-71692252D01*
X135127748Y-71919987D01*
X135395537Y-72098918D01*
X135693088Y-72222168D01*
X136008967Y-72285000D01*
X136331033Y-72285000D01*
X136646912Y-72222168D01*
X136944463Y-72098918D01*
X137212252Y-71919987D01*
X137439987Y-71692252D01*
X137618918Y-71424463D01*
X137742168Y-71126912D01*
X137805000Y-70811033D01*
X137805000Y-70488967D01*
X137742168Y-70173088D01*
X137618918Y-69875537D01*
X137439987Y-69607748D01*
X137212252Y-69380013D01*
X136944463Y-69201082D01*
X136646912Y-69077832D01*
X136331033Y-69015000D01*
X136008967Y-69015000D01*
X135693088Y-69077832D01*
X135395537Y-69201082D01*
X135127748Y-69380013D01*
X134900013Y-69607748D01*
X134721082Y-69875537D01*
X134597832Y-70173088D01*
X134535000Y-70488967D01*
X123873766Y-70488967D01*
X120195000Y-66810202D01*
X120195000Y-66748064D01*
X120167538Y-66610000D01*
X121305199Y-66610000D01*
X122606200Y-67911002D01*
X122629999Y-67940001D01*
X122658997Y-67963799D01*
X122745723Y-68034974D01*
X122877753Y-68105546D01*
X123021014Y-68149003D01*
X123132667Y-68160000D01*
X123132677Y-68160000D01*
X123169999Y-68163676D01*
X123207322Y-68160000D01*
X138519412Y-68160000D01*
X139694693Y-69335282D01*
X139627748Y-69380013D01*
X139400013Y-69607748D01*
X139221082Y-69875537D01*
X139097832Y-70173088D01*
X139035000Y-70488967D01*
X139035000Y-70811033D01*
X139097832Y-71126912D01*
X139221082Y-71424463D01*
X139400013Y-71692252D01*
X139627748Y-71919987D01*
X139895537Y-72098918D01*
X140193088Y-72222168D01*
X140508967Y-72285000D01*
X140831033Y-72285000D01*
X141146912Y-72222168D01*
X141444463Y-72098918D01*
X141712252Y-71919987D01*
X141939987Y-71692252D01*
X142118918Y-71424463D01*
X142242168Y-71126912D01*
X142305000Y-70811033D01*
X142305000Y-70488967D01*
X142242168Y-70173088D01*
X142118918Y-69875537D01*
X141939987Y-69607748D01*
X141712252Y-69380013D01*
X141444463Y-69201082D01*
X141429655Y-69194948D01*
X141419003Y-69086801D01*
X141375546Y-68943540D01*
X141304974Y-68811511D01*
X141210001Y-68695786D01*
X141181003Y-68671988D01*
X139909014Y-67400000D01*
X141181003Y-66128012D01*
X141210001Y-66104214D01*
X141304974Y-65988489D01*
X141375546Y-65856460D01*
X141419003Y-65713199D01*
X141429655Y-65605052D01*
X141444463Y-65598918D01*
X141712252Y-65419987D01*
X141939987Y-65192252D01*
X142118918Y-64924463D01*
X142242168Y-64626912D01*
X142305000Y-64311033D01*
X142305000Y-63988967D01*
X142242168Y-63673088D01*
X142118918Y-63375537D01*
X141939987Y-63107748D01*
X141712252Y-62880013D01*
X141444463Y-62701082D01*
X141345283Y-62660000D01*
X152190986Y-62660000D01*
X154191988Y-64661003D01*
X154215786Y-64690001D01*
X154244784Y-64713799D01*
X154331511Y-64784974D01*
X154463540Y-64855546D01*
X154606801Y-64899003D01*
X154714948Y-64909655D01*
X154721082Y-64924463D01*
X154900013Y-65192252D01*
X155127748Y-65419987D01*
X155395537Y-65598918D01*
X155410001Y-65604909D01*
X155410000Y-69195091D01*
X155395537Y-69201082D01*
X155127748Y-69380013D01*
X154900013Y-69607748D01*
X154721082Y-69875537D01*
X154597832Y-70173088D01*
X154535000Y-70488967D01*
X154535000Y-70811033D01*
X154597832Y-71126912D01*
X154721082Y-71424463D01*
X154900013Y-71692252D01*
X155127748Y-71919987D01*
X155395537Y-72098918D01*
X155693088Y-72222168D01*
X156008967Y-72285000D01*
X156331033Y-72285000D01*
X156646912Y-72222168D01*
X156944463Y-72098918D01*
X157212252Y-71919987D01*
X157439987Y-71692252D01*
X157618918Y-71424463D01*
X157742168Y-71126912D01*
X157805000Y-70811033D01*
X157805000Y-70488967D01*
X159035000Y-70488967D01*
X159035000Y-70811033D01*
X159097832Y-71126912D01*
X159221082Y-71424463D01*
X159400013Y-71692252D01*
X159627748Y-71919987D01*
X159895537Y-72098918D01*
X160193088Y-72222168D01*
X160508967Y-72285000D01*
X160831033Y-72285000D01*
X161146912Y-72222168D01*
X161444463Y-72098918D01*
X161712252Y-71919987D01*
X161939987Y-71692252D01*
X162118918Y-71424463D01*
X162242168Y-71126912D01*
X162305000Y-70811033D01*
X162305000Y-70488967D01*
X162242168Y-70173088D01*
X162118918Y-69875537D01*
X161939987Y-69607748D01*
X161712252Y-69380013D01*
X161444463Y-69201082D01*
X161146912Y-69077832D01*
X160831033Y-69015000D01*
X160508967Y-69015000D01*
X160193088Y-69077832D01*
X159895537Y-69201082D01*
X159627748Y-69380013D01*
X159400013Y-69607748D01*
X159221082Y-69875537D01*
X159097832Y-70173088D01*
X159035000Y-70488967D01*
X157805000Y-70488967D01*
X157742168Y-70173088D01*
X157618918Y-69875537D01*
X157439987Y-69607748D01*
X157212252Y-69380013D01*
X156944463Y-69201082D01*
X156930000Y-69195091D01*
X156930000Y-65604909D01*
X156944463Y-65598918D01*
X157212252Y-65419987D01*
X157439987Y-65192252D01*
X157618918Y-64924463D01*
X157742168Y-64626912D01*
X157805000Y-64311033D01*
X157805000Y-63988967D01*
X159035000Y-63988967D01*
X159035000Y-64311033D01*
X159097832Y-64626912D01*
X159221082Y-64924463D01*
X159400013Y-65192252D01*
X159627748Y-65419987D01*
X159895537Y-65598918D01*
X160193088Y-65722168D01*
X160508967Y-65785000D01*
X160831033Y-65785000D01*
X161146912Y-65722168D01*
X161444463Y-65598918D01*
X161712252Y-65419987D01*
X161939987Y-65192252D01*
X162118918Y-64924463D01*
X162242168Y-64626912D01*
X162305000Y-64311033D01*
X162305000Y-63988967D01*
X162242168Y-63673088D01*
X162118918Y-63375537D01*
X161939987Y-63107748D01*
X161712252Y-62880013D01*
X161444463Y-62701082D01*
X161146912Y-62577832D01*
X160831033Y-62515000D01*
X160508967Y-62515000D01*
X160193088Y-62577832D01*
X159895537Y-62701082D01*
X159627748Y-62880013D01*
X159400013Y-63107748D01*
X159221082Y-63375537D01*
X159097832Y-63673088D01*
X159035000Y-63988967D01*
X157805000Y-63988967D01*
X157742168Y-63673088D01*
X157618918Y-63375537D01*
X157439987Y-63107748D01*
X157212252Y-62880013D01*
X156944463Y-62701082D01*
X156646912Y-62577832D01*
X156331033Y-62515000D01*
X156008967Y-62515000D01*
X155693088Y-62577832D01*
X155395537Y-62701082D01*
X155127748Y-62880013D01*
X154900013Y-63107748D01*
X154855282Y-63174693D01*
X153069591Y-61389003D01*
X153045788Y-61359999D01*
X152930063Y-61265026D01*
X152798034Y-61194454D01*
X152654773Y-61150997D01*
X152543120Y-61140000D01*
X152543109Y-61140000D01*
X152505787Y-61136324D01*
X152468465Y-61140000D01*
X152345283Y-61140000D01*
X152444463Y-61098918D01*
X152712252Y-60919987D01*
X152939987Y-60692252D01*
X153118918Y-60424463D01*
X153242168Y-60126912D01*
X153305000Y-59811033D01*
X153305000Y-59488967D01*
X153242168Y-59173088D01*
X153118918Y-58875537D01*
X152939987Y-58607748D01*
X152712252Y-58380013D01*
X152444463Y-58201082D01*
X152146912Y-58077832D01*
X151831033Y-58015000D01*
X151508967Y-58015000D01*
X151193088Y-58077832D01*
X150895537Y-58201082D01*
X150627748Y-58380013D01*
X150400013Y-58607748D01*
X150221082Y-58875537D01*
X150215091Y-58890000D01*
X146624909Y-58890000D01*
X146618918Y-58875537D01*
X146439987Y-58607748D01*
X146212252Y-58380013D01*
X145944463Y-58201082D01*
X145646912Y-58077832D01*
X145331033Y-58015000D01*
X145008967Y-58015000D01*
X144693088Y-58077832D01*
X144395537Y-58201082D01*
X144127748Y-58380013D01*
X143900013Y-58607748D01*
X143721082Y-58875537D01*
X143715091Y-58890000D01*
X136407323Y-58890000D01*
X136370000Y-58886324D01*
X136332677Y-58890000D01*
X136332667Y-58890000D01*
X136221014Y-58900997D01*
X136077753Y-58944454D01*
X135945723Y-59015026D01*
X135862083Y-59083668D01*
X135829999Y-59109999D01*
X135806201Y-59138997D01*
X131855199Y-63090000D01*
X119863711Y-63090000D01*
X119819774Y-63046063D01*
X119650256Y-62932795D01*
X119461898Y-62854774D01*
X119261939Y-62815000D01*
X119058061Y-62815000D01*
X118858102Y-62854774D01*
X118669744Y-62932795D01*
X118500226Y-63046063D01*
X118356063Y-63190226D01*
X118242795Y-63359744D01*
X118164774Y-63548102D01*
X118125000Y-63748061D01*
X95830000Y-63748061D01*
X95830000Y-60531759D01*
X95857599Y-60546511D01*
X96090398Y-60617130D01*
X96271835Y-60635000D01*
X97093165Y-60635000D01*
X97274602Y-60617130D01*
X97507401Y-60546511D01*
X97721949Y-60431833D01*
X97910002Y-60277502D01*
X98055484Y-60100232D01*
X98022500Y-60266052D01*
X98022500Y-60533948D01*
X98074764Y-60796697D01*
X98177284Y-61044201D01*
X98326119Y-61266949D01*
X98515551Y-61456381D01*
X98738299Y-61605216D01*
X98985803Y-61707736D01*
X99248552Y-61760000D01*
X99516448Y-61760000D01*
X99779197Y-61707736D01*
X100026701Y-61605216D01*
X100249449Y-61456381D01*
X100438881Y-61266949D01*
X100587716Y-61044201D01*
X100690236Y-60796697D01*
X100742500Y-60533948D01*
X100742500Y-60266052D01*
X100690236Y-60003303D01*
X100587716Y-59755799D01*
X100438881Y-59533051D01*
X100249449Y-59343619D01*
X100026701Y-59194784D01*
X99779197Y-59092264D01*
X99516448Y-59040000D01*
X99248552Y-59040000D01*
X98985803Y-59092264D01*
X98738299Y-59194784D01*
X98515551Y-59343619D01*
X98326119Y-59533051D01*
X98246617Y-59652035D01*
X98249630Y-59642102D01*
X98273475Y-59400000D01*
X98249630Y-59157898D01*
X98179011Y-58925099D01*
X98064333Y-58710551D01*
X97910002Y-58522498D01*
X97721949Y-58368167D01*
X97507401Y-58253489D01*
X97274602Y-58182870D01*
X97093165Y-58165000D01*
X96271835Y-58165000D01*
X96090398Y-58182870D01*
X95857599Y-58253489D01*
X95830000Y-58268241D01*
X95830000Y-53429872D01*
X96935000Y-53429872D01*
X96935000Y-53870128D01*
X97020890Y-54301925D01*
X97189369Y-54708669D01*
X97433962Y-55074729D01*
X97745271Y-55386038D01*
X98111331Y-55630631D01*
X98518075Y-55799110D01*
X98949872Y-55885000D01*
X99390128Y-55885000D01*
X99821925Y-55799110D01*
X100228669Y-55630631D01*
X100594729Y-55386038D01*
X100762027Y-55218740D01*
X121625000Y-55218740D01*
X121625000Y-55511260D01*
X121682068Y-55798158D01*
X121794010Y-56068411D01*
X121956525Y-56311632D01*
X122163368Y-56518475D01*
X122406589Y-56680990D01*
X122676842Y-56792932D01*
X122963740Y-56850000D01*
X123256260Y-56850000D01*
X123543158Y-56792932D01*
X123813411Y-56680990D01*
X124056632Y-56518475D01*
X124188487Y-56386620D01*
X124210498Y-56459180D01*
X124269463Y-56569494D01*
X124348815Y-56666185D01*
X124445506Y-56745537D01*
X124555820Y-56804502D01*
X124675518Y-56840812D01*
X124800000Y-56853072D01*
X125364250Y-56850000D01*
X125523000Y-56691250D01*
X125523000Y-55492000D01*
X125777000Y-55492000D01*
X125777000Y-56691250D01*
X125935750Y-56850000D01*
X126500000Y-56853072D01*
X126624482Y-56840812D01*
X126744180Y-56804502D01*
X126854494Y-56745537D01*
X126951185Y-56666185D01*
X127030537Y-56569494D01*
X127089502Y-56459180D01*
X127125812Y-56339482D01*
X127138072Y-56215000D01*
X127135000Y-55650750D01*
X126976250Y-55492000D01*
X125777000Y-55492000D01*
X125523000Y-55492000D01*
X125503000Y-55492000D01*
X125503000Y-55238000D01*
X125523000Y-55238000D01*
X125523000Y-54038750D01*
X125777000Y-54038750D01*
X125777000Y-55238000D01*
X126976250Y-55238000D01*
X127135000Y-55079250D01*
X127135491Y-54988967D01*
X143535000Y-54988967D01*
X143535000Y-55311033D01*
X143597832Y-55626912D01*
X143721082Y-55924463D01*
X143900013Y-56192252D01*
X144127748Y-56419987D01*
X144395537Y-56598918D01*
X144693088Y-56722168D01*
X145008967Y-56785000D01*
X145331033Y-56785000D01*
X145646912Y-56722168D01*
X145944463Y-56598918D01*
X146212252Y-56419987D01*
X146439987Y-56192252D01*
X146618918Y-55924463D01*
X146742168Y-55626912D01*
X146805000Y-55311033D01*
X146805000Y-54988967D01*
X150035000Y-54988967D01*
X150035000Y-55311033D01*
X150097832Y-55626912D01*
X150221082Y-55924463D01*
X150400013Y-56192252D01*
X150627748Y-56419987D01*
X150895537Y-56598918D01*
X151193088Y-56722168D01*
X151508967Y-56785000D01*
X151831033Y-56785000D01*
X152146912Y-56722168D01*
X152444463Y-56598918D01*
X152712252Y-56419987D01*
X152939987Y-56192252D01*
X153118918Y-55924463D01*
X153242168Y-55626912D01*
X153305000Y-55311033D01*
X153305000Y-54988967D01*
X153242168Y-54673088D01*
X153118918Y-54375537D01*
X152939987Y-54107748D01*
X152712252Y-53880013D01*
X152444463Y-53701082D01*
X152146912Y-53577832D01*
X151831033Y-53515000D01*
X151508967Y-53515000D01*
X151193088Y-53577832D01*
X150895537Y-53701082D01*
X150627748Y-53880013D01*
X150400013Y-54107748D01*
X150221082Y-54375537D01*
X150097832Y-54673088D01*
X150035000Y-54988967D01*
X146805000Y-54988967D01*
X146742168Y-54673088D01*
X146618918Y-54375537D01*
X146439987Y-54107748D01*
X146212252Y-53880013D01*
X145944463Y-53701082D01*
X145646912Y-53577832D01*
X145331033Y-53515000D01*
X145008967Y-53515000D01*
X144693088Y-53577832D01*
X144395537Y-53701082D01*
X144127748Y-53880013D01*
X143900013Y-54107748D01*
X143721082Y-54375537D01*
X143597832Y-54673088D01*
X143535000Y-54988967D01*
X127135491Y-54988967D01*
X127138072Y-54515000D01*
X127125812Y-54390518D01*
X127089502Y-54270820D01*
X127030537Y-54160506D01*
X126951185Y-54063815D01*
X126854494Y-53984463D01*
X126744180Y-53925498D01*
X126624482Y-53889188D01*
X126500000Y-53876928D01*
X125935750Y-53880000D01*
X125777000Y-54038750D01*
X125523000Y-54038750D01*
X125364250Y-53880000D01*
X124800000Y-53876928D01*
X124675518Y-53889188D01*
X124555820Y-53925498D01*
X124445506Y-53984463D01*
X124348815Y-54063815D01*
X124269463Y-54160506D01*
X124210498Y-54270820D01*
X124188487Y-54343380D01*
X124056632Y-54211525D01*
X123813411Y-54049010D01*
X123543158Y-53937068D01*
X123256260Y-53880000D01*
X122963740Y-53880000D01*
X122676842Y-53937068D01*
X122406589Y-54049010D01*
X122163368Y-54211525D01*
X121956525Y-54418368D01*
X121794010Y-54661589D01*
X121682068Y-54931842D01*
X121625000Y-55218740D01*
X100762027Y-55218740D01*
X100906038Y-55074729D01*
X101150631Y-54708669D01*
X101319110Y-54301925D01*
X101405000Y-53870128D01*
X101405000Y-53429872D01*
X101319110Y-52998075D01*
X101200783Y-52712408D01*
X108263000Y-52712408D01*
X108263000Y-52987592D01*
X108316686Y-53257490D01*
X108421995Y-53511727D01*
X108574880Y-53740535D01*
X108769465Y-53935120D01*
X108998273Y-54088005D01*
X109252510Y-54193314D01*
X109522408Y-54247000D01*
X109797592Y-54247000D01*
X110067490Y-54193314D01*
X110321727Y-54088005D01*
X110550535Y-53935120D01*
X110670090Y-53815565D01*
X111414040Y-53815565D01*
X111481020Y-54055656D01*
X111730048Y-54172756D01*
X111997135Y-54239023D01*
X112272017Y-54251910D01*
X112544133Y-54210922D01*
X112803023Y-54117636D01*
X112918980Y-54055656D01*
X112985960Y-53815565D01*
X112200000Y-53029605D01*
X111414040Y-53815565D01*
X110670090Y-53815565D01*
X110745120Y-53740535D01*
X110898005Y-53511727D01*
X110927692Y-53440057D01*
X110932364Y-53453023D01*
X110994344Y-53568980D01*
X111234435Y-53635960D01*
X112020395Y-52850000D01*
X112379605Y-52850000D01*
X113165565Y-53635960D01*
X113405656Y-53568980D01*
X113469485Y-53433240D01*
X113501995Y-53511727D01*
X113654880Y-53740535D01*
X113849465Y-53935120D01*
X114078273Y-54088005D01*
X114332510Y-54193314D01*
X114602408Y-54247000D01*
X114877592Y-54247000D01*
X115147490Y-54193314D01*
X115401727Y-54088005D01*
X115630535Y-53935120D01*
X115825120Y-53740535D01*
X115978005Y-53511727D01*
X116010000Y-53434485D01*
X116041995Y-53511727D01*
X116194880Y-53740535D01*
X116389465Y-53935120D01*
X116618273Y-54088005D01*
X116872510Y-54193314D01*
X117142408Y-54247000D01*
X117417592Y-54247000D01*
X117687490Y-54193314D01*
X117941727Y-54088005D01*
X118170535Y-53935120D01*
X118365120Y-53740535D01*
X118518005Y-53511727D01*
X118551910Y-53429872D01*
X158935000Y-53429872D01*
X158935000Y-53870128D01*
X159020890Y-54301925D01*
X159189369Y-54708669D01*
X159433962Y-55074729D01*
X159745271Y-55386038D01*
X160111331Y-55630631D01*
X160518075Y-55799110D01*
X160949872Y-55885000D01*
X161390128Y-55885000D01*
X161821925Y-55799110D01*
X162228669Y-55630631D01*
X162594729Y-55386038D01*
X162906038Y-55074729D01*
X163150631Y-54708669D01*
X163319110Y-54301925D01*
X163405000Y-53870128D01*
X163405000Y-53429872D01*
X163319110Y-52998075D01*
X163150631Y-52591331D01*
X162906038Y-52225271D01*
X162594729Y-51913962D01*
X162228669Y-51669369D01*
X161821925Y-51500890D01*
X161390128Y-51415000D01*
X160949872Y-51415000D01*
X160518075Y-51500890D01*
X160111331Y-51669369D01*
X159745271Y-51913962D01*
X159433962Y-52225271D01*
X159189369Y-52591331D01*
X159020890Y-52998075D01*
X158935000Y-53429872D01*
X118551910Y-53429872D01*
X118623314Y-53257490D01*
X118677000Y-52987592D01*
X118677000Y-52712408D01*
X118623314Y-52442510D01*
X118518005Y-52188273D01*
X118365120Y-51959465D01*
X118170535Y-51764880D01*
X117941727Y-51611995D01*
X117687490Y-51506686D01*
X117417592Y-51453000D01*
X117142408Y-51453000D01*
X116872510Y-51506686D01*
X116618273Y-51611995D01*
X116389465Y-51764880D01*
X116194880Y-51959465D01*
X116041995Y-52188273D01*
X116010000Y-52265515D01*
X115978005Y-52188273D01*
X115825120Y-51959465D01*
X115630535Y-51764880D01*
X115401727Y-51611995D01*
X115147490Y-51506686D01*
X114877592Y-51453000D01*
X114602408Y-51453000D01*
X114332510Y-51506686D01*
X114078273Y-51611995D01*
X113849465Y-51764880D01*
X113654880Y-51959465D01*
X113501995Y-52188273D01*
X113472308Y-52259943D01*
X113467636Y-52246977D01*
X113405656Y-52131020D01*
X113165565Y-52064040D01*
X112379605Y-52850000D01*
X112020395Y-52850000D01*
X111234435Y-52064040D01*
X110994344Y-52131020D01*
X110930515Y-52266760D01*
X110898005Y-52188273D01*
X110745120Y-51959465D01*
X110670090Y-51884435D01*
X111414040Y-51884435D01*
X112200000Y-52670395D01*
X112985960Y-51884435D01*
X112918980Y-51644344D01*
X112669952Y-51527244D01*
X112402865Y-51460977D01*
X112127983Y-51448090D01*
X111855867Y-51489078D01*
X111596977Y-51582364D01*
X111481020Y-51644344D01*
X111414040Y-51884435D01*
X110670090Y-51884435D01*
X110550535Y-51764880D01*
X110321727Y-51611995D01*
X110067490Y-51506686D01*
X109797592Y-51453000D01*
X109522408Y-51453000D01*
X109252510Y-51506686D01*
X108998273Y-51611995D01*
X108769465Y-51764880D01*
X108574880Y-51959465D01*
X108421995Y-52188273D01*
X108316686Y-52442510D01*
X108263000Y-52712408D01*
X101200783Y-52712408D01*
X101150631Y-52591331D01*
X100906038Y-52225271D01*
X100594729Y-51913962D01*
X100228669Y-51669369D01*
X99821925Y-51500890D01*
X99390128Y-51415000D01*
X98949872Y-51415000D01*
X98518075Y-51500890D01*
X98111331Y-51669369D01*
X97745271Y-51913962D01*
X97433962Y-52225271D01*
X97189369Y-52591331D01*
X97020890Y-52998075D01*
X96935000Y-53429872D01*
X95830000Y-53429872D01*
X95830000Y-50310000D01*
X164510000Y-50310000D01*
X164510001Y-83990000D01*
M02*
