G04 #@! TF.GenerationSoftware,KiCad,Pcbnew,(5.1.5)-3*
G04 #@! TF.CreationDate,2020-02-27T20:47:59-05:00*
G04 #@! TF.ProjectId,V-Naught_Display,562d4e61-7567-4687-945f-446973706c61,rev?*
G04 #@! TF.SameCoordinates,Original*
G04 #@! TF.FileFunction,Paste,Bot*
G04 #@! TF.FilePolarity,Positive*
%FSLAX46Y46*%
G04 Gerber Fmt 4.6, Leading zero omitted, Abs format (unit mm)*
G04 Created by KiCad (PCBNEW (5.1.5)-3) date 2020-02-27 20:47:59*
%MOMM*%
%LPD*%
G04 APERTURE LIST*
%ADD10R,0.740000X2.400000*%
%ADD11R,0.650000X0.400000*%
%ADD12C,0.100000*%
%ADD13R,1.450000X0.450000*%
%ADD14R,1.060000X0.650000*%
%ADD15R,1.900000X1.500000*%
%ADD16R,1.350000X0.400000*%
G04 APERTURE END LIST*
D10*
X105030000Y-76950000D03*
X105030000Y-80850000D03*
X106300000Y-76950000D03*
X106300000Y-80850000D03*
X107570000Y-76950000D03*
X107570000Y-80850000D03*
X108840000Y-76950000D03*
X108840000Y-80850000D03*
X110110000Y-76950000D03*
X110110000Y-80850000D03*
D11*
X151220000Y-55550000D03*
X151220000Y-54250000D03*
X151220000Y-54900000D03*
X153120000Y-54250000D03*
X153120000Y-55550000D03*
D12*
G36*
X115970142Y-77738674D02*
G01*
X115993803Y-77742184D01*
X116017007Y-77747996D01*
X116039529Y-77756054D01*
X116061153Y-77766282D01*
X116081670Y-77778579D01*
X116100883Y-77792829D01*
X116118607Y-77808893D01*
X116134671Y-77826617D01*
X116148921Y-77845830D01*
X116161218Y-77866347D01*
X116171446Y-77887971D01*
X116179504Y-77910493D01*
X116185316Y-77933697D01*
X116188826Y-77957358D01*
X116190000Y-77981250D01*
X116190000Y-78468750D01*
X116188826Y-78492642D01*
X116185316Y-78516303D01*
X116179504Y-78539507D01*
X116171446Y-78562029D01*
X116161218Y-78583653D01*
X116148921Y-78604170D01*
X116134671Y-78623383D01*
X116118607Y-78641107D01*
X116100883Y-78657171D01*
X116081670Y-78671421D01*
X116061153Y-78683718D01*
X116039529Y-78693946D01*
X116017007Y-78702004D01*
X115993803Y-78707816D01*
X115970142Y-78711326D01*
X115946250Y-78712500D01*
X115033750Y-78712500D01*
X115009858Y-78711326D01*
X114986197Y-78707816D01*
X114962993Y-78702004D01*
X114940471Y-78693946D01*
X114918847Y-78683718D01*
X114898330Y-78671421D01*
X114879117Y-78657171D01*
X114861393Y-78641107D01*
X114845329Y-78623383D01*
X114831079Y-78604170D01*
X114818782Y-78583653D01*
X114808554Y-78562029D01*
X114800496Y-78539507D01*
X114794684Y-78516303D01*
X114791174Y-78492642D01*
X114790000Y-78468750D01*
X114790000Y-77981250D01*
X114791174Y-77957358D01*
X114794684Y-77933697D01*
X114800496Y-77910493D01*
X114808554Y-77887971D01*
X114818782Y-77866347D01*
X114831079Y-77845830D01*
X114845329Y-77826617D01*
X114861393Y-77808893D01*
X114879117Y-77792829D01*
X114898330Y-77778579D01*
X114918847Y-77766282D01*
X114940471Y-77756054D01*
X114962993Y-77747996D01*
X114986197Y-77742184D01*
X115009858Y-77738674D01*
X115033750Y-77737500D01*
X115946250Y-77737500D01*
X115970142Y-77738674D01*
G37*
G36*
X115970142Y-79613674D02*
G01*
X115993803Y-79617184D01*
X116017007Y-79622996D01*
X116039529Y-79631054D01*
X116061153Y-79641282D01*
X116081670Y-79653579D01*
X116100883Y-79667829D01*
X116118607Y-79683893D01*
X116134671Y-79701617D01*
X116148921Y-79720830D01*
X116161218Y-79741347D01*
X116171446Y-79762971D01*
X116179504Y-79785493D01*
X116185316Y-79808697D01*
X116188826Y-79832358D01*
X116190000Y-79856250D01*
X116190000Y-80343750D01*
X116188826Y-80367642D01*
X116185316Y-80391303D01*
X116179504Y-80414507D01*
X116171446Y-80437029D01*
X116161218Y-80458653D01*
X116148921Y-80479170D01*
X116134671Y-80498383D01*
X116118607Y-80516107D01*
X116100883Y-80532171D01*
X116081670Y-80546421D01*
X116061153Y-80558718D01*
X116039529Y-80568946D01*
X116017007Y-80577004D01*
X115993803Y-80582816D01*
X115970142Y-80586326D01*
X115946250Y-80587500D01*
X115033750Y-80587500D01*
X115009858Y-80586326D01*
X114986197Y-80582816D01*
X114962993Y-80577004D01*
X114940471Y-80568946D01*
X114918847Y-80558718D01*
X114898330Y-80546421D01*
X114879117Y-80532171D01*
X114861393Y-80516107D01*
X114845329Y-80498383D01*
X114831079Y-80479170D01*
X114818782Y-80458653D01*
X114808554Y-80437029D01*
X114800496Y-80414507D01*
X114794684Y-80391303D01*
X114791174Y-80367642D01*
X114790000Y-80343750D01*
X114790000Y-79856250D01*
X114791174Y-79832358D01*
X114794684Y-79808697D01*
X114800496Y-79785493D01*
X114808554Y-79762971D01*
X114818782Y-79741347D01*
X114831079Y-79720830D01*
X114845329Y-79701617D01*
X114861393Y-79683893D01*
X114879117Y-79667829D01*
X114898330Y-79653579D01*
X114918847Y-79641282D01*
X114940471Y-79631054D01*
X114962993Y-79622996D01*
X114986197Y-79617184D01*
X115009858Y-79613674D01*
X115033750Y-79612500D01*
X115946250Y-79612500D01*
X115970142Y-79613674D01*
G37*
G36*
X125597142Y-57739174D02*
G01*
X125620803Y-57742684D01*
X125644007Y-57748496D01*
X125666529Y-57756554D01*
X125688153Y-57766782D01*
X125708670Y-57779079D01*
X125727883Y-57793329D01*
X125745607Y-57809393D01*
X125761671Y-57827117D01*
X125775921Y-57846330D01*
X125788218Y-57866847D01*
X125798446Y-57888471D01*
X125806504Y-57910993D01*
X125812316Y-57934197D01*
X125815826Y-57957858D01*
X125817000Y-57981750D01*
X125817000Y-58894250D01*
X125815826Y-58918142D01*
X125812316Y-58941803D01*
X125806504Y-58965007D01*
X125798446Y-58987529D01*
X125788218Y-59009153D01*
X125775921Y-59029670D01*
X125761671Y-59048883D01*
X125745607Y-59066607D01*
X125727883Y-59082671D01*
X125708670Y-59096921D01*
X125688153Y-59109218D01*
X125666529Y-59119446D01*
X125644007Y-59127504D01*
X125620803Y-59133316D01*
X125597142Y-59136826D01*
X125573250Y-59138000D01*
X125085750Y-59138000D01*
X125061858Y-59136826D01*
X125038197Y-59133316D01*
X125014993Y-59127504D01*
X124992471Y-59119446D01*
X124970847Y-59109218D01*
X124950330Y-59096921D01*
X124931117Y-59082671D01*
X124913393Y-59066607D01*
X124897329Y-59048883D01*
X124883079Y-59029670D01*
X124870782Y-59009153D01*
X124860554Y-58987529D01*
X124852496Y-58965007D01*
X124846684Y-58941803D01*
X124843174Y-58918142D01*
X124842000Y-58894250D01*
X124842000Y-57981750D01*
X124843174Y-57957858D01*
X124846684Y-57934197D01*
X124852496Y-57910993D01*
X124860554Y-57888471D01*
X124870782Y-57866847D01*
X124883079Y-57846330D01*
X124897329Y-57827117D01*
X124913393Y-57809393D01*
X124931117Y-57793329D01*
X124950330Y-57779079D01*
X124970847Y-57766782D01*
X124992471Y-57756554D01*
X125014993Y-57748496D01*
X125038197Y-57742684D01*
X125061858Y-57739174D01*
X125085750Y-57738000D01*
X125573250Y-57738000D01*
X125597142Y-57739174D01*
G37*
G36*
X123722142Y-57739174D02*
G01*
X123745803Y-57742684D01*
X123769007Y-57748496D01*
X123791529Y-57756554D01*
X123813153Y-57766782D01*
X123833670Y-57779079D01*
X123852883Y-57793329D01*
X123870607Y-57809393D01*
X123886671Y-57827117D01*
X123900921Y-57846330D01*
X123913218Y-57866847D01*
X123923446Y-57888471D01*
X123931504Y-57910993D01*
X123937316Y-57934197D01*
X123940826Y-57957858D01*
X123942000Y-57981750D01*
X123942000Y-58894250D01*
X123940826Y-58918142D01*
X123937316Y-58941803D01*
X123931504Y-58965007D01*
X123923446Y-58987529D01*
X123913218Y-59009153D01*
X123900921Y-59029670D01*
X123886671Y-59048883D01*
X123870607Y-59066607D01*
X123852883Y-59082671D01*
X123833670Y-59096921D01*
X123813153Y-59109218D01*
X123791529Y-59119446D01*
X123769007Y-59127504D01*
X123745803Y-59133316D01*
X123722142Y-59136826D01*
X123698250Y-59138000D01*
X123210750Y-59138000D01*
X123186858Y-59136826D01*
X123163197Y-59133316D01*
X123139993Y-59127504D01*
X123117471Y-59119446D01*
X123095847Y-59109218D01*
X123075330Y-59096921D01*
X123056117Y-59082671D01*
X123038393Y-59066607D01*
X123022329Y-59048883D01*
X123008079Y-59029670D01*
X122995782Y-59009153D01*
X122985554Y-58987529D01*
X122977496Y-58965007D01*
X122971684Y-58941803D01*
X122968174Y-58918142D01*
X122967000Y-58894250D01*
X122967000Y-57981750D01*
X122968174Y-57957858D01*
X122971684Y-57934197D01*
X122977496Y-57910993D01*
X122985554Y-57888471D01*
X122995782Y-57866847D01*
X123008079Y-57846330D01*
X123022329Y-57827117D01*
X123038393Y-57809393D01*
X123056117Y-57793329D01*
X123075330Y-57779079D01*
X123095847Y-57766782D01*
X123117471Y-57756554D01*
X123139993Y-57748496D01*
X123163197Y-57742684D01*
X123186858Y-57739174D01*
X123210750Y-57738000D01*
X123698250Y-57738000D01*
X123722142Y-57739174D01*
G37*
G36*
X118510142Y-77738674D02*
G01*
X118533803Y-77742184D01*
X118557007Y-77747996D01*
X118579529Y-77756054D01*
X118601153Y-77766282D01*
X118621670Y-77778579D01*
X118640883Y-77792829D01*
X118658607Y-77808893D01*
X118674671Y-77826617D01*
X118688921Y-77845830D01*
X118701218Y-77866347D01*
X118711446Y-77887971D01*
X118719504Y-77910493D01*
X118725316Y-77933697D01*
X118728826Y-77957358D01*
X118730000Y-77981250D01*
X118730000Y-78468750D01*
X118728826Y-78492642D01*
X118725316Y-78516303D01*
X118719504Y-78539507D01*
X118711446Y-78562029D01*
X118701218Y-78583653D01*
X118688921Y-78604170D01*
X118674671Y-78623383D01*
X118658607Y-78641107D01*
X118640883Y-78657171D01*
X118621670Y-78671421D01*
X118601153Y-78683718D01*
X118579529Y-78693946D01*
X118557007Y-78702004D01*
X118533803Y-78707816D01*
X118510142Y-78711326D01*
X118486250Y-78712500D01*
X117573750Y-78712500D01*
X117549858Y-78711326D01*
X117526197Y-78707816D01*
X117502993Y-78702004D01*
X117480471Y-78693946D01*
X117458847Y-78683718D01*
X117438330Y-78671421D01*
X117419117Y-78657171D01*
X117401393Y-78641107D01*
X117385329Y-78623383D01*
X117371079Y-78604170D01*
X117358782Y-78583653D01*
X117348554Y-78562029D01*
X117340496Y-78539507D01*
X117334684Y-78516303D01*
X117331174Y-78492642D01*
X117330000Y-78468750D01*
X117330000Y-77981250D01*
X117331174Y-77957358D01*
X117334684Y-77933697D01*
X117340496Y-77910493D01*
X117348554Y-77887971D01*
X117358782Y-77866347D01*
X117371079Y-77845830D01*
X117385329Y-77826617D01*
X117401393Y-77808893D01*
X117419117Y-77792829D01*
X117438330Y-77778579D01*
X117458847Y-77766282D01*
X117480471Y-77756054D01*
X117502993Y-77747996D01*
X117526197Y-77742184D01*
X117549858Y-77738674D01*
X117573750Y-77737500D01*
X118486250Y-77737500D01*
X118510142Y-77738674D01*
G37*
G36*
X118510142Y-79613674D02*
G01*
X118533803Y-79617184D01*
X118557007Y-79622996D01*
X118579529Y-79631054D01*
X118601153Y-79641282D01*
X118621670Y-79653579D01*
X118640883Y-79667829D01*
X118658607Y-79683893D01*
X118674671Y-79701617D01*
X118688921Y-79720830D01*
X118701218Y-79741347D01*
X118711446Y-79762971D01*
X118719504Y-79785493D01*
X118725316Y-79808697D01*
X118728826Y-79832358D01*
X118730000Y-79856250D01*
X118730000Y-80343750D01*
X118728826Y-80367642D01*
X118725316Y-80391303D01*
X118719504Y-80414507D01*
X118711446Y-80437029D01*
X118701218Y-80458653D01*
X118688921Y-80479170D01*
X118674671Y-80498383D01*
X118658607Y-80516107D01*
X118640883Y-80532171D01*
X118621670Y-80546421D01*
X118601153Y-80558718D01*
X118579529Y-80568946D01*
X118557007Y-80577004D01*
X118533803Y-80582816D01*
X118510142Y-80586326D01*
X118486250Y-80587500D01*
X117573750Y-80587500D01*
X117549858Y-80586326D01*
X117526197Y-80582816D01*
X117502993Y-80577004D01*
X117480471Y-80568946D01*
X117458847Y-80558718D01*
X117438330Y-80546421D01*
X117419117Y-80532171D01*
X117401393Y-80516107D01*
X117385329Y-80498383D01*
X117371079Y-80479170D01*
X117358782Y-80458653D01*
X117348554Y-80437029D01*
X117340496Y-80414507D01*
X117334684Y-80391303D01*
X117331174Y-80367642D01*
X117330000Y-80343750D01*
X117330000Y-79856250D01*
X117331174Y-79832358D01*
X117334684Y-79808697D01*
X117340496Y-79785493D01*
X117348554Y-79762971D01*
X117358782Y-79741347D01*
X117371079Y-79720830D01*
X117385329Y-79701617D01*
X117401393Y-79683893D01*
X117419117Y-79667829D01*
X117438330Y-79653579D01*
X117458847Y-79641282D01*
X117480471Y-79631054D01*
X117502993Y-79622996D01*
X117526197Y-79617184D01*
X117549858Y-79613674D01*
X117573750Y-79612500D01*
X118486250Y-79612500D01*
X118510142Y-79613674D01*
G37*
D13*
X116420000Y-58815000D03*
X116420000Y-59465000D03*
X116420000Y-60115000D03*
X116420000Y-60765000D03*
X116420000Y-61415000D03*
X116420000Y-62065000D03*
X116420000Y-62715000D03*
X116420000Y-63365000D03*
X116420000Y-64015000D03*
X116420000Y-64665000D03*
X110520000Y-64665000D03*
X110520000Y-64015000D03*
X110520000Y-63365000D03*
X110520000Y-62715000D03*
X110520000Y-62065000D03*
X110520000Y-61415000D03*
X110520000Y-60765000D03*
X110520000Y-60115000D03*
X110520000Y-59465000D03*
X110520000Y-58815000D03*
D14*
X104115000Y-70310000D03*
X104115000Y-69360000D03*
X104115000Y-68410000D03*
X106315000Y-68410000D03*
X106315000Y-70310000D03*
D15*
X96682500Y-63900000D03*
D16*
X99382500Y-62900000D03*
X99382500Y-62250000D03*
X99382500Y-61600000D03*
X99382500Y-64200000D03*
X99382500Y-63550000D03*
D15*
X96682500Y-61900000D03*
D12*
G36*
X122375142Y-60701174D02*
G01*
X122398803Y-60704684D01*
X122422007Y-60710496D01*
X122444529Y-60718554D01*
X122466153Y-60728782D01*
X122486670Y-60741079D01*
X122505883Y-60755329D01*
X122523607Y-60771393D01*
X122539671Y-60789117D01*
X122553921Y-60808330D01*
X122566218Y-60828847D01*
X122576446Y-60850471D01*
X122584504Y-60872993D01*
X122590316Y-60896197D01*
X122593826Y-60919858D01*
X122595000Y-60943750D01*
X122595000Y-61856250D01*
X122593826Y-61880142D01*
X122590316Y-61903803D01*
X122584504Y-61927007D01*
X122576446Y-61949529D01*
X122566218Y-61971153D01*
X122553921Y-61991670D01*
X122539671Y-62010883D01*
X122523607Y-62028607D01*
X122505883Y-62044671D01*
X122486670Y-62058921D01*
X122466153Y-62071218D01*
X122444529Y-62081446D01*
X122422007Y-62089504D01*
X122398803Y-62095316D01*
X122375142Y-62098826D01*
X122351250Y-62100000D01*
X121863750Y-62100000D01*
X121839858Y-62098826D01*
X121816197Y-62095316D01*
X121792993Y-62089504D01*
X121770471Y-62081446D01*
X121748847Y-62071218D01*
X121728330Y-62058921D01*
X121709117Y-62044671D01*
X121691393Y-62028607D01*
X121675329Y-62010883D01*
X121661079Y-61991670D01*
X121648782Y-61971153D01*
X121638554Y-61949529D01*
X121630496Y-61927007D01*
X121624684Y-61903803D01*
X121621174Y-61880142D01*
X121620000Y-61856250D01*
X121620000Y-60943750D01*
X121621174Y-60919858D01*
X121624684Y-60896197D01*
X121630496Y-60872993D01*
X121638554Y-60850471D01*
X121648782Y-60828847D01*
X121661079Y-60808330D01*
X121675329Y-60789117D01*
X121691393Y-60771393D01*
X121709117Y-60755329D01*
X121728330Y-60741079D01*
X121748847Y-60728782D01*
X121770471Y-60718554D01*
X121792993Y-60710496D01*
X121816197Y-60704684D01*
X121839858Y-60701174D01*
X121863750Y-60700000D01*
X122351250Y-60700000D01*
X122375142Y-60701174D01*
G37*
G36*
X120500142Y-60701174D02*
G01*
X120523803Y-60704684D01*
X120547007Y-60710496D01*
X120569529Y-60718554D01*
X120591153Y-60728782D01*
X120611670Y-60741079D01*
X120630883Y-60755329D01*
X120648607Y-60771393D01*
X120664671Y-60789117D01*
X120678921Y-60808330D01*
X120691218Y-60828847D01*
X120701446Y-60850471D01*
X120709504Y-60872993D01*
X120715316Y-60896197D01*
X120718826Y-60919858D01*
X120720000Y-60943750D01*
X120720000Y-61856250D01*
X120718826Y-61880142D01*
X120715316Y-61903803D01*
X120709504Y-61927007D01*
X120701446Y-61949529D01*
X120691218Y-61971153D01*
X120678921Y-61991670D01*
X120664671Y-62010883D01*
X120648607Y-62028607D01*
X120630883Y-62044671D01*
X120611670Y-62058921D01*
X120591153Y-62071218D01*
X120569529Y-62081446D01*
X120547007Y-62089504D01*
X120523803Y-62095316D01*
X120500142Y-62098826D01*
X120476250Y-62100000D01*
X119988750Y-62100000D01*
X119964858Y-62098826D01*
X119941197Y-62095316D01*
X119917993Y-62089504D01*
X119895471Y-62081446D01*
X119873847Y-62071218D01*
X119853330Y-62058921D01*
X119834117Y-62044671D01*
X119816393Y-62028607D01*
X119800329Y-62010883D01*
X119786079Y-61991670D01*
X119773782Y-61971153D01*
X119763554Y-61949529D01*
X119755496Y-61927007D01*
X119749684Y-61903803D01*
X119746174Y-61880142D01*
X119745000Y-61856250D01*
X119745000Y-60943750D01*
X119746174Y-60919858D01*
X119749684Y-60896197D01*
X119755496Y-60872993D01*
X119763554Y-60850471D01*
X119773782Y-60828847D01*
X119786079Y-60808330D01*
X119800329Y-60789117D01*
X119816393Y-60771393D01*
X119834117Y-60755329D01*
X119853330Y-60741079D01*
X119873847Y-60728782D01*
X119895471Y-60718554D01*
X119917993Y-60710496D01*
X119941197Y-60704684D01*
X119964858Y-60701174D01*
X119988750Y-60700000D01*
X120476250Y-60700000D01*
X120500142Y-60701174D01*
G37*
G36*
X107850142Y-61228674D02*
G01*
X107873803Y-61232184D01*
X107897007Y-61237996D01*
X107919529Y-61246054D01*
X107941153Y-61256282D01*
X107961670Y-61268579D01*
X107980883Y-61282829D01*
X107998607Y-61298893D01*
X108014671Y-61316617D01*
X108028921Y-61335830D01*
X108041218Y-61356347D01*
X108051446Y-61377971D01*
X108059504Y-61400493D01*
X108065316Y-61423697D01*
X108068826Y-61447358D01*
X108070000Y-61471250D01*
X108070000Y-61958750D01*
X108068826Y-61982642D01*
X108065316Y-62006303D01*
X108059504Y-62029507D01*
X108051446Y-62052029D01*
X108041218Y-62073653D01*
X108028921Y-62094170D01*
X108014671Y-62113383D01*
X107998607Y-62131107D01*
X107980883Y-62147171D01*
X107961670Y-62161421D01*
X107941153Y-62173718D01*
X107919529Y-62183946D01*
X107897007Y-62192004D01*
X107873803Y-62197816D01*
X107850142Y-62201326D01*
X107826250Y-62202500D01*
X106913750Y-62202500D01*
X106889858Y-62201326D01*
X106866197Y-62197816D01*
X106842993Y-62192004D01*
X106820471Y-62183946D01*
X106798847Y-62173718D01*
X106778330Y-62161421D01*
X106759117Y-62147171D01*
X106741393Y-62131107D01*
X106725329Y-62113383D01*
X106711079Y-62094170D01*
X106698782Y-62073653D01*
X106688554Y-62052029D01*
X106680496Y-62029507D01*
X106674684Y-62006303D01*
X106671174Y-61982642D01*
X106670000Y-61958750D01*
X106670000Y-61471250D01*
X106671174Y-61447358D01*
X106674684Y-61423697D01*
X106680496Y-61400493D01*
X106688554Y-61377971D01*
X106698782Y-61356347D01*
X106711079Y-61335830D01*
X106725329Y-61316617D01*
X106741393Y-61298893D01*
X106759117Y-61282829D01*
X106778330Y-61268579D01*
X106798847Y-61256282D01*
X106820471Y-61246054D01*
X106842993Y-61237996D01*
X106866197Y-61232184D01*
X106889858Y-61228674D01*
X106913750Y-61227500D01*
X107826250Y-61227500D01*
X107850142Y-61228674D01*
G37*
G36*
X107850142Y-63103674D02*
G01*
X107873803Y-63107184D01*
X107897007Y-63112996D01*
X107919529Y-63121054D01*
X107941153Y-63131282D01*
X107961670Y-63143579D01*
X107980883Y-63157829D01*
X107998607Y-63173893D01*
X108014671Y-63191617D01*
X108028921Y-63210830D01*
X108041218Y-63231347D01*
X108051446Y-63252971D01*
X108059504Y-63275493D01*
X108065316Y-63298697D01*
X108068826Y-63322358D01*
X108070000Y-63346250D01*
X108070000Y-63833750D01*
X108068826Y-63857642D01*
X108065316Y-63881303D01*
X108059504Y-63904507D01*
X108051446Y-63927029D01*
X108041218Y-63948653D01*
X108028921Y-63969170D01*
X108014671Y-63988383D01*
X107998607Y-64006107D01*
X107980883Y-64022171D01*
X107961670Y-64036421D01*
X107941153Y-64048718D01*
X107919529Y-64058946D01*
X107897007Y-64067004D01*
X107873803Y-64072816D01*
X107850142Y-64076326D01*
X107826250Y-64077500D01*
X106913750Y-64077500D01*
X106889858Y-64076326D01*
X106866197Y-64072816D01*
X106842993Y-64067004D01*
X106820471Y-64058946D01*
X106798847Y-64048718D01*
X106778330Y-64036421D01*
X106759117Y-64022171D01*
X106741393Y-64006107D01*
X106725329Y-63988383D01*
X106711079Y-63969170D01*
X106698782Y-63948653D01*
X106688554Y-63927029D01*
X106680496Y-63904507D01*
X106674684Y-63881303D01*
X106671174Y-63857642D01*
X106670000Y-63833750D01*
X106670000Y-63346250D01*
X106671174Y-63322358D01*
X106674684Y-63298697D01*
X106680496Y-63275493D01*
X106688554Y-63252971D01*
X106698782Y-63231347D01*
X106711079Y-63210830D01*
X106725329Y-63191617D01*
X106741393Y-63173893D01*
X106759117Y-63157829D01*
X106778330Y-63143579D01*
X106798847Y-63131282D01*
X106820471Y-63121054D01*
X106842993Y-63112996D01*
X106866197Y-63107184D01*
X106889858Y-63103674D01*
X106913750Y-63102500D01*
X107826250Y-63102500D01*
X107850142Y-63103674D01*
G37*
G36*
X110140142Y-67936174D02*
G01*
X110163803Y-67939684D01*
X110187007Y-67945496D01*
X110209529Y-67953554D01*
X110231153Y-67963782D01*
X110251670Y-67976079D01*
X110270883Y-67990329D01*
X110288607Y-68006393D01*
X110304671Y-68024117D01*
X110318921Y-68043330D01*
X110331218Y-68063847D01*
X110341446Y-68085471D01*
X110349504Y-68107993D01*
X110355316Y-68131197D01*
X110358826Y-68154858D01*
X110360000Y-68178750D01*
X110360000Y-68666250D01*
X110358826Y-68690142D01*
X110355316Y-68713803D01*
X110349504Y-68737007D01*
X110341446Y-68759529D01*
X110331218Y-68781153D01*
X110318921Y-68801670D01*
X110304671Y-68820883D01*
X110288607Y-68838607D01*
X110270883Y-68854671D01*
X110251670Y-68868921D01*
X110231153Y-68881218D01*
X110209529Y-68891446D01*
X110187007Y-68899504D01*
X110163803Y-68905316D01*
X110140142Y-68908826D01*
X110116250Y-68910000D01*
X109203750Y-68910000D01*
X109179858Y-68908826D01*
X109156197Y-68905316D01*
X109132993Y-68899504D01*
X109110471Y-68891446D01*
X109088847Y-68881218D01*
X109068330Y-68868921D01*
X109049117Y-68854671D01*
X109031393Y-68838607D01*
X109015329Y-68820883D01*
X109001079Y-68801670D01*
X108988782Y-68781153D01*
X108978554Y-68759529D01*
X108970496Y-68737007D01*
X108964684Y-68713803D01*
X108961174Y-68690142D01*
X108960000Y-68666250D01*
X108960000Y-68178750D01*
X108961174Y-68154858D01*
X108964684Y-68131197D01*
X108970496Y-68107993D01*
X108978554Y-68085471D01*
X108988782Y-68063847D01*
X109001079Y-68043330D01*
X109015329Y-68024117D01*
X109031393Y-68006393D01*
X109049117Y-67990329D01*
X109068330Y-67976079D01*
X109088847Y-67963782D01*
X109110471Y-67953554D01*
X109132993Y-67945496D01*
X109156197Y-67939684D01*
X109179858Y-67936174D01*
X109203750Y-67935000D01*
X110116250Y-67935000D01*
X110140142Y-67936174D01*
G37*
G36*
X110140142Y-69811174D02*
G01*
X110163803Y-69814684D01*
X110187007Y-69820496D01*
X110209529Y-69828554D01*
X110231153Y-69838782D01*
X110251670Y-69851079D01*
X110270883Y-69865329D01*
X110288607Y-69881393D01*
X110304671Y-69899117D01*
X110318921Y-69918330D01*
X110331218Y-69938847D01*
X110341446Y-69960471D01*
X110349504Y-69982993D01*
X110355316Y-70006197D01*
X110358826Y-70029858D01*
X110360000Y-70053750D01*
X110360000Y-70541250D01*
X110358826Y-70565142D01*
X110355316Y-70588803D01*
X110349504Y-70612007D01*
X110341446Y-70634529D01*
X110331218Y-70656153D01*
X110318921Y-70676670D01*
X110304671Y-70695883D01*
X110288607Y-70713607D01*
X110270883Y-70729671D01*
X110251670Y-70743921D01*
X110231153Y-70756218D01*
X110209529Y-70766446D01*
X110187007Y-70774504D01*
X110163803Y-70780316D01*
X110140142Y-70783826D01*
X110116250Y-70785000D01*
X109203750Y-70785000D01*
X109179858Y-70783826D01*
X109156197Y-70780316D01*
X109132993Y-70774504D01*
X109110471Y-70766446D01*
X109088847Y-70756218D01*
X109068330Y-70743921D01*
X109049117Y-70729671D01*
X109031393Y-70713607D01*
X109015329Y-70695883D01*
X109001079Y-70676670D01*
X108988782Y-70656153D01*
X108978554Y-70634529D01*
X108970496Y-70612007D01*
X108964684Y-70588803D01*
X108961174Y-70565142D01*
X108960000Y-70541250D01*
X108960000Y-70053750D01*
X108961174Y-70029858D01*
X108964684Y-70006197D01*
X108970496Y-69982993D01*
X108978554Y-69960471D01*
X108988782Y-69938847D01*
X109001079Y-69918330D01*
X109015329Y-69899117D01*
X109031393Y-69881393D01*
X109049117Y-69865329D01*
X109068330Y-69851079D01*
X109088847Y-69838782D01*
X109110471Y-69828554D01*
X109132993Y-69820496D01*
X109156197Y-69814684D01*
X109179858Y-69811174D01*
X109203750Y-69810000D01*
X110116250Y-69810000D01*
X110140142Y-69811174D01*
G37*
G36*
X101250142Y-69811174D02*
G01*
X101273803Y-69814684D01*
X101297007Y-69820496D01*
X101319529Y-69828554D01*
X101341153Y-69838782D01*
X101361670Y-69851079D01*
X101380883Y-69865329D01*
X101398607Y-69881393D01*
X101414671Y-69899117D01*
X101428921Y-69918330D01*
X101441218Y-69938847D01*
X101451446Y-69960471D01*
X101459504Y-69982993D01*
X101465316Y-70006197D01*
X101468826Y-70029858D01*
X101470000Y-70053750D01*
X101470000Y-70541250D01*
X101468826Y-70565142D01*
X101465316Y-70588803D01*
X101459504Y-70612007D01*
X101451446Y-70634529D01*
X101441218Y-70656153D01*
X101428921Y-70676670D01*
X101414671Y-70695883D01*
X101398607Y-70713607D01*
X101380883Y-70729671D01*
X101361670Y-70743921D01*
X101341153Y-70756218D01*
X101319529Y-70766446D01*
X101297007Y-70774504D01*
X101273803Y-70780316D01*
X101250142Y-70783826D01*
X101226250Y-70785000D01*
X100313750Y-70785000D01*
X100289858Y-70783826D01*
X100266197Y-70780316D01*
X100242993Y-70774504D01*
X100220471Y-70766446D01*
X100198847Y-70756218D01*
X100178330Y-70743921D01*
X100159117Y-70729671D01*
X100141393Y-70713607D01*
X100125329Y-70695883D01*
X100111079Y-70676670D01*
X100098782Y-70656153D01*
X100088554Y-70634529D01*
X100080496Y-70612007D01*
X100074684Y-70588803D01*
X100071174Y-70565142D01*
X100070000Y-70541250D01*
X100070000Y-70053750D01*
X100071174Y-70029858D01*
X100074684Y-70006197D01*
X100080496Y-69982993D01*
X100088554Y-69960471D01*
X100098782Y-69938847D01*
X100111079Y-69918330D01*
X100125329Y-69899117D01*
X100141393Y-69881393D01*
X100159117Y-69865329D01*
X100178330Y-69851079D01*
X100198847Y-69838782D01*
X100220471Y-69828554D01*
X100242993Y-69820496D01*
X100266197Y-69814684D01*
X100289858Y-69811174D01*
X100313750Y-69810000D01*
X101226250Y-69810000D01*
X101250142Y-69811174D01*
G37*
G36*
X101250142Y-67936174D02*
G01*
X101273803Y-67939684D01*
X101297007Y-67945496D01*
X101319529Y-67953554D01*
X101341153Y-67963782D01*
X101361670Y-67976079D01*
X101380883Y-67990329D01*
X101398607Y-68006393D01*
X101414671Y-68024117D01*
X101428921Y-68043330D01*
X101441218Y-68063847D01*
X101451446Y-68085471D01*
X101459504Y-68107993D01*
X101465316Y-68131197D01*
X101468826Y-68154858D01*
X101470000Y-68178750D01*
X101470000Y-68666250D01*
X101468826Y-68690142D01*
X101465316Y-68713803D01*
X101459504Y-68737007D01*
X101451446Y-68759529D01*
X101441218Y-68781153D01*
X101428921Y-68801670D01*
X101414671Y-68820883D01*
X101398607Y-68838607D01*
X101380883Y-68854671D01*
X101361670Y-68868921D01*
X101341153Y-68881218D01*
X101319529Y-68891446D01*
X101297007Y-68899504D01*
X101273803Y-68905316D01*
X101250142Y-68908826D01*
X101226250Y-68910000D01*
X100313750Y-68910000D01*
X100289858Y-68908826D01*
X100266197Y-68905316D01*
X100242993Y-68899504D01*
X100220471Y-68891446D01*
X100198847Y-68881218D01*
X100178330Y-68868921D01*
X100159117Y-68854671D01*
X100141393Y-68838607D01*
X100125329Y-68820883D01*
X100111079Y-68801670D01*
X100098782Y-68781153D01*
X100088554Y-68759529D01*
X100080496Y-68737007D01*
X100074684Y-68713803D01*
X100071174Y-68690142D01*
X100070000Y-68666250D01*
X100070000Y-68178750D01*
X100071174Y-68154858D01*
X100074684Y-68131197D01*
X100080496Y-68107993D01*
X100088554Y-68085471D01*
X100098782Y-68063847D01*
X100111079Y-68043330D01*
X100125329Y-68024117D01*
X100141393Y-68006393D01*
X100159117Y-67990329D01*
X100178330Y-67976079D01*
X100198847Y-67963782D01*
X100220471Y-67953554D01*
X100242993Y-67945496D01*
X100266197Y-67939684D01*
X100289858Y-67936174D01*
X100313750Y-67935000D01*
X101226250Y-67935000D01*
X101250142Y-67936174D01*
G37*
M02*
