G04 #@! TF.GenerationSoftware,KiCad,Pcbnew,(5.1.5)-3*
G04 #@! TF.CreationDate,2020-01-20T18:08:53-05:00*
G04 #@! TF.ProjectId,V-Naught_Display,562d4e61-7567-4687-945f-446973706c61,rev?*
G04 #@! TF.SameCoordinates,Original*
G04 #@! TF.FileFunction,Copper,L1,Top*
G04 #@! TF.FilePolarity,Positive*
%FSLAX46Y46*%
G04 Gerber Fmt 4.6, Leading zero omitted, Abs format (unit mm)*
G04 Created by KiCad (PCBNEW (5.1.5)-3) date 2020-01-20 18:08:53*
%MOMM*%
%LPD*%
G04 APERTURE LIST*
%ADD10C,1.524000*%
%ADD11C,2.000000*%
%ADD12O,2.500000X4.000000*%
%ADD13R,1.500000X1.000000*%
%ADD14O,1.700000X1.700000*%
%ADD15R,1.700000X1.700000*%
%ADD16O,1.900000X1.200000*%
%ADD17C,1.450000*%
%ADD18C,0.800000*%
%ADD19C,0.250000*%
%ADD20C,0.500000*%
%ADD21C,0.254000*%
G04 APERTURE END LIST*
D10*
X109660000Y-52850000D03*
X112200000Y-52850000D03*
X114740000Y-52850000D03*
X117280000Y-52850000D03*
D11*
X141920000Y-74650000D03*
X144420000Y-74650000D03*
X146920000Y-74650000D03*
X141920000Y-60150000D03*
X146920000Y-60150000D03*
D12*
X139340000Y-67150000D03*
X149500000Y-67150000D03*
D11*
X163170000Y-69900000D03*
X163170000Y-74400000D03*
X156670000Y-69900000D03*
X156670000Y-74400000D03*
D13*
X162370000Y-63750000D03*
X162370000Y-60550000D03*
X157470000Y-63750000D03*
X157470000Y-60550000D03*
D11*
X122475000Y-73145000D03*
X122475000Y-77645000D03*
X128975000Y-73145000D03*
X128975000Y-77645000D03*
D14*
X123110000Y-55365000D03*
D15*
X125650000Y-55365000D03*
D14*
X118030000Y-75050000D03*
X115490000Y-75050000D03*
D15*
X112950000Y-75050000D03*
D11*
X141170000Y-81900000D03*
X141170000Y-77400000D03*
X147670000Y-81900000D03*
X147670000Y-77400000D03*
X141170000Y-56900000D03*
X141170000Y-52400000D03*
X147670000Y-56900000D03*
X147670000Y-52400000D03*
X152670000Y-70400000D03*
X148170000Y-70400000D03*
X152670000Y-63900000D03*
X148170000Y-63900000D03*
X140670000Y-70400000D03*
X136170000Y-70400000D03*
X140670000Y-63900000D03*
X136170000Y-63900000D03*
D16*
X96682500Y-59400000D03*
X96682500Y-66400000D03*
D17*
X99382500Y-60400000D03*
X99382500Y-65400000D03*
D18*
X151670000Y-53150000D03*
X159920000Y-62150000D03*
X104170000Y-73650000D03*
X154370000Y-55650000D03*
X107882000Y-71138000D03*
X107882000Y-69614000D03*
X118670000Y-61400000D03*
X116760000Y-82035000D03*
X105330000Y-62350000D03*
X119160000Y-63850000D03*
X119170000Y-66850000D03*
X119160000Y-65850000D03*
X119160000Y-64850000D03*
X114855000Y-65525000D03*
X113585000Y-65525000D03*
X112315000Y-65525000D03*
X155570000Y-63650000D03*
X120970000Y-67650000D03*
X141770000Y-72850000D03*
X146970000Y-72850000D03*
X149920000Y-54900000D03*
X119177942Y-62842636D03*
D19*
X158320000Y-60550000D02*
X157470000Y-60550000D01*
X159920000Y-62150000D02*
X158320000Y-60550000D01*
X162370000Y-63000000D02*
X160770000Y-61400000D01*
X162370000Y-63750000D02*
X162370000Y-63000000D01*
X160770000Y-61400000D02*
X160770000Y-59450000D01*
X160770000Y-59450000D02*
X156970000Y-55650000D01*
X156970000Y-55650000D02*
X154370000Y-55650000D01*
D20*
X153920000Y-79900000D02*
X159920000Y-73900000D01*
X162370000Y-64500000D02*
X162370000Y-63750000D01*
X159920000Y-73900000D02*
X159920000Y-66950000D01*
X159920000Y-66950000D02*
X162370000Y-64500000D01*
X104170000Y-73650000D02*
X104170000Y-74650000D01*
X109420000Y-79900000D02*
X153920000Y-79900000D01*
X104170000Y-74650000D02*
X109420000Y-79900000D01*
D19*
X119160000Y-63850000D02*
X132170000Y-63850000D01*
X135870000Y-60150000D02*
X141920000Y-60150000D01*
X132170000Y-63850000D02*
X135870000Y-60150000D01*
X143334213Y-60150000D02*
X144420000Y-59064213D01*
X141920000Y-60150000D02*
X143334213Y-60150000D01*
X144420000Y-59064213D02*
X144420000Y-58150000D01*
X144420000Y-58150000D02*
X143170000Y-56900000D01*
X143170000Y-56900000D02*
X141170000Y-56900000D01*
X144420000Y-58150000D02*
X145670000Y-56900000D01*
X145670000Y-56900000D02*
X147670000Y-56900000D01*
X142584213Y-77400000D02*
X147670000Y-77400000D01*
X141170000Y-77400000D02*
X142584213Y-77400000D01*
X147670000Y-75400000D02*
X146920000Y-74650000D01*
X147670000Y-77400000D02*
X147670000Y-75400000D01*
X139755787Y-77400000D02*
X141170000Y-77400000D01*
X137505787Y-75150000D02*
X139755787Y-77400000D01*
X126904315Y-75150000D02*
X137505787Y-75150000D01*
X119170000Y-67415685D02*
X126904315Y-75150000D01*
X119170000Y-66850000D02*
X119170000Y-67415685D01*
X140670000Y-63900000D02*
X141170000Y-64400000D01*
X140670000Y-63900000D02*
X141670000Y-64900000D01*
X141669999Y-69400001D02*
X140670000Y-70400000D01*
X141670000Y-64900000D02*
X141669999Y-69400001D01*
X138670000Y-63900000D02*
X140670000Y-63900000D01*
X119160000Y-65850000D02*
X136720000Y-65850000D01*
X136720000Y-65850000D02*
X138670000Y-63900000D01*
X132220000Y-64850000D02*
X135170000Y-61900000D01*
X119160000Y-64850000D02*
X132220000Y-64850000D01*
X146170000Y-61900000D02*
X148170000Y-63900000D01*
X135170000Y-61900000D02*
X146170000Y-61900000D01*
X148170000Y-63900000D02*
X147170000Y-64900000D01*
X147170001Y-69400001D02*
X148170000Y-70400000D01*
X147170000Y-64900000D02*
X147170001Y-69400001D01*
X114855000Y-71875000D02*
X118030000Y-75050000D01*
X114855000Y-65525000D02*
X114855000Y-71875000D01*
X113585000Y-73145000D02*
X115490000Y-75050000D01*
X113585000Y-65525000D02*
X113585000Y-73145000D01*
X112315000Y-74415000D02*
X112950000Y-75050000D01*
X112315000Y-65525000D02*
X112315000Y-74415000D01*
X157370000Y-63650000D02*
X157470000Y-63750000D01*
X155570000Y-63650000D02*
X157370000Y-63650000D01*
X155255787Y-74400000D02*
X156670000Y-74400000D01*
X153705787Y-72850000D02*
X155255787Y-74400000D01*
X146970000Y-72850000D02*
X153705787Y-72850000D01*
X134970000Y-72850000D02*
X141770000Y-72850000D01*
X120970000Y-67650000D02*
X129770000Y-67650000D01*
X129770000Y-67650000D02*
X134970000Y-72850000D01*
X149920000Y-54900000D02*
X140170000Y-54900000D01*
X140170000Y-54900000D02*
X132227364Y-62842636D01*
X132227364Y-62842636D02*
X119177942Y-62842636D01*
D21*
G36*
X164510001Y-68962531D02*
G01*
X164439987Y-68857748D01*
X164212252Y-68630013D01*
X163944463Y-68451082D01*
X163646912Y-68327832D01*
X163331033Y-68265000D01*
X163008967Y-68265000D01*
X162693088Y-68327832D01*
X162395537Y-68451082D01*
X162127748Y-68630013D01*
X161900013Y-68857748D01*
X161721082Y-69125537D01*
X161597832Y-69423088D01*
X161535000Y-69738967D01*
X161535000Y-70061033D01*
X161597832Y-70376912D01*
X161721082Y-70674463D01*
X161900013Y-70942252D01*
X162127748Y-71169987D01*
X162395537Y-71348918D01*
X162693088Y-71472168D01*
X163008967Y-71535000D01*
X163331033Y-71535000D01*
X163646912Y-71472168D01*
X163944463Y-71348918D01*
X164212252Y-71169987D01*
X164439987Y-70942252D01*
X164510001Y-70837469D01*
X164510001Y-73462531D01*
X164439987Y-73357748D01*
X164212252Y-73130013D01*
X163944463Y-72951082D01*
X163646912Y-72827832D01*
X163331033Y-72765000D01*
X163008967Y-72765000D01*
X162693088Y-72827832D01*
X162395537Y-72951082D01*
X162127748Y-73130013D01*
X161900013Y-73357748D01*
X161721082Y-73625537D01*
X161597832Y-73923088D01*
X161535000Y-74238967D01*
X161535000Y-74561033D01*
X161597832Y-74876912D01*
X161721082Y-75174463D01*
X161900013Y-75442252D01*
X162127748Y-75669987D01*
X162395537Y-75848918D01*
X162693088Y-75972168D01*
X163008967Y-76035000D01*
X163331033Y-76035000D01*
X163646912Y-75972168D01*
X163944463Y-75848918D01*
X164212252Y-75669987D01*
X164439987Y-75442252D01*
X164510001Y-75337469D01*
X164510001Y-83990000D01*
X95830000Y-83990000D01*
X95830000Y-80429872D01*
X96935000Y-80429872D01*
X96935000Y-80870128D01*
X97020890Y-81301925D01*
X97189369Y-81708669D01*
X97433962Y-82074729D01*
X97745271Y-82386038D01*
X98111331Y-82630631D01*
X98518075Y-82799110D01*
X98949872Y-82885000D01*
X99390128Y-82885000D01*
X99821925Y-82799110D01*
X100228669Y-82630631D01*
X100594729Y-82386038D01*
X100906038Y-82074729D01*
X101150631Y-81708669D01*
X101319110Y-81301925D01*
X101405000Y-80870128D01*
X101405000Y-80429872D01*
X101319110Y-79998075D01*
X101150631Y-79591331D01*
X100906038Y-79225271D01*
X100594729Y-78913962D01*
X100228669Y-78669369D01*
X99821925Y-78500890D01*
X99390128Y-78415000D01*
X98949872Y-78415000D01*
X98518075Y-78500890D01*
X98111331Y-78669369D01*
X97745271Y-78913962D01*
X97433962Y-79225271D01*
X97189369Y-79591331D01*
X97020890Y-79998075D01*
X96935000Y-80429872D01*
X95830000Y-80429872D01*
X95830000Y-73548061D01*
X103135000Y-73548061D01*
X103135000Y-73751939D01*
X103174774Y-73951898D01*
X103252795Y-74140256D01*
X103285001Y-74188455D01*
X103285001Y-74606522D01*
X103280719Y-74650000D01*
X103297805Y-74823490D01*
X103348412Y-74990313D01*
X103430590Y-75144059D01*
X103513468Y-75245046D01*
X103513471Y-75245049D01*
X103541184Y-75278817D01*
X103574952Y-75306530D01*
X108763470Y-80495049D01*
X108791183Y-80528817D01*
X108824951Y-80556530D01*
X108824953Y-80556532D01*
X108896452Y-80615210D01*
X108925941Y-80639411D01*
X109079687Y-80721589D01*
X109246510Y-80772195D01*
X109376523Y-80785000D01*
X109376533Y-80785000D01*
X109419999Y-80789281D01*
X109463465Y-80785000D01*
X139972761Y-80785000D01*
X139900013Y-80857748D01*
X139721082Y-81125537D01*
X139597832Y-81423088D01*
X139535000Y-81738967D01*
X139535000Y-82061033D01*
X139597832Y-82376912D01*
X139721082Y-82674463D01*
X139900013Y-82942252D01*
X140127748Y-83169987D01*
X140395537Y-83348918D01*
X140693088Y-83472168D01*
X141008967Y-83535000D01*
X141331033Y-83535000D01*
X141646912Y-83472168D01*
X141944463Y-83348918D01*
X142212252Y-83169987D01*
X142439987Y-82942252D01*
X142618918Y-82674463D01*
X142742168Y-82376912D01*
X142805000Y-82061033D01*
X142805000Y-81738967D01*
X142742168Y-81423088D01*
X142618918Y-81125537D01*
X142439987Y-80857748D01*
X142367239Y-80785000D01*
X146472761Y-80785000D01*
X146400013Y-80857748D01*
X146221082Y-81125537D01*
X146097832Y-81423088D01*
X146035000Y-81738967D01*
X146035000Y-82061033D01*
X146097832Y-82376912D01*
X146221082Y-82674463D01*
X146400013Y-82942252D01*
X146627748Y-83169987D01*
X146895537Y-83348918D01*
X147193088Y-83472168D01*
X147508967Y-83535000D01*
X147831033Y-83535000D01*
X148146912Y-83472168D01*
X148444463Y-83348918D01*
X148712252Y-83169987D01*
X148939987Y-82942252D01*
X149118918Y-82674463D01*
X149242168Y-82376912D01*
X149305000Y-82061033D01*
X149305000Y-81738967D01*
X149242168Y-81423088D01*
X149118918Y-81125537D01*
X148939987Y-80857748D01*
X148867239Y-80785000D01*
X153876531Y-80785000D01*
X153920000Y-80789281D01*
X153963469Y-80785000D01*
X153963477Y-80785000D01*
X154093490Y-80772195D01*
X154260313Y-80721589D01*
X154414059Y-80639411D01*
X154548817Y-80528817D01*
X154576534Y-80495044D01*
X154641706Y-80429872D01*
X158935000Y-80429872D01*
X158935000Y-80870128D01*
X159020890Y-81301925D01*
X159189369Y-81708669D01*
X159433962Y-82074729D01*
X159745271Y-82386038D01*
X160111331Y-82630631D01*
X160518075Y-82799110D01*
X160949872Y-82885000D01*
X161390128Y-82885000D01*
X161821925Y-82799110D01*
X162228669Y-82630631D01*
X162594729Y-82386038D01*
X162906038Y-82074729D01*
X163150631Y-81708669D01*
X163319110Y-81301925D01*
X163405000Y-80870128D01*
X163405000Y-80429872D01*
X163319110Y-79998075D01*
X163150631Y-79591331D01*
X162906038Y-79225271D01*
X162594729Y-78913962D01*
X162228669Y-78669369D01*
X161821925Y-78500890D01*
X161390128Y-78415000D01*
X160949872Y-78415000D01*
X160518075Y-78500890D01*
X160111331Y-78669369D01*
X159745271Y-78913962D01*
X159433962Y-79225271D01*
X159189369Y-79591331D01*
X159020890Y-79998075D01*
X158935000Y-80429872D01*
X154641706Y-80429872D01*
X160515051Y-74556528D01*
X160548817Y-74528817D01*
X160581522Y-74488967D01*
X160659410Y-74394060D01*
X160659411Y-74394059D01*
X160741589Y-74240313D01*
X160792195Y-74073490D01*
X160805000Y-73943477D01*
X160805000Y-73943467D01*
X160809281Y-73900001D01*
X160805000Y-73856535D01*
X160805000Y-67316578D01*
X162965050Y-65156529D01*
X162998817Y-65128817D01*
X163109411Y-64994059D01*
X163168621Y-64883283D01*
X163244482Y-64875812D01*
X163364180Y-64839502D01*
X163474494Y-64780537D01*
X163571185Y-64701185D01*
X163650537Y-64604494D01*
X163709502Y-64494180D01*
X163745812Y-64374482D01*
X163758072Y-64250000D01*
X163758072Y-63250000D01*
X163745812Y-63125518D01*
X163709502Y-63005820D01*
X163650537Y-62895506D01*
X163571185Y-62798815D01*
X163474494Y-62719463D01*
X163364180Y-62660498D01*
X163244482Y-62624188D01*
X163120000Y-62611928D01*
X163024326Y-62611928D01*
X163004974Y-62575724D01*
X162910001Y-62459999D01*
X162881003Y-62436201D01*
X162132874Y-61688072D01*
X163120000Y-61688072D01*
X163244482Y-61675812D01*
X163364180Y-61639502D01*
X163474494Y-61580537D01*
X163571185Y-61501185D01*
X163650537Y-61404494D01*
X163709502Y-61294180D01*
X163745812Y-61174482D01*
X163758072Y-61050000D01*
X163758072Y-60050000D01*
X163745812Y-59925518D01*
X163709502Y-59805820D01*
X163650537Y-59695506D01*
X163571185Y-59598815D01*
X163474494Y-59519463D01*
X163364180Y-59460498D01*
X163244482Y-59424188D01*
X163120000Y-59411928D01*
X161620000Y-59411928D01*
X161530793Y-59420714D01*
X161519003Y-59301014D01*
X161475546Y-59157753D01*
X161404974Y-59025724D01*
X161333799Y-58938997D01*
X161310001Y-58909999D01*
X161281003Y-58886201D01*
X157533804Y-55139003D01*
X157510001Y-55109999D01*
X157394276Y-55015026D01*
X157262247Y-54944454D01*
X157118986Y-54900997D01*
X157007333Y-54890000D01*
X157007322Y-54890000D01*
X156970000Y-54886324D01*
X156932678Y-54890000D01*
X155073711Y-54890000D01*
X155029774Y-54846063D01*
X154860256Y-54732795D01*
X154671898Y-54654774D01*
X154471939Y-54615000D01*
X154268061Y-54615000D01*
X154068102Y-54654774D01*
X153879744Y-54732795D01*
X153710226Y-54846063D01*
X153566063Y-54990226D01*
X153452795Y-55159744D01*
X153374774Y-55348102D01*
X153335000Y-55548061D01*
X153335000Y-55751939D01*
X153374774Y-55951898D01*
X153452795Y-56140256D01*
X153566063Y-56309774D01*
X153710226Y-56453937D01*
X153879744Y-56567205D01*
X154068102Y-56645226D01*
X154268061Y-56685000D01*
X154471939Y-56685000D01*
X154671898Y-56645226D01*
X154860256Y-56567205D01*
X155029774Y-56453937D01*
X155073711Y-56410000D01*
X156655199Y-56410000D01*
X160010001Y-59764803D01*
X160010000Y-61115000D01*
X159959802Y-61115000D01*
X158883804Y-60039003D01*
X158860001Y-60009999D01*
X158853616Y-60004759D01*
X158845812Y-59925518D01*
X158809502Y-59805820D01*
X158750537Y-59695506D01*
X158671185Y-59598815D01*
X158574494Y-59519463D01*
X158464180Y-59460498D01*
X158344482Y-59424188D01*
X158220000Y-59411928D01*
X156720000Y-59411928D01*
X156595518Y-59424188D01*
X156475820Y-59460498D01*
X156365506Y-59519463D01*
X156268815Y-59598815D01*
X156189463Y-59695506D01*
X156130498Y-59805820D01*
X156094188Y-59925518D01*
X156081928Y-60050000D01*
X156081928Y-61050000D01*
X156094188Y-61174482D01*
X156130498Y-61294180D01*
X156189463Y-61404494D01*
X156268815Y-61501185D01*
X156365506Y-61580537D01*
X156475820Y-61639502D01*
X156595518Y-61675812D01*
X156720000Y-61688072D01*
X158220000Y-61688072D01*
X158344482Y-61675812D01*
X158364836Y-61669638D01*
X158885000Y-62189802D01*
X158885000Y-62251939D01*
X158924774Y-62451898D01*
X159002795Y-62640256D01*
X159116063Y-62809774D01*
X159260226Y-62953937D01*
X159429744Y-63067205D01*
X159618102Y-63145226D01*
X159818061Y-63185000D01*
X160021939Y-63185000D01*
X160221898Y-63145226D01*
X160410256Y-63067205D01*
X160579774Y-62953937D01*
X160723937Y-62809774D01*
X160837205Y-62640256D01*
X160865982Y-62570783D01*
X161135098Y-62839899D01*
X161089463Y-62895506D01*
X161030498Y-63005820D01*
X160994188Y-63125518D01*
X160981928Y-63250000D01*
X160981928Y-64250000D01*
X160994188Y-64374482D01*
X161030498Y-64494180D01*
X161063152Y-64555270D01*
X159324951Y-66293471D01*
X159291184Y-66321183D01*
X159263471Y-66354951D01*
X159263468Y-66354954D01*
X159180590Y-66455941D01*
X159098412Y-66609687D01*
X159047805Y-66776510D01*
X159030719Y-66950000D01*
X159035001Y-66993479D01*
X159035000Y-73533421D01*
X158305000Y-74263421D01*
X158305000Y-74238967D01*
X158242168Y-73923088D01*
X158118918Y-73625537D01*
X157939987Y-73357748D01*
X157712252Y-73130013D01*
X157444463Y-72951082D01*
X157146912Y-72827832D01*
X156831033Y-72765000D01*
X156508967Y-72765000D01*
X156193088Y-72827832D01*
X155895537Y-72951082D01*
X155627748Y-73130013D01*
X155400013Y-73357748D01*
X155355282Y-73424693D01*
X154269591Y-72339003D01*
X154245788Y-72309999D01*
X154130063Y-72215026D01*
X153998034Y-72144454D01*
X153854773Y-72100997D01*
X153743120Y-72090000D01*
X153743109Y-72090000D01*
X153705787Y-72086324D01*
X153668465Y-72090000D01*
X147673711Y-72090000D01*
X147629774Y-72046063D01*
X147460256Y-71932795D01*
X147271898Y-71854774D01*
X147071939Y-71815000D01*
X146868061Y-71815000D01*
X146668102Y-71854774D01*
X146479744Y-71932795D01*
X146310226Y-72046063D01*
X146166063Y-72190226D01*
X146052795Y-72359744D01*
X145974774Y-72548102D01*
X145935000Y-72748061D01*
X145935000Y-72951939D01*
X145974774Y-73151898D01*
X146027748Y-73279786D01*
X145877748Y-73380013D01*
X145650013Y-73607748D01*
X145585075Y-73704935D01*
X145555413Y-73694192D01*
X144599605Y-74650000D01*
X145555413Y-75605808D01*
X145585075Y-75595065D01*
X145650013Y-75692252D01*
X145877748Y-75919987D01*
X146145537Y-76098918D01*
X146443088Y-76222168D01*
X146520245Y-76237516D01*
X146400013Y-76357748D01*
X146221082Y-76625537D01*
X146215091Y-76640000D01*
X142624909Y-76640000D01*
X142618918Y-76625537D01*
X142439987Y-76357748D01*
X142319755Y-76237516D01*
X142396912Y-76222168D01*
X142694463Y-76098918D01*
X142962252Y-75919987D01*
X143096826Y-75785413D01*
X143464192Y-75785413D01*
X143559956Y-76049814D01*
X143849571Y-76190704D01*
X144161108Y-76272384D01*
X144482595Y-76291718D01*
X144801675Y-76247961D01*
X145106088Y-76142795D01*
X145280044Y-76049814D01*
X145375808Y-75785413D01*
X144420000Y-74829605D01*
X143464192Y-75785413D01*
X143096826Y-75785413D01*
X143189987Y-75692252D01*
X143254925Y-75595065D01*
X143284587Y-75605808D01*
X144240395Y-74650000D01*
X143284587Y-73694192D01*
X143254925Y-73704935D01*
X143189987Y-73607748D01*
X143096826Y-73514587D01*
X143464192Y-73514587D01*
X144420000Y-74470395D01*
X145375808Y-73514587D01*
X145280044Y-73250186D01*
X144990429Y-73109296D01*
X144678892Y-73027616D01*
X144357405Y-73008282D01*
X144038325Y-73052039D01*
X143733912Y-73157205D01*
X143559956Y-73250186D01*
X143464192Y-73514587D01*
X143096826Y-73514587D01*
X142962252Y-73380013D01*
X142733930Y-73227453D01*
X142765226Y-73151898D01*
X142805000Y-72951939D01*
X142805000Y-72748061D01*
X142765226Y-72548102D01*
X142687205Y-72359744D01*
X142573937Y-72190226D01*
X142429774Y-72046063D01*
X142260256Y-71932795D01*
X142071898Y-71854774D01*
X141871939Y-71815000D01*
X141668061Y-71815000D01*
X141468102Y-71854774D01*
X141279744Y-71932795D01*
X141110226Y-72046063D01*
X141066289Y-72090000D01*
X135284802Y-72090000D01*
X133433769Y-70238967D01*
X134535000Y-70238967D01*
X134535000Y-70561033D01*
X134597832Y-70876912D01*
X134721082Y-71174463D01*
X134900013Y-71442252D01*
X135127748Y-71669987D01*
X135395537Y-71848918D01*
X135693088Y-71972168D01*
X136008967Y-72035000D01*
X136331033Y-72035000D01*
X136646912Y-71972168D01*
X136944463Y-71848918D01*
X137212252Y-71669987D01*
X137439987Y-71442252D01*
X137618918Y-71174463D01*
X137742168Y-70876912D01*
X137805000Y-70561033D01*
X137805000Y-70238967D01*
X137742168Y-69923088D01*
X137618918Y-69625537D01*
X137439987Y-69357748D01*
X137212252Y-69130013D01*
X136944463Y-68951082D01*
X136646912Y-68827832D01*
X136331033Y-68765000D01*
X136008967Y-68765000D01*
X135693088Y-68827832D01*
X135395537Y-68951082D01*
X135127748Y-69130013D01*
X134900013Y-69357748D01*
X134721082Y-69625537D01*
X134597832Y-69923088D01*
X134535000Y-70238967D01*
X133433769Y-70238967D01*
X130333804Y-67139003D01*
X130310001Y-67109999D01*
X130194276Y-67015026D01*
X130062247Y-66944454D01*
X129918986Y-66900997D01*
X129807333Y-66890000D01*
X129807322Y-66890000D01*
X129770000Y-66886324D01*
X129732678Y-66890000D01*
X121673711Y-66890000D01*
X121629774Y-66846063D01*
X121460256Y-66732795D01*
X121271898Y-66654774D01*
X121071939Y-66615000D01*
X120868061Y-66615000D01*
X120668102Y-66654774D01*
X120479744Y-66732795D01*
X120310226Y-66846063D01*
X120205000Y-66951289D01*
X120205000Y-66748061D01*
X120177538Y-66610000D01*
X136682678Y-66610000D01*
X136720000Y-66613676D01*
X136757322Y-66610000D01*
X136757333Y-66610000D01*
X136868986Y-66599003D01*
X137012247Y-66555546D01*
X137144276Y-66484974D01*
X137260001Y-66390001D01*
X137283804Y-66360998D01*
X137467848Y-66176953D01*
X137455000Y-66307404D01*
X137455000Y-67992597D01*
X137482275Y-68269524D01*
X137590062Y-68624848D01*
X137765098Y-68952317D01*
X138000656Y-69239345D01*
X138287684Y-69474903D01*
X138615153Y-69649939D01*
X138970477Y-69757725D01*
X139158651Y-69776259D01*
X139097832Y-69923088D01*
X139035000Y-70238967D01*
X139035000Y-70561033D01*
X139097832Y-70876912D01*
X139221082Y-71174463D01*
X139400013Y-71442252D01*
X139627748Y-71669987D01*
X139895537Y-71848918D01*
X140193088Y-71972168D01*
X140508967Y-72035000D01*
X140831033Y-72035000D01*
X141146912Y-71972168D01*
X141444463Y-71848918D01*
X141712252Y-71669987D01*
X141939987Y-71442252D01*
X142118918Y-71174463D01*
X142242168Y-70876912D01*
X142305000Y-70561033D01*
X142305000Y-70238967D01*
X142242168Y-69923088D01*
X142236034Y-69908279D01*
X142304973Y-69824278D01*
X142375545Y-69692248D01*
X142419001Y-69548988D01*
X142433675Y-69400002D01*
X142429998Y-69362670D01*
X142430000Y-64937333D01*
X142433677Y-64900000D01*
X142419003Y-64751014D01*
X142375546Y-64607753D01*
X142304974Y-64475724D01*
X142236034Y-64391720D01*
X142242168Y-64376912D01*
X142305000Y-64061033D01*
X142305000Y-63738967D01*
X142242168Y-63423088D01*
X142118918Y-63125537D01*
X141939987Y-62857748D01*
X141742239Y-62660000D01*
X145855199Y-62660000D01*
X146603823Y-63408624D01*
X146597832Y-63423088D01*
X146535000Y-63738967D01*
X146535000Y-64061033D01*
X146597832Y-64376912D01*
X146603966Y-64391721D01*
X146535026Y-64475724D01*
X146492360Y-64555546D01*
X146464454Y-64607754D01*
X146420997Y-64751015D01*
X146410000Y-64862668D01*
X146410000Y-64862678D01*
X146406324Y-64900000D01*
X146410000Y-64937323D01*
X146410002Y-69362669D01*
X146406325Y-69400001D01*
X146410002Y-69437333D01*
X146410002Y-69437334D01*
X146420999Y-69548987D01*
X146434181Y-69592443D01*
X146464455Y-69692247D01*
X146535027Y-69824277D01*
X146588142Y-69888997D01*
X146603966Y-69908279D01*
X146597832Y-69923088D01*
X146535000Y-70238967D01*
X146535000Y-70561033D01*
X146597832Y-70876912D01*
X146721082Y-71174463D01*
X146900013Y-71442252D01*
X147127748Y-71669987D01*
X147395537Y-71848918D01*
X147693088Y-71972168D01*
X148008967Y-72035000D01*
X148331033Y-72035000D01*
X148646912Y-71972168D01*
X148944463Y-71848918D01*
X149212252Y-71669987D01*
X149439987Y-71442252D01*
X149618918Y-71174463D01*
X149742168Y-70876912D01*
X149805000Y-70561033D01*
X149805000Y-70238967D01*
X151035000Y-70238967D01*
X151035000Y-70561033D01*
X151097832Y-70876912D01*
X151221082Y-71174463D01*
X151400013Y-71442252D01*
X151627748Y-71669987D01*
X151895537Y-71848918D01*
X152193088Y-71972168D01*
X152508967Y-72035000D01*
X152831033Y-72035000D01*
X153146912Y-71972168D01*
X153444463Y-71848918D01*
X153712252Y-71669987D01*
X153939987Y-71442252D01*
X154118918Y-71174463D01*
X154242168Y-70876912D01*
X154305000Y-70561033D01*
X154305000Y-70238967D01*
X154242168Y-69923088D01*
X154165903Y-69738967D01*
X155035000Y-69738967D01*
X155035000Y-70061033D01*
X155097832Y-70376912D01*
X155221082Y-70674463D01*
X155400013Y-70942252D01*
X155627748Y-71169987D01*
X155895537Y-71348918D01*
X156193088Y-71472168D01*
X156508967Y-71535000D01*
X156831033Y-71535000D01*
X157146912Y-71472168D01*
X157444463Y-71348918D01*
X157712252Y-71169987D01*
X157939987Y-70942252D01*
X158118918Y-70674463D01*
X158242168Y-70376912D01*
X158305000Y-70061033D01*
X158305000Y-69738967D01*
X158242168Y-69423088D01*
X158118918Y-69125537D01*
X157939987Y-68857748D01*
X157712252Y-68630013D01*
X157444463Y-68451082D01*
X157146912Y-68327832D01*
X156831033Y-68265000D01*
X156508967Y-68265000D01*
X156193088Y-68327832D01*
X155895537Y-68451082D01*
X155627748Y-68630013D01*
X155400013Y-68857748D01*
X155221082Y-69125537D01*
X155097832Y-69423088D01*
X155035000Y-69738967D01*
X154165903Y-69738967D01*
X154118918Y-69625537D01*
X153939987Y-69357748D01*
X153712252Y-69130013D01*
X153444463Y-68951082D01*
X153146912Y-68827832D01*
X152831033Y-68765000D01*
X152508967Y-68765000D01*
X152193088Y-68827832D01*
X151895537Y-68951082D01*
X151627748Y-69130013D01*
X151400013Y-69357748D01*
X151221082Y-69625537D01*
X151097832Y-69923088D01*
X151035000Y-70238967D01*
X149805000Y-70238967D01*
X149742168Y-69923088D01*
X149681349Y-69776259D01*
X149869523Y-69757725D01*
X150224847Y-69649939D01*
X150552317Y-69474903D01*
X150839345Y-69239345D01*
X151074903Y-68952317D01*
X151249939Y-68624848D01*
X151357725Y-68269524D01*
X151385000Y-67992597D01*
X151385000Y-66307403D01*
X151357725Y-66030476D01*
X151249939Y-65675152D01*
X151074903Y-65347683D01*
X150839345Y-65060655D01*
X150552317Y-64825097D01*
X150224848Y-64650061D01*
X149869524Y-64542275D01*
X149681349Y-64523741D01*
X149742168Y-64376912D01*
X149805000Y-64061033D01*
X149805000Y-63738967D01*
X151035000Y-63738967D01*
X151035000Y-64061033D01*
X151097832Y-64376912D01*
X151221082Y-64674463D01*
X151400013Y-64942252D01*
X151627748Y-65169987D01*
X151895537Y-65348918D01*
X152193088Y-65472168D01*
X152508967Y-65535000D01*
X152831033Y-65535000D01*
X153146912Y-65472168D01*
X153444463Y-65348918D01*
X153712252Y-65169987D01*
X153939987Y-64942252D01*
X154118918Y-64674463D01*
X154242168Y-64376912D01*
X154305000Y-64061033D01*
X154305000Y-63738967D01*
X154267027Y-63548061D01*
X154535000Y-63548061D01*
X154535000Y-63751939D01*
X154574774Y-63951898D01*
X154652795Y-64140256D01*
X154766063Y-64309774D01*
X154910226Y-64453937D01*
X155079744Y-64567205D01*
X155268102Y-64645226D01*
X155468061Y-64685000D01*
X155671939Y-64685000D01*
X155871898Y-64645226D01*
X156060256Y-64567205D01*
X156140774Y-64513405D01*
X156189463Y-64604494D01*
X156268815Y-64701185D01*
X156365506Y-64780537D01*
X156475820Y-64839502D01*
X156595518Y-64875812D01*
X156720000Y-64888072D01*
X158220000Y-64888072D01*
X158344482Y-64875812D01*
X158464180Y-64839502D01*
X158574494Y-64780537D01*
X158671185Y-64701185D01*
X158750537Y-64604494D01*
X158809502Y-64494180D01*
X158845812Y-64374482D01*
X158858072Y-64250000D01*
X158858072Y-63250000D01*
X158845812Y-63125518D01*
X158809502Y-63005820D01*
X158750537Y-62895506D01*
X158671185Y-62798815D01*
X158574494Y-62719463D01*
X158464180Y-62660498D01*
X158344482Y-62624188D01*
X158220000Y-62611928D01*
X156720000Y-62611928D01*
X156595518Y-62624188D01*
X156475820Y-62660498D01*
X156365506Y-62719463D01*
X156268815Y-62798815D01*
X156229920Y-62846209D01*
X156229774Y-62846063D01*
X156060256Y-62732795D01*
X155871898Y-62654774D01*
X155671939Y-62615000D01*
X155468061Y-62615000D01*
X155268102Y-62654774D01*
X155079744Y-62732795D01*
X154910226Y-62846063D01*
X154766063Y-62990226D01*
X154652795Y-63159744D01*
X154574774Y-63348102D01*
X154535000Y-63548061D01*
X154267027Y-63548061D01*
X154242168Y-63423088D01*
X154118918Y-63125537D01*
X153939987Y-62857748D01*
X153712252Y-62630013D01*
X153444463Y-62451082D01*
X153146912Y-62327832D01*
X152831033Y-62265000D01*
X152508967Y-62265000D01*
X152193088Y-62327832D01*
X151895537Y-62451082D01*
X151627748Y-62630013D01*
X151400013Y-62857748D01*
X151221082Y-63125537D01*
X151097832Y-63423088D01*
X151035000Y-63738967D01*
X149805000Y-63738967D01*
X149742168Y-63423088D01*
X149618918Y-63125537D01*
X149439987Y-62857748D01*
X149212252Y-62630013D01*
X148944463Y-62451082D01*
X148646912Y-62327832D01*
X148331033Y-62265000D01*
X148008967Y-62265000D01*
X147693088Y-62327832D01*
X147678624Y-62333823D01*
X147121710Y-61776909D01*
X147396912Y-61722168D01*
X147694463Y-61598918D01*
X147962252Y-61419987D01*
X148189987Y-61192252D01*
X148368918Y-60924463D01*
X148492168Y-60626912D01*
X148555000Y-60311033D01*
X148555000Y-59988967D01*
X148492168Y-59673088D01*
X148368918Y-59375537D01*
X148189987Y-59107748D01*
X147962252Y-58880013D01*
X147694463Y-58701082D01*
X147396912Y-58577832D01*
X147081033Y-58515000D01*
X146758967Y-58515000D01*
X146443088Y-58577832D01*
X146145537Y-58701082D01*
X145877748Y-58880013D01*
X145650013Y-59107748D01*
X145471082Y-59375537D01*
X145347832Y-59673088D01*
X145285000Y-59988967D01*
X145285000Y-60311033D01*
X145347832Y-60626912D01*
X145471082Y-60924463D01*
X145615099Y-61140000D01*
X143224901Y-61140000D01*
X143368918Y-60924463D01*
X143375052Y-60909655D01*
X143483199Y-60899003D01*
X143626460Y-60855546D01*
X143758489Y-60784974D01*
X143874214Y-60690001D01*
X143898017Y-60660998D01*
X144931004Y-59628011D01*
X144960001Y-59604214D01*
X145054974Y-59488489D01*
X145125546Y-59356460D01*
X145169003Y-59213199D01*
X145180000Y-59101546D01*
X145180000Y-59101538D01*
X145183676Y-59064213D01*
X145180000Y-59026888D01*
X145180000Y-58464801D01*
X145984802Y-57660000D01*
X146215091Y-57660000D01*
X146221082Y-57674463D01*
X146400013Y-57942252D01*
X146627748Y-58169987D01*
X146895537Y-58348918D01*
X147193088Y-58472168D01*
X147508967Y-58535000D01*
X147831033Y-58535000D01*
X148146912Y-58472168D01*
X148444463Y-58348918D01*
X148712252Y-58169987D01*
X148939987Y-57942252D01*
X149118918Y-57674463D01*
X149242168Y-57376912D01*
X149305000Y-57061033D01*
X149305000Y-56738967D01*
X149242168Y-56423088D01*
X149118918Y-56125537D01*
X148939987Y-55857748D01*
X148742239Y-55660000D01*
X149216289Y-55660000D01*
X149260226Y-55703937D01*
X149429744Y-55817205D01*
X149618102Y-55895226D01*
X149818061Y-55935000D01*
X150021939Y-55935000D01*
X150221898Y-55895226D01*
X150410256Y-55817205D01*
X150579774Y-55703937D01*
X150723937Y-55559774D01*
X150837205Y-55390256D01*
X150915226Y-55201898D01*
X150955000Y-55001939D01*
X150955000Y-54798061D01*
X150915226Y-54598102D01*
X150837205Y-54409744D01*
X150723937Y-54240226D01*
X150579774Y-54096063D01*
X150410256Y-53982795D01*
X150221898Y-53904774D01*
X150021939Y-53865000D01*
X149818061Y-53865000D01*
X149618102Y-53904774D01*
X149429744Y-53982795D01*
X149260226Y-54096063D01*
X149216289Y-54140000D01*
X140207333Y-54140000D01*
X140170000Y-54136323D01*
X140132667Y-54140000D01*
X140021014Y-54150997D01*
X139877753Y-54194454D01*
X139745724Y-54265026D01*
X139629999Y-54359999D01*
X139606201Y-54388997D01*
X131912563Y-62082636D01*
X119881653Y-62082636D01*
X119837716Y-62038699D01*
X119668198Y-61925431D01*
X119479840Y-61847410D01*
X119279881Y-61807636D01*
X119076003Y-61807636D01*
X118876044Y-61847410D01*
X118687686Y-61925431D01*
X118518168Y-62038699D01*
X118374005Y-62182862D01*
X118260737Y-62352380D01*
X118182716Y-62540738D01*
X118142942Y-62740697D01*
X118142942Y-62944575D01*
X118182716Y-63144534D01*
X118260737Y-63332892D01*
X118242795Y-63359744D01*
X118164774Y-63548102D01*
X118125000Y-63748061D01*
X118125000Y-63951939D01*
X118164774Y-64151898D01*
X118242795Y-64340256D01*
X118249306Y-64350000D01*
X118242795Y-64359744D01*
X118164774Y-64548102D01*
X118125000Y-64748061D01*
X118125000Y-64951939D01*
X118164774Y-65151898D01*
X118242795Y-65340256D01*
X118249306Y-65350000D01*
X118242795Y-65359744D01*
X118164774Y-65548102D01*
X118125000Y-65748061D01*
X118125000Y-65951939D01*
X118164774Y-66151898D01*
X118242795Y-66340256D01*
X118254306Y-66357483D01*
X118252795Y-66359744D01*
X118174774Y-66548102D01*
X118135000Y-66748061D01*
X118135000Y-66951939D01*
X118174774Y-67151898D01*
X118252795Y-67340256D01*
X118366063Y-67509774D01*
X118421013Y-67564724D01*
X118464454Y-67707932D01*
X118487977Y-67751939D01*
X118535026Y-67839961D01*
X118606201Y-67926687D01*
X118630000Y-67955686D01*
X118658998Y-67979484D01*
X122210162Y-71530648D01*
X121998088Y-71572832D01*
X121700537Y-71696082D01*
X121432748Y-71875013D01*
X121205013Y-72102748D01*
X121026082Y-72370537D01*
X120902832Y-72668088D01*
X120840000Y-72983967D01*
X120840000Y-73306033D01*
X120902832Y-73621912D01*
X121026082Y-73919463D01*
X121205013Y-74187252D01*
X121432748Y-74414987D01*
X121700537Y-74593918D01*
X121998088Y-74717168D01*
X122313967Y-74780000D01*
X122636033Y-74780000D01*
X122951912Y-74717168D01*
X123249463Y-74593918D01*
X123517252Y-74414987D01*
X123744987Y-74187252D01*
X123923918Y-73919463D01*
X124047168Y-73621912D01*
X124089352Y-73409839D01*
X126340515Y-75661002D01*
X126364314Y-75690001D01*
X126480039Y-75784974D01*
X126612068Y-75855546D01*
X126755329Y-75899003D01*
X126866982Y-75910000D01*
X126866991Y-75910000D01*
X126904314Y-75913676D01*
X126941637Y-75910000D01*
X137190986Y-75910000D01*
X139191988Y-77911003D01*
X139215786Y-77940001D01*
X139244784Y-77963799D01*
X139331511Y-78034974D01*
X139463540Y-78105546D01*
X139606801Y-78149003D01*
X139714948Y-78159655D01*
X139721082Y-78174463D01*
X139900013Y-78442252D01*
X140127748Y-78669987D01*
X140395537Y-78848918D01*
X140693088Y-78972168D01*
X140908420Y-79015000D01*
X129867572Y-79015000D01*
X130017252Y-78914987D01*
X130244987Y-78687252D01*
X130423918Y-78419463D01*
X130547168Y-78121912D01*
X130610000Y-77806033D01*
X130610000Y-77483967D01*
X130547168Y-77168088D01*
X130423918Y-76870537D01*
X130244987Y-76602748D01*
X130017252Y-76375013D01*
X129749463Y-76196082D01*
X129451912Y-76072832D01*
X129136033Y-76010000D01*
X128813967Y-76010000D01*
X128498088Y-76072832D01*
X128200537Y-76196082D01*
X127932748Y-76375013D01*
X127705013Y-76602748D01*
X127526082Y-76870537D01*
X127402832Y-77168088D01*
X127340000Y-77483967D01*
X127340000Y-77806033D01*
X127402832Y-78121912D01*
X127526082Y-78419463D01*
X127705013Y-78687252D01*
X127932748Y-78914987D01*
X128082428Y-79015000D01*
X123367572Y-79015000D01*
X123517252Y-78914987D01*
X123744987Y-78687252D01*
X123923918Y-78419463D01*
X124047168Y-78121912D01*
X124110000Y-77806033D01*
X124110000Y-77483967D01*
X124047168Y-77168088D01*
X123923918Y-76870537D01*
X123744987Y-76602748D01*
X123517252Y-76375013D01*
X123249463Y-76196082D01*
X122951912Y-76072832D01*
X122636033Y-76010000D01*
X122313967Y-76010000D01*
X121998088Y-76072832D01*
X121700537Y-76196082D01*
X121432748Y-76375013D01*
X121205013Y-76602748D01*
X121026082Y-76870537D01*
X120902832Y-77168088D01*
X120840000Y-77483967D01*
X120840000Y-77806033D01*
X120902832Y-78121912D01*
X121026082Y-78419463D01*
X121205013Y-78687252D01*
X121432748Y-78914987D01*
X121582428Y-79015000D01*
X109786579Y-79015000D01*
X105055000Y-74283422D01*
X105055000Y-74188454D01*
X105087205Y-74140256D01*
X105165226Y-73951898D01*
X105205000Y-73751939D01*
X105205000Y-73548061D01*
X105165226Y-73348102D01*
X105087205Y-73159744D01*
X104973937Y-72990226D01*
X104829774Y-72846063D01*
X104660256Y-72732795D01*
X104471898Y-72654774D01*
X104271939Y-72615000D01*
X104068061Y-72615000D01*
X103868102Y-72654774D01*
X103679744Y-72732795D01*
X103510226Y-72846063D01*
X103366063Y-72990226D01*
X103252795Y-73159744D01*
X103174774Y-73348102D01*
X103135000Y-73548061D01*
X95830000Y-73548061D01*
X95830000Y-67531759D01*
X95857599Y-67546511D01*
X96090398Y-67617130D01*
X96271835Y-67635000D01*
X97093165Y-67635000D01*
X97274602Y-67617130D01*
X97507401Y-67546511D01*
X97721949Y-67431833D01*
X97910002Y-67277502D01*
X98064333Y-67089449D01*
X98179011Y-66874901D01*
X98249630Y-66642102D01*
X98273475Y-66400000D01*
X98249630Y-66157898D01*
X98246617Y-66147965D01*
X98326119Y-66266949D01*
X98515551Y-66456381D01*
X98738299Y-66605216D01*
X98985803Y-66707736D01*
X99248552Y-66760000D01*
X99516448Y-66760000D01*
X99779197Y-66707736D01*
X100026701Y-66605216D01*
X100249449Y-66456381D01*
X100438881Y-66266949D01*
X100587716Y-66044201D01*
X100690236Y-65796697D01*
X100742500Y-65533948D01*
X100742500Y-65423061D01*
X111280000Y-65423061D01*
X111280000Y-65626939D01*
X111319774Y-65826898D01*
X111397795Y-66015256D01*
X111511063Y-66184774D01*
X111555000Y-66228711D01*
X111555001Y-73872562D01*
X111510498Y-73955820D01*
X111474188Y-74075518D01*
X111461928Y-74200000D01*
X111461928Y-75900000D01*
X111474188Y-76024482D01*
X111510498Y-76144180D01*
X111569463Y-76254494D01*
X111648815Y-76351185D01*
X111745506Y-76430537D01*
X111855820Y-76489502D01*
X111975518Y-76525812D01*
X112100000Y-76538072D01*
X113800000Y-76538072D01*
X113924482Y-76525812D01*
X114044180Y-76489502D01*
X114154494Y-76430537D01*
X114251185Y-76351185D01*
X114330537Y-76254494D01*
X114389502Y-76144180D01*
X114411513Y-76071620D01*
X114543368Y-76203475D01*
X114786589Y-76365990D01*
X115056842Y-76477932D01*
X115343740Y-76535000D01*
X115636260Y-76535000D01*
X115923158Y-76477932D01*
X116193411Y-76365990D01*
X116436632Y-76203475D01*
X116643475Y-75996632D01*
X116760000Y-75822240D01*
X116876525Y-75996632D01*
X117083368Y-76203475D01*
X117326589Y-76365990D01*
X117596842Y-76477932D01*
X117883740Y-76535000D01*
X118176260Y-76535000D01*
X118463158Y-76477932D01*
X118733411Y-76365990D01*
X118976632Y-76203475D01*
X119183475Y-75996632D01*
X119345990Y-75753411D01*
X119457932Y-75483158D01*
X119515000Y-75196260D01*
X119515000Y-74903740D01*
X119457932Y-74616842D01*
X119345990Y-74346589D01*
X119183475Y-74103368D01*
X118976632Y-73896525D01*
X118733411Y-73734010D01*
X118463158Y-73622068D01*
X118176260Y-73565000D01*
X117883740Y-73565000D01*
X117663592Y-73608790D01*
X115615000Y-71560199D01*
X115615000Y-66228711D01*
X115658937Y-66184774D01*
X115772205Y-66015256D01*
X115850226Y-65826898D01*
X115890000Y-65626939D01*
X115890000Y-65423061D01*
X115850226Y-65223102D01*
X115772205Y-65034744D01*
X115658937Y-64865226D01*
X115514774Y-64721063D01*
X115345256Y-64607795D01*
X115156898Y-64529774D01*
X114956939Y-64490000D01*
X114753061Y-64490000D01*
X114553102Y-64529774D01*
X114364744Y-64607795D01*
X114220000Y-64704510D01*
X114075256Y-64607795D01*
X113886898Y-64529774D01*
X113686939Y-64490000D01*
X113483061Y-64490000D01*
X113283102Y-64529774D01*
X113094744Y-64607795D01*
X112950000Y-64704510D01*
X112805256Y-64607795D01*
X112616898Y-64529774D01*
X112416939Y-64490000D01*
X112213061Y-64490000D01*
X112013102Y-64529774D01*
X111824744Y-64607795D01*
X111655226Y-64721063D01*
X111511063Y-64865226D01*
X111397795Y-65034744D01*
X111319774Y-65223102D01*
X111280000Y-65423061D01*
X100742500Y-65423061D01*
X100742500Y-65266052D01*
X100690236Y-65003303D01*
X100587716Y-64755799D01*
X100438881Y-64533051D01*
X100249449Y-64343619D01*
X100026701Y-64194784D01*
X99779197Y-64092264D01*
X99516448Y-64040000D01*
X99248552Y-64040000D01*
X98985803Y-64092264D01*
X98738299Y-64194784D01*
X98515551Y-64343619D01*
X98326119Y-64533051D01*
X98177284Y-64755799D01*
X98074764Y-65003303D01*
X98022500Y-65266052D01*
X98022500Y-65533948D01*
X98055484Y-65699768D01*
X97910002Y-65522498D01*
X97721949Y-65368167D01*
X97507401Y-65253489D01*
X97274602Y-65182870D01*
X97093165Y-65165000D01*
X96271835Y-65165000D01*
X96090398Y-65182870D01*
X95857599Y-65253489D01*
X95830000Y-65268241D01*
X95830000Y-60531759D01*
X95857599Y-60546511D01*
X96090398Y-60617130D01*
X96271835Y-60635000D01*
X97093165Y-60635000D01*
X97274602Y-60617130D01*
X97507401Y-60546511D01*
X97721949Y-60431833D01*
X97910002Y-60277502D01*
X98055484Y-60100232D01*
X98022500Y-60266052D01*
X98022500Y-60533948D01*
X98074764Y-60796697D01*
X98177284Y-61044201D01*
X98326119Y-61266949D01*
X98515551Y-61456381D01*
X98738299Y-61605216D01*
X98985803Y-61707736D01*
X99248552Y-61760000D01*
X99516448Y-61760000D01*
X99779197Y-61707736D01*
X100026701Y-61605216D01*
X100249449Y-61456381D01*
X100438881Y-61266949D01*
X100587716Y-61044201D01*
X100690236Y-60796697D01*
X100742500Y-60533948D01*
X100742500Y-60266052D01*
X100690236Y-60003303D01*
X100587716Y-59755799D01*
X100438881Y-59533051D01*
X100249449Y-59343619D01*
X100026701Y-59194784D01*
X99779197Y-59092264D01*
X99516448Y-59040000D01*
X99248552Y-59040000D01*
X98985803Y-59092264D01*
X98738299Y-59194784D01*
X98515551Y-59343619D01*
X98326119Y-59533051D01*
X98246617Y-59652035D01*
X98249630Y-59642102D01*
X98273475Y-59400000D01*
X98249630Y-59157898D01*
X98179011Y-58925099D01*
X98064333Y-58710551D01*
X97910002Y-58522498D01*
X97721949Y-58368167D01*
X97507401Y-58253489D01*
X97274602Y-58182870D01*
X97093165Y-58165000D01*
X96271835Y-58165000D01*
X96090398Y-58182870D01*
X95857599Y-58253489D01*
X95830000Y-58268241D01*
X95830000Y-53429872D01*
X96935000Y-53429872D01*
X96935000Y-53870128D01*
X97020890Y-54301925D01*
X97189369Y-54708669D01*
X97433962Y-55074729D01*
X97745271Y-55386038D01*
X98111331Y-55630631D01*
X98518075Y-55799110D01*
X98949872Y-55885000D01*
X99390128Y-55885000D01*
X99821925Y-55799110D01*
X100228669Y-55630631D01*
X100594729Y-55386038D01*
X100762027Y-55218740D01*
X121625000Y-55218740D01*
X121625000Y-55511260D01*
X121682068Y-55798158D01*
X121794010Y-56068411D01*
X121956525Y-56311632D01*
X122163368Y-56518475D01*
X122406589Y-56680990D01*
X122676842Y-56792932D01*
X122963740Y-56850000D01*
X123256260Y-56850000D01*
X123543158Y-56792932D01*
X123813411Y-56680990D01*
X124056632Y-56518475D01*
X124188487Y-56386620D01*
X124210498Y-56459180D01*
X124269463Y-56569494D01*
X124348815Y-56666185D01*
X124445506Y-56745537D01*
X124555820Y-56804502D01*
X124675518Y-56840812D01*
X124800000Y-56853072D01*
X125364250Y-56850000D01*
X125523000Y-56691250D01*
X125523000Y-55492000D01*
X125777000Y-55492000D01*
X125777000Y-56691250D01*
X125935750Y-56850000D01*
X126500000Y-56853072D01*
X126624482Y-56840812D01*
X126744180Y-56804502D01*
X126854494Y-56745537D01*
X126951185Y-56666185D01*
X127030537Y-56569494D01*
X127089502Y-56459180D01*
X127125812Y-56339482D01*
X127138072Y-56215000D01*
X127135000Y-55650750D01*
X126976250Y-55492000D01*
X125777000Y-55492000D01*
X125523000Y-55492000D01*
X125503000Y-55492000D01*
X125503000Y-55238000D01*
X125523000Y-55238000D01*
X125523000Y-54038750D01*
X125777000Y-54038750D01*
X125777000Y-55238000D01*
X126976250Y-55238000D01*
X127135000Y-55079250D01*
X127138072Y-54515000D01*
X127125812Y-54390518D01*
X127089502Y-54270820D01*
X127030537Y-54160506D01*
X126951185Y-54063815D01*
X126854494Y-53984463D01*
X126744180Y-53925498D01*
X126624482Y-53889188D01*
X126500000Y-53876928D01*
X125935750Y-53880000D01*
X125777000Y-54038750D01*
X125523000Y-54038750D01*
X125364250Y-53880000D01*
X124800000Y-53876928D01*
X124675518Y-53889188D01*
X124555820Y-53925498D01*
X124445506Y-53984463D01*
X124348815Y-54063815D01*
X124269463Y-54160506D01*
X124210498Y-54270820D01*
X124188487Y-54343380D01*
X124056632Y-54211525D01*
X123813411Y-54049010D01*
X123543158Y-53937068D01*
X123256260Y-53880000D01*
X122963740Y-53880000D01*
X122676842Y-53937068D01*
X122406589Y-54049010D01*
X122163368Y-54211525D01*
X121956525Y-54418368D01*
X121794010Y-54661589D01*
X121682068Y-54931842D01*
X121625000Y-55218740D01*
X100762027Y-55218740D01*
X100906038Y-55074729D01*
X101150631Y-54708669D01*
X101319110Y-54301925D01*
X101405000Y-53870128D01*
X101405000Y-53429872D01*
X101319110Y-52998075D01*
X101200783Y-52712408D01*
X108263000Y-52712408D01*
X108263000Y-52987592D01*
X108316686Y-53257490D01*
X108421995Y-53511727D01*
X108574880Y-53740535D01*
X108769465Y-53935120D01*
X108998273Y-54088005D01*
X109252510Y-54193314D01*
X109522408Y-54247000D01*
X109797592Y-54247000D01*
X110067490Y-54193314D01*
X110321727Y-54088005D01*
X110550535Y-53935120D01*
X110670090Y-53815565D01*
X111414040Y-53815565D01*
X111481020Y-54055656D01*
X111730048Y-54172756D01*
X111997135Y-54239023D01*
X112272017Y-54251910D01*
X112544133Y-54210922D01*
X112803023Y-54117636D01*
X112918980Y-54055656D01*
X112985960Y-53815565D01*
X112200000Y-53029605D01*
X111414040Y-53815565D01*
X110670090Y-53815565D01*
X110745120Y-53740535D01*
X110898005Y-53511727D01*
X110927692Y-53440057D01*
X110932364Y-53453023D01*
X110994344Y-53568980D01*
X111234435Y-53635960D01*
X112020395Y-52850000D01*
X112379605Y-52850000D01*
X113165565Y-53635960D01*
X113405656Y-53568980D01*
X113469485Y-53433240D01*
X113501995Y-53511727D01*
X113654880Y-53740535D01*
X113849465Y-53935120D01*
X114078273Y-54088005D01*
X114332510Y-54193314D01*
X114602408Y-54247000D01*
X114877592Y-54247000D01*
X115147490Y-54193314D01*
X115401727Y-54088005D01*
X115630535Y-53935120D01*
X115825120Y-53740535D01*
X115978005Y-53511727D01*
X116010000Y-53434485D01*
X116041995Y-53511727D01*
X116194880Y-53740535D01*
X116389465Y-53935120D01*
X116618273Y-54088005D01*
X116872510Y-54193314D01*
X117142408Y-54247000D01*
X117417592Y-54247000D01*
X117687490Y-54193314D01*
X117941727Y-54088005D01*
X118170535Y-53935120D01*
X118365120Y-53740535D01*
X118518005Y-53511727D01*
X118623314Y-53257490D01*
X118677000Y-52987592D01*
X118677000Y-52712408D01*
X118623314Y-52442510D01*
X118539004Y-52238967D01*
X139535000Y-52238967D01*
X139535000Y-52561033D01*
X139597832Y-52876912D01*
X139721082Y-53174463D01*
X139900013Y-53442252D01*
X140127748Y-53669987D01*
X140395537Y-53848918D01*
X140693088Y-53972168D01*
X141008967Y-54035000D01*
X141331033Y-54035000D01*
X141646912Y-53972168D01*
X141944463Y-53848918D01*
X142212252Y-53669987D01*
X142439987Y-53442252D01*
X142618918Y-53174463D01*
X142742168Y-52876912D01*
X142805000Y-52561033D01*
X142805000Y-52238967D01*
X146035000Y-52238967D01*
X146035000Y-52561033D01*
X146097832Y-52876912D01*
X146221082Y-53174463D01*
X146400013Y-53442252D01*
X146627748Y-53669987D01*
X146895537Y-53848918D01*
X147193088Y-53972168D01*
X147508967Y-54035000D01*
X147831033Y-54035000D01*
X148146912Y-53972168D01*
X148444463Y-53848918D01*
X148712252Y-53669987D01*
X148939987Y-53442252D01*
X149118918Y-53174463D01*
X149171275Y-53048061D01*
X150635000Y-53048061D01*
X150635000Y-53251939D01*
X150674774Y-53451898D01*
X150752795Y-53640256D01*
X150866063Y-53809774D01*
X151010226Y-53953937D01*
X151179744Y-54067205D01*
X151368102Y-54145226D01*
X151568061Y-54185000D01*
X151771939Y-54185000D01*
X151971898Y-54145226D01*
X152160256Y-54067205D01*
X152329774Y-53953937D01*
X152473937Y-53809774D01*
X152587205Y-53640256D01*
X152665226Y-53451898D01*
X152669607Y-53429872D01*
X158935000Y-53429872D01*
X158935000Y-53870128D01*
X159020890Y-54301925D01*
X159189369Y-54708669D01*
X159433962Y-55074729D01*
X159745271Y-55386038D01*
X160111331Y-55630631D01*
X160518075Y-55799110D01*
X160949872Y-55885000D01*
X161390128Y-55885000D01*
X161821925Y-55799110D01*
X162228669Y-55630631D01*
X162594729Y-55386038D01*
X162906038Y-55074729D01*
X163150631Y-54708669D01*
X163319110Y-54301925D01*
X163405000Y-53870128D01*
X163405000Y-53429872D01*
X163319110Y-52998075D01*
X163150631Y-52591331D01*
X162906038Y-52225271D01*
X162594729Y-51913962D01*
X162228669Y-51669369D01*
X161821925Y-51500890D01*
X161390128Y-51415000D01*
X160949872Y-51415000D01*
X160518075Y-51500890D01*
X160111331Y-51669369D01*
X159745271Y-51913962D01*
X159433962Y-52225271D01*
X159189369Y-52591331D01*
X159020890Y-52998075D01*
X158935000Y-53429872D01*
X152669607Y-53429872D01*
X152705000Y-53251939D01*
X152705000Y-53048061D01*
X152665226Y-52848102D01*
X152587205Y-52659744D01*
X152473937Y-52490226D01*
X152329774Y-52346063D01*
X152160256Y-52232795D01*
X151971898Y-52154774D01*
X151771939Y-52115000D01*
X151568061Y-52115000D01*
X151368102Y-52154774D01*
X151179744Y-52232795D01*
X151010226Y-52346063D01*
X150866063Y-52490226D01*
X150752795Y-52659744D01*
X150674774Y-52848102D01*
X150635000Y-53048061D01*
X149171275Y-53048061D01*
X149242168Y-52876912D01*
X149305000Y-52561033D01*
X149305000Y-52238967D01*
X149242168Y-51923088D01*
X149118918Y-51625537D01*
X148939987Y-51357748D01*
X148712252Y-51130013D01*
X148444463Y-50951082D01*
X148146912Y-50827832D01*
X147831033Y-50765000D01*
X147508967Y-50765000D01*
X147193088Y-50827832D01*
X146895537Y-50951082D01*
X146627748Y-51130013D01*
X146400013Y-51357748D01*
X146221082Y-51625537D01*
X146097832Y-51923088D01*
X146035000Y-52238967D01*
X142805000Y-52238967D01*
X142742168Y-51923088D01*
X142618918Y-51625537D01*
X142439987Y-51357748D01*
X142212252Y-51130013D01*
X141944463Y-50951082D01*
X141646912Y-50827832D01*
X141331033Y-50765000D01*
X141008967Y-50765000D01*
X140693088Y-50827832D01*
X140395537Y-50951082D01*
X140127748Y-51130013D01*
X139900013Y-51357748D01*
X139721082Y-51625537D01*
X139597832Y-51923088D01*
X139535000Y-52238967D01*
X118539004Y-52238967D01*
X118518005Y-52188273D01*
X118365120Y-51959465D01*
X118170535Y-51764880D01*
X117941727Y-51611995D01*
X117687490Y-51506686D01*
X117417592Y-51453000D01*
X117142408Y-51453000D01*
X116872510Y-51506686D01*
X116618273Y-51611995D01*
X116389465Y-51764880D01*
X116194880Y-51959465D01*
X116041995Y-52188273D01*
X116010000Y-52265515D01*
X115978005Y-52188273D01*
X115825120Y-51959465D01*
X115630535Y-51764880D01*
X115401727Y-51611995D01*
X115147490Y-51506686D01*
X114877592Y-51453000D01*
X114602408Y-51453000D01*
X114332510Y-51506686D01*
X114078273Y-51611995D01*
X113849465Y-51764880D01*
X113654880Y-51959465D01*
X113501995Y-52188273D01*
X113472308Y-52259943D01*
X113467636Y-52246977D01*
X113405656Y-52131020D01*
X113165565Y-52064040D01*
X112379605Y-52850000D01*
X112020395Y-52850000D01*
X111234435Y-52064040D01*
X110994344Y-52131020D01*
X110930515Y-52266760D01*
X110898005Y-52188273D01*
X110745120Y-51959465D01*
X110670090Y-51884435D01*
X111414040Y-51884435D01*
X112200000Y-52670395D01*
X112985960Y-51884435D01*
X112918980Y-51644344D01*
X112669952Y-51527244D01*
X112402865Y-51460977D01*
X112127983Y-51448090D01*
X111855867Y-51489078D01*
X111596977Y-51582364D01*
X111481020Y-51644344D01*
X111414040Y-51884435D01*
X110670090Y-51884435D01*
X110550535Y-51764880D01*
X110321727Y-51611995D01*
X110067490Y-51506686D01*
X109797592Y-51453000D01*
X109522408Y-51453000D01*
X109252510Y-51506686D01*
X108998273Y-51611995D01*
X108769465Y-51764880D01*
X108574880Y-51959465D01*
X108421995Y-52188273D01*
X108316686Y-52442510D01*
X108263000Y-52712408D01*
X101200783Y-52712408D01*
X101150631Y-52591331D01*
X100906038Y-52225271D01*
X100594729Y-51913962D01*
X100228669Y-51669369D01*
X99821925Y-51500890D01*
X99390128Y-51415000D01*
X98949872Y-51415000D01*
X98518075Y-51500890D01*
X98111331Y-51669369D01*
X97745271Y-51913962D01*
X97433962Y-52225271D01*
X97189369Y-52591331D01*
X97020890Y-52998075D01*
X96935000Y-53429872D01*
X95830000Y-53429872D01*
X95830000Y-50310000D01*
X164510000Y-50310000D01*
X164510001Y-68962531D01*
G37*
X164510001Y-68962531D02*
X164439987Y-68857748D01*
X164212252Y-68630013D01*
X163944463Y-68451082D01*
X163646912Y-68327832D01*
X163331033Y-68265000D01*
X163008967Y-68265000D01*
X162693088Y-68327832D01*
X162395537Y-68451082D01*
X162127748Y-68630013D01*
X161900013Y-68857748D01*
X161721082Y-69125537D01*
X161597832Y-69423088D01*
X161535000Y-69738967D01*
X161535000Y-70061033D01*
X161597832Y-70376912D01*
X161721082Y-70674463D01*
X161900013Y-70942252D01*
X162127748Y-71169987D01*
X162395537Y-71348918D01*
X162693088Y-71472168D01*
X163008967Y-71535000D01*
X163331033Y-71535000D01*
X163646912Y-71472168D01*
X163944463Y-71348918D01*
X164212252Y-71169987D01*
X164439987Y-70942252D01*
X164510001Y-70837469D01*
X164510001Y-73462531D01*
X164439987Y-73357748D01*
X164212252Y-73130013D01*
X163944463Y-72951082D01*
X163646912Y-72827832D01*
X163331033Y-72765000D01*
X163008967Y-72765000D01*
X162693088Y-72827832D01*
X162395537Y-72951082D01*
X162127748Y-73130013D01*
X161900013Y-73357748D01*
X161721082Y-73625537D01*
X161597832Y-73923088D01*
X161535000Y-74238967D01*
X161535000Y-74561033D01*
X161597832Y-74876912D01*
X161721082Y-75174463D01*
X161900013Y-75442252D01*
X162127748Y-75669987D01*
X162395537Y-75848918D01*
X162693088Y-75972168D01*
X163008967Y-76035000D01*
X163331033Y-76035000D01*
X163646912Y-75972168D01*
X163944463Y-75848918D01*
X164212252Y-75669987D01*
X164439987Y-75442252D01*
X164510001Y-75337469D01*
X164510001Y-83990000D01*
X95830000Y-83990000D01*
X95830000Y-80429872D01*
X96935000Y-80429872D01*
X96935000Y-80870128D01*
X97020890Y-81301925D01*
X97189369Y-81708669D01*
X97433962Y-82074729D01*
X97745271Y-82386038D01*
X98111331Y-82630631D01*
X98518075Y-82799110D01*
X98949872Y-82885000D01*
X99390128Y-82885000D01*
X99821925Y-82799110D01*
X100228669Y-82630631D01*
X100594729Y-82386038D01*
X100906038Y-82074729D01*
X101150631Y-81708669D01*
X101319110Y-81301925D01*
X101405000Y-80870128D01*
X101405000Y-80429872D01*
X101319110Y-79998075D01*
X101150631Y-79591331D01*
X100906038Y-79225271D01*
X100594729Y-78913962D01*
X100228669Y-78669369D01*
X99821925Y-78500890D01*
X99390128Y-78415000D01*
X98949872Y-78415000D01*
X98518075Y-78500890D01*
X98111331Y-78669369D01*
X97745271Y-78913962D01*
X97433962Y-79225271D01*
X97189369Y-79591331D01*
X97020890Y-79998075D01*
X96935000Y-80429872D01*
X95830000Y-80429872D01*
X95830000Y-73548061D01*
X103135000Y-73548061D01*
X103135000Y-73751939D01*
X103174774Y-73951898D01*
X103252795Y-74140256D01*
X103285001Y-74188455D01*
X103285001Y-74606522D01*
X103280719Y-74650000D01*
X103297805Y-74823490D01*
X103348412Y-74990313D01*
X103430590Y-75144059D01*
X103513468Y-75245046D01*
X103513471Y-75245049D01*
X103541184Y-75278817D01*
X103574952Y-75306530D01*
X108763470Y-80495049D01*
X108791183Y-80528817D01*
X108824951Y-80556530D01*
X108824953Y-80556532D01*
X108896452Y-80615210D01*
X108925941Y-80639411D01*
X109079687Y-80721589D01*
X109246510Y-80772195D01*
X109376523Y-80785000D01*
X109376533Y-80785000D01*
X109419999Y-80789281D01*
X109463465Y-80785000D01*
X139972761Y-80785000D01*
X139900013Y-80857748D01*
X139721082Y-81125537D01*
X139597832Y-81423088D01*
X139535000Y-81738967D01*
X139535000Y-82061033D01*
X139597832Y-82376912D01*
X139721082Y-82674463D01*
X139900013Y-82942252D01*
X140127748Y-83169987D01*
X140395537Y-83348918D01*
X140693088Y-83472168D01*
X141008967Y-83535000D01*
X141331033Y-83535000D01*
X141646912Y-83472168D01*
X141944463Y-83348918D01*
X142212252Y-83169987D01*
X142439987Y-82942252D01*
X142618918Y-82674463D01*
X142742168Y-82376912D01*
X142805000Y-82061033D01*
X142805000Y-81738967D01*
X142742168Y-81423088D01*
X142618918Y-81125537D01*
X142439987Y-80857748D01*
X142367239Y-80785000D01*
X146472761Y-80785000D01*
X146400013Y-80857748D01*
X146221082Y-81125537D01*
X146097832Y-81423088D01*
X146035000Y-81738967D01*
X146035000Y-82061033D01*
X146097832Y-82376912D01*
X146221082Y-82674463D01*
X146400013Y-82942252D01*
X146627748Y-83169987D01*
X146895537Y-83348918D01*
X147193088Y-83472168D01*
X147508967Y-83535000D01*
X147831033Y-83535000D01*
X148146912Y-83472168D01*
X148444463Y-83348918D01*
X148712252Y-83169987D01*
X148939987Y-82942252D01*
X149118918Y-82674463D01*
X149242168Y-82376912D01*
X149305000Y-82061033D01*
X149305000Y-81738967D01*
X149242168Y-81423088D01*
X149118918Y-81125537D01*
X148939987Y-80857748D01*
X148867239Y-80785000D01*
X153876531Y-80785000D01*
X153920000Y-80789281D01*
X153963469Y-80785000D01*
X153963477Y-80785000D01*
X154093490Y-80772195D01*
X154260313Y-80721589D01*
X154414059Y-80639411D01*
X154548817Y-80528817D01*
X154576534Y-80495044D01*
X154641706Y-80429872D01*
X158935000Y-80429872D01*
X158935000Y-80870128D01*
X159020890Y-81301925D01*
X159189369Y-81708669D01*
X159433962Y-82074729D01*
X159745271Y-82386038D01*
X160111331Y-82630631D01*
X160518075Y-82799110D01*
X160949872Y-82885000D01*
X161390128Y-82885000D01*
X161821925Y-82799110D01*
X162228669Y-82630631D01*
X162594729Y-82386038D01*
X162906038Y-82074729D01*
X163150631Y-81708669D01*
X163319110Y-81301925D01*
X163405000Y-80870128D01*
X163405000Y-80429872D01*
X163319110Y-79998075D01*
X163150631Y-79591331D01*
X162906038Y-79225271D01*
X162594729Y-78913962D01*
X162228669Y-78669369D01*
X161821925Y-78500890D01*
X161390128Y-78415000D01*
X160949872Y-78415000D01*
X160518075Y-78500890D01*
X160111331Y-78669369D01*
X159745271Y-78913962D01*
X159433962Y-79225271D01*
X159189369Y-79591331D01*
X159020890Y-79998075D01*
X158935000Y-80429872D01*
X154641706Y-80429872D01*
X160515051Y-74556528D01*
X160548817Y-74528817D01*
X160581522Y-74488967D01*
X160659410Y-74394060D01*
X160659411Y-74394059D01*
X160741589Y-74240313D01*
X160792195Y-74073490D01*
X160805000Y-73943477D01*
X160805000Y-73943467D01*
X160809281Y-73900001D01*
X160805000Y-73856535D01*
X160805000Y-67316578D01*
X162965050Y-65156529D01*
X162998817Y-65128817D01*
X163109411Y-64994059D01*
X163168621Y-64883283D01*
X163244482Y-64875812D01*
X163364180Y-64839502D01*
X163474494Y-64780537D01*
X163571185Y-64701185D01*
X163650537Y-64604494D01*
X163709502Y-64494180D01*
X163745812Y-64374482D01*
X163758072Y-64250000D01*
X163758072Y-63250000D01*
X163745812Y-63125518D01*
X163709502Y-63005820D01*
X163650537Y-62895506D01*
X163571185Y-62798815D01*
X163474494Y-62719463D01*
X163364180Y-62660498D01*
X163244482Y-62624188D01*
X163120000Y-62611928D01*
X163024326Y-62611928D01*
X163004974Y-62575724D01*
X162910001Y-62459999D01*
X162881003Y-62436201D01*
X162132874Y-61688072D01*
X163120000Y-61688072D01*
X163244482Y-61675812D01*
X163364180Y-61639502D01*
X163474494Y-61580537D01*
X163571185Y-61501185D01*
X163650537Y-61404494D01*
X163709502Y-61294180D01*
X163745812Y-61174482D01*
X163758072Y-61050000D01*
X163758072Y-60050000D01*
X163745812Y-59925518D01*
X163709502Y-59805820D01*
X163650537Y-59695506D01*
X163571185Y-59598815D01*
X163474494Y-59519463D01*
X163364180Y-59460498D01*
X163244482Y-59424188D01*
X163120000Y-59411928D01*
X161620000Y-59411928D01*
X161530793Y-59420714D01*
X161519003Y-59301014D01*
X161475546Y-59157753D01*
X161404974Y-59025724D01*
X161333799Y-58938997D01*
X161310001Y-58909999D01*
X161281003Y-58886201D01*
X157533804Y-55139003D01*
X157510001Y-55109999D01*
X157394276Y-55015026D01*
X157262247Y-54944454D01*
X157118986Y-54900997D01*
X157007333Y-54890000D01*
X157007322Y-54890000D01*
X156970000Y-54886324D01*
X156932678Y-54890000D01*
X155073711Y-54890000D01*
X155029774Y-54846063D01*
X154860256Y-54732795D01*
X154671898Y-54654774D01*
X154471939Y-54615000D01*
X154268061Y-54615000D01*
X154068102Y-54654774D01*
X153879744Y-54732795D01*
X153710226Y-54846063D01*
X153566063Y-54990226D01*
X153452795Y-55159744D01*
X153374774Y-55348102D01*
X153335000Y-55548061D01*
X153335000Y-55751939D01*
X153374774Y-55951898D01*
X153452795Y-56140256D01*
X153566063Y-56309774D01*
X153710226Y-56453937D01*
X153879744Y-56567205D01*
X154068102Y-56645226D01*
X154268061Y-56685000D01*
X154471939Y-56685000D01*
X154671898Y-56645226D01*
X154860256Y-56567205D01*
X155029774Y-56453937D01*
X155073711Y-56410000D01*
X156655199Y-56410000D01*
X160010001Y-59764803D01*
X160010000Y-61115000D01*
X159959802Y-61115000D01*
X158883804Y-60039003D01*
X158860001Y-60009999D01*
X158853616Y-60004759D01*
X158845812Y-59925518D01*
X158809502Y-59805820D01*
X158750537Y-59695506D01*
X158671185Y-59598815D01*
X158574494Y-59519463D01*
X158464180Y-59460498D01*
X158344482Y-59424188D01*
X158220000Y-59411928D01*
X156720000Y-59411928D01*
X156595518Y-59424188D01*
X156475820Y-59460498D01*
X156365506Y-59519463D01*
X156268815Y-59598815D01*
X156189463Y-59695506D01*
X156130498Y-59805820D01*
X156094188Y-59925518D01*
X156081928Y-60050000D01*
X156081928Y-61050000D01*
X156094188Y-61174482D01*
X156130498Y-61294180D01*
X156189463Y-61404494D01*
X156268815Y-61501185D01*
X156365506Y-61580537D01*
X156475820Y-61639502D01*
X156595518Y-61675812D01*
X156720000Y-61688072D01*
X158220000Y-61688072D01*
X158344482Y-61675812D01*
X158364836Y-61669638D01*
X158885000Y-62189802D01*
X158885000Y-62251939D01*
X158924774Y-62451898D01*
X159002795Y-62640256D01*
X159116063Y-62809774D01*
X159260226Y-62953937D01*
X159429744Y-63067205D01*
X159618102Y-63145226D01*
X159818061Y-63185000D01*
X160021939Y-63185000D01*
X160221898Y-63145226D01*
X160410256Y-63067205D01*
X160579774Y-62953937D01*
X160723937Y-62809774D01*
X160837205Y-62640256D01*
X160865982Y-62570783D01*
X161135098Y-62839899D01*
X161089463Y-62895506D01*
X161030498Y-63005820D01*
X160994188Y-63125518D01*
X160981928Y-63250000D01*
X160981928Y-64250000D01*
X160994188Y-64374482D01*
X161030498Y-64494180D01*
X161063152Y-64555270D01*
X159324951Y-66293471D01*
X159291184Y-66321183D01*
X159263471Y-66354951D01*
X159263468Y-66354954D01*
X159180590Y-66455941D01*
X159098412Y-66609687D01*
X159047805Y-66776510D01*
X159030719Y-66950000D01*
X159035001Y-66993479D01*
X159035000Y-73533421D01*
X158305000Y-74263421D01*
X158305000Y-74238967D01*
X158242168Y-73923088D01*
X158118918Y-73625537D01*
X157939987Y-73357748D01*
X157712252Y-73130013D01*
X157444463Y-72951082D01*
X157146912Y-72827832D01*
X156831033Y-72765000D01*
X156508967Y-72765000D01*
X156193088Y-72827832D01*
X155895537Y-72951082D01*
X155627748Y-73130013D01*
X155400013Y-73357748D01*
X155355282Y-73424693D01*
X154269591Y-72339003D01*
X154245788Y-72309999D01*
X154130063Y-72215026D01*
X153998034Y-72144454D01*
X153854773Y-72100997D01*
X153743120Y-72090000D01*
X153743109Y-72090000D01*
X153705787Y-72086324D01*
X153668465Y-72090000D01*
X147673711Y-72090000D01*
X147629774Y-72046063D01*
X147460256Y-71932795D01*
X147271898Y-71854774D01*
X147071939Y-71815000D01*
X146868061Y-71815000D01*
X146668102Y-71854774D01*
X146479744Y-71932795D01*
X146310226Y-72046063D01*
X146166063Y-72190226D01*
X146052795Y-72359744D01*
X145974774Y-72548102D01*
X145935000Y-72748061D01*
X145935000Y-72951939D01*
X145974774Y-73151898D01*
X146027748Y-73279786D01*
X145877748Y-73380013D01*
X145650013Y-73607748D01*
X145585075Y-73704935D01*
X145555413Y-73694192D01*
X144599605Y-74650000D01*
X145555413Y-75605808D01*
X145585075Y-75595065D01*
X145650013Y-75692252D01*
X145877748Y-75919987D01*
X146145537Y-76098918D01*
X146443088Y-76222168D01*
X146520245Y-76237516D01*
X146400013Y-76357748D01*
X146221082Y-76625537D01*
X146215091Y-76640000D01*
X142624909Y-76640000D01*
X142618918Y-76625537D01*
X142439987Y-76357748D01*
X142319755Y-76237516D01*
X142396912Y-76222168D01*
X142694463Y-76098918D01*
X142962252Y-75919987D01*
X143096826Y-75785413D01*
X143464192Y-75785413D01*
X143559956Y-76049814D01*
X143849571Y-76190704D01*
X144161108Y-76272384D01*
X144482595Y-76291718D01*
X144801675Y-76247961D01*
X145106088Y-76142795D01*
X145280044Y-76049814D01*
X145375808Y-75785413D01*
X144420000Y-74829605D01*
X143464192Y-75785413D01*
X143096826Y-75785413D01*
X143189987Y-75692252D01*
X143254925Y-75595065D01*
X143284587Y-75605808D01*
X144240395Y-74650000D01*
X143284587Y-73694192D01*
X143254925Y-73704935D01*
X143189987Y-73607748D01*
X143096826Y-73514587D01*
X143464192Y-73514587D01*
X144420000Y-74470395D01*
X145375808Y-73514587D01*
X145280044Y-73250186D01*
X144990429Y-73109296D01*
X144678892Y-73027616D01*
X144357405Y-73008282D01*
X144038325Y-73052039D01*
X143733912Y-73157205D01*
X143559956Y-73250186D01*
X143464192Y-73514587D01*
X143096826Y-73514587D01*
X142962252Y-73380013D01*
X142733930Y-73227453D01*
X142765226Y-73151898D01*
X142805000Y-72951939D01*
X142805000Y-72748061D01*
X142765226Y-72548102D01*
X142687205Y-72359744D01*
X142573937Y-72190226D01*
X142429774Y-72046063D01*
X142260256Y-71932795D01*
X142071898Y-71854774D01*
X141871939Y-71815000D01*
X141668061Y-71815000D01*
X141468102Y-71854774D01*
X141279744Y-71932795D01*
X141110226Y-72046063D01*
X141066289Y-72090000D01*
X135284802Y-72090000D01*
X133433769Y-70238967D01*
X134535000Y-70238967D01*
X134535000Y-70561033D01*
X134597832Y-70876912D01*
X134721082Y-71174463D01*
X134900013Y-71442252D01*
X135127748Y-71669987D01*
X135395537Y-71848918D01*
X135693088Y-71972168D01*
X136008967Y-72035000D01*
X136331033Y-72035000D01*
X136646912Y-71972168D01*
X136944463Y-71848918D01*
X137212252Y-71669987D01*
X137439987Y-71442252D01*
X137618918Y-71174463D01*
X137742168Y-70876912D01*
X137805000Y-70561033D01*
X137805000Y-70238967D01*
X137742168Y-69923088D01*
X137618918Y-69625537D01*
X137439987Y-69357748D01*
X137212252Y-69130013D01*
X136944463Y-68951082D01*
X136646912Y-68827832D01*
X136331033Y-68765000D01*
X136008967Y-68765000D01*
X135693088Y-68827832D01*
X135395537Y-68951082D01*
X135127748Y-69130013D01*
X134900013Y-69357748D01*
X134721082Y-69625537D01*
X134597832Y-69923088D01*
X134535000Y-70238967D01*
X133433769Y-70238967D01*
X130333804Y-67139003D01*
X130310001Y-67109999D01*
X130194276Y-67015026D01*
X130062247Y-66944454D01*
X129918986Y-66900997D01*
X129807333Y-66890000D01*
X129807322Y-66890000D01*
X129770000Y-66886324D01*
X129732678Y-66890000D01*
X121673711Y-66890000D01*
X121629774Y-66846063D01*
X121460256Y-66732795D01*
X121271898Y-66654774D01*
X121071939Y-66615000D01*
X120868061Y-66615000D01*
X120668102Y-66654774D01*
X120479744Y-66732795D01*
X120310226Y-66846063D01*
X120205000Y-66951289D01*
X120205000Y-66748061D01*
X120177538Y-66610000D01*
X136682678Y-66610000D01*
X136720000Y-66613676D01*
X136757322Y-66610000D01*
X136757333Y-66610000D01*
X136868986Y-66599003D01*
X137012247Y-66555546D01*
X137144276Y-66484974D01*
X137260001Y-66390001D01*
X137283804Y-66360998D01*
X137467848Y-66176953D01*
X137455000Y-66307404D01*
X137455000Y-67992597D01*
X137482275Y-68269524D01*
X137590062Y-68624848D01*
X137765098Y-68952317D01*
X138000656Y-69239345D01*
X138287684Y-69474903D01*
X138615153Y-69649939D01*
X138970477Y-69757725D01*
X139158651Y-69776259D01*
X139097832Y-69923088D01*
X139035000Y-70238967D01*
X139035000Y-70561033D01*
X139097832Y-70876912D01*
X139221082Y-71174463D01*
X139400013Y-71442252D01*
X139627748Y-71669987D01*
X139895537Y-71848918D01*
X140193088Y-71972168D01*
X140508967Y-72035000D01*
X140831033Y-72035000D01*
X141146912Y-71972168D01*
X141444463Y-71848918D01*
X141712252Y-71669987D01*
X141939987Y-71442252D01*
X142118918Y-71174463D01*
X142242168Y-70876912D01*
X142305000Y-70561033D01*
X142305000Y-70238967D01*
X142242168Y-69923088D01*
X142236034Y-69908279D01*
X142304973Y-69824278D01*
X142375545Y-69692248D01*
X142419001Y-69548988D01*
X142433675Y-69400002D01*
X142429998Y-69362670D01*
X142430000Y-64937333D01*
X142433677Y-64900000D01*
X142419003Y-64751014D01*
X142375546Y-64607753D01*
X142304974Y-64475724D01*
X142236034Y-64391720D01*
X142242168Y-64376912D01*
X142305000Y-64061033D01*
X142305000Y-63738967D01*
X142242168Y-63423088D01*
X142118918Y-63125537D01*
X141939987Y-62857748D01*
X141742239Y-62660000D01*
X145855199Y-62660000D01*
X146603823Y-63408624D01*
X146597832Y-63423088D01*
X146535000Y-63738967D01*
X146535000Y-64061033D01*
X146597832Y-64376912D01*
X146603966Y-64391721D01*
X146535026Y-64475724D01*
X146492360Y-64555546D01*
X146464454Y-64607754D01*
X146420997Y-64751015D01*
X146410000Y-64862668D01*
X146410000Y-64862678D01*
X146406324Y-64900000D01*
X146410000Y-64937323D01*
X146410002Y-69362669D01*
X146406325Y-69400001D01*
X146410002Y-69437333D01*
X146410002Y-69437334D01*
X146420999Y-69548987D01*
X146434181Y-69592443D01*
X146464455Y-69692247D01*
X146535027Y-69824277D01*
X146588142Y-69888997D01*
X146603966Y-69908279D01*
X146597832Y-69923088D01*
X146535000Y-70238967D01*
X146535000Y-70561033D01*
X146597832Y-70876912D01*
X146721082Y-71174463D01*
X146900013Y-71442252D01*
X147127748Y-71669987D01*
X147395537Y-71848918D01*
X147693088Y-71972168D01*
X148008967Y-72035000D01*
X148331033Y-72035000D01*
X148646912Y-71972168D01*
X148944463Y-71848918D01*
X149212252Y-71669987D01*
X149439987Y-71442252D01*
X149618918Y-71174463D01*
X149742168Y-70876912D01*
X149805000Y-70561033D01*
X149805000Y-70238967D01*
X151035000Y-70238967D01*
X151035000Y-70561033D01*
X151097832Y-70876912D01*
X151221082Y-71174463D01*
X151400013Y-71442252D01*
X151627748Y-71669987D01*
X151895537Y-71848918D01*
X152193088Y-71972168D01*
X152508967Y-72035000D01*
X152831033Y-72035000D01*
X153146912Y-71972168D01*
X153444463Y-71848918D01*
X153712252Y-71669987D01*
X153939987Y-71442252D01*
X154118918Y-71174463D01*
X154242168Y-70876912D01*
X154305000Y-70561033D01*
X154305000Y-70238967D01*
X154242168Y-69923088D01*
X154165903Y-69738967D01*
X155035000Y-69738967D01*
X155035000Y-70061033D01*
X155097832Y-70376912D01*
X155221082Y-70674463D01*
X155400013Y-70942252D01*
X155627748Y-71169987D01*
X155895537Y-71348918D01*
X156193088Y-71472168D01*
X156508967Y-71535000D01*
X156831033Y-71535000D01*
X157146912Y-71472168D01*
X157444463Y-71348918D01*
X157712252Y-71169987D01*
X157939987Y-70942252D01*
X158118918Y-70674463D01*
X158242168Y-70376912D01*
X158305000Y-70061033D01*
X158305000Y-69738967D01*
X158242168Y-69423088D01*
X158118918Y-69125537D01*
X157939987Y-68857748D01*
X157712252Y-68630013D01*
X157444463Y-68451082D01*
X157146912Y-68327832D01*
X156831033Y-68265000D01*
X156508967Y-68265000D01*
X156193088Y-68327832D01*
X155895537Y-68451082D01*
X155627748Y-68630013D01*
X155400013Y-68857748D01*
X155221082Y-69125537D01*
X155097832Y-69423088D01*
X155035000Y-69738967D01*
X154165903Y-69738967D01*
X154118918Y-69625537D01*
X153939987Y-69357748D01*
X153712252Y-69130013D01*
X153444463Y-68951082D01*
X153146912Y-68827832D01*
X152831033Y-68765000D01*
X152508967Y-68765000D01*
X152193088Y-68827832D01*
X151895537Y-68951082D01*
X151627748Y-69130013D01*
X151400013Y-69357748D01*
X151221082Y-69625537D01*
X151097832Y-69923088D01*
X151035000Y-70238967D01*
X149805000Y-70238967D01*
X149742168Y-69923088D01*
X149681349Y-69776259D01*
X149869523Y-69757725D01*
X150224847Y-69649939D01*
X150552317Y-69474903D01*
X150839345Y-69239345D01*
X151074903Y-68952317D01*
X151249939Y-68624848D01*
X151357725Y-68269524D01*
X151385000Y-67992597D01*
X151385000Y-66307403D01*
X151357725Y-66030476D01*
X151249939Y-65675152D01*
X151074903Y-65347683D01*
X150839345Y-65060655D01*
X150552317Y-64825097D01*
X150224848Y-64650061D01*
X149869524Y-64542275D01*
X149681349Y-64523741D01*
X149742168Y-64376912D01*
X149805000Y-64061033D01*
X149805000Y-63738967D01*
X151035000Y-63738967D01*
X151035000Y-64061033D01*
X151097832Y-64376912D01*
X151221082Y-64674463D01*
X151400013Y-64942252D01*
X151627748Y-65169987D01*
X151895537Y-65348918D01*
X152193088Y-65472168D01*
X152508967Y-65535000D01*
X152831033Y-65535000D01*
X153146912Y-65472168D01*
X153444463Y-65348918D01*
X153712252Y-65169987D01*
X153939987Y-64942252D01*
X154118918Y-64674463D01*
X154242168Y-64376912D01*
X154305000Y-64061033D01*
X154305000Y-63738967D01*
X154267027Y-63548061D01*
X154535000Y-63548061D01*
X154535000Y-63751939D01*
X154574774Y-63951898D01*
X154652795Y-64140256D01*
X154766063Y-64309774D01*
X154910226Y-64453937D01*
X155079744Y-64567205D01*
X155268102Y-64645226D01*
X155468061Y-64685000D01*
X155671939Y-64685000D01*
X155871898Y-64645226D01*
X156060256Y-64567205D01*
X156140774Y-64513405D01*
X156189463Y-64604494D01*
X156268815Y-64701185D01*
X156365506Y-64780537D01*
X156475820Y-64839502D01*
X156595518Y-64875812D01*
X156720000Y-64888072D01*
X158220000Y-64888072D01*
X158344482Y-64875812D01*
X158464180Y-64839502D01*
X158574494Y-64780537D01*
X158671185Y-64701185D01*
X158750537Y-64604494D01*
X158809502Y-64494180D01*
X158845812Y-64374482D01*
X158858072Y-64250000D01*
X158858072Y-63250000D01*
X158845812Y-63125518D01*
X158809502Y-63005820D01*
X158750537Y-62895506D01*
X158671185Y-62798815D01*
X158574494Y-62719463D01*
X158464180Y-62660498D01*
X158344482Y-62624188D01*
X158220000Y-62611928D01*
X156720000Y-62611928D01*
X156595518Y-62624188D01*
X156475820Y-62660498D01*
X156365506Y-62719463D01*
X156268815Y-62798815D01*
X156229920Y-62846209D01*
X156229774Y-62846063D01*
X156060256Y-62732795D01*
X155871898Y-62654774D01*
X155671939Y-62615000D01*
X155468061Y-62615000D01*
X155268102Y-62654774D01*
X155079744Y-62732795D01*
X154910226Y-62846063D01*
X154766063Y-62990226D01*
X154652795Y-63159744D01*
X154574774Y-63348102D01*
X154535000Y-63548061D01*
X154267027Y-63548061D01*
X154242168Y-63423088D01*
X154118918Y-63125537D01*
X153939987Y-62857748D01*
X153712252Y-62630013D01*
X153444463Y-62451082D01*
X153146912Y-62327832D01*
X152831033Y-62265000D01*
X152508967Y-62265000D01*
X152193088Y-62327832D01*
X151895537Y-62451082D01*
X151627748Y-62630013D01*
X151400013Y-62857748D01*
X151221082Y-63125537D01*
X151097832Y-63423088D01*
X151035000Y-63738967D01*
X149805000Y-63738967D01*
X149742168Y-63423088D01*
X149618918Y-63125537D01*
X149439987Y-62857748D01*
X149212252Y-62630013D01*
X148944463Y-62451082D01*
X148646912Y-62327832D01*
X148331033Y-62265000D01*
X148008967Y-62265000D01*
X147693088Y-62327832D01*
X147678624Y-62333823D01*
X147121710Y-61776909D01*
X147396912Y-61722168D01*
X147694463Y-61598918D01*
X147962252Y-61419987D01*
X148189987Y-61192252D01*
X148368918Y-60924463D01*
X148492168Y-60626912D01*
X148555000Y-60311033D01*
X148555000Y-59988967D01*
X148492168Y-59673088D01*
X148368918Y-59375537D01*
X148189987Y-59107748D01*
X147962252Y-58880013D01*
X147694463Y-58701082D01*
X147396912Y-58577832D01*
X147081033Y-58515000D01*
X146758967Y-58515000D01*
X146443088Y-58577832D01*
X146145537Y-58701082D01*
X145877748Y-58880013D01*
X145650013Y-59107748D01*
X145471082Y-59375537D01*
X145347832Y-59673088D01*
X145285000Y-59988967D01*
X145285000Y-60311033D01*
X145347832Y-60626912D01*
X145471082Y-60924463D01*
X145615099Y-61140000D01*
X143224901Y-61140000D01*
X143368918Y-60924463D01*
X143375052Y-60909655D01*
X143483199Y-60899003D01*
X143626460Y-60855546D01*
X143758489Y-60784974D01*
X143874214Y-60690001D01*
X143898017Y-60660998D01*
X144931004Y-59628011D01*
X144960001Y-59604214D01*
X145054974Y-59488489D01*
X145125546Y-59356460D01*
X145169003Y-59213199D01*
X145180000Y-59101546D01*
X145180000Y-59101538D01*
X145183676Y-59064213D01*
X145180000Y-59026888D01*
X145180000Y-58464801D01*
X145984802Y-57660000D01*
X146215091Y-57660000D01*
X146221082Y-57674463D01*
X146400013Y-57942252D01*
X146627748Y-58169987D01*
X146895537Y-58348918D01*
X147193088Y-58472168D01*
X147508967Y-58535000D01*
X147831033Y-58535000D01*
X148146912Y-58472168D01*
X148444463Y-58348918D01*
X148712252Y-58169987D01*
X148939987Y-57942252D01*
X149118918Y-57674463D01*
X149242168Y-57376912D01*
X149305000Y-57061033D01*
X149305000Y-56738967D01*
X149242168Y-56423088D01*
X149118918Y-56125537D01*
X148939987Y-55857748D01*
X148742239Y-55660000D01*
X149216289Y-55660000D01*
X149260226Y-55703937D01*
X149429744Y-55817205D01*
X149618102Y-55895226D01*
X149818061Y-55935000D01*
X150021939Y-55935000D01*
X150221898Y-55895226D01*
X150410256Y-55817205D01*
X150579774Y-55703937D01*
X150723937Y-55559774D01*
X150837205Y-55390256D01*
X150915226Y-55201898D01*
X150955000Y-55001939D01*
X150955000Y-54798061D01*
X150915226Y-54598102D01*
X150837205Y-54409744D01*
X150723937Y-54240226D01*
X150579774Y-54096063D01*
X150410256Y-53982795D01*
X150221898Y-53904774D01*
X150021939Y-53865000D01*
X149818061Y-53865000D01*
X149618102Y-53904774D01*
X149429744Y-53982795D01*
X149260226Y-54096063D01*
X149216289Y-54140000D01*
X140207333Y-54140000D01*
X140170000Y-54136323D01*
X140132667Y-54140000D01*
X140021014Y-54150997D01*
X139877753Y-54194454D01*
X139745724Y-54265026D01*
X139629999Y-54359999D01*
X139606201Y-54388997D01*
X131912563Y-62082636D01*
X119881653Y-62082636D01*
X119837716Y-62038699D01*
X119668198Y-61925431D01*
X119479840Y-61847410D01*
X119279881Y-61807636D01*
X119076003Y-61807636D01*
X118876044Y-61847410D01*
X118687686Y-61925431D01*
X118518168Y-62038699D01*
X118374005Y-62182862D01*
X118260737Y-62352380D01*
X118182716Y-62540738D01*
X118142942Y-62740697D01*
X118142942Y-62944575D01*
X118182716Y-63144534D01*
X118260737Y-63332892D01*
X118242795Y-63359744D01*
X118164774Y-63548102D01*
X118125000Y-63748061D01*
X118125000Y-63951939D01*
X118164774Y-64151898D01*
X118242795Y-64340256D01*
X118249306Y-64350000D01*
X118242795Y-64359744D01*
X118164774Y-64548102D01*
X118125000Y-64748061D01*
X118125000Y-64951939D01*
X118164774Y-65151898D01*
X118242795Y-65340256D01*
X118249306Y-65350000D01*
X118242795Y-65359744D01*
X118164774Y-65548102D01*
X118125000Y-65748061D01*
X118125000Y-65951939D01*
X118164774Y-66151898D01*
X118242795Y-66340256D01*
X118254306Y-66357483D01*
X118252795Y-66359744D01*
X118174774Y-66548102D01*
X118135000Y-66748061D01*
X118135000Y-66951939D01*
X118174774Y-67151898D01*
X118252795Y-67340256D01*
X118366063Y-67509774D01*
X118421013Y-67564724D01*
X118464454Y-67707932D01*
X118487977Y-67751939D01*
X118535026Y-67839961D01*
X118606201Y-67926687D01*
X118630000Y-67955686D01*
X118658998Y-67979484D01*
X122210162Y-71530648D01*
X121998088Y-71572832D01*
X121700537Y-71696082D01*
X121432748Y-71875013D01*
X121205013Y-72102748D01*
X121026082Y-72370537D01*
X120902832Y-72668088D01*
X120840000Y-72983967D01*
X120840000Y-73306033D01*
X120902832Y-73621912D01*
X121026082Y-73919463D01*
X121205013Y-74187252D01*
X121432748Y-74414987D01*
X121700537Y-74593918D01*
X121998088Y-74717168D01*
X122313967Y-74780000D01*
X122636033Y-74780000D01*
X122951912Y-74717168D01*
X123249463Y-74593918D01*
X123517252Y-74414987D01*
X123744987Y-74187252D01*
X123923918Y-73919463D01*
X124047168Y-73621912D01*
X124089352Y-73409839D01*
X126340515Y-75661002D01*
X126364314Y-75690001D01*
X126480039Y-75784974D01*
X126612068Y-75855546D01*
X126755329Y-75899003D01*
X126866982Y-75910000D01*
X126866991Y-75910000D01*
X126904314Y-75913676D01*
X126941637Y-75910000D01*
X137190986Y-75910000D01*
X139191988Y-77911003D01*
X139215786Y-77940001D01*
X139244784Y-77963799D01*
X139331511Y-78034974D01*
X139463540Y-78105546D01*
X139606801Y-78149003D01*
X139714948Y-78159655D01*
X139721082Y-78174463D01*
X139900013Y-78442252D01*
X140127748Y-78669987D01*
X140395537Y-78848918D01*
X140693088Y-78972168D01*
X140908420Y-79015000D01*
X129867572Y-79015000D01*
X130017252Y-78914987D01*
X130244987Y-78687252D01*
X130423918Y-78419463D01*
X130547168Y-78121912D01*
X130610000Y-77806033D01*
X130610000Y-77483967D01*
X130547168Y-77168088D01*
X130423918Y-76870537D01*
X130244987Y-76602748D01*
X130017252Y-76375013D01*
X129749463Y-76196082D01*
X129451912Y-76072832D01*
X129136033Y-76010000D01*
X128813967Y-76010000D01*
X128498088Y-76072832D01*
X128200537Y-76196082D01*
X127932748Y-76375013D01*
X127705013Y-76602748D01*
X127526082Y-76870537D01*
X127402832Y-77168088D01*
X127340000Y-77483967D01*
X127340000Y-77806033D01*
X127402832Y-78121912D01*
X127526082Y-78419463D01*
X127705013Y-78687252D01*
X127932748Y-78914987D01*
X128082428Y-79015000D01*
X123367572Y-79015000D01*
X123517252Y-78914987D01*
X123744987Y-78687252D01*
X123923918Y-78419463D01*
X124047168Y-78121912D01*
X124110000Y-77806033D01*
X124110000Y-77483967D01*
X124047168Y-77168088D01*
X123923918Y-76870537D01*
X123744987Y-76602748D01*
X123517252Y-76375013D01*
X123249463Y-76196082D01*
X122951912Y-76072832D01*
X122636033Y-76010000D01*
X122313967Y-76010000D01*
X121998088Y-76072832D01*
X121700537Y-76196082D01*
X121432748Y-76375013D01*
X121205013Y-76602748D01*
X121026082Y-76870537D01*
X120902832Y-77168088D01*
X120840000Y-77483967D01*
X120840000Y-77806033D01*
X120902832Y-78121912D01*
X121026082Y-78419463D01*
X121205013Y-78687252D01*
X121432748Y-78914987D01*
X121582428Y-79015000D01*
X109786579Y-79015000D01*
X105055000Y-74283422D01*
X105055000Y-74188454D01*
X105087205Y-74140256D01*
X105165226Y-73951898D01*
X105205000Y-73751939D01*
X105205000Y-73548061D01*
X105165226Y-73348102D01*
X105087205Y-73159744D01*
X104973937Y-72990226D01*
X104829774Y-72846063D01*
X104660256Y-72732795D01*
X104471898Y-72654774D01*
X104271939Y-72615000D01*
X104068061Y-72615000D01*
X103868102Y-72654774D01*
X103679744Y-72732795D01*
X103510226Y-72846063D01*
X103366063Y-72990226D01*
X103252795Y-73159744D01*
X103174774Y-73348102D01*
X103135000Y-73548061D01*
X95830000Y-73548061D01*
X95830000Y-67531759D01*
X95857599Y-67546511D01*
X96090398Y-67617130D01*
X96271835Y-67635000D01*
X97093165Y-67635000D01*
X97274602Y-67617130D01*
X97507401Y-67546511D01*
X97721949Y-67431833D01*
X97910002Y-67277502D01*
X98064333Y-67089449D01*
X98179011Y-66874901D01*
X98249630Y-66642102D01*
X98273475Y-66400000D01*
X98249630Y-66157898D01*
X98246617Y-66147965D01*
X98326119Y-66266949D01*
X98515551Y-66456381D01*
X98738299Y-66605216D01*
X98985803Y-66707736D01*
X99248552Y-66760000D01*
X99516448Y-66760000D01*
X99779197Y-66707736D01*
X100026701Y-66605216D01*
X100249449Y-66456381D01*
X100438881Y-66266949D01*
X100587716Y-66044201D01*
X100690236Y-65796697D01*
X100742500Y-65533948D01*
X100742500Y-65423061D01*
X111280000Y-65423061D01*
X111280000Y-65626939D01*
X111319774Y-65826898D01*
X111397795Y-66015256D01*
X111511063Y-66184774D01*
X111555000Y-66228711D01*
X111555001Y-73872562D01*
X111510498Y-73955820D01*
X111474188Y-74075518D01*
X111461928Y-74200000D01*
X111461928Y-75900000D01*
X111474188Y-76024482D01*
X111510498Y-76144180D01*
X111569463Y-76254494D01*
X111648815Y-76351185D01*
X111745506Y-76430537D01*
X111855820Y-76489502D01*
X111975518Y-76525812D01*
X112100000Y-76538072D01*
X113800000Y-76538072D01*
X113924482Y-76525812D01*
X114044180Y-76489502D01*
X114154494Y-76430537D01*
X114251185Y-76351185D01*
X114330537Y-76254494D01*
X114389502Y-76144180D01*
X114411513Y-76071620D01*
X114543368Y-76203475D01*
X114786589Y-76365990D01*
X115056842Y-76477932D01*
X115343740Y-76535000D01*
X115636260Y-76535000D01*
X115923158Y-76477932D01*
X116193411Y-76365990D01*
X116436632Y-76203475D01*
X116643475Y-75996632D01*
X116760000Y-75822240D01*
X116876525Y-75996632D01*
X117083368Y-76203475D01*
X117326589Y-76365990D01*
X117596842Y-76477932D01*
X117883740Y-76535000D01*
X118176260Y-76535000D01*
X118463158Y-76477932D01*
X118733411Y-76365990D01*
X118976632Y-76203475D01*
X119183475Y-75996632D01*
X119345990Y-75753411D01*
X119457932Y-75483158D01*
X119515000Y-75196260D01*
X119515000Y-74903740D01*
X119457932Y-74616842D01*
X119345990Y-74346589D01*
X119183475Y-74103368D01*
X118976632Y-73896525D01*
X118733411Y-73734010D01*
X118463158Y-73622068D01*
X118176260Y-73565000D01*
X117883740Y-73565000D01*
X117663592Y-73608790D01*
X115615000Y-71560199D01*
X115615000Y-66228711D01*
X115658937Y-66184774D01*
X115772205Y-66015256D01*
X115850226Y-65826898D01*
X115890000Y-65626939D01*
X115890000Y-65423061D01*
X115850226Y-65223102D01*
X115772205Y-65034744D01*
X115658937Y-64865226D01*
X115514774Y-64721063D01*
X115345256Y-64607795D01*
X115156898Y-64529774D01*
X114956939Y-64490000D01*
X114753061Y-64490000D01*
X114553102Y-64529774D01*
X114364744Y-64607795D01*
X114220000Y-64704510D01*
X114075256Y-64607795D01*
X113886898Y-64529774D01*
X113686939Y-64490000D01*
X113483061Y-64490000D01*
X113283102Y-64529774D01*
X113094744Y-64607795D01*
X112950000Y-64704510D01*
X112805256Y-64607795D01*
X112616898Y-64529774D01*
X112416939Y-64490000D01*
X112213061Y-64490000D01*
X112013102Y-64529774D01*
X111824744Y-64607795D01*
X111655226Y-64721063D01*
X111511063Y-64865226D01*
X111397795Y-65034744D01*
X111319774Y-65223102D01*
X111280000Y-65423061D01*
X100742500Y-65423061D01*
X100742500Y-65266052D01*
X100690236Y-65003303D01*
X100587716Y-64755799D01*
X100438881Y-64533051D01*
X100249449Y-64343619D01*
X100026701Y-64194784D01*
X99779197Y-64092264D01*
X99516448Y-64040000D01*
X99248552Y-64040000D01*
X98985803Y-64092264D01*
X98738299Y-64194784D01*
X98515551Y-64343619D01*
X98326119Y-64533051D01*
X98177284Y-64755799D01*
X98074764Y-65003303D01*
X98022500Y-65266052D01*
X98022500Y-65533948D01*
X98055484Y-65699768D01*
X97910002Y-65522498D01*
X97721949Y-65368167D01*
X97507401Y-65253489D01*
X97274602Y-65182870D01*
X97093165Y-65165000D01*
X96271835Y-65165000D01*
X96090398Y-65182870D01*
X95857599Y-65253489D01*
X95830000Y-65268241D01*
X95830000Y-60531759D01*
X95857599Y-60546511D01*
X96090398Y-60617130D01*
X96271835Y-60635000D01*
X97093165Y-60635000D01*
X97274602Y-60617130D01*
X97507401Y-60546511D01*
X97721949Y-60431833D01*
X97910002Y-60277502D01*
X98055484Y-60100232D01*
X98022500Y-60266052D01*
X98022500Y-60533948D01*
X98074764Y-60796697D01*
X98177284Y-61044201D01*
X98326119Y-61266949D01*
X98515551Y-61456381D01*
X98738299Y-61605216D01*
X98985803Y-61707736D01*
X99248552Y-61760000D01*
X99516448Y-61760000D01*
X99779197Y-61707736D01*
X100026701Y-61605216D01*
X100249449Y-61456381D01*
X100438881Y-61266949D01*
X100587716Y-61044201D01*
X100690236Y-60796697D01*
X100742500Y-60533948D01*
X100742500Y-60266052D01*
X100690236Y-60003303D01*
X100587716Y-59755799D01*
X100438881Y-59533051D01*
X100249449Y-59343619D01*
X100026701Y-59194784D01*
X99779197Y-59092264D01*
X99516448Y-59040000D01*
X99248552Y-59040000D01*
X98985803Y-59092264D01*
X98738299Y-59194784D01*
X98515551Y-59343619D01*
X98326119Y-59533051D01*
X98246617Y-59652035D01*
X98249630Y-59642102D01*
X98273475Y-59400000D01*
X98249630Y-59157898D01*
X98179011Y-58925099D01*
X98064333Y-58710551D01*
X97910002Y-58522498D01*
X97721949Y-58368167D01*
X97507401Y-58253489D01*
X97274602Y-58182870D01*
X97093165Y-58165000D01*
X96271835Y-58165000D01*
X96090398Y-58182870D01*
X95857599Y-58253489D01*
X95830000Y-58268241D01*
X95830000Y-53429872D01*
X96935000Y-53429872D01*
X96935000Y-53870128D01*
X97020890Y-54301925D01*
X97189369Y-54708669D01*
X97433962Y-55074729D01*
X97745271Y-55386038D01*
X98111331Y-55630631D01*
X98518075Y-55799110D01*
X98949872Y-55885000D01*
X99390128Y-55885000D01*
X99821925Y-55799110D01*
X100228669Y-55630631D01*
X100594729Y-55386038D01*
X100762027Y-55218740D01*
X121625000Y-55218740D01*
X121625000Y-55511260D01*
X121682068Y-55798158D01*
X121794010Y-56068411D01*
X121956525Y-56311632D01*
X122163368Y-56518475D01*
X122406589Y-56680990D01*
X122676842Y-56792932D01*
X122963740Y-56850000D01*
X123256260Y-56850000D01*
X123543158Y-56792932D01*
X123813411Y-56680990D01*
X124056632Y-56518475D01*
X124188487Y-56386620D01*
X124210498Y-56459180D01*
X124269463Y-56569494D01*
X124348815Y-56666185D01*
X124445506Y-56745537D01*
X124555820Y-56804502D01*
X124675518Y-56840812D01*
X124800000Y-56853072D01*
X125364250Y-56850000D01*
X125523000Y-56691250D01*
X125523000Y-55492000D01*
X125777000Y-55492000D01*
X125777000Y-56691250D01*
X125935750Y-56850000D01*
X126500000Y-56853072D01*
X126624482Y-56840812D01*
X126744180Y-56804502D01*
X126854494Y-56745537D01*
X126951185Y-56666185D01*
X127030537Y-56569494D01*
X127089502Y-56459180D01*
X127125812Y-56339482D01*
X127138072Y-56215000D01*
X127135000Y-55650750D01*
X126976250Y-55492000D01*
X125777000Y-55492000D01*
X125523000Y-55492000D01*
X125503000Y-55492000D01*
X125503000Y-55238000D01*
X125523000Y-55238000D01*
X125523000Y-54038750D01*
X125777000Y-54038750D01*
X125777000Y-55238000D01*
X126976250Y-55238000D01*
X127135000Y-55079250D01*
X127138072Y-54515000D01*
X127125812Y-54390518D01*
X127089502Y-54270820D01*
X127030537Y-54160506D01*
X126951185Y-54063815D01*
X126854494Y-53984463D01*
X126744180Y-53925498D01*
X126624482Y-53889188D01*
X126500000Y-53876928D01*
X125935750Y-53880000D01*
X125777000Y-54038750D01*
X125523000Y-54038750D01*
X125364250Y-53880000D01*
X124800000Y-53876928D01*
X124675518Y-53889188D01*
X124555820Y-53925498D01*
X124445506Y-53984463D01*
X124348815Y-54063815D01*
X124269463Y-54160506D01*
X124210498Y-54270820D01*
X124188487Y-54343380D01*
X124056632Y-54211525D01*
X123813411Y-54049010D01*
X123543158Y-53937068D01*
X123256260Y-53880000D01*
X122963740Y-53880000D01*
X122676842Y-53937068D01*
X122406589Y-54049010D01*
X122163368Y-54211525D01*
X121956525Y-54418368D01*
X121794010Y-54661589D01*
X121682068Y-54931842D01*
X121625000Y-55218740D01*
X100762027Y-55218740D01*
X100906038Y-55074729D01*
X101150631Y-54708669D01*
X101319110Y-54301925D01*
X101405000Y-53870128D01*
X101405000Y-53429872D01*
X101319110Y-52998075D01*
X101200783Y-52712408D01*
X108263000Y-52712408D01*
X108263000Y-52987592D01*
X108316686Y-53257490D01*
X108421995Y-53511727D01*
X108574880Y-53740535D01*
X108769465Y-53935120D01*
X108998273Y-54088005D01*
X109252510Y-54193314D01*
X109522408Y-54247000D01*
X109797592Y-54247000D01*
X110067490Y-54193314D01*
X110321727Y-54088005D01*
X110550535Y-53935120D01*
X110670090Y-53815565D01*
X111414040Y-53815565D01*
X111481020Y-54055656D01*
X111730048Y-54172756D01*
X111997135Y-54239023D01*
X112272017Y-54251910D01*
X112544133Y-54210922D01*
X112803023Y-54117636D01*
X112918980Y-54055656D01*
X112985960Y-53815565D01*
X112200000Y-53029605D01*
X111414040Y-53815565D01*
X110670090Y-53815565D01*
X110745120Y-53740535D01*
X110898005Y-53511727D01*
X110927692Y-53440057D01*
X110932364Y-53453023D01*
X110994344Y-53568980D01*
X111234435Y-53635960D01*
X112020395Y-52850000D01*
X112379605Y-52850000D01*
X113165565Y-53635960D01*
X113405656Y-53568980D01*
X113469485Y-53433240D01*
X113501995Y-53511727D01*
X113654880Y-53740535D01*
X113849465Y-53935120D01*
X114078273Y-54088005D01*
X114332510Y-54193314D01*
X114602408Y-54247000D01*
X114877592Y-54247000D01*
X115147490Y-54193314D01*
X115401727Y-54088005D01*
X115630535Y-53935120D01*
X115825120Y-53740535D01*
X115978005Y-53511727D01*
X116010000Y-53434485D01*
X116041995Y-53511727D01*
X116194880Y-53740535D01*
X116389465Y-53935120D01*
X116618273Y-54088005D01*
X116872510Y-54193314D01*
X117142408Y-54247000D01*
X117417592Y-54247000D01*
X117687490Y-54193314D01*
X117941727Y-54088005D01*
X118170535Y-53935120D01*
X118365120Y-53740535D01*
X118518005Y-53511727D01*
X118623314Y-53257490D01*
X118677000Y-52987592D01*
X118677000Y-52712408D01*
X118623314Y-52442510D01*
X118539004Y-52238967D01*
X139535000Y-52238967D01*
X139535000Y-52561033D01*
X139597832Y-52876912D01*
X139721082Y-53174463D01*
X139900013Y-53442252D01*
X140127748Y-53669987D01*
X140395537Y-53848918D01*
X140693088Y-53972168D01*
X141008967Y-54035000D01*
X141331033Y-54035000D01*
X141646912Y-53972168D01*
X141944463Y-53848918D01*
X142212252Y-53669987D01*
X142439987Y-53442252D01*
X142618918Y-53174463D01*
X142742168Y-52876912D01*
X142805000Y-52561033D01*
X142805000Y-52238967D01*
X146035000Y-52238967D01*
X146035000Y-52561033D01*
X146097832Y-52876912D01*
X146221082Y-53174463D01*
X146400013Y-53442252D01*
X146627748Y-53669987D01*
X146895537Y-53848918D01*
X147193088Y-53972168D01*
X147508967Y-54035000D01*
X147831033Y-54035000D01*
X148146912Y-53972168D01*
X148444463Y-53848918D01*
X148712252Y-53669987D01*
X148939987Y-53442252D01*
X149118918Y-53174463D01*
X149171275Y-53048061D01*
X150635000Y-53048061D01*
X150635000Y-53251939D01*
X150674774Y-53451898D01*
X150752795Y-53640256D01*
X150866063Y-53809774D01*
X151010226Y-53953937D01*
X151179744Y-54067205D01*
X151368102Y-54145226D01*
X151568061Y-54185000D01*
X151771939Y-54185000D01*
X151971898Y-54145226D01*
X152160256Y-54067205D01*
X152329774Y-53953937D01*
X152473937Y-53809774D01*
X152587205Y-53640256D01*
X152665226Y-53451898D01*
X152669607Y-53429872D01*
X158935000Y-53429872D01*
X158935000Y-53870128D01*
X159020890Y-54301925D01*
X159189369Y-54708669D01*
X159433962Y-55074729D01*
X159745271Y-55386038D01*
X160111331Y-55630631D01*
X160518075Y-55799110D01*
X160949872Y-55885000D01*
X161390128Y-55885000D01*
X161821925Y-55799110D01*
X162228669Y-55630631D01*
X162594729Y-55386038D01*
X162906038Y-55074729D01*
X163150631Y-54708669D01*
X163319110Y-54301925D01*
X163405000Y-53870128D01*
X163405000Y-53429872D01*
X163319110Y-52998075D01*
X163150631Y-52591331D01*
X162906038Y-52225271D01*
X162594729Y-51913962D01*
X162228669Y-51669369D01*
X161821925Y-51500890D01*
X161390128Y-51415000D01*
X160949872Y-51415000D01*
X160518075Y-51500890D01*
X160111331Y-51669369D01*
X159745271Y-51913962D01*
X159433962Y-52225271D01*
X159189369Y-52591331D01*
X159020890Y-52998075D01*
X158935000Y-53429872D01*
X152669607Y-53429872D01*
X152705000Y-53251939D01*
X152705000Y-53048061D01*
X152665226Y-52848102D01*
X152587205Y-52659744D01*
X152473937Y-52490226D01*
X152329774Y-52346063D01*
X152160256Y-52232795D01*
X151971898Y-52154774D01*
X151771939Y-52115000D01*
X151568061Y-52115000D01*
X151368102Y-52154774D01*
X151179744Y-52232795D01*
X151010226Y-52346063D01*
X150866063Y-52490226D01*
X150752795Y-52659744D01*
X150674774Y-52848102D01*
X150635000Y-53048061D01*
X149171275Y-53048061D01*
X149242168Y-52876912D01*
X149305000Y-52561033D01*
X149305000Y-52238967D01*
X149242168Y-51923088D01*
X149118918Y-51625537D01*
X148939987Y-51357748D01*
X148712252Y-51130013D01*
X148444463Y-50951082D01*
X148146912Y-50827832D01*
X147831033Y-50765000D01*
X147508967Y-50765000D01*
X147193088Y-50827832D01*
X146895537Y-50951082D01*
X146627748Y-51130013D01*
X146400013Y-51357748D01*
X146221082Y-51625537D01*
X146097832Y-51923088D01*
X146035000Y-52238967D01*
X142805000Y-52238967D01*
X142742168Y-51923088D01*
X142618918Y-51625537D01*
X142439987Y-51357748D01*
X142212252Y-51130013D01*
X141944463Y-50951082D01*
X141646912Y-50827832D01*
X141331033Y-50765000D01*
X141008967Y-50765000D01*
X140693088Y-50827832D01*
X140395537Y-50951082D01*
X140127748Y-51130013D01*
X139900013Y-51357748D01*
X139721082Y-51625537D01*
X139597832Y-51923088D01*
X139535000Y-52238967D01*
X118539004Y-52238967D01*
X118518005Y-52188273D01*
X118365120Y-51959465D01*
X118170535Y-51764880D01*
X117941727Y-51611995D01*
X117687490Y-51506686D01*
X117417592Y-51453000D01*
X117142408Y-51453000D01*
X116872510Y-51506686D01*
X116618273Y-51611995D01*
X116389465Y-51764880D01*
X116194880Y-51959465D01*
X116041995Y-52188273D01*
X116010000Y-52265515D01*
X115978005Y-52188273D01*
X115825120Y-51959465D01*
X115630535Y-51764880D01*
X115401727Y-51611995D01*
X115147490Y-51506686D01*
X114877592Y-51453000D01*
X114602408Y-51453000D01*
X114332510Y-51506686D01*
X114078273Y-51611995D01*
X113849465Y-51764880D01*
X113654880Y-51959465D01*
X113501995Y-52188273D01*
X113472308Y-52259943D01*
X113467636Y-52246977D01*
X113405656Y-52131020D01*
X113165565Y-52064040D01*
X112379605Y-52850000D01*
X112020395Y-52850000D01*
X111234435Y-52064040D01*
X110994344Y-52131020D01*
X110930515Y-52266760D01*
X110898005Y-52188273D01*
X110745120Y-51959465D01*
X110670090Y-51884435D01*
X111414040Y-51884435D01*
X112200000Y-52670395D01*
X112985960Y-51884435D01*
X112918980Y-51644344D01*
X112669952Y-51527244D01*
X112402865Y-51460977D01*
X112127983Y-51448090D01*
X111855867Y-51489078D01*
X111596977Y-51582364D01*
X111481020Y-51644344D01*
X111414040Y-51884435D01*
X110670090Y-51884435D01*
X110550535Y-51764880D01*
X110321727Y-51611995D01*
X110067490Y-51506686D01*
X109797592Y-51453000D01*
X109522408Y-51453000D01*
X109252510Y-51506686D01*
X108998273Y-51611995D01*
X108769465Y-51764880D01*
X108574880Y-51959465D01*
X108421995Y-52188273D01*
X108316686Y-52442510D01*
X108263000Y-52712408D01*
X101200783Y-52712408D01*
X101150631Y-52591331D01*
X100906038Y-52225271D01*
X100594729Y-51913962D01*
X100228669Y-51669369D01*
X99821925Y-51500890D01*
X99390128Y-51415000D01*
X98949872Y-51415000D01*
X98518075Y-51500890D01*
X98111331Y-51669369D01*
X97745271Y-51913962D01*
X97433962Y-52225271D01*
X97189369Y-52591331D01*
X97020890Y-52998075D01*
X96935000Y-53429872D01*
X95830000Y-53429872D01*
X95830000Y-50310000D01*
X164510000Y-50310000D01*
X164510001Y-68962531D01*
M02*
